<?xml version="1.0" encoding="UTF-8" standalone="no"?>
<!DOCTYPE svg PUBLIC "-//W3C//DTD SVG 1.1//EN"
 "http://www.w3.org/Graphics/SVG/1.1/DTD/svg11.dtd">
<!-- Generated by graphviz version 2.40.1 (20161225.0304)
 -->
<!-- Title: G Pages: 1 -->
<svg width="692pt" height="458pt"
 viewBox="0.00 0.00 692.31 458.00" xmlns="http://www.w3.org/2000/svg" xmlns:xlink="http://www.w3.org/1999/xlink">
<g id="graph0" class="graph" transform="scale(1 1) rotate(0) translate(36 422)">
<title>G</title>
<polygon fill="#ffffff" stroke="transparent" points="-36,36 -36,-422 656.3115,-422 656.3115,36 -36,36"/>
<g id="clust1" class="cluster">
<title>cluster_apis</title>
<polygon fill="none" stroke="#000000" points="483.9727,-177 483.9727,-231 612.3115,-231 612.3115,-177 483.9727,-177"/>
</g>
<g id="clust2" class="cluster">
<title>cluster_dependency</title>
<polygon fill="none" stroke="#000000" points="8,-8 8,-378 139.9727,-378 139.9727,-8 8,-8"/>
</g>
<!-- transactions_api -->
<g id="node1" class="node">
<title>transactions_api</title>
<polygon fill="none" stroke="#000000" points="491.9727,-186 491.9727,-222 604.3115,-222 604.3115,-186 491.9727,-186"/>
<text text-anchor="middle" x="548.1421" y="-199.8" font-family="Times,serif" font-size="14.00" fill="#000000">Transactions API</text>
</g>
<!-- uht -->
<g id="node2" class="node">
<title>uht</title>
<polygon fill="none" stroke="#000000" points="16,-17 16,-369 131.9727,-369 131.9727,-17 16,-17"/>
<text text-anchor="middle" x="38.3862" y="-188.8" font-family="Times,serif" font-size="14.00" fill="#000000">UHT</text>
<polyline fill="none" stroke="#000000" points="60.7725,-17 60.7725,-369 "/>
<text text-anchor="middle" x="96.3726" y="-353.8" font-family="Times,serif" font-size="14.00" fill="#000000">property</text>
<polyline fill="none" stroke="#000000" points="60.7725,-347 131.9727,-347 "/>
<text text-anchor="middle" x="96.3726" y="-331.8" font-family="Times,serif" font-size="14.00" fill="#000000">tenagree</text>
<polyline fill="none" stroke="#000000" points="60.7725,-325 131.9727,-325 "/>
<text text-anchor="middle" x="96.3726" y="-309.8" font-family="Times,serif" font-size="14.00" fill="#000000">househ</text>
<polyline fill="none" stroke="#000000" points="60.7725,-303 131.9727,-303 "/>
<text text-anchor="middle" x="96.3726" y="-287.8" font-family="Times,serif" font-size="14.00" fill="#000000">araction</text>
<polyline fill="none" stroke="#000000" points="60.7725,-281 131.9727,-281 "/>
<text text-anchor="middle" x="96.3726" y="-265.8" font-family="Times,serif" font-size="14.00" fill="#000000">raaction</text>
<polyline fill="none" stroke="#000000" points="60.7725,-259 131.9727,-259 "/>
<text text-anchor="middle" x="96.3726" y="-243.8" font-family="Times,serif" font-size="14.00" fill="#000000">debitem</text>
<polyline fill="none" stroke="#000000" points="60.7725,-237 131.9727,-237 "/>
<text text-anchor="middle" x="96.3726" y="-221.8" font-family="Times,serif" font-size="14.00" fill="#000000">debtype</text>
<polyline fill="none" stroke="#000000" points="60.7725,-215 131.9727,-215 "/>
<text text-anchor="middle" x="96.3726" y="-199.8" font-family="Times,serif" font-size="14.00" fill="#000000">rtrans</text>
<polyline fill="none" stroke="#000000" points="60.7725,-193 131.9727,-193 "/>
<text text-anchor="middle" x="96.3726" y="-177.8" font-family="Times,serif" font-size="14.00" fill="#000000">rectype</text>
<polyline fill="none" stroke="#000000" points="60.7725,-171 131.9727,-171 "/>
<text text-anchor="middle" x="96.3726" y="-155.8" font-family="Times,serif" font-size="14.00" fill="#000000">rmworder</text>
<polyline fill="none" stroke="#000000" points="60.7725,-149 131.9727,-149 "/>
<text text-anchor="middle" x="96.3726" y="-133.8" font-family="Times,serif" font-size="14.00" fill="#000000">rmtask</text>
<polyline fill="none" stroke="#000000" points="60.7725,-127 131.9727,-127 "/>
<text text-anchor="middle" x="96.3726" y="-111.8" font-family="Times,serif" font-size="14.00" fill="#000000">rmreqst</text>
<polyline fill="none" stroke="#000000" points="60.7725,-105 131.9727,-105 "/>
<text text-anchor="middle" x="96.3726" y="-89.8" font-family="Times,serif" font-size="14.00" fill="#000000">visit</text>
<polyline fill="none" stroke="#000000" points="60.7725,-83 131.9727,-83 "/>
<text text-anchor="middle" x="96.3726" y="-67.8" font-family="Times,serif" font-size="14.00" fill="#000000">supplier</text>
<polyline fill="none" stroke="#000000" points="60.7725,-61 131.9727,-61 "/>
<text text-anchor="middle" x="96.3726" y="-45.8" font-family="Times,serif" font-size="14.00" fill="#000000">member</text>
<polyline fill="none" stroke="#000000" points="60.7725,-39 131.9727,-39 "/>
<text text-anchor="middle" x="96.3726" y="-23.8" font-family="Times,serif" font-size="14.00" fill="#000000">raction</text>
</g>
<!-- transactions_api&#45;&gt;uht -->
<g id="edge1" class="edge">
<title>transactions_api&#45;&gt;uht:rtrans</title>
<path fill="none" stroke="#000000" d="M491.9371,-204C414.0812,-204 268.6947,-204 142.2184,-204"/>
<polygon fill="#000000" stroke="#000000" points="141.9864,-200.5001 131.9863,-204 141.9863,-207.5001 141.9864,-200.5001"/>
</g>
<!-- transactions_api&#45;&gt;uht -->
<g id="edge2" class="edge">
<title>transactions_api&#45;&gt;uht:debtype</title>
<path fill="none" stroke="#000000" d="M491.6502,-208.8825C413.7672,-215.193 268.6773,-225.442 142.2177,-225.9781"/>
<polygon fill="#000000" stroke="#000000" points="141.9788,-222.4785 131.9863,-226 141.9938,-229.4785 141.9788,-222.4785"/>
</g>
<!-- transactions_api&#45;&gt;uht -->
<g id="edge3" class="edge">
<title>transactions_api&#45;&gt;uht:rectype</title>
<path fill="none" stroke="#000000" d="M491.6502,-199.1175C413.7672,-192.807 268.6773,-182.558 142.2177,-182.0219"/>
<polygon fill="#000000" stroke="#000000" points="141.9938,-178.5215 131.9863,-182 141.9788,-185.5215 141.9938,-178.5215"/>
</g>
</g>
</svg>
