<?xml version="1.0" encoding="UTF-8" standalone="no"?>
<!DOCTYPE svg PUBLIC "-//W3C//DTD SVG 1.1//EN"
 "http://www.w3.org/Graphics/SVG/1.1/DTD/svg11.dtd">
<!-- Generated by graphviz version 2.40.1 (20161225.0304)
 -->
<!-- Title: G Pages: 1 -->
<svg width="669pt" height="465pt"
 viewBox="0.00 0.00 669.48 465.00" xmlns="http://www.w3.org/2000/svg" xmlns:xlink="http://www.w3.org/1999/xlink">
<g id="graph0" class="graph" transform="scale(1 1) rotate(0) translate(36 429)">
<title>G</title>
<polygon fill="#ffffff" stroke="transparent" points="-36,36 -36,-429 633.4795,-429 633.4795,36 -36,36"/>
<g id="clust1" class="cluster">
<title>cluster_apis</title>
<polygon fill="#d3d3d3" stroke="#d3d3d3" points="483.9727,-331 483.9727,-385 589.4795,-385 589.4795,-331 483.9727,-331"/>
</g>
<g id="clust2" class="cluster">
<title>cluster_dependency</title>
<polygon fill="#d3d3d3" stroke="#d3d3d3" points="8,-8 8,-378 139.9727,-378 139.9727,-8 8,-8"/>
</g>
<!-- property_api -->
<g id="node1" class="node">
<title>property_api</title>
<polygon fill="#ffffff" stroke="#000000" points="491.9727,-340 491.9727,-376 581.4795,-376 581.4795,-340 491.9727,-340"/>
<text text-anchor="middle" x="536.7261" y="-353.8" font-family="Times,serif" font-size="14.00" fill="#000000">Property API</text>
</g>
<!-- uht -->
<g id="node2" class="node">
<title>uht</title>
<polygon fill="#ffffff" stroke="#000000" points="16,-17 16,-369 131.9727,-369 131.9727,-17 16,-17"/>
<text text-anchor="middle" x="38.3862" y="-188.8" font-family="Times,serif" font-size="14.00" fill="#000000">UHT</text>
<polyline fill="none" stroke="#000000" points="60.7725,-17 60.7725,-369 "/>
<text text-anchor="middle" x="96.3726" y="-353.8" font-family="Times,serif" font-size="14.00" fill="#000000">property</text>
<polyline fill="none" stroke="#000000" points="60.7725,-347 131.9727,-347 "/>
<text text-anchor="middle" x="96.3726" y="-331.8" font-family="Times,serif" font-size="14.00" fill="#000000">tenagree</text>
<polyline fill="none" stroke="#000000" points="60.7725,-325 131.9727,-325 "/>
<text text-anchor="middle" x="96.3726" y="-309.8" font-family="Times,serif" font-size="14.00" fill="#000000">househ</text>
<polyline fill="none" stroke="#000000" points="60.7725,-303 131.9727,-303 "/>
<text text-anchor="middle" x="96.3726" y="-287.8" font-family="Times,serif" font-size="14.00" fill="#000000">araction</text>
<polyline fill="none" stroke="#000000" points="60.7725,-281 131.9727,-281 "/>
<text text-anchor="middle" x="96.3726" y="-265.8" font-family="Times,serif" font-size="14.00" fill="#000000">raaction</text>
<polyline fill="none" stroke="#000000" points="60.7725,-259 131.9727,-259 "/>
<text text-anchor="middle" x="96.3726" y="-243.8" font-family="Times,serif" font-size="14.00" fill="#000000">debitem</text>
<polyline fill="none" stroke="#000000" points="60.7725,-237 131.9727,-237 "/>
<text text-anchor="middle" x="96.3726" y="-221.8" font-family="Times,serif" font-size="14.00" fill="#000000">debtype</text>
<polyline fill="none" stroke="#000000" points="60.7725,-215 131.9727,-215 "/>
<text text-anchor="middle" x="96.3726" y="-199.8" font-family="Times,serif" font-size="14.00" fill="#000000">rtrans</text>
<polyline fill="none" stroke="#000000" points="60.7725,-193 131.9727,-193 "/>
<text text-anchor="middle" x="96.3726" y="-177.8" font-family="Times,serif" font-size="14.00" fill="#000000">rectype</text>
<polyline fill="none" stroke="#000000" points="60.7725,-171 131.9727,-171 "/>
<text text-anchor="middle" x="96.3726" y="-155.8" font-family="Times,serif" font-size="14.00" fill="#000000">rmworder</text>
<polyline fill="none" stroke="#000000" points="60.7725,-149 131.9727,-149 "/>
<text text-anchor="middle" x="96.3726" y="-133.8" font-family="Times,serif" font-size="14.00" fill="#000000">rmtask</text>
<polyline fill="none" stroke="#000000" points="60.7725,-127 131.9727,-127 "/>
<text text-anchor="middle" x="96.3726" y="-111.8" font-family="Times,serif" font-size="14.00" fill="#000000">rmreqst</text>
<polyline fill="none" stroke="#000000" points="60.7725,-105 131.9727,-105 "/>
<text text-anchor="middle" x="96.3726" y="-89.8" font-family="Times,serif" font-size="14.00" fill="#000000">visit</text>
<polyline fill="none" stroke="#000000" points="60.7725,-83 131.9727,-83 "/>
<text text-anchor="middle" x="96.3726" y="-67.8" font-family="Times,serif" font-size="14.00" fill="#000000">supplier</text>
<polyline fill="none" stroke="#000000" points="60.7725,-61 131.9727,-61 "/>
<text text-anchor="middle" x="96.3726" y="-45.8" font-family="Times,serif" font-size="14.00" fill="#000000">member</text>
<polyline fill="none" stroke="#000000" points="60.7725,-39 131.9727,-39 "/>
<text text-anchor="middle" x="96.3726" y="-23.8" font-family="Times,serif" font-size="14.00" fill="#000000">raction</text>
</g>
<!-- property_api&#45;&gt;uht -->
<g id="edge1" class="edge">
<title>property_api&#45;&gt;uht:property</title>
<path fill="none" stroke="#000000" d="M491.8065,-358C419.0899,-358 270.7722,-358 142.3723,-358"/>
<polygon fill="#000000" stroke="#000000" points="141.9864,-354.5001 131.9863,-358 141.9863,-361.5001 141.9864,-354.5001"/>
</g>
</g>
</svg>
