<?xml version="1.0" encoding="UTF-8" standalone="no"?>
<!DOCTYPE svg PUBLIC "-//W3C//DTD SVG 1.1//EN"
 "http://www.w3.org/Graphics/SVG/1.1/DTD/svg11.dtd">
<!-- Generated by graphviz version 2.40.1 (20161225.0304)
 -->
<!-- Title: G Pages: 1 -->
<svg width="1877pt" height="672pt"
 viewBox="0.00 0.00 1876.82 672.00" xmlns="http://www.w3.org/2000/svg" xmlns:xlink="http://www.w3.org/1999/xlink">
<g id="graph0" class="graph" transform="scale(1 1) rotate(0) translate(36 636)">
<title>G</title>
<polygon fill="#ffffff" stroke="transparent" points="-36,36 -36,-636 1840.8154,-636 1840.8154,36 -36,36"/>
<g id="clust1" class="cluster">
<title>cluster_apis</title>
<polygon fill="#d3d3d3" stroke="#d3d3d3" points="573.1953,-356 573.1953,-440 1271.5322,-440 1271.5322,-356 573.1953,-356"/>
</g>
<g id="clust2" class="cluster">
<title>cluster_dependency</title>
<polygon fill="#d3d3d3" stroke="#d3d3d3" points="8,-8 8,-592 229.1953,-592 229.1953,-8 8,-8"/>
</g>
<g id="clust3" class="cluster">
<title>cluster_services</title>
<polygon fill="#d3d3d3" stroke="#d3d3d3" points="1615.5322,-393 1615.5322,-447 1796.8154,-447 1796.8154,-393 1615.5322,-393"/>
</g>
<!-- income_api -->
<g id="node1" class="node">
<title>income_api</title>
<polygon fill="#ffffff" stroke="#000000" points="1097.7871,-365 1097.7871,-431 1263.5322,-431 1263.5322,-365 1097.7871,-365"/>
<text text-anchor="middle" x="1139.4233" y="-393.8" font-family="Times,serif" font-size="14.00" fill="#000000">Income API</text>
<polyline fill="none" stroke="#000000" points="1181.0596,-365 1181.0596,-431 "/>
<text text-anchor="middle" x="1222.2959" y="-415.8" font-family="Times,serif" font-size="14.00" fill="#000000">users</text>
<polyline fill="none" stroke="#000000" points="1181.0596,-409 1263.5322,-409 "/>
<text text-anchor="middle" x="1222.2959" y="-393.8" font-family="Times,serif" font-size="14.00" fill="#000000">worktray</text>
<polyline fill="none" stroke="#000000" points="1181.0596,-387 1263.5322,-387 "/>
<text text-anchor="middle" x="1222.2959" y="-371.8" font-family="Times,serif" font-size="14.00" fill="#000000">action diary</text>
</g>
<!-- tenancy_api -->
<g id="node2" class="node">
<title>tenancy_api</title>
<polygon fill="#ffffff" stroke="#000000" points="581.1953,-387 581.1953,-431 737.7871,-431 737.7871,-387 581.1953,-387"/>
<text text-anchor="middle" x="625.4497" y="-404.8" font-family="Times,serif" font-size="14.00" fill="#000000">Tenancy API</text>
<polyline fill="none" stroke="#000000" points="669.7041,-387 669.7041,-431 "/>
<text text-anchor="middle" x="703.7456" y="-415.8" font-family="Times,serif" font-size="14.00" fill="#000000">tenancies</text>
<polyline fill="none" stroke="#000000" points="669.7041,-409 737.7871,-409 "/>
<text text-anchor="middle" x="703.7456" y="-393.8" font-family="Times,serif" font-size="14.00" fill="#000000">contacts</text>
</g>
<!-- income_api&#45;&gt;tenancy_api -->
<g id="edge1" class="edge">
<title>income_api&#45;&gt;tenancy_api:tenancies</title>
<path fill="none" stroke="#000000" d="M1097.4082,-404.6007C1010.8214,-410.9038 870.9619,-419.5141 747.8342,-419.9802"/>
<polygon fill="#000000" stroke="#000000" points="747.4845,-416.4808 737.4912,-420 747.4979,-423.4808 747.4845,-416.4808"/>
</g>
<!-- uht -->
<g id="node5" class="node">
<title>uht</title>
<polygon fill="#ffffff" stroke="#000000" points="60.6113,-17 60.6113,-369 176.584,-369 176.584,-17 60.6113,-17"/>
<text text-anchor="middle" x="82.9976" y="-188.8" font-family="Times,serif" font-size="14.00" fill="#000000">UHT</text>
<polyline fill="none" stroke="#000000" points="105.3838,-17 105.3838,-369 "/>
<text text-anchor="middle" x="140.9839" y="-353.8" font-family="Times,serif" font-size="14.00" fill="#000000">property</text>
<polyline fill="none" stroke="#000000" points="105.3838,-347 176.584,-347 "/>
<text text-anchor="middle" x="140.9839" y="-331.8" font-family="Times,serif" font-size="14.00" fill="#000000">tenagree</text>
<polyline fill="none" stroke="#000000" points="105.3838,-325 176.584,-325 "/>
<text text-anchor="middle" x="140.9839" y="-309.8" font-family="Times,serif" font-size="14.00" fill="#000000">househ</text>
<polyline fill="none" stroke="#000000" points="105.3838,-303 176.584,-303 "/>
<text text-anchor="middle" x="140.9839" y="-287.8" font-family="Times,serif" font-size="14.00" fill="#000000">araction</text>
<polyline fill="none" stroke="#000000" points="105.3838,-281 176.584,-281 "/>
<text text-anchor="middle" x="140.9839" y="-265.8" font-family="Times,serif" font-size="14.00" fill="#000000">raaction</text>
<polyline fill="none" stroke="#000000" points="105.3838,-259 176.584,-259 "/>
<text text-anchor="middle" x="140.9839" y="-243.8" font-family="Times,serif" font-size="14.00" fill="#000000">debitem</text>
<polyline fill="none" stroke="#000000" points="105.3838,-237 176.584,-237 "/>
<text text-anchor="middle" x="140.9839" y="-221.8" font-family="Times,serif" font-size="14.00" fill="#000000">debtype</text>
<polyline fill="none" stroke="#000000" points="105.3838,-215 176.584,-215 "/>
<text text-anchor="middle" x="140.9839" y="-199.8" font-family="Times,serif" font-size="14.00" fill="#000000">rtrans</text>
<polyline fill="none" stroke="#000000" points="105.3838,-193 176.584,-193 "/>
<text text-anchor="middle" x="140.9839" y="-177.8" font-family="Times,serif" font-size="14.00" fill="#000000">rectype</text>
<polyline fill="none" stroke="#000000" points="105.3838,-171 176.584,-171 "/>
<text text-anchor="middle" x="140.9839" y="-155.8" font-family="Times,serif" font-size="14.00" fill="#000000">rmworder</text>
<polyline fill="none" stroke="#000000" points="105.3838,-149 176.584,-149 "/>
<text text-anchor="middle" x="140.9839" y="-133.8" font-family="Times,serif" font-size="14.00" fill="#000000">rmtask</text>
<polyline fill="none" stroke="#000000" points="105.3838,-127 176.584,-127 "/>
<text text-anchor="middle" x="140.9839" y="-111.8" font-family="Times,serif" font-size="14.00" fill="#000000">rmreqst</text>
<polyline fill="none" stroke="#000000" points="105.3838,-105 176.584,-105 "/>
<text text-anchor="middle" x="140.9839" y="-89.8" font-family="Times,serif" font-size="14.00" fill="#000000">visit</text>
<polyline fill="none" stroke="#000000" points="105.3838,-83 176.584,-83 "/>
<text text-anchor="middle" x="140.9839" y="-67.8" font-family="Times,serif" font-size="14.00" fill="#000000">supplier</text>
<polyline fill="none" stroke="#000000" points="105.3838,-61 176.584,-61 "/>
<text text-anchor="middle" x="140.9839" y="-45.8" font-family="Times,serif" font-size="14.00" fill="#000000">member</text>
<polyline fill="none" stroke="#000000" points="105.3838,-39 176.584,-39 "/>
<text text-anchor="middle" x="140.9839" y="-23.8" font-family="Times,serif" font-size="14.00" fill="#000000">raction</text>
</g>
<!-- income_api&#45;&gt;uht -->
<g id="edge2" class="edge">
<title>income_api&#45;&gt;uht:property</title>
<path fill="none" stroke="#000000" d="M1097.7264,-392.4592C927.637,-381.5844 526.6777,-358.4573 186.6399,-358.0067"/>
<polygon fill="#000000" stroke="#000000" points="186.6,-354.5068 176.5977,-358 186.5953,-361.5068 186.6,-354.5068"/>
</g>
<!-- income_api&#45;&gt;uht -->
<g id="edge3" class="edge">
<title>income_api&#45;&gt;uht:tenagree</title>
<path fill="none" stroke="#000000" d="M1097.4602,-389.3792C927.2967,-372.5096 526.8296,-336.708 186.6444,-336.0103"/>
<polygon fill="#000000" stroke="#000000" points="186.6013,-332.5104 176.5977,-336 186.594,-339.5104 186.6013,-332.5104"/>
</g>
<!-- income_api&#45;&gt;uht -->
<g id="edge4" class="edge">
<title>income_api&#45;&gt;uht:househ</title>
<path fill="none" stroke="#000000" d="M1097.5497,-386.3202C927.5495,-363.4647 527.3667,-314.9592 186.6601,-314.014"/>
<polygon fill="#000000" stroke="#000000" points="186.6026,-310.514 176.5977,-314 186.5927,-317.514 186.6026,-310.514"/>
</g>
<!-- uh_web_services -->
<g id="node3" class="node">
<title>uh_web_services</title>
<polygon fill="#ffffff" stroke="#000000" points="16,-539 16,-583 221.1953,-583 221.1953,-539 16,-539"/>
<text text-anchor="middle" x="73.8579" y="-556.8" font-family="Times,serif" font-size="14.00" fill="#000000">UH Web Services</text>
<polyline fill="none" stroke="#000000" points="131.7158,-539 131.7158,-583 "/>
<text text-anchor="middle" x="176.4556" y="-567.8" font-family="Times,serif" font-size="14.00" fill="#000000">TBC</text>
<polyline fill="none" stroke="#000000" points="131.7158,-561 221.1953,-561 "/>
<text text-anchor="middle" x="176.4556" y="-545.8" font-family="Times,serif" font-size="14.00" fill="#000000">Action Diary</text>
</g>
<!-- tenancy_api&#45;&gt;uh_web_services -->
<g id="edge5" class="edge">
<title>tenancy_api&#45;&gt;uh_web_services:action_diary</title>
<path fill="none" stroke="#000000" d="M619.8225,-431.0313C546.2751,-469.7968 382.5155,-546.4571 231.9539,-549.8813"/>
<polygon fill="#000000" stroke="#000000" points="231.5569,-546.3855 221.5977,-550 231.6371,-553.3851 231.5569,-546.3855"/>
</g>
<!-- crm -->
<g id="node4" class="node">
<title>crm</title>
<polygon fill="#ffffff" stroke="#000000" points="46.02,-388 46.02,-520 191.1753,-520 191.1753,-388 46.02,-388"/>
<text text-anchor="middle" x="69.582" y="-449.8" font-family="Times,serif" font-size="14.00" fill="#000000">CRM</text>
<polyline fill="none" stroke="#000000" points="93.144,-388 93.144,-520 "/>
<text text-anchor="middle" x="142.1597" y="-504.8" font-family="Times,serif" font-size="14.00" fill="#000000">Contact</text>
<polyline fill="none" stroke="#000000" points="93.144,-498 191.1753,-498 "/>
<text text-anchor="middle" x="142.1597" y="-482.8" font-family="Times,serif" font-size="14.00" fill="#000000">Action Diaries</text>
<polyline fill="none" stroke="#000000" points="93.144,-476 191.1753,-476 "/>
<text text-anchor="middle" x="142.1597" y="-460.8" font-family="Times,serif" font-size="14.00" fill="#000000">Transactions</text>
<polyline fill="none" stroke="#000000" points="93.144,-454 191.1753,-454 "/>
<text text-anchor="middle" x="142.1597" y="-438.8" font-family="Times,serif" font-size="14.00" fill="#000000">Contacts</text>
<polyline fill="none" stroke="#000000" points="93.144,-432 191.1753,-432 "/>
<text text-anchor="middle" x="142.1597" y="-416.8" font-family="Times,serif" font-size="14.00" fill="#000000">Notifications</text>
<polyline fill="none" stroke="#000000" points="93.144,-410 191.1753,-410 "/>
<text text-anchor="middle" x="142.1597" y="-394.8" font-family="Times,serif" font-size="14.00" fill="#000000">Accounts</text>
</g>
<!-- tenancy_api&#45;&gt;crm -->
<g id="edge6" class="edge">
<title>tenancy_api&#45;&gt;crm:contacts</title>
<path fill="none" stroke="#000000" d="M580.9703,-418.2009C490.3844,-428.0243 336.5716,-442.2835 201.6873,-442.9739"/>
<polygon fill="#000000" stroke="#000000" points="201.5885,-439.4741 191.5977,-443 201.6067,-446.4741 201.5885,-439.4741"/>
</g>
<!-- tenancy_api&#45;&gt;uht -->
<g id="edge7" class="edge">
<title>tenancy_api&#45;&gt;uht:tenagree</title>
<path fill="none" stroke="#000000" d="M580.9972,-389.7246C488.1293,-368.6038 328.239,-337.4988 186.7518,-336.0523"/>
<polygon fill="#000000" stroke="#000000" points="186.6156,-332.5517 176.5977,-336 186.5794,-339.5516 186.6156,-332.5517"/>
</g>
<!-- tenancy_api&#45;&gt;uht -->
<g id="edge8" class="edge">
<title>tenancy_api&#45;&gt;uht:property</title>
<path fill="none" stroke="#000000" d="M581.1371,-395.6004C488.0659,-380.8441 327.6497,-359.0502 186.7104,-358.0367"/>
<polygon fill="#000000" stroke="#000000" points="186.6103,-354.5364 176.5977,-358 186.5849,-361.5363 186.6103,-354.5364"/>
</g>
<!-- tenancy_api&#45;&gt;uht -->
<g id="edge9" class="edge">
<title>tenancy_api&#45;&gt;uht:member</title>
<path fill="none" stroke="#000000" d="M601.7472,-386.8855C591.9827,-382.4051 582.1246,-377.3951 573.1953,-372 381.8068,-256.3626 402.9447,-56.1735 186.7364,-50.1396"/>
<polygon fill="#000000" stroke="#000000" points="186.6449,-46.6381 176.5977,-50 186.5485,-53.6375 186.6449,-46.6381"/>
</g>
<!-- tenancy_api&#45;&gt;uht -->
<g id="edge10" class="edge">
<title>tenancy_api&#45;&gt;uht:raction</title>
<path fill="none" stroke="#000000" d="M601.1401,-386.9177C591.5429,-382.463 581.8975,-377.4531 573.1953,-372 378.3703,-249.9162 408.9716,-34.4276 186.6808,-28.1407"/>
<polygon fill="#000000" stroke="#000000" points="186.6455,-24.64 176.5977,-28 186.5478,-31.6393 186.6455,-24.64"/>
</g>
<!-- income_collection_service -->
<g id="node6" class="node">
<title>income_collection_service</title>
<polygon fill="#ffffff" stroke="#000000" points="1623.5322,-402 1623.5322,-438 1788.8154,-438 1788.8154,-402 1623.5322,-402"/>
<text text-anchor="middle" x="1706.1738" y="-415.8" font-family="Times,serif" font-size="14.00" fill="#000000">Income Collection Service</text>
</g>
<!-- income_collection_service&#45;&gt;income_api -->
<g id="edge11" class="edge">
<title>income_collection_service&#45;&gt;income_api:users</title>
<path fill="none" stroke="#000000" d="M1623.393,-420C1536.92,-420 1396.9871,-420 1273.9911,-420"/>
<polygon fill="#000000" stroke="#000000" points="1273.6597,-416.5001 1263.6597,-420 1273.6596,-423.5001 1273.6597,-416.5001"/>
</g>
<!-- income_collection_service&#45;&gt;income_api -->
<g id="edge12" class="edge">
<title>income_collection_service&#45;&gt;income_api:worktray</title>
<path fill="none" stroke="#000000" d="M1623.454,-413.4291C1537.0309,-407.1237 1397.1396,-398.4874 1274.0034,-398.0198"/>
<polygon fill="#000000" stroke="#000000" points="1273.6664,-394.5193 1263.6597,-398 1273.6529,-401.5193 1273.6664,-394.5193"/>
</g>
<!-- income_collection_service&#45;&gt;income_api -->
<g id="edge13" class="edge">
<title>income_collection_service&#45;&gt;income_api:action_diary</title>
<path fill="none" stroke="#000000" d="M1623.2287,-406.7985C1536.9188,-394.1925 1397.3896,-376.9719 1274.0241,-376.0395"/>
<polygon fill="#000000" stroke="#000000" points="1273.673,-372.5383 1263.6597,-376 1273.6462,-379.5382 1273.673,-372.5383"/>
</g>
<!-- income_collection_service&#45;&gt;tenancy_api -->
<g id="edge14" class="edge">
<title>income_collection_service&#45;&gt;tenancy_api:tenancies</title>
<path fill="none" stroke="#000000" d="M1623.1352,-433.4178C1535.8748,-446.7883 1394.4798,-466.3917 1271.5322,-474 1194.4596,-478.7694 1174.7936,-479.7387 1097.7871,-474 939.7839,-462.2253 901.0545,-421.7894 747.7568,-420.0574"/>
<polygon fill="#000000" stroke="#000000" points="747.5107,-416.5561 737.4912,-420 747.4715,-423.556 747.5107,-416.5561"/>
</g>
<!-- income_collection_service&#45;&gt;tenancy_api -->
<g id="edge15" class="edge">
<title>income_collection_service&#45;&gt;tenancy_api:contacts</title>
<path fill="none" stroke="#000000" d="M1623.2979,-425.1959C1535.8728,-430.3976 1394.0709,-438.0415 1271.5322,-441 1194.3347,-442.8638 1174.871,-445.5836 1097.7871,-441 940.2622,-431.6332 900.4506,-399.4253 747.7172,-398.0457"/>
<polygon fill="#000000" stroke="#000000" points="747.5068,-394.5448 737.4912,-398 747.4754,-401.5448 747.5068,-394.5448"/>
</g>
</g>
</svg>
