<?xml version="1.0" encoding="UTF-8" standalone="no"?>
<!DOCTYPE svg PUBLIC "-//W3C//DTD SVG 1.1//EN"
 "http://www.w3.org/Graphics/SVG/1.1/DTD/svg11.dtd">
<!-- Generated by graphviz version 2.40.1 (20161225.0304)
 -->
<!-- Title: G Pages: 1 -->
<svg width="821pt" height="197pt"
 viewBox="0.00 0.00 820.55 197.00" xmlns="http://www.w3.org/2000/svg" xmlns:xlink="http://www.w3.org/1999/xlink">
<g id="graph0" class="graph" transform="scale(1 1) rotate(0) translate(36 161)">
<title>G</title>
<polygon fill="#ffffff" stroke="transparent" points="-36,36 -36,-161 784.5469,-161 784.5469,36 -36,36"/>
<g id="clust1" class="cluster">
<title>cluster_apis</title>
<polygon fill="#d3d3d3" stroke="#d3d3d3" points="8,-35 8,-89 213.7939,-89 213.7939,-35 8,-35"/>
</g>
<g id="clust2" class="cluster">
<title>cluster_services</title>
<polygon fill="#d3d3d3" stroke="#d3d3d3" points="557.7939,-8 557.7939,-117 740.5469,-117 740.5469,-8 557.7939,-8"/>
</g>
<!-- manage_a_tenancy_api -->
<g id="node1" class="node">
<title>manage_a_tenancy_api</title>
<polygon fill="#ffffff" stroke="#000000" points="16,-44 16,-80 205.7939,-80 205.7939,-44 16,-44"/>
<text text-anchor="middle" x="89.2832" y="-57.8" font-family="Times,serif" font-size="14.00" fill="#000000">Manage a Tenancy API</text>
<polyline fill="none" stroke="#000000" points="162.5664,-44 162.5664,-80 "/>
<text text-anchor="middle" x="184.1802" y="-57.8" font-family="Times,serif" font-size="14.00" fill="#000000">TBC</text>
</g>
<!-- manage_a_tenancy_service -->
<g id="node2" class="node">
<title>manage_a_tenancy_service</title>
<polygon fill="#ffffff" stroke="#000000" points="565.7939,-72 565.7939,-108 732.5469,-108 732.5469,-72 565.7939,-72"/>
<text text-anchor="middle" x="649.1704" y="-85.8" font-family="Times,serif" font-size="14.00" fill="#000000">Manage a Tenancy Service</text>
</g>
<!-- manage_a_tenancy_service&#45;&gt;manage_a_tenancy_api -->
<g id="edge1" class="edge">
<title>manage_a_tenancy_service&#45;&gt;manage_a_tenancy_api:tbc</title>
<path fill="none" stroke="#000000" d="M565.5271,-81.5611C478.9157,-73.5421 339.2869,-62.6166 216.2341,-62.0251"/>
<polygon fill="#000000" stroke="#000000" points="215.9055,-58.5244 205.897,-62 215.8884,-65.5244 215.9055,-58.5244"/>
</g>
<!-- ncc_crm -->
<g id="node3" class="node">
<title>ncc_crm</title>
<polygon fill="#ffffff" stroke="#000000" points="609.4653,-17 609.4653,-53 688.8755,-53 688.8755,-17 609.4653,-17"/>
<text text-anchor="middle" x="649.1704" y="-30.8" font-family="Times,serif" font-size="14.00" fill="#000000">NCC CRM</text>
</g>
<!-- ncc_crm&#45;&gt;manage_a_tenancy_api -->
<g id="edge2" class="edge">
<title>ncc_crm&#45;&gt;manage_a_tenancy_api:tbc</title>
<path fill="none" stroke="#000000" d="M609.184,-39.0714C533.2821,-46.4447 362.7777,-61.3128 215.9771,-61.977"/>
<polygon fill="#000000" stroke="#000000" points="215.8889,-58.4771 205.897,-62 215.905,-65.4771 215.8889,-58.4771"/>
</g>
</g>
</svg>
