<?xml version="1.0" encoding="UTF-8" standalone="no"?>
<!DOCTYPE svg PUBLIC "-//W3C//DTD SVG 1.1//EN"
 "http://www.w3.org/Graphics/SVG/1.1/DTD/svg11.dtd">
<!-- Generated by graphviz version 2.40.1 (20161225.0304)
 -->
<!-- Title: G Pages: 1 -->
<svg width="821pt" height="142pt"
 viewBox="0.00 0.00 820.55 142.00" xmlns="http://www.w3.org/2000/svg" xmlns:xlink="http://www.w3.org/1999/xlink">
<g id="graph0" class="graph" transform="scale(1 1) rotate(0) translate(36 106)">
<title>G</title>
<polygon fill="#ffffff" stroke="transparent" points="-36,36 -36,-106 784.5469,-106 784.5469,36 -36,36"/>
<g id="clust1" class="cluster">
<title>cluster_services</title>
<polygon fill="#d3d3d3" stroke="#d3d3d3" points="557.7939,-8 557.7939,-62 740.5469,-62 740.5469,-8 557.7939,-8"/>
</g>
<g id="clust2" class="cluster">
<title>cluster_apis</title>
<polygon fill="#d3d3d3" stroke="#d3d3d3" points="8,-8 8,-62 213.7939,-62 213.7939,-8 8,-8"/>
</g>
<!-- manage_a_tenancy_service -->
<g id="node1" class="node">
<title>manage_a_tenancy_service</title>
<polygon fill="#ffffff" stroke="#000000" points="565.7939,-17 565.7939,-53 732.5469,-53 732.5469,-17 565.7939,-17"/>
<text text-anchor="middle" x="649.1704" y="-30.8" font-family="Times,serif" font-size="14.00" fill="#000000">Manage a Tenancy Service</text>
</g>
<!-- manage_a_tenancy_api -->
<g id="node2" class="node">
<title>manage_a_tenancy_api</title>
<polygon fill="#ffffff" stroke="#000000" points="16,-17 16,-53 205.7939,-53 205.7939,-17 16,-17"/>
<text text-anchor="middle" x="89.2832" y="-30.8" font-family="Times,serif" font-size="14.00" fill="#000000">Manage a Tenancy API</text>
<polyline fill="none" stroke="#000000" points="162.5664,-17 162.5664,-53 "/>
<text text-anchor="middle" x="184.1802" y="-30.8" font-family="Times,serif" font-size="14.00" fill="#000000">TBC</text>
</g>
<!-- manage_a_tenancy_service&#45;&gt;manage_a_tenancy_api -->
<g id="edge1" class="edge">
<title>manage_a_tenancy_service&#45;&gt;manage_a_tenancy_api:tbc</title>
<path fill="none" stroke="#000000" d="M565.4277,-35C478.7361,-35 339.041,-35 216.2143,-35"/>
<polygon fill="#000000" stroke="#000000" points="215.897,-31.5001 205.897,-35 215.8969,-38.5001 215.897,-31.5001"/>
</g>
</g>
</svg>
