<?xml version="1.0" encoding="UTF-8" standalone="no"?>
<!DOCTYPE svg PUBLIC "-//W3C//DTD SVG 1.1//EN"
 "http://www.w3.org/Graphics/SVG/1.1/DTD/svg11.dtd">
<!-- Generated by graphviz version 2.40.1 (20161225.0304)
 -->
<!-- Title: G Pages: 1 -->
<svg width="1309pt" height="260pt"
 viewBox="0.00 0.00 1308.89 260.00" xmlns="http://www.w3.org/2000/svg" xmlns:xlink="http://www.w3.org/1999/xlink">
<g id="graph0" class="graph" transform="scale(1 1) rotate(0) translate(36 224)">
<title>G</title>
<polygon fill="#ffffff" stroke="transparent" points="-36,36 -36,-224 1272.8857,-224 1272.8857,36 -36,36"/>
<g id="clust1" class="cluster">
<title>cluster_dependency</title>
<polygon fill="none" stroke="#000000" points="8,-8 8,-180 226.0713,-180 226.0713,-8 8,-8"/>
</g>
<g id="clust2" class="cluster">
<title>cluster_services</title>
<polygon fill="none" stroke="#000000" points="1062.7715,-39 1062.7715,-148 1228.8857,-148 1228.8857,-39 1062.7715,-39"/>
</g>
<g id="clust3" class="cluster">
<title>cluster_apis</title>
<polygon fill="none" stroke="#000000" points="570.0713,-67 570.0713,-121 718.7715,-121 718.7715,-67 570.0713,-67"/>
</g>
<!-- uh_warehouse -->
<g id="node1" class="node">
<title>uh_warehouse</title>
<polygon fill="none" stroke="#000000" points="16,-17 16,-171 218.0713,-171 218.0713,-17 16,-17"/>
<text text-anchor="middle" x="66.6631" y="-89.8" font-family="Times,serif" font-size="14.00" fill="#000000">UH Warehouse</text>
<polyline fill="none" stroke="#000000" points="117.3262,-17 117.3262,-171 "/>
<text text-anchor="middle" x="167.6987" y="-155.8" font-family="Times,serif" font-size="14.00" fill="#000000">property</text>
<polyline fill="none" stroke="#000000" points="117.3262,-149 218.0713,-149 "/>
<text text-anchor="middle" x="167.6987" y="-133.8" font-family="Times,serif" font-size="14.00" fill="#000000">lulevel</text>
<polyline fill="none" stroke="#000000" points="117.3262,-127 218.0713,-127 "/>
<text text-anchor="middle" x="167.6987" y="-111.8" font-family="Times,serif" font-size="14.00" fill="#000000">rmreqst</text>
<polyline fill="none" stroke="#000000" points="117.3262,-105 218.0713,-105 "/>
<text text-anchor="middle" x="167.6987" y="-89.8" font-family="Times,serif" font-size="14.00" fill="#000000">rmworder</text>
<polyline fill="none" stroke="#000000" points="117.3262,-83 218.0713,-83 "/>
<text text-anchor="middle" x="167.6987" y="-67.8" font-family="Times,serif" font-size="14.00" fill="#000000">rmtask</text>
<polyline fill="none" stroke="#000000" points="117.3262,-61 218.0713,-61 "/>
<text text-anchor="middle" x="167.6987" y="-45.8" font-family="Times,serif" font-size="14.00" fill="#000000">rmtrade</text>
<polyline fill="none" stroke="#000000" points="117.3262,-39 218.0713,-39 "/>
<text text-anchor="middle" x="167.6987" y="-23.8" font-family="Times,serif" font-size="14.00" fill="#000000">W2ObjectNote</text>
</g>
<!-- report_a_repair_service -->
<g id="node2" class="node">
<title>report_a_repair_service</title>
<polygon fill="none" stroke="#000000" points="1070.7715,-103 1070.7715,-139 1220.8857,-139 1220.8857,-103 1070.7715,-103"/>
<text text-anchor="middle" x="1145.8286" y="-116.8" font-family="Times,serif" font-size="14.00" fill="#000000">Report a Repair Service</text>
</g>
<!-- repairs_api -->
<g id="node4" class="node">
<title>repairs_api</title>
<polygon fill="none" stroke="#000000" points="578.0713,-76 578.0713,-112 710.7715,-112 710.7715,-76 578.0713,-76"/>
<text text-anchor="middle" x="620.1006" y="-89.8" font-family="Times,serif" font-size="14.00" fill="#000000">Repairs API</text>
<polyline fill="none" stroke="#000000" points="662.1299,-76 662.1299,-112 "/>
<text text-anchor="middle" x="686.4507" y="-89.8" font-family="Times,serif" font-size="14.00" fill="#000000">repair</text>
</g>
<!-- report_a_repair_service&#45;&gt;repairs_api -->
<g id="edge1" class="edge">
<title>report_a_repair_service&#45;&gt;repairs_api:repair</title>
<path fill="none" stroke="#000000" d="M1070.4045,-113.479C985.9407,-105.7006 844.5989,-94.6035 720.467,-94.0237"/>
<polygon fill="#000000" stroke="#000000" points="720.4296,-90.5237 710.4214,-94 720.4131,-97.5237 720.4296,-90.5237"/>
</g>
<!-- repairs_hub -->
<g id="node3" class="node">
<title>repairs_hub</title>
<polygon fill="none" stroke="#000000" points="1102.6406,-48 1102.6406,-84 1189.0166,-84 1189.0166,-48 1102.6406,-48"/>
<text text-anchor="middle" x="1145.8286" y="-61.8" font-family="Times,serif" font-size="14.00" fill="#000000">Repairs Hub</text>
</g>
<!-- repairs_hub&#45;&gt;repairs_api -->
<g id="edge2" class="edge">
<title>repairs_hub&#45;&gt;repairs_api:repair</title>
<path fill="none" stroke="#000000" d="M1102.628,-70.6236C1026.3029,-78.39 862.2663,-93.2811 720.5825,-93.9749"/>
<polygon fill="#000000" stroke="#000000" points="720.4127,-90.4752 710.4214,-94 720.43,-97.4752 720.4127,-90.4752"/>
</g>
<!-- repairs_api&#45;&gt;uh_warehouse -->
<g id="edge3" class="edge">
<title>repairs_api&#45;&gt;uh_warehouse:property</title>
<path fill="none" stroke="#000000" d="M577.7125,-110.8254C496.4046,-129.8639 354.2453,-158.445 228.236,-159.9389"/>
<polygon fill="#000000" stroke="#000000" points="228.0145,-156.4401 218.0356,-160 228.0564,-163.44 228.0145,-156.4401"/>
</g>
<!-- repairs_api&#45;&gt;uh_warehouse -->
<g id="edge4" class="edge">
<title>repairs_api&#45;&gt;uh_warehouse:lulevel</title>
<path fill="none" stroke="#000000" d="M577.8047,-105.1599C496.2887,-117.8517 353.6213,-136.9603 228.1869,-137.9592"/>
<polygon fill="#000000" stroke="#000000" points="228.0215,-134.4597 218.0356,-138 228.0497,-141.4597 228.0215,-134.4597"/>
</g>
<!-- repairs_api&#45;&gt;uh_warehouse -->
<g id="edge5" class="edge">
<title>repairs_api&#45;&gt;uh_warehouse:rmreqst</title>
<path fill="none" stroke="#000000" d="M578.0062,-99.5515C496.3905,-105.897 353.3225,-115.4787 228.1631,-115.9795"/>
<polygon fill="#000000" stroke="#000000" points="228.0285,-112.4797 218.0356,-116 228.0427,-119.4797 228.0285,-112.4797"/>
</g>
<!-- repairs_api&#45;&gt;uh_warehouse -->
<g id="edge6" class="edge">
<title>repairs_api&#45;&gt;uh_warehouse:rmworder</title>
<path fill="none" stroke="#000000" d="M577.9515,-94C496.2808,-94 353.1562,-94 228.1502,-94"/>
<polygon fill="#000000" stroke="#000000" points="228.0357,-90.5001 218.0356,-94 228.0356,-97.5001 228.0357,-90.5001"/>
</g>
<!-- repairs_api&#45;&gt;uh_warehouse -->
<g id="edge7" class="edge">
<title>repairs_api&#45;&gt;uh_warehouse:rmtask</title>
<path fill="none" stroke="#000000" d="M578.0062,-88.4485C496.3905,-82.103 353.3225,-72.5213 228.1631,-72.0205"/>
<polygon fill="#000000" stroke="#000000" points="228.0427,-68.5203 218.0356,-72 228.0285,-75.5203 228.0427,-68.5203"/>
</g>
<!-- repairs_api&#45;&gt;uh_warehouse -->
<g id="edge8" class="edge">
<title>repairs_api&#45;&gt;uh_warehouse:rmtrade</title>
<path fill="none" stroke="#000000" d="M577.8047,-82.8401C496.2887,-70.1483 353.6213,-51.0397 228.1869,-50.0408"/>
<polygon fill="#000000" stroke="#000000" points="228.0497,-46.5403 218.0356,-50 228.0215,-53.5403 228.0497,-46.5403"/>
</g>
<!-- repairs_api&#45;&gt;uh_warehouse -->
<g id="edge9" class="edge">
<title>repairs_api&#45;&gt;uh_warehouse:w2objectnote</title>
<path fill="none" stroke="#000000" d="M577.7125,-77.1746C496.4046,-58.1361 354.2453,-29.555 228.236,-28.0611"/>
<polygon fill="#000000" stroke="#000000" points="228.0564,-24.56 218.0356,-28 228.0145,-31.5599 228.0564,-24.56"/>
</g>
</g>
</svg>
