<?xml version="1.0" encoding="UTF-8" standalone="no"?>
<!DOCTYPE svg PUBLIC "-//W3C//DTD SVG 1.1//EN"
 "http://www.w3.org/Graphics/SVG/1.1/DTD/svg11.dtd">
<!-- Generated by graphviz version 2.40.1 (20161225.0304)
 -->
<!-- Title: G Pages: 1 -->
<svg width="1320pt" height="757pt"
 viewBox="0.00 0.00 1320.46 757.00" xmlns="http://www.w3.org/2000/svg" xmlns:xlink="http://www.w3.org/1999/xlink">
<g id="graph0" class="graph" transform="scale(1 1) rotate(0) translate(36 721)">
<title>G</title>
<polygon fill="#ffffff" stroke="transparent" points="-36,36 -36,-721 1284.459,-721 1284.459,36 -36,36"/>
<g id="clust1" class="cluster">
<title>cluster_apis</title>
<polygon fill="#d3d3d3" stroke="#d3d3d3" points="595.959,-324 595.959,-386 764.9072,-386 764.9072,-324 595.959,-324"/>
</g>
<g id="clust2" class="cluster">
<title>cluster_dependency</title>
<polygon fill="#d3d3d3" stroke="#d3d3d3" points="8,-8 8,-677 251.959,-677 251.959,-8 8,-8"/>
</g>
<g id="clust3" class="cluster">
<title>cluster_services</title>
<polygon fill="#d3d3d3" stroke="#d3d3d3" points="1108.9072,-300 1108.9072,-409 1240.459,-409 1240.459,-300 1108.9072,-300"/>
</g>
<!-- ncc_api -->
<g id="node1" class="node">
<title>ncc_api</title>
<polygon fill="#ffffff" stroke="#000000" points="603.959,-333 603.959,-377 756.9072,-377 756.9072,-333 603.959,-333"/>
<text text-anchor="middle" x="638.9985" y="-350.8" font-family="Times,serif" font-size="14.00" fill="#000000">NCC API</text>
<polyline fill="none" stroke="#000000" points="674.0381,-333 674.0381,-377 "/>
<text text-anchor="middle" x="715.4727" y="-361.8" font-family="Times,serif" font-size="14.00" fill="#000000">transactions</text>
<polyline fill="none" stroke="#000000" points="674.0381,-355 756.9072,-355 "/>
<text text-anchor="middle" x="715.4727" y="-339.8" font-family="Times,serif" font-size="14.00" fill="#000000">TBC</text>
</g>
<!-- uh_web_services -->
<g id="node2" class="node">
<title>uh_web_services</title>
<polygon fill="#ffffff" stroke="#000000" points="27.3818,-624 27.3818,-668 232.5771,-668 232.5771,-624 27.3818,-624"/>
<text text-anchor="middle" x="85.2397" y="-641.8" font-family="Times,serif" font-size="14.00" fill="#000000">UH Web Services</text>
<polyline fill="none" stroke="#000000" points="143.0977,-624 143.0977,-668 "/>
<text text-anchor="middle" x="187.8374" y="-652.8" font-family="Times,serif" font-size="14.00" fill="#000000">TBC</text>
<polyline fill="none" stroke="#000000" points="143.0977,-646 232.5771,-646 "/>
<text text-anchor="middle" x="187.8374" y="-630.8" font-family="Times,serif" font-size="14.00" fill="#000000">Action Diary</text>
</g>
<!-- ncc_api&#45;&gt;uh_web_services -->
<g id="edge1" class="edge">
<title>ncc_api&#45;&gt;uh_web_services:tbc</title>
<path fill="none" stroke="#000000" d="M664.0753,-377.2068C611.5476,-445.7581 439.1062,-649.8615 243.218,-656.8177"/>
<polygon fill="#000000" stroke="#000000" points="242.9156,-653.3224 232.9795,-657 243.0402,-660.3213 242.9156,-653.3224"/>
</g>
<!-- crm -->
<g id="node3" class="node">
<title>crm</title>
<polygon fill="#ffffff" stroke="#000000" points="57.4019,-473 57.4019,-605 202.5571,-605 202.5571,-473 57.4019,-473"/>
<text text-anchor="middle" x="80.9639" y="-534.8" font-family="Times,serif" font-size="14.00" fill="#000000">CRM</text>
<polyline fill="none" stroke="#000000" points="104.5259,-473 104.5259,-605 "/>
<text text-anchor="middle" x="153.5415" y="-589.8" font-family="Times,serif" font-size="14.00" fill="#000000">Contact</text>
<polyline fill="none" stroke="#000000" points="104.5259,-583 202.5571,-583 "/>
<text text-anchor="middle" x="153.5415" y="-567.8" font-family="Times,serif" font-size="14.00" fill="#000000">Action Diaries</text>
<polyline fill="none" stroke="#000000" points="104.5259,-561 202.5571,-561 "/>
<text text-anchor="middle" x="153.5415" y="-545.8" font-family="Times,serif" font-size="14.00" fill="#000000">Transactions</text>
<polyline fill="none" stroke="#000000" points="104.5259,-539 202.5571,-539 "/>
<text text-anchor="middle" x="153.5415" y="-523.8" font-family="Times,serif" font-size="14.00" fill="#000000">Contacts</text>
<polyline fill="none" stroke="#000000" points="104.5259,-517 202.5571,-517 "/>
<text text-anchor="middle" x="153.5415" y="-501.8" font-family="Times,serif" font-size="14.00" fill="#000000">Notifications</text>
<polyline fill="none" stroke="#000000" points="104.5259,-495 202.5571,-495 "/>
<text text-anchor="middle" x="153.5415" y="-479.8" font-family="Times,serif" font-size="14.00" fill="#000000">Accounts</text>
</g>
<!-- ncc_api&#45;&gt;crm -->
<g id="edge2" class="edge">
<title>ncc_api&#45;&gt;crm:contact</title>
<path fill="none" stroke="#000000" d="M656.7065,-377.0562C591.6409,-435.1826 402.593,-588.4836 213.1482,-593.8551"/>
<polygon fill="#000000" stroke="#000000" points="212.9286,-590.3578 202.9795,-594 213.0284,-597.3571 212.9286,-590.3578"/>
</g>
<!-- ncc_api&#45;&gt;crm -->
<g id="edge3" class="edge">
<title>ncc_api&#45;&gt;crm:action_diaries</title>
<path fill="none" stroke="#000000" d="M653.8682,-377.0013C585.7167,-431.1723 397.0715,-566.9751 213.127,-571.8644"/>
<polygon fill="#000000" stroke="#000000" points="212.9318,-568.3666 202.9795,-572 213.0254,-575.366 212.9318,-568.3666"/>
</g>
<!-- uht -->
<g id="node4" class="node">
<title>uht</title>
<polygon fill="#ffffff" stroke="#000000" points="71.9932,-102 71.9932,-454 187.9658,-454 187.9658,-102 71.9932,-102"/>
<text text-anchor="middle" x="94.3794" y="-273.8" font-family="Times,serif" font-size="14.00" fill="#000000">UHT</text>
<polyline fill="none" stroke="#000000" points="116.7656,-102 116.7656,-454 "/>
<text text-anchor="middle" x="152.3657" y="-438.8" font-family="Times,serif" font-size="14.00" fill="#000000">property</text>
<polyline fill="none" stroke="#000000" points="116.7656,-432 187.9658,-432 "/>
<text text-anchor="middle" x="152.3657" y="-416.8" font-family="Times,serif" font-size="14.00" fill="#000000">tenagree</text>
<polyline fill="none" stroke="#000000" points="116.7656,-410 187.9658,-410 "/>
<text text-anchor="middle" x="152.3657" y="-394.8" font-family="Times,serif" font-size="14.00" fill="#000000">househ</text>
<polyline fill="none" stroke="#000000" points="116.7656,-388 187.9658,-388 "/>
<text text-anchor="middle" x="152.3657" y="-372.8" font-family="Times,serif" font-size="14.00" fill="#000000">araction</text>
<polyline fill="none" stroke="#000000" points="116.7656,-366 187.9658,-366 "/>
<text text-anchor="middle" x="152.3657" y="-350.8" font-family="Times,serif" font-size="14.00" fill="#000000">raaction</text>
<polyline fill="none" stroke="#000000" points="116.7656,-344 187.9658,-344 "/>
<text text-anchor="middle" x="152.3657" y="-328.8" font-family="Times,serif" font-size="14.00" fill="#000000">debitem</text>
<polyline fill="none" stroke="#000000" points="116.7656,-322 187.9658,-322 "/>
<text text-anchor="middle" x="152.3657" y="-306.8" font-family="Times,serif" font-size="14.00" fill="#000000">debtype</text>
<polyline fill="none" stroke="#000000" points="116.7656,-300 187.9658,-300 "/>
<text text-anchor="middle" x="152.3657" y="-284.8" font-family="Times,serif" font-size="14.00" fill="#000000">rtrans</text>
<polyline fill="none" stroke="#000000" points="116.7656,-278 187.9658,-278 "/>
<text text-anchor="middle" x="152.3657" y="-262.8" font-family="Times,serif" font-size="14.00" fill="#000000">rectype</text>
<polyline fill="none" stroke="#000000" points="116.7656,-256 187.9658,-256 "/>
<text text-anchor="middle" x="152.3657" y="-240.8" font-family="Times,serif" font-size="14.00" fill="#000000">rmworder</text>
<polyline fill="none" stroke="#000000" points="116.7656,-234 187.9658,-234 "/>
<text text-anchor="middle" x="152.3657" y="-218.8" font-family="Times,serif" font-size="14.00" fill="#000000">rmtask</text>
<polyline fill="none" stroke="#000000" points="116.7656,-212 187.9658,-212 "/>
<text text-anchor="middle" x="152.3657" y="-196.8" font-family="Times,serif" font-size="14.00" fill="#000000">rmreqst</text>
<polyline fill="none" stroke="#000000" points="116.7656,-190 187.9658,-190 "/>
<text text-anchor="middle" x="152.3657" y="-174.8" font-family="Times,serif" font-size="14.00" fill="#000000">visit</text>
<polyline fill="none" stroke="#000000" points="116.7656,-168 187.9658,-168 "/>
<text text-anchor="middle" x="152.3657" y="-152.8" font-family="Times,serif" font-size="14.00" fill="#000000">supplier</text>
<polyline fill="none" stroke="#000000" points="116.7656,-146 187.9658,-146 "/>
<text text-anchor="middle" x="152.3657" y="-130.8" font-family="Times,serif" font-size="14.00" fill="#000000">member</text>
<polyline fill="none" stroke="#000000" points="116.7656,-124 187.9658,-124 "/>
<text text-anchor="middle" x="152.3657" y="-108.8" font-family="Times,serif" font-size="14.00" fill="#000000">raction</text>
</g>
<!-- ncc_api&#45;&gt;uht -->
<g id="edge4" class="edge">
<title>ncc_api&#45;&gt;uht:araction</title>
<path fill="none" stroke="#000000" d="M603.7112,-360.5515C509.1496,-366.9161 343.1857,-376.5364 198.3685,-376.9838"/>
<polygon fill="#000000" stroke="#000000" points="197.974,-373.4843 187.9795,-377 197.985,-380.4843 197.974,-373.4843"/>
</g>
<!-- ncc_api&#45;&gt;uht -->
<g id="edge5" class="edge">
<title>ncc_api&#45;&gt;uht:raaction</title>
<path fill="none" stroke="#000000" d="M603.6638,-355C509.0545,-355 343.0414,-355 198.3585,-355"/>
<polygon fill="#000000" stroke="#000000" points="197.9795,-351.5001 187.9795,-355 197.9795,-358.5001 197.9795,-351.5001"/>
</g>
<!-- ncc_api&#45;&gt;uht -->
<g id="edge6" class="edge">
<title>ncc_api&#45;&gt;uht:debitem</title>
<path fill="none" stroke="#000000" d="M603.7112,-349.4485C509.1496,-343.0839 343.1857,-333.4636 198.3685,-333.0162"/>
<polygon fill="#000000" stroke="#000000" points="197.985,-329.5157 187.9795,-333 197.974,-336.5157 197.985,-329.5157"/>
</g>
<!-- ncc_api&#45;&gt;uht -->
<g id="edge7" class="edge">
<title>ncc_api&#45;&gt;uht:debtype</title>
<path fill="none" stroke="#000000" d="M603.853,-343.8969C509.4344,-331.1678 343.6177,-311.9273 198.3984,-311.0324"/>
<polygon fill="#000000" stroke="#000000" points="197.9904,-307.5312 187.9795,-311 197.9685,-314.5312 197.9904,-307.5312"/>
</g>
<!-- ncc_api&#45;&gt;uht -->
<g id="edge8" class="edge">
<title>ncc_api&#45;&gt;uht:tenagree</title>
<path fill="none" stroke="#000000" d="M603.6675,-371.7399C509.3167,-390.8539 343.7756,-419.6706 197.9958,-420.9555"/>
<polygon fill="#000000" stroke="#000000" points="197.9638,-417.4555 187.9795,-421 197.995,-424.4554 197.9638,-417.4555"/>
</g>
<!-- ncc_api&#45;&gt;uht -->
<g id="edge9" class="edge">
<title>ncc_api&#45;&gt;uht:rtrans</title>
<path fill="none" stroke="#000000" d="M603.6675,-338.2601C509.3167,-319.1461 343.7756,-290.3294 197.9958,-289.0445"/>
<polygon fill="#000000" stroke="#000000" points="197.995,-285.5446 187.9795,-289 197.9638,-292.5445 197.995,-285.5446"/>
</g>
<!-- ncc_api&#45;&gt;uht -->
<g id="edge10" class="edge">
<title>ncc_api&#45;&gt;uht:rectype</title>
<path fill="none" stroke="#000000" d="M604.8348,-332.9075C510.9664,-307.4257 345.2323,-268.7827 198.0915,-267.0597"/>
<polygon fill="#000000" stroke="#000000" points="198,-263.5592 187.9795,-267 197.9586,-270.5591 198,-263.5592"/>
</g>
<!-- uhw -->
<g id="node5" class="node">
<title>uhw</title>
<polygon fill="#ffffff" stroke="#000000" points="16,-17 16,-83 243.959,-83 243.959,-17 16,-17"/>
<text text-anchor="middle" x="40.7173" y="-45.8" font-family="Times,serif" font-size="14.00" fill="#000000">UHW</text>
<polyline fill="none" stroke="#000000" points="65.4346,-17 65.4346,-83 "/>
<text text-anchor="middle" x="154.6968" y="-67.8" font-family="Times,serif" font-size="14.00" fill="#000000">W2ObjectNote</text>
<polyline fill="none" stroke="#000000" points="65.4346,-61 243.959,-61 "/>
<text text-anchor="middle" x="154.6968" y="-45.8" font-family="Times,serif" font-size="14.00" fill="#000000">usp_StartHackneyProcessV2</text>
<polyline fill="none" stroke="#000000" points="65.4346,-39 243.959,-39 "/>
<text text-anchor="middle" x="154.6968" y="-23.8" font-family="Times,serif" font-size="14.00" fill="#000000">ws_addNoteToOrder</text>
</g>
<!-- ncc_api&#45;&gt;uhw -->
<g id="edge11" class="edge">
<title>ncc_api&#45;&gt;uhw:w2objectnote</title>
<path fill="none" stroke="#000000" d="M663.1525,-332.7935C610.0574,-267.2516 441.5011,-78.7837 254.0586,-72.1782"/>
<polygon fill="#000000" stroke="#000000" points="254.0398,-68.6774 243.9795,-72 253.916,-75.6763 254.0398,-68.6774"/>
</g>
<!-- my_rent_account -->
<g id="node6" class="node">
<title>my_rent_account</title>
<polygon fill="#ffffff" stroke="#000000" points="1116.9072,-364 1116.9072,-400 1232.459,-400 1232.459,-364 1116.9072,-364"/>
<text text-anchor="middle" x="1174.6831" y="-377.8" font-family="Times,serif" font-size="14.00" fill="#000000">My Rent Account</text>
</g>
<!-- my_rent_account&#45;&gt;ncc_api -->
<g id="edge12" class="edge">
<title>my_rent_account&#45;&gt;ncc_api:transactions</title>
<path fill="none" stroke="#000000" d="M1116.8626,-378.3893C1038.3094,-373.7947 893.1448,-366.4024 766.6659,-366.0158"/>
<polygon fill="#000000" stroke="#000000" points="766.4385,-362.5155 756.4331,-366 766.4277,-369.5155 766.4385,-362.5155"/>
</g>
<!-- ncc_crm -->
<g id="node7" class="node">
<title>ncc_crm</title>
<polygon fill="#ffffff" stroke="#000000" points="1134.978,-309 1134.978,-345 1214.3882,-345 1214.3882,-309 1134.978,-309"/>
<text text-anchor="middle" x="1174.6831" y="-322.8" font-family="Times,serif" font-size="14.00" fill="#000000">NCC CRM</text>
</g>
<!-- ncc_crm&#45;&gt;ncc_api -->
<g id="edge13" class="edge">
<title>ncc_crm&#45;&gt;ncc_api:tbc</title>
<path fill="none" stroke="#000000" d="M1134.9135,-329.6937C1062.417,-334.3702 903.6042,-343.5383 766.6706,-343.9832"/>
<polygon fill="#000000" stroke="#000000" points="766.4273,-340.4835 756.4331,-344 766.4389,-347.4835 766.4273,-340.4835"/>
</g>
</g>
</svg>
