<?xml version="1.0" encoding="UTF-8" standalone="no"?>
<!DOCTYPE svg PUBLIC "-//W3C//DTD SVG 1.1//EN"
 "http://www.w3.org/Graphics/SVG/1.1/DTD/svg11.dtd">
<!-- Generated by graphviz version 2.40.1 (20161225.0304)
 -->
<!-- Title: G Pages: 1 -->
<svg width="1329pt" height="812pt"
 viewBox="0.00 0.00 1328.63 812.00" xmlns="http://www.w3.org/2000/svg" xmlns:xlink="http://www.w3.org/1999/xlink">
<g id="graph0" class="graph" transform="scale(1 1) rotate(0) translate(36 776)">
<title>G</title>
<polygon fill="#ffffff" stroke="transparent" points="-36,36 -36,-776 1292.6348,-776 1292.6348,36 -36,36"/>
<g id="clust1" class="cluster">
<title>cluster_services</title>
<polygon fill="#d3d3d3" stroke="#d3d3d3" points="1117.083,-437 1117.083,-491 1248.6348,-491 1248.6348,-437 1117.083,-437"/>
</g>
<g id="clust2" class="cluster">
<title>cluster_dependency</title>
<polygon fill="#d3d3d3" stroke="#d3d3d3" points="8,-8 8,-732 251.959,-732 251.959,-8 8,-8"/>
</g>
<g id="clust3" class="cluster">
<title>cluster_apis</title>
<polygon fill="#d3d3d3" stroke="#d3d3d3" points="595.959,-398 595.959,-515 773.083,-515 773.083,-398 595.959,-398"/>
</g>
<!-- my_rent_account -->
<g id="node1" class="node">
<title>my_rent_account</title>
<polygon fill="#ffffff" stroke="#000000" points="1125.083,-446 1125.083,-482 1240.6348,-482 1240.6348,-446 1125.083,-446"/>
<text text-anchor="middle" x="1182.8589" y="-459.8" font-family="Times,serif" font-size="14.00" fill="#000000">My Rent Account</text>
</g>
<!-- rent_account_api -->
<g id="node7" class="node">
<title>rent_account_api</title>
<polygon fill="#ffffff" stroke="#000000" points="603.959,-470 603.959,-506 765.083,-506 765.083,-470 603.959,-470"/>
<text text-anchor="middle" x="662.9072" y="-483.8" font-family="Times,serif" font-size="14.00" fill="#000000">Rent Account API</text>
<polyline fill="none" stroke="#000000" points="721.8555,-470 721.8555,-506 "/>
<text text-anchor="middle" x="743.4692" y="-483.8" font-family="Times,serif" font-size="14.00" fill="#000000">TBC</text>
</g>
<!-- my_rent_account&#45;&gt;rent_account_api -->
<g id="edge1" class="edge">
<title>my_rent_account&#45;&gt;rent_account_api:tbc</title>
<path fill="none" stroke="#000000" d="M1124.8572,-469.446C1046.4318,-476.3403 901.8564,-487.398 775.726,-487.9764"/>
<polygon fill="#000000" stroke="#000000" points="775.5128,-484.4767 765.521,-488 775.5291,-491.4767 775.5128,-484.4767"/>
</g>
<!-- ncc_api -->
<g id="node8" class="node">
<title>ncc_api</title>
<polygon fill="#ffffff" stroke="#000000" points="608.0469,-407 608.0469,-451 760.9951,-451 760.9951,-407 608.0469,-407"/>
<text text-anchor="middle" x="643.0864" y="-424.8" font-family="Times,serif" font-size="14.00" fill="#000000">NCC API</text>
<polyline fill="none" stroke="#000000" points="678.126,-407 678.126,-451 "/>
<text text-anchor="middle" x="719.5605" y="-435.8" font-family="Times,serif" font-size="14.00" fill="#000000">transactions</text>
<polyline fill="none" stroke="#000000" points="678.126,-429 760.9951,-429 "/>
<text text-anchor="middle" x="719.5605" y="-413.8" font-family="Times,serif" font-size="14.00" fill="#000000">TBC</text>
</g>
<!-- my_rent_account&#45;&gt;ncc_api -->
<g id="edge2" class="edge">
<title>my_rent_account&#45;&gt;ncc_api:transactions</title>
<path fill="none" stroke="#000000" d="M1124.85,-458.6139C1045.6494,-451.7245 898.8776,-440.6053 770.8772,-440.0238"/>
<polygon fill="#000000" stroke="#000000" points="770.529,-436.5231 760.521,-440 770.5129,-443.523 770.529,-436.5231"/>
</g>
<!-- hackney_housing_api -->
<g id="node2" class="node">
<title>hackney_housing_api</title>
<polygon fill="#ffffff" stroke="#000000" points="37.3691,-687 37.3691,-723 222.5898,-723 222.5898,-687 37.3691,-687"/>
<text text-anchor="middle" x="108.3657" y="-700.8" font-family="Times,serif" font-size="14.00" fill="#000000">Hackney Housing API</text>
<polyline fill="none" stroke="#000000" points="179.3623,-687 179.3623,-723 "/>
<text text-anchor="middle" x="200.9761" y="-700.8" font-family="Times,serif" font-size="14.00" fill="#000000">TBC</text>
</g>
<!-- crm -->
<g id="node3" class="node">
<title>crm</title>
<polygon fill="#ffffff" stroke="#000000" points="57.4019,-536 57.4019,-668 202.5571,-668 202.5571,-536 57.4019,-536"/>
<text text-anchor="middle" x="80.9639" y="-597.8" font-family="Times,serif" font-size="14.00" fill="#000000">CRM</text>
<polyline fill="none" stroke="#000000" points="104.5259,-536 104.5259,-668 "/>
<text text-anchor="middle" x="153.5415" y="-652.8" font-family="Times,serif" font-size="14.00" fill="#000000">Contact</text>
<polyline fill="none" stroke="#000000" points="104.5259,-646 202.5571,-646 "/>
<text text-anchor="middle" x="153.5415" y="-630.8" font-family="Times,serif" font-size="14.00" fill="#000000">Action Diaries</text>
<polyline fill="none" stroke="#000000" points="104.5259,-624 202.5571,-624 "/>
<text text-anchor="middle" x="153.5415" y="-608.8" font-family="Times,serif" font-size="14.00" fill="#000000">Transactions</text>
<polyline fill="none" stroke="#000000" points="104.5259,-602 202.5571,-602 "/>
<text text-anchor="middle" x="153.5415" y="-586.8" font-family="Times,serif" font-size="14.00" fill="#000000">Contacts</text>
<polyline fill="none" stroke="#000000" points="104.5259,-580 202.5571,-580 "/>
<text text-anchor="middle" x="153.5415" y="-564.8" font-family="Times,serif" font-size="14.00" fill="#000000">Notifications</text>
<polyline fill="none" stroke="#000000" points="104.5259,-558 202.5571,-558 "/>
<text text-anchor="middle" x="153.5415" y="-542.8" font-family="Times,serif" font-size="14.00" fill="#000000">Accounts</text>
</g>
<!-- uht -->
<g id="node4" class="node">
<title>uht</title>
<polygon fill="#ffffff" stroke="#000000" points="71.9932,-165 71.9932,-517 187.9658,-517 187.9658,-165 71.9932,-165"/>
<text text-anchor="middle" x="94.3794" y="-336.8" font-family="Times,serif" font-size="14.00" fill="#000000">UHT</text>
<polyline fill="none" stroke="#000000" points="116.7656,-165 116.7656,-517 "/>
<text text-anchor="middle" x="152.3657" y="-501.8" font-family="Times,serif" font-size="14.00" fill="#000000">property</text>
<polyline fill="none" stroke="#000000" points="116.7656,-495 187.9658,-495 "/>
<text text-anchor="middle" x="152.3657" y="-479.8" font-family="Times,serif" font-size="14.00" fill="#000000">tenagree</text>
<polyline fill="none" stroke="#000000" points="116.7656,-473 187.9658,-473 "/>
<text text-anchor="middle" x="152.3657" y="-457.8" font-family="Times,serif" font-size="14.00" fill="#000000">househ</text>
<polyline fill="none" stroke="#000000" points="116.7656,-451 187.9658,-451 "/>
<text text-anchor="middle" x="152.3657" y="-435.8" font-family="Times,serif" font-size="14.00" fill="#000000">araction</text>
<polyline fill="none" stroke="#000000" points="116.7656,-429 187.9658,-429 "/>
<text text-anchor="middle" x="152.3657" y="-413.8" font-family="Times,serif" font-size="14.00" fill="#000000">raaction</text>
<polyline fill="none" stroke="#000000" points="116.7656,-407 187.9658,-407 "/>
<text text-anchor="middle" x="152.3657" y="-391.8" font-family="Times,serif" font-size="14.00" fill="#000000">debitem</text>
<polyline fill="none" stroke="#000000" points="116.7656,-385 187.9658,-385 "/>
<text text-anchor="middle" x="152.3657" y="-369.8" font-family="Times,serif" font-size="14.00" fill="#000000">debtype</text>
<polyline fill="none" stroke="#000000" points="116.7656,-363 187.9658,-363 "/>
<text text-anchor="middle" x="152.3657" y="-347.8" font-family="Times,serif" font-size="14.00" fill="#000000">rtrans</text>
<polyline fill="none" stroke="#000000" points="116.7656,-341 187.9658,-341 "/>
<text text-anchor="middle" x="152.3657" y="-325.8" font-family="Times,serif" font-size="14.00" fill="#000000">rectype</text>
<polyline fill="none" stroke="#000000" points="116.7656,-319 187.9658,-319 "/>
<text text-anchor="middle" x="152.3657" y="-303.8" font-family="Times,serif" font-size="14.00" fill="#000000">rmworder</text>
<polyline fill="none" stroke="#000000" points="116.7656,-297 187.9658,-297 "/>
<text text-anchor="middle" x="152.3657" y="-281.8" font-family="Times,serif" font-size="14.00" fill="#000000">rmtask</text>
<polyline fill="none" stroke="#000000" points="116.7656,-275 187.9658,-275 "/>
<text text-anchor="middle" x="152.3657" y="-259.8" font-family="Times,serif" font-size="14.00" fill="#000000">rmreqst</text>
<polyline fill="none" stroke="#000000" points="116.7656,-253 187.9658,-253 "/>
<text text-anchor="middle" x="152.3657" y="-237.8" font-family="Times,serif" font-size="14.00" fill="#000000">visit</text>
<polyline fill="none" stroke="#000000" points="116.7656,-231 187.9658,-231 "/>
<text text-anchor="middle" x="152.3657" y="-215.8" font-family="Times,serif" font-size="14.00" fill="#000000">supplier</text>
<polyline fill="none" stroke="#000000" points="116.7656,-209 187.9658,-209 "/>
<text text-anchor="middle" x="152.3657" y="-193.8" font-family="Times,serif" font-size="14.00" fill="#000000">member</text>
<polyline fill="none" stroke="#000000" points="116.7656,-187 187.9658,-187 "/>
<text text-anchor="middle" x="152.3657" y="-171.8" font-family="Times,serif" font-size="14.00" fill="#000000">raction</text>
</g>
<!-- uh_web_services -->
<g id="node5" class="node">
<title>uh_web_services</title>
<polygon fill="#ffffff" stroke="#000000" points="27.3818,-102 27.3818,-146 232.5771,-146 232.5771,-102 27.3818,-102"/>
<text text-anchor="middle" x="85.2397" y="-119.8" font-family="Times,serif" font-size="14.00" fill="#000000">UH Web Services</text>
<polyline fill="none" stroke="#000000" points="143.0977,-102 143.0977,-146 "/>
<text text-anchor="middle" x="187.8374" y="-130.8" font-family="Times,serif" font-size="14.00" fill="#000000">TBC</text>
<polyline fill="none" stroke="#000000" points="143.0977,-124 232.5771,-124 "/>
<text text-anchor="middle" x="187.8374" y="-108.8" font-family="Times,serif" font-size="14.00" fill="#000000">Action Diary</text>
</g>
<!-- uhw -->
<g id="node6" class="node">
<title>uhw</title>
<polygon fill="#ffffff" stroke="#000000" points="16,-17 16,-83 243.959,-83 243.959,-17 16,-17"/>
<text text-anchor="middle" x="40.7173" y="-45.8" font-family="Times,serif" font-size="14.00" fill="#000000">UHW</text>
<polyline fill="none" stroke="#000000" points="65.4346,-17 65.4346,-83 "/>
<text text-anchor="middle" x="154.6968" y="-67.8" font-family="Times,serif" font-size="14.00" fill="#000000">W2ObjectNote</text>
<polyline fill="none" stroke="#000000" points="65.4346,-61 243.959,-61 "/>
<text text-anchor="middle" x="154.6968" y="-45.8" font-family="Times,serif" font-size="14.00" fill="#000000">usp_StartHackneyProcessV2</text>
<polyline fill="none" stroke="#000000" points="65.4346,-39 243.959,-39 "/>
<text text-anchor="middle" x="154.6968" y="-23.8" font-family="Times,serif" font-size="14.00" fill="#000000">ws_addNoteToOrder</text>
</g>
<!-- rent_account_api&#45;&gt;hackney_housing_api -->
<g id="edge3" class="edge">
<title>rent_account_api&#45;&gt;hackney_housing_api:tbc</title>
<path fill="none" stroke="#000000" d="M663.6274,-506.1281C602.417,-557.3396 416.2557,-699.7295 233.086,-704.8578"/>
<polygon fill="#000000" stroke="#000000" points="232.9292,-701.3595 222.9795,-705 233.0278,-708.3588 232.9292,-701.3595"/>
</g>
<!-- rent_account_api&#45;&gt;crm -->
<g id="edge4" class="edge">
<title>rent_account_api&#45;&gt;crm:transactions</title>
<path fill="none" stroke="#000000" d="M643.902,-506.0426C563.8285,-539.949 378.9749,-610.0488 213.3559,-612.9097"/>
<polygon fill="#000000" stroke="#000000" points="212.9486,-609.413 202.9795,-613 213.0096,-616.4127 212.9486,-609.413"/>
</g>
<!-- rent_account_api&#45;&gt;crm -->
<g id="edge5" class="edge">
<title>rent_account_api&#45;&gt;crm:contacts</title>
<path fill="none" stroke="#000000" d="M634.3175,-506.0591C549.4365,-534.9644 371.3556,-588.6314 213.3564,-590.9241"/>
<polygon fill="#000000" stroke="#000000" points="212.9536,-587.4268 202.9795,-591 213.0049,-594.4267 212.9536,-587.4268"/>
</g>
<!-- rent_account_api&#45;&gt;crm -->
<g id="edge6" class="edge">
<title>rent_account_api&#45;&gt;crm:notifications</title>
<path fill="none" stroke="#000000" d="M619.2897,-506.0772C529.3191,-529.4135 361.4244,-567.2534 213.1668,-568.9415"/>
<polygon fill="#000000" stroke="#000000" points="212.9592,-565.4425 202.9795,-569 212.9995,-572.4424 212.9592,-565.4425"/>
</g>
<!-- rent_account_api&#45;&gt;crm -->
<g id="edge7" class="edge">
<title>rent_account_api&#45;&gt;crm:accounts</title>
<path fill="none" stroke="#000000" d="M603.9487,-503.9662C510.8491,-521.0298 352.5371,-545.8063 212.9931,-546.9583"/>
<polygon fill="#000000" stroke="#000000" points="212.9648,-543.4583 202.9795,-547 212.994,-550.4582 212.9648,-543.4583"/>
</g>
<!-- rent_account_api&#45;&gt;uht -->
<g id="edge8" class="edge">
<title>rent_account_api&#45;&gt;uht:rtrans</title>
<path fill="none" stroke="#000000" d="M625.4977,-469.9403C510.822,-435.1132 263.4218,-361.3349 198.0037,-352.8086"/>
<polygon fill="#000000" stroke="#000000" points="198.2286,-349.3154 187.9795,-352 197.6657,-356.2928 198.2286,-349.3154"/>
</g>
<!-- rent_account_api&#45;&gt;uht -->
<g id="edge9" class="edge">
<title>rent_account_api&#45;&gt;uht:rectype</title>
<path fill="none" stroke="#000000" d="M624.936,-469.9661C615.243,-466.9945 605.3166,-463.9286 595.959,-461 417.4931,-405.1466 379.7626,-332.6725 198.1517,-330.072"/>
<polygon fill="#000000" stroke="#000000" points="198.0041,-326.571 187.9795,-330 197.9544,-333.5708 198.0041,-326.571"/>
</g>
<!-- ncc_api&#45;&gt;crm -->
<g id="edge11" class="edge">
<title>ncc_api&#45;&gt;crm:contact</title>
<path fill="none" stroke="#000000" d="M620.7996,-451.0176C612.3864,-454.2179 603.9237,-457.5885 595.959,-461 419.7023,-536.4966 398.8517,-652.8241 213.1099,-656.8904"/>
<polygon fill="#000000" stroke="#000000" points="212.941,-653.392 202.9795,-657 213.0168,-660.3915 212.941,-653.392"/>
</g>
<!-- ncc_api&#45;&gt;crm -->
<g id="edge12" class="edge">
<title>ncc_api&#45;&gt;crm:action_diaries</title>
<path fill="none" stroke="#000000" d="M621.8978,-451.008C613.1498,-454.2624 604.3032,-457.65 595.959,-461 421.9014,-530.8801 394.9343,-631.2946 213.1712,-634.9001"/>
<polygon fill="#000000" stroke="#000000" points="212.9447,-631.4021 202.9795,-635 213.0134,-638.4017 212.9447,-631.4021"/>
</g>
<!-- ncc_api&#45;&gt;uht -->
<g id="edge13" class="edge">
<title>ncc_api&#45;&gt;uht:araction</title>
<path fill="none" stroke="#000000" d="M607.9761,-431.7474C512.6514,-434.9323 344.4861,-439.7765 198.0387,-439.9925"/>
<polygon fill="#000000" stroke="#000000" points="197.9769,-436.4925 187.9795,-440 197.9821,-443.4925 197.9769,-436.4925"/>
</g>
<!-- ncc_api&#45;&gt;uht -->
<g id="edge14" class="edge">
<title>ncc_api&#45;&gt;uht:raaction</title>
<path fill="none" stroke="#000000" d="M607.9761,-426.2526C512.6514,-423.0677 344.4861,-418.2235 198.0387,-418.0075"/>
<polygon fill="#000000" stroke="#000000" points="197.9821,-414.5075 187.9795,-418 197.9769,-421.5075 197.9821,-414.5075"/>
</g>
<!-- ncc_api&#45;&gt;uht -->
<g id="edge15" class="edge">
<title>ncc_api&#45;&gt;uht:debitem</title>
<path fill="none" stroke="#000000" d="M607.6451,-420.7153C512.338,-411.1596 344.5444,-396.6685 198.0431,-396.0224"/>
<polygon fill="#000000" stroke="#000000" points="197.9873,-392.5223 187.9795,-396 197.9716,-399.5223 197.9873,-392.5223"/>
</g>
<!-- ncc_api&#45;&gt;uht -->
<g id="edge16" class="edge">
<title>ncc_api&#45;&gt;uht:debtype</title>
<path fill="none" stroke="#000000" d="M607.8315,-415.1922C512.7135,-399.266 345.116,-375.1142 198.0811,-374.0373"/>
<polygon fill="#000000" stroke="#000000" points="197.9924,-370.5371 187.9795,-374 197.9665,-377.537 197.9924,-370.5371"/>
</g>
<!-- ncc_api&#45;&gt;uht -->
<g id="edge17" class="edge">
<title>ncc_api&#45;&gt;uht:tenagree</title>
<path fill="none" stroke="#000000" d="M607.8315,-442.8078C512.7135,-458.734 345.116,-482.8858 198.0811,-483.9627"/>
<polygon fill="#000000" stroke="#000000" points="197.9665,-480.463 187.9795,-484 197.9924,-487.4629 197.9665,-480.463"/>
</g>
<!-- ncc_api&#45;&gt;uht -->
<g id="edge18" class="edge">
<title>ncc_api&#45;&gt;uht:rtrans</title>
<path fill="none" stroke="#000000" d="M607.6869,-409.5696C512.7741,-387.2714 345.7385,-353.5554 198.1229,-352.0521"/>
<polygon fill="#000000" stroke="#000000" points="197.9974,-348.5515 187.9795,-352 197.9614,-355.5514 197.9974,-348.5515"/>
</g>
<!-- ncc_api&#45;&gt;uht -->
<g id="edge19" class="edge">
<title>ncc_api&#45;&gt;uht:rectype</title>
<path fill="none" stroke="#000000" d="M617.4997,-406.9057C524.9135,-378.355 351.8628,-332.0423 198.08,-330.0654"/>
<polygon fill="#000000" stroke="#000000" points="198.002,-326.565 187.9795,-330 197.9566,-333.5648 198.002,-326.565"/>
</g>
<!-- ncc_api&#45;&gt;uh_web_services -->
<g id="edge10" class="edge">
<title>ncc_api&#45;&gt;uh_web_services:tbc</title>
<path fill="none" stroke="#000000" d="M667.4467,-406.9022C613.4455,-339.6976 438.3554,-141.9171 243.1778,-135.1766"/>
<polygon fill="#000000" stroke="#000000" points="243.0386,-131.6738 232.9795,-135 242.9173,-138.6727 243.0386,-131.6738"/>
</g>
<!-- ncc_api&#45;&gt;uhw -->
<g id="edge20" class="edge">
<title>ncc_api&#45;&gt;uhw:w2objectnote</title>
<path fill="none" stroke="#000000" d="M671.996,-406.9375C626.734,-330.3576 463.2342,-80.239 254.2819,-72.1984"/>
<polygon fill="#000000" stroke="#000000" points="254.0451,-68.6933 243.9795,-72 253.9102,-75.692 254.0451,-68.6933"/>
</g>
</g>
</svg>
