<?xml version="1.0" encoding="UTF-8" standalone="no"?>
<!DOCTYPE svg PUBLIC "-//W3C//DTD SVG 1.1//EN"
 "http://www.w3.org/Graphics/SVG/1.1/DTD/svg11.dtd">
<!-- Generated by graphviz version 2.40.1 (20161225.0304)
 -->
<!-- Title: G Pages: 1 -->
<svg width="1355pt" height="307pt"
 viewBox="0.00 0.00 1355.02 307.00" xmlns="http://www.w3.org/2000/svg" xmlns:xlink="http://www.w3.org/1999/xlink">
<g id="graph0" class="graph" transform="scale(1 1) rotate(0) translate(36 271)">
<title>G</title>
<polygon fill="#ffffff" stroke="transparent" points="-36,36 -36,-271 1319.0215,-271 1319.0215,36 -36,36"/>
<g id="clust1" class="cluster">
<title>cluster_dependency</title>
<polygon fill="none" stroke="#000000" points="8,-62 8,-146 251.959,-146 251.959,-62 8,-62"/>
</g>
<g id="clust2" class="cluster">
<title>cluster_services</title>
<polygon fill="none" stroke="#000000" points="1108.9072,-8 1108.9072,-227 1275.0215,-227 1275.0215,-8 1108.9072,-8"/>
</g>
<g id="clust3" class="cluster">
<title>cluster_apis</title>
<polygon fill="none" stroke="#000000" points="595.959,-66 595.959,-183 764.9072,-183 764.9072,-66 595.959,-66"/>
</g>
<!-- uhw -->
<g id="node1" class="node">
<title>uhw</title>
<polygon fill="none" stroke="#000000" points="16,-71 16,-137 243.959,-137 243.959,-71 16,-71"/>
<text text-anchor="middle" x="40.7173" y="-99.8" font-family="Times,serif" font-size="14.00" fill="#000000">UHW</text>
<polyline fill="none" stroke="#000000" points="65.4346,-71 65.4346,-137 "/>
<text text-anchor="middle" x="154.6968" y="-121.8" font-family="Times,serif" font-size="14.00" fill="#000000">W2ObjectNote</text>
<polyline fill="none" stroke="#000000" points="65.4346,-115 243.959,-115 "/>
<text text-anchor="middle" x="154.6968" y="-99.8" font-family="Times,serif" font-size="14.00" fill="#000000">usp_StartHackneyProcessV2</text>
<polyline fill="none" stroke="#000000" points="65.4346,-93 243.959,-93 "/>
<text text-anchor="middle" x="154.6968" y="-77.8" font-family="Times,serif" font-size="14.00" fill="#000000">ws_addNoteToOrder</text>
</g>
<!-- my_rent_account -->
<g id="node2" class="node">
<title>my_rent_account</title>
<polygon fill="none" stroke="#000000" points="1134.1885,-182 1134.1885,-218 1249.7402,-218 1249.7402,-182 1134.1885,-182"/>
<text text-anchor="middle" x="1191.9644" y="-195.8" font-family="Times,serif" font-size="14.00" fill="#000000">My Rent Account</text>
</g>
<!-- ncc_api -->
<g id="node6" class="node">
<title>ncc_api</title>
<polygon fill="none" stroke="#000000" points="603.959,-130 603.959,-174 756.9072,-174 756.9072,-130 603.959,-130"/>
<text text-anchor="middle" x="638.9985" y="-147.8" font-family="Times,serif" font-size="14.00" fill="#000000">NCC API</text>
<polyline fill="none" stroke="#000000" points="674.0381,-130 674.0381,-174 "/>
<text text-anchor="middle" x="715.4727" y="-158.8" font-family="Times,serif" font-size="14.00" fill="#000000">transactions</text>
<polyline fill="none" stroke="#000000" points="674.0381,-152 756.9072,-152 "/>
<text text-anchor="middle" x="715.4727" y="-136.8" font-family="Times,serif" font-size="14.00" fill="#000000">TBC</text>
</g>
<!-- my_rent_account&#45;&gt;ncc_api -->
<g id="edge1" class="edge">
<title>my_rent_account&#45;&gt;ncc_api:transactions</title>
<path fill="none" stroke="#000000" d="M1133.978,-191.9259C1052.753,-181.3155 900.0816,-163.9114 766.8082,-163.0345"/>
<polygon fill="#000000" stroke="#000000" points="766.4447,-159.5333 756.4331,-163 766.4214,-166.5333 766.4447,-159.5333"/>
</g>
<!-- ncc_crm -->
<g id="node3" class="node">
<title>ncc_crm</title>
<polygon fill="none" stroke="#000000" points="1152.2593,-127 1152.2593,-163 1231.6694,-163 1231.6694,-127 1152.2593,-127"/>
<text text-anchor="middle" x="1191.9644" y="-140.8" font-family="Times,serif" font-size="14.00" fill="#000000">NCC CRM</text>
</g>
<!-- ncc_crm&#45;&gt;ncc_api -->
<g id="edge2" class="edge">
<title>ncc_crm&#45;&gt;ncc_api:tbc</title>
<path fill="none" stroke="#000000" d="M1152.0339,-144.3881C1077.1554,-143.2939 910.248,-141.1057 766.7248,-141.0037"/>
<polygon fill="#000000" stroke="#000000" points="766.4344,-137.5037 756.4331,-141 766.4318,-144.5037 766.4344,-137.5037"/>
</g>
<!-- report_a_repair_service -->
<g id="node4" class="node">
<title>report_a_repair_service</title>
<polygon fill="none" stroke="#000000" points="1116.9072,-72 1116.9072,-108 1267.0215,-108 1267.0215,-72 1116.9072,-72"/>
<text text-anchor="middle" x="1191.9644" y="-85.8" font-family="Times,serif" font-size="14.00" fill="#000000">Report a Repair Service</text>
</g>
<!-- repairs_api -->
<g id="node7" class="node">
<title>repairs_api</title>
<polygon fill="none" stroke="#000000" points="614.083,-75 614.083,-111 746.7832,-111 746.7832,-75 614.083,-75"/>
<text text-anchor="middle" x="656.1123" y="-88.8" font-family="Times,serif" font-size="14.00" fill="#000000">Repairs API</text>
<polyline fill="none" stroke="#000000" points="698.1416,-75 698.1416,-111 "/>
<text text-anchor="middle" x="722.4624" y="-88.8" font-family="Times,serif" font-size="14.00" fill="#000000">repair</text>
</g>
<!-- report_a_repair_service&#45;&gt;repairs_api -->
<g id="edge3" class="edge">
<title>report_a_repair_service&#45;&gt;repairs_api:repair</title>
<path fill="none" stroke="#000000" d="M1116.6824,-90.8158C1030.4337,-91.6807 884.5227,-92.9319 756.7707,-92.9973"/>
<polygon fill="#000000" stroke="#000000" points="756.4322,-89.4973 746.4331,-93 756.434,-96.4973 756.4322,-89.4973"/>
</g>
<!-- repairs_hub -->
<g id="node5" class="node">
<title>repairs_hub</title>
<polygon fill="none" stroke="#000000" points="1148.7764,-17 1148.7764,-53 1235.1523,-53 1235.1523,-17 1148.7764,-17"/>
<text text-anchor="middle" x="1191.9644" y="-30.8" font-family="Times,serif" font-size="14.00" fill="#000000">Repairs Hub</text>
</g>
<!-- repairs_hub&#45;&gt;repairs_api -->
<g id="edge4" class="edge">
<title>repairs_hub&#45;&gt;repairs_api:repair</title>
<path fill="none" stroke="#000000" d="M1148.5731,-44.4478C1070.9652,-60.5136 902.8022,-91.5651 756.4831,-92.9519"/>
<polygon fill="#000000" stroke="#000000" points="756.4162,-89.4521 746.4331,-93 756.4498,-96.452 756.4162,-89.4521"/>
</g>
<!-- ncc_api&#45;&gt;uhw -->
<g id="edge5" class="edge">
<title>ncc_api&#45;&gt;uhw:w2objectnote</title>
<path fill="none" stroke="#000000" d="M603.6456,-144.6537C518.831,-137.1679 377.8527,-126.576 254.0024,-126.0226"/>
<polygon fill="#000000" stroke="#000000" points="253.9874,-122.5227 243.9795,-126 253.9715,-129.5226 253.9874,-122.5227"/>
</g>
<!-- repairs_api&#45;&gt;uhw -->
<g id="edge6" class="edge">
<title>repairs_api&#45;&gt;uhw:usp_starthackneyprocessv2</title>
<path fill="none" stroke="#000000" d="M613.8977,-95.7191C530.501,-98.8938 382.8458,-103.746 254.0091,-103.9904"/>
<polygon fill="#000000" stroke="#000000" points="253.9761,-100.4903 243.9795,-104 253.9829,-107.4903 253.9761,-100.4903"/>
</g>
<!-- repairs_api&#45;&gt;uhw -->
<g id="edge7" class="edge">
<title>repairs_api&#45;&gt;uhw:w2objectnote</title>
<path fill="none" stroke="#000000" d="M614.0026,-101.1573C530.7139,-110.6814 383.1724,-125.2381 254.0336,-125.9712"/>
<polygon fill="#000000" stroke="#000000" points="253.9694,-122.4713 243.9795,-126 253.9895,-129.4712 253.9694,-122.4713"/>
</g>
<!-- repairs_api&#45;&gt;uhw -->
<g id="edge8" class="edge">
<title>repairs_api&#45;&gt;uhw:ws_addnotetoorder</title>
<path fill="none" stroke="#000000" d="M613.8977,-90.2809C530.501,-87.1062 382.8458,-82.254 254.0091,-82.0096"/>
<polygon fill="#000000" stroke="#000000" points="253.9829,-78.5097 243.9795,-82 253.9761,-85.5097 253.9829,-78.5097"/>
</g>
</g>
</svg>
