<?xml version="1.0" encoding="UTF-8" standalone="no"?>
<!DOCTYPE svg PUBLIC "-//W3C//DTD SVG 1.1//EN"
 "http://www.w3.org/Graphics/SVG/1.1/DTD/svg11.dtd">
<!-- Generated by graphviz version 2.40.1 (20161225.0304)
 -->
<!-- Title: G Pages: 1 -->
<svg width="1286pt" height="664pt"
 viewBox="0.00 0.00 1285.90 664.00" xmlns="http://www.w3.org/2000/svg" xmlns:xlink="http://www.w3.org/1999/xlink">
<g id="graph0" class="graph" transform="scale(1 1) rotate(0) translate(36 628)">
<title>G</title>
<polygon fill="#ffffff" stroke="transparent" points="-36,36 -36,-628 1249.8965,-628 1249.8965,36 -36,36"/>
<g id="clust1" class="cluster">
<title>cluster_apis</title>
<polygon fill="none" stroke="#000000" points="553.2207,-394 553.2207,-448 730.3447,-448 730.3447,-394 553.2207,-394"/>
</g>
<g id="clust2" class="cluster">
<title>cluster_dependency</title>
<polygon fill="none" stroke="#000000" points="8,-8 8,-584 209.2207,-584 209.2207,-8 8,-8"/>
</g>
<g id="clust3" class="cluster">
<title>cluster_services</title>
<polygon fill="none" stroke="#000000" points="1074.3447,-394 1074.3447,-448 1205.8965,-448 1205.8965,-394 1074.3447,-394"/>
</g>
<!-- rent_account_api -->
<g id="node1" class="node">
<title>rent_account_api</title>
<polygon fill="none" stroke="#000000" points="561.2207,-403 561.2207,-439 722.3447,-439 722.3447,-403 561.2207,-403"/>
<text text-anchor="middle" x="620.1689" y="-416.8" font-family="Times,serif" font-size="14.00" fill="#000000">Rent Account API</text>
<polyline fill="none" stroke="#000000" points="679.1172,-403 679.1172,-439 "/>
<text text-anchor="middle" x="700.731" y="-416.8" font-family="Times,serif" font-size="14.00" fill="#000000">TBC</text>
</g>
<!-- hackney_housing_api -->
<g id="node2" class="node">
<title>hackney_housing_api</title>
<polygon fill="none" stroke="#000000" points="16,-539 16,-575 201.2207,-575 201.2207,-539 16,-539"/>
<text text-anchor="middle" x="86.9966" y="-552.8" font-family="Times,serif" font-size="14.00" fill="#000000">Hackney Housing API</text>
<polyline fill="none" stroke="#000000" points="157.9932,-539 157.9932,-575 "/>
<text text-anchor="middle" x="179.6069" y="-552.8" font-family="Times,serif" font-size="14.00" fill="#000000">TBC</text>
</g>
<!-- rent_account_api&#45;&gt;hackney_housing_api -->
<g id="edge1" class="edge">
<title>rent_account_api&#45;&gt;hackney_housing_api:tbc</title>
<path fill="none" stroke="#000000" d="M608.078,-439.0597C537.3446,-475.2596 367.101,-553.5422 211.8159,-556.8892"/>
<polygon fill="#000000" stroke="#000000" points="211.5717,-553.3915 201.6104,-557 211.6478,-560.3911 211.5717,-553.3915"/>
</g>
<!-- crm -->
<g id="node3" class="node">
<title>crm</title>
<polygon fill="none" stroke="#000000" points="36.0327,-388 36.0327,-520 181.188,-520 181.188,-388 36.0327,-388"/>
<text text-anchor="middle" x="59.5947" y="-449.8" font-family="Times,serif" font-size="14.00" fill="#000000">CRM</text>
<polyline fill="none" stroke="#000000" points="83.1567,-388 83.1567,-520 "/>
<text text-anchor="middle" x="132.1724" y="-504.8" font-family="Times,serif" font-size="14.00" fill="#000000">Contact</text>
<polyline fill="none" stroke="#000000" points="83.1567,-498 181.188,-498 "/>
<text text-anchor="middle" x="132.1724" y="-482.8" font-family="Times,serif" font-size="14.00" fill="#000000">Action Diaries</text>
<polyline fill="none" stroke="#000000" points="83.1567,-476 181.188,-476 "/>
<text text-anchor="middle" x="132.1724" y="-460.8" font-family="Times,serif" font-size="14.00" fill="#000000">Transactions</text>
<polyline fill="none" stroke="#000000" points="83.1567,-454 181.188,-454 "/>
<text text-anchor="middle" x="132.1724" y="-438.8" font-family="Times,serif" font-size="14.00" fill="#000000">Contacts</text>
<polyline fill="none" stroke="#000000" points="83.1567,-432 181.188,-432 "/>
<text text-anchor="middle" x="132.1724" y="-416.8" font-family="Times,serif" font-size="14.00" fill="#000000">Notifications</text>
<polyline fill="none" stroke="#000000" points="83.1567,-410 181.188,-410 "/>
<text text-anchor="middle" x="132.1724" y="-394.8" font-family="Times,serif" font-size="14.00" fill="#000000">Accounts</text>
</g>
<!-- rent_account_api&#45;&gt;crm -->
<g id="edge2" class="edge">
<title>rent_account_api&#45;&gt;crm:transactions</title>
<path fill="none" stroke="#000000" d="M560.9588,-433.4322C471.5653,-446.1131 322.8252,-464.0613 191.8124,-464.9645"/>
<polygon fill="#000000" stroke="#000000" points="191.5981,-461.4651 181.6104,-465 191.6225,-468.4651 191.5981,-461.4651"/>
</g>
<!-- rent_account_api&#45;&gt;crm -->
<g id="edge3" class="edge">
<title>rent_account_api&#45;&gt;crm:contacts</title>
<path fill="none" stroke="#000000" d="M561.2054,-427.1868C471.7137,-433.5286 322.5912,-442.5292 191.7943,-442.9822"/>
<polygon fill="#000000" stroke="#000000" points="191.6042,-439.4824 181.6104,-443 191.6165,-446.4824 191.6042,-439.4824"/>
</g>
<!-- rent_account_api&#45;&gt;crm -->
<g id="edge4" class="edge">
<title>rent_account_api&#45;&gt;crm:notifications</title>
<path fill="none" stroke="#000000" d="M561.1497,-421C471.6087,-421 322.4416,-421 191.7831,-421"/>
<polygon fill="#000000" stroke="#000000" points="191.6104,-417.5001 181.6104,-421 191.6103,-424.5001 191.6104,-417.5001"/>
</g>
<!-- rent_account_api&#45;&gt;crm -->
<g id="edge5" class="edge">
<title>rent_account_api&#45;&gt;crm:accounts</title>
<path fill="none" stroke="#000000" d="M561.2054,-414.8132C471.7137,-408.4714 322.5912,-399.4708 191.7943,-399.0178"/>
<polygon fill="#000000" stroke="#000000" points="191.6165,-395.5176 181.6104,-399 191.6042,-402.5176 191.6165,-395.5176"/>
</g>
<!-- uht -->
<g id="node4" class="node">
<title>uht</title>
<polygon fill="none" stroke="#000000" points="50.624,-17 50.624,-369 166.5967,-369 166.5967,-17 50.624,-17"/>
<text text-anchor="middle" x="73.0103" y="-188.8" font-family="Times,serif" font-size="14.00" fill="#000000">UHT</text>
<polyline fill="none" stroke="#000000" points="95.3965,-17 95.3965,-369 "/>
<text text-anchor="middle" x="130.9966" y="-353.8" font-family="Times,serif" font-size="14.00" fill="#000000">property</text>
<polyline fill="none" stroke="#000000" points="95.3965,-347 166.5967,-347 "/>
<text text-anchor="middle" x="130.9966" y="-331.8" font-family="Times,serif" font-size="14.00" fill="#000000">tenagree</text>
<polyline fill="none" stroke="#000000" points="95.3965,-325 166.5967,-325 "/>
<text text-anchor="middle" x="130.9966" y="-309.8" font-family="Times,serif" font-size="14.00" fill="#000000">househ</text>
<polyline fill="none" stroke="#000000" points="95.3965,-303 166.5967,-303 "/>
<text text-anchor="middle" x="130.9966" y="-287.8" font-family="Times,serif" font-size="14.00" fill="#000000">araction</text>
<polyline fill="none" stroke="#000000" points="95.3965,-281 166.5967,-281 "/>
<text text-anchor="middle" x="130.9966" y="-265.8" font-family="Times,serif" font-size="14.00" fill="#000000">raaction</text>
<polyline fill="none" stroke="#000000" points="95.3965,-259 166.5967,-259 "/>
<text text-anchor="middle" x="130.9966" y="-243.8" font-family="Times,serif" font-size="14.00" fill="#000000">debitem</text>
<polyline fill="none" stroke="#000000" points="95.3965,-237 166.5967,-237 "/>
<text text-anchor="middle" x="130.9966" y="-221.8" font-family="Times,serif" font-size="14.00" fill="#000000">debtype</text>
<polyline fill="none" stroke="#000000" points="95.3965,-215 166.5967,-215 "/>
<text text-anchor="middle" x="130.9966" y="-199.8" font-family="Times,serif" font-size="14.00" fill="#000000">rtrans</text>
<polyline fill="none" stroke="#000000" points="95.3965,-193 166.5967,-193 "/>
<text text-anchor="middle" x="130.9966" y="-177.8" font-family="Times,serif" font-size="14.00" fill="#000000">rectype</text>
<polyline fill="none" stroke="#000000" points="95.3965,-171 166.5967,-171 "/>
<text text-anchor="middle" x="130.9966" y="-155.8" font-family="Times,serif" font-size="14.00" fill="#000000">rmworder</text>
<polyline fill="none" stroke="#000000" points="95.3965,-149 166.5967,-149 "/>
<text text-anchor="middle" x="130.9966" y="-133.8" font-family="Times,serif" font-size="14.00" fill="#000000">rmtask</text>
<polyline fill="none" stroke="#000000" points="95.3965,-127 166.5967,-127 "/>
<text text-anchor="middle" x="130.9966" y="-111.8" font-family="Times,serif" font-size="14.00" fill="#000000">rmreqst</text>
<polyline fill="none" stroke="#000000" points="95.3965,-105 166.5967,-105 "/>
<text text-anchor="middle" x="130.9966" y="-89.8" font-family="Times,serif" font-size="14.00" fill="#000000">visit</text>
<polyline fill="none" stroke="#000000" points="95.3965,-83 166.5967,-83 "/>
<text text-anchor="middle" x="130.9966" y="-67.8" font-family="Times,serif" font-size="14.00" fill="#000000">supplier</text>
<polyline fill="none" stroke="#000000" points="95.3965,-61 166.5967,-61 "/>
<text text-anchor="middle" x="130.9966" y="-45.8" font-family="Times,serif" font-size="14.00" fill="#000000">member</text>
<polyline fill="none" stroke="#000000" points="95.3965,-39 166.5967,-39 "/>
<text text-anchor="middle" x="130.9966" y="-23.8" font-family="Times,serif" font-size="14.00" fill="#000000">raction</text>
</g>
<!-- rent_account_api&#45;&gt;uht -->
<g id="edge6" class="edge">
<title>rent_account_api&#45;&gt;uht:rtrans</title>
<path fill="none" stroke="#000000" d="M620.1787,-402.8719C556.8771,-351.635 364.4415,-209.1288 176.6835,-204.1347"/>
<polygon fill="#000000" stroke="#000000" points="176.6563,-200.6341 166.6104,-204 176.5626,-207.6335 176.6563,-200.6341"/>
</g>
<!-- rent_account_api&#45;&gt;uht -->
<g id="edge7" class="edge">
<title>rent_account_api&#45;&gt;uht:rectype</title>
<path fill="none" stroke="#000000" d="M622.283,-402.6429C561.7574,-347.6345 369.5613,-187.5969 176.6716,-182.1429"/>
<polygon fill="#000000" stroke="#000000" points="176.6591,-178.6425 166.6104,-182 176.5596,-185.6418 176.6591,-178.6425"/>
</g>
<!-- my_rent_account -->
<g id="node5" class="node">
<title>my_rent_account</title>
<polygon fill="none" stroke="#000000" points="1082.3447,-403 1082.3447,-439 1197.8965,-439 1197.8965,-403 1082.3447,-403"/>
<text text-anchor="middle" x="1140.1206" y="-416.8" font-family="Times,serif" font-size="14.00" fill="#000000">My Rent Account</text>
</g>
<!-- my_rent_account&#45;&gt;rent_account_api -->
<g id="edge8" class="edge">
<title>my_rent_account&#45;&gt;rent_account_api:tbc</title>
<path fill="none" stroke="#000000" d="M1082.0584,-421C1003.5646,-421 858.9105,-421 732.9716,-421"/>
<polygon fill="#000000" stroke="#000000" points="732.7827,-417.5001 722.7827,-421 732.7827,-424.5001 732.7827,-417.5001"/>
</g>
</g>
</svg>
