<?xml version="1.0" encoding="UTF-8" standalone="no"?>
<!DOCTYPE svg PUBLIC "-//W3C//DTD SVG 1.1//EN"
 "http://www.w3.org/Graphics/SVG/1.1/DTD/svg11.dtd">
<!-- Generated by graphviz version 2.40.1 (20161225.0304)
 -->
<!-- Title: G Pages: 1 -->
<svg width="1788pt" height="883pt"
 viewBox="0.00 0.00 1787.59 882.66" xmlns="http://www.w3.org/2000/svg" xmlns:xlink="http://www.w3.org/1999/xlink">
<g id="graph0" class="graph" transform="scale(1 1) rotate(0) translate(36 846.6615)">
<title>G</title>
<polygon fill="#ffffff" stroke="transparent" points="-36,36 -36,-846.6615 1751.5928,-846.6615 1751.5928,36 -36,36"/>
<g id="clust1" class="cluster">
<title>cluster_dependency</title>
<polygon fill="#d3d3d3" stroke="#d3d3d3" points="8,-163.7502 8,-533.7502 139.9727,-533.7502 139.9727,-163.7502 8,-163.7502"/>
</g>
<g id="clust2" class="cluster">
<title>cluster_services</title>
<polygon fill="#d3d3d3" stroke="#d3d3d3" points="1526.3096,-419.7502 1526.3096,-693.7502 1707.5928,-693.7502 1707.5928,-419.7502 1526.3096,-419.7502"/>
</g>
<g id="clust3" class="cluster">
<title>cluster_apis</title>
<polygon fill="#d3d3d3" stroke="#d3d3d3" points="483.9727,-400.7502 483.9727,-767.7502 1182.3096,-767.7502 1182.3096,-400.7502 483.9727,-400.7502"/>
</g>
<!-- uht -->
<g id="node1" class="node">
<title>uht</title>
<polygon fill="#ffffff" stroke="#000000" points="16,-172.7502 16,-524.7502 131.9727,-524.7502 131.9727,-172.7502 16,-172.7502"/>
<text text-anchor="middle" x="38.3862" y="-344.5502" font-family="Times,serif" font-size="14.00" fill="#000000">UHT</text>
<polyline fill="none" stroke="#000000" points="60.7725,-172.7502 60.7725,-524.7502 "/>
<text text-anchor="middle" x="96.3726" y="-509.5502" font-family="Times,serif" font-size="14.00" fill="#000000">property</text>
<polyline fill="none" stroke="#000000" points="60.7725,-502.7502 131.9727,-502.7502 "/>
<text text-anchor="middle" x="96.3726" y="-487.5502" font-family="Times,serif" font-size="14.00" fill="#000000">tenagree</text>
<polyline fill="none" stroke="#000000" points="60.7725,-480.7502 131.9727,-480.7502 "/>
<text text-anchor="middle" x="96.3726" y="-465.5502" font-family="Times,serif" font-size="14.00" fill="#000000">househ</text>
<polyline fill="none" stroke="#000000" points="60.7725,-458.7502 131.9727,-458.7502 "/>
<text text-anchor="middle" x="96.3726" y="-443.5502" font-family="Times,serif" font-size="14.00" fill="#000000">araction</text>
<polyline fill="none" stroke="#000000" points="60.7725,-436.7502 131.9727,-436.7502 "/>
<text text-anchor="middle" x="96.3726" y="-421.5502" font-family="Times,serif" font-size="14.00" fill="#000000">raaction</text>
<polyline fill="none" stroke="#000000" points="60.7725,-414.7502 131.9727,-414.7502 "/>
<text text-anchor="middle" x="96.3726" y="-399.5502" font-family="Times,serif" font-size="14.00" fill="#000000">debitem</text>
<polyline fill="none" stroke="#000000" points="60.7725,-392.7502 131.9727,-392.7502 "/>
<text text-anchor="middle" x="96.3726" y="-377.5502" font-family="Times,serif" font-size="14.00" fill="#000000">debtype</text>
<polyline fill="none" stroke="#000000" points="60.7725,-370.7502 131.9727,-370.7502 "/>
<text text-anchor="middle" x="96.3726" y="-355.5502" font-family="Times,serif" font-size="14.00" fill="#000000">rtrans</text>
<polyline fill="none" stroke="#000000" points="60.7725,-348.7502 131.9727,-348.7502 "/>
<text text-anchor="middle" x="96.3726" y="-333.5502" font-family="Times,serif" font-size="14.00" fill="#000000">rectype</text>
<polyline fill="none" stroke="#000000" points="60.7725,-326.7502 131.9727,-326.7502 "/>
<text text-anchor="middle" x="96.3726" y="-311.5502" font-family="Times,serif" font-size="14.00" fill="#000000">rmworder</text>
<polyline fill="none" stroke="#000000" points="60.7725,-304.7502 131.9727,-304.7502 "/>
<text text-anchor="middle" x="96.3726" y="-289.5502" font-family="Times,serif" font-size="14.00" fill="#000000">rmtask</text>
<polyline fill="none" stroke="#000000" points="60.7725,-282.7502 131.9727,-282.7502 "/>
<text text-anchor="middle" x="96.3726" y="-267.5502" font-family="Times,serif" font-size="14.00" fill="#000000">rmreqst</text>
<polyline fill="none" stroke="#000000" points="60.7725,-260.7502 131.9727,-260.7502 "/>
<text text-anchor="middle" x="96.3726" y="-245.5502" font-family="Times,serif" font-size="14.00" fill="#000000">visit</text>
<polyline fill="none" stroke="#000000" points="60.7725,-238.7502 131.9727,-238.7502 "/>
<text text-anchor="middle" x="96.3726" y="-223.5502" font-family="Times,serif" font-size="14.00" fill="#000000">supplier</text>
<polyline fill="none" stroke="#000000" points="60.7725,-216.7502 131.9727,-216.7502 "/>
<text text-anchor="middle" x="96.3726" y="-201.5502" font-family="Times,serif" font-size="14.00" fill="#000000">member</text>
<polyline fill="none" stroke="#000000" points="60.7725,-194.7502 131.9727,-194.7502 "/>
<text text-anchor="middle" x="96.3726" y="-179.5502" font-family="Times,serif" font-size="14.00" fill="#000000">raction</text>
</g>
<!-- income_collection_service -->
<g id="node2" class="node">
<title>income_collection_service</title>
<polygon fill="#ffffff" stroke="#000000" points="1534.3096,-648.7502 1534.3096,-684.7502 1699.5928,-684.7502 1699.5928,-648.7502 1534.3096,-648.7502"/>
<text text-anchor="middle" x="1616.9512" y="-662.5502" font-family="Times,serif" font-size="14.00" fill="#000000">Income Collection Service</text>
</g>
<!-- income_api -->
<g id="node7" class="node">
<title>income_api</title>
<polygon fill="#ffffff" stroke="#000000" points="1008.5645,-637.7502 1008.5645,-703.7502 1174.3096,-703.7502 1174.3096,-637.7502 1008.5645,-637.7502"/>
<text text-anchor="middle" x="1050.2007" y="-666.5502" font-family="Times,serif" font-size="14.00" fill="#000000">Income API</text>
<polyline fill="none" stroke="#000000" points="1091.8369,-637.7502 1091.8369,-703.7502 "/>
<text text-anchor="middle" x="1133.0732" y="-688.5502" font-family="Times,serif" font-size="14.00" fill="#000000">users</text>
<polyline fill="none" stroke="#000000" points="1091.8369,-681.7502 1174.3096,-681.7502 "/>
<text text-anchor="middle" x="1133.0732" y="-666.5502" font-family="Times,serif" font-size="14.00" fill="#000000">worktray</text>
<polyline fill="none" stroke="#000000" points="1091.8369,-659.7502 1174.3096,-659.7502 "/>
<text text-anchor="middle" x="1133.0732" y="-644.5502" font-family="Times,serif" font-size="14.00" fill="#000000">action diary</text>
</g>
<!-- income_collection_service&#45;&gt;income_api -->
<g id="edge1" class="edge">
<title>income_collection_service&#45;&gt;income_api:users</title>
<path fill="none" stroke="#000000" d="M1534.2555,-674.5159C1447.8521,-681.9677 1307.9774,-692.1742 1184.7856,-692.7268"/>
<polygon fill="#000000" stroke="#000000" points="1184.429,-689.2275 1174.437,-692.7502 1184.4449,-696.2275 1184.429,-689.2275"/>
</g>
<!-- income_collection_service&#45;&gt;income_api -->
<g id="edge2" class="edge">
<title>income_collection_service&#45;&gt;income_api:worktray</title>
<path fill="none" stroke="#000000" d="M1534.1724,-667.9449C1447.701,-669.0914 1307.7694,-670.6616 1184.7689,-670.7466"/>
<polygon fill="#000000" stroke="#000000" points="1184.4358,-667.2466 1174.437,-670.7502 1184.4383,-674.2466 1184.4358,-667.2466"/>
</g>
<!-- income_collection_service&#45;&gt;income_api -->
<g id="edge3" class="edge">
<title>income_collection_service&#45;&gt;income_api:action_diary</title>
<path fill="none" stroke="#000000" d="M1534.2112,-661.374C1447.7716,-656.2151 1307.8666,-649.149 1184.7767,-648.7665"/>
<polygon fill="#000000" stroke="#000000" points="1184.4425,-645.266 1174.437,-648.7502 1184.4315,-652.266 1184.4425,-645.266"/>
</g>
<!-- tenancy_api -->
<g id="node9" class="node">
<title>tenancy_api</title>
<polygon fill="#ffffff" stroke="#000000" points="491.9727,-714.7502 491.9727,-758.7502 648.5645,-758.7502 648.5645,-714.7502 491.9727,-714.7502"/>
<text text-anchor="middle" x="536.2271" y="-732.5502" font-family="Times,serif" font-size="14.00" fill="#000000">Tenancy API</text>
<polyline fill="none" stroke="#000000" points="580.4814,-714.7502 580.4814,-758.7502 "/>
<text text-anchor="middle" x="614.5229" y="-743.5502" font-family="Times,serif" font-size="14.00" fill="#000000">tenancies</text>
<polyline fill="none" stroke="#000000" points="580.4814,-736.7502 648.5645,-736.7502 "/>
<text text-anchor="middle" x="614.5229" y="-721.5502" font-family="Times,serif" font-size="14.00" fill="#000000">contacts</text>
</g>
<!-- income_collection_service&#45;&gt;tenancy_api -->
<g id="edge4" class="edge">
<title>income_collection_service&#45;&gt;tenancy_api:tenancies</title>
<path fill="none" stroke="#000000" d="M1574.1701,-684.7993C1497.3807,-716.1081 1330.3481,-779.289 1182.3096,-801.7502 949.7869,-837.0298 888.5541,-750.2678 658.2961,-747.8036"/>
<polygon fill="#000000" stroke="#000000" points="658.2871,-744.3036 648.2686,-747.7502 658.2497,-751.3035 658.2871,-744.3036"/>
</g>
<!-- income_collection_service&#45;&gt;tenancy_api -->
<g id="edge5" class="edge">
<title>income_collection_service&#45;&gt;tenancy_api:contacts</title>
<path fill="none" stroke="#000000" d="M1559.3542,-684.7601C1476.836,-709.5268 1319.7446,-752.84 1182.3096,-768.7502 949.119,-795.7457 888.1055,-727.7239 658.2775,-725.7921"/>
<polygon fill="#000000" stroke="#000000" points="658.2831,-722.2922 648.2686,-725.7502 658.2538,-729.2921 658.2831,-722.2922"/>
</g>
<!-- my_rent_account -->
<g id="node3" class="node">
<title>my_rent_account</title>
<polygon fill="#ffffff" stroke="#000000" points="1559.1753,-593.7502 1559.1753,-629.7502 1674.7271,-629.7502 1674.7271,-593.7502 1559.1753,-593.7502"/>
<text text-anchor="middle" x="1616.9512" y="-607.5502" font-family="Times,serif" font-size="14.00" fill="#000000">My Rent Account</text>
</g>
<!-- ncc_api -->
<g id="node10" class="node">
<title>ncc_api</title>
<polygon fill="#ffffff" stroke="#000000" points="1014.9629,-574.7502 1014.9629,-618.7502 1167.9111,-618.7502 1167.9111,-574.7502 1014.9629,-574.7502"/>
<text text-anchor="middle" x="1050.0024" y="-592.5502" font-family="Times,serif" font-size="14.00" fill="#000000">NCC API</text>
<polyline fill="none" stroke="#000000" points="1085.042,-574.7502 1085.042,-618.7502 "/>
<text text-anchor="middle" x="1126.4766" y="-603.5502" font-family="Times,serif" font-size="14.00" fill="#000000">transactions</text>
<polyline fill="none" stroke="#000000" points="1085.042,-596.7502 1167.9111,-596.7502 "/>
<text text-anchor="middle" x="1126.4766" y="-581.5502" font-family="Times,serif" font-size="14.00" fill="#000000">TBC</text>
</g>
<!-- my_rent_account&#45;&gt;ncc_api -->
<g id="edge11" class="edge">
<title>my_rent_account&#45;&gt;ncc_api:transactions</title>
<path fill="none" stroke="#000000" d="M1559.1205,-610.9068C1475.6275,-609.7619 1316.1408,-607.8466 1177.783,-607.7537"/>
<polygon fill="#000000" stroke="#000000" points="1177.4382,-604.2537 1167.437,-607.7502 1177.4358,-611.2537 1177.4382,-604.2537"/>
</g>
<!-- rent_account_api -->
<g id="node12" class="node">
<title>rent_account_api</title>
<polygon fill="#ffffff" stroke="#000000" points="1010.875,-464.7502 1010.875,-500.7502 1171.999,-500.7502 1171.999,-464.7502 1010.875,-464.7502"/>
<text text-anchor="middle" x="1069.8232" y="-478.5502" font-family="Times,serif" font-size="14.00" fill="#000000">Rent Account API</text>
<polyline fill="none" stroke="#000000" points="1128.7715,-464.7502 1128.7715,-500.7502 "/>
<text text-anchor="middle" x="1150.3853" y="-478.5502" font-family="Times,serif" font-size="14.00" fill="#000000">TBC</text>
</g>
<!-- my_rent_account&#45;&gt;rent_account_api -->
<g id="edge10" class="edge">
<title>my_rent_account&#45;&gt;rent_account_api:tbc</title>
<path fill="none" stroke="#000000" d="M1559.0285,-594.4866C1452.6524,-562.8367 1232.4566,-497.5963 1182.4137,-484.9132"/>
<polygon fill="#000000" stroke="#000000" points="1182.9516,-481.4486 1172.437,-482.7502 1181.4684,-488.2897 1182.9516,-481.4486"/>
</g>
<!-- ncc_crm -->
<g id="node4" class="node">
<title>ncc_crm</title>
<polygon fill="#ffffff" stroke="#000000" points="1577.2461,-538.7502 1577.2461,-574.7502 1656.6563,-574.7502 1656.6563,-538.7502 1577.2461,-538.7502"/>
<text text-anchor="middle" x="1616.9512" y="-552.5502" font-family="Times,serif" font-size="14.00" fill="#000000">NCC CRM</text>
</g>
<!-- ncc_crm&#45;&gt;ncc_api -->
<g id="edge12" class="edge">
<title>ncc_crm&#45;&gt;ncc_api:tbc</title>
<path fill="none" stroke="#000000" d="M1577.017,-561.0605C1500.3677,-568.9576 1326.9743,-585.0083 1177.6878,-585.7254"/>
<polygon fill="#000000" stroke="#000000" points="1177.4285,-582.2259 1167.437,-585.7502 1177.4455,-589.2259 1177.4285,-582.2259"/>
</g>
<!-- report_a_repair_service -->
<g id="node5" class="node">
<title>report_a_repair_service</title>
<polygon fill="#ffffff" stroke="#000000" points="1541.894,-428.7502 1541.894,-464.7502 1692.0083,-464.7502 1692.0083,-428.7502 1541.894,-428.7502"/>
<text text-anchor="middle" x="1616.9512" y="-442.5502" font-family="Times,serif" font-size="14.00" fill="#000000">Report a Repair Service</text>
</g>
<!-- repairs_api -->
<g id="node13" class="node">
<title>repairs_api</title>
<polygon fill="#ffffff" stroke="#000000" points="1025.0869,-409.7502 1025.0869,-445.7502 1157.7871,-445.7502 1157.7871,-409.7502 1025.0869,-409.7502"/>
<text text-anchor="middle" x="1067.1162" y="-423.5502" font-family="Times,serif" font-size="14.00" fill="#000000">Repairs API</text>
<polyline fill="none" stroke="#000000" points="1109.1455,-409.7502 1109.1455,-445.7502 "/>
<text text-anchor="middle" x="1133.4663" y="-423.5502" font-family="Times,serif" font-size="14.00" fill="#000000">repair</text>
</g>
<!-- report_a_repair_service&#45;&gt;repairs_api -->
<g id="edge13" class="edge">
<title>report_a_repair_service&#45;&gt;repairs_api:repair</title>
<path fill="none" stroke="#000000" d="M1541.7729,-441.7334C1453.1158,-436.2471 1300.9456,-428.1727 1167.8028,-427.7662"/>
<polygon fill="#000000" stroke="#000000" points="1167.4424,-424.2657 1157.437,-427.7502 1167.4316,-431.2657 1167.4424,-424.2657"/>
</g>
<!-- repairs_hub -->
<g id="node6" class="node">
<title>repairs_hub</title>
<polygon fill="#ffffff" stroke="#000000" points="1573.7632,-483.7502 1573.7632,-519.7502 1660.1392,-519.7502 1660.1392,-483.7502 1573.7632,-483.7502"/>
<text text-anchor="middle" x="1616.9512" y="-497.5502" font-family="Times,serif" font-size="14.00" fill="#000000">Repairs Hub</text>
</g>
<!-- repairs_hub&#45;&gt;repairs_api -->
<g id="edge14" class="edge">
<title>repairs_hub&#45;&gt;repairs_api:repair</title>
<path fill="none" stroke="#000000" d="M1573.6088,-490.0247C1494.2857,-469.607 1319.8821,-429.52 1167.4448,-427.807"/>
<polygon fill="#000000" stroke="#000000" points="1167.4567,-424.3071 1157.437,-427.7502 1167.417,-431.307 1167.4567,-424.3071"/>
</g>
<!-- income_api&#45;&gt;uht -->
<g id="edge7" class="edge">
<title>income_api&#45;&gt;uht:property</title>
<path fill="none" stroke="#000000" d="M1008.1146,-670.2257C890.3269,-668.1481 668.8667,-659.3199 483.9727,-623.7502 326.4822,-593.4525 297.1138,-517.1242 142.3635,-513.8584"/>
<polygon fill="#000000" stroke="#000000" points="142.0223,-510.3548 131.9863,-513.7502 141.9493,-517.3544 142.0223,-510.3548"/>
</g>
<!-- income_api&#45;&gt;uht -->
<g id="edge8" class="edge">
<title>income_api&#45;&gt;uht:tenagree</title>
<path fill="none" stroke="#000000" d="M1008.3597,-662.3736C890.8631,-649.7916 669.7466,-623.4074 483.9727,-585.7502 328.6887,-554.2735 295.3139,-494.3934 142.2444,-491.8349"/>
<polygon fill="#000000" stroke="#000000" points="142.0149,-488.333 131.9863,-491.7502 141.9571,-495.3328 142.0149,-488.333"/>
</g>
<!-- income_api&#45;&gt;uht -->
<g id="edge9" class="edge">
<title>income_api&#45;&gt;uht:househ</title>
<path fill="none" stroke="#000000" d="M1008.3362,-651.2949C798.8252,-602.5265 257.5235,-478.3673 142.3176,-470.1761"/>
<polygon fill="#000000" stroke="#000000" points="142.122,-466.6651 131.9863,-469.7502 141.8337,-473.6592 142.122,-466.6651"/>
</g>
<!-- income_api&#45;&gt;tenancy_api -->
<g id="edge6" class="edge">
<title>income_api&#45;&gt;tenancy_api:tenancies</title>
<path fill="none" stroke="#000000" d="M1008.4609,-693.9572C922.3064,-716.0315 782.9497,-746.115 658.3571,-747.6861"/>
<polygon fill="#000000" stroke="#000000" points="658.2461,-744.1866 648.2686,-747.7502 658.2907,-751.1864 658.2461,-744.1866"/>
</g>
<!-- property_api -->
<g id="node8" class="node">
<title>property_api</title>
<polygon fill="#ffffff" stroke="#000000" points="1046.6836,-722.7502 1046.6836,-758.7502 1136.1904,-758.7502 1136.1904,-722.7502 1046.6836,-722.7502"/>
<text text-anchor="middle" x="1091.437" y="-736.5502" font-family="Times,serif" font-size="14.00" fill="#000000">Property API</text>
</g>
<!-- property_api&#45;&gt;uht -->
<g id="edge15" class="edge">
<title>property_api&#45;&gt;uht:property</title>
<path fill="none" stroke="#000000" d="M1046.5588,-737.291C944.976,-728.7404 690.2275,-703.2368 483.9727,-648.7502 325.302,-606.8341 300.5154,-517.5113 142.1139,-513.8654"/>
<polygon fill="#000000" stroke="#000000" points="142.0255,-510.3642 131.9863,-513.7502 141.9459,-517.3638 142.0255,-510.3642"/>
</g>
<!-- tenancy_api&#45;&gt;uht -->
<g id="edge16" class="edge">
<title>tenancy_api&#45;&gt;uht:tenagree</title>
<path fill="none" stroke="#000000" d="M515.917,-714.7108C505.2126,-710.017 494.1492,-704.9117 483.9727,-699.7502 325.0004,-619.1203 314.0662,-496.5258 142.1808,-491.8859"/>
<polygon fill="#000000" stroke="#000000" points="142.0321,-488.3837 131.9863,-491.7502 141.9388,-495.3831 142.0321,-488.3837"/>
</g>
<!-- tenancy_api&#45;&gt;uht -->
<g id="edge17" class="edge">
<title>tenancy_api&#45;&gt;uht:property</title>
<path fill="none" stroke="#000000" d="M517.0248,-714.7237C506.0229,-709.9484 494.5633,-704.8086 483.9727,-699.7502 327.4307,-624.9814 309.5796,-518.0242 142.1711,-513.8748"/>
<polygon fill="#000000" stroke="#000000" points="142.0284,-510.3728 131.9863,-513.7502 141.9428,-517.3723 142.0284,-510.3728"/>
</g>
<!-- tenancy_api&#45;&gt;uht -->
<g id="edge18" class="edge">
<title>tenancy_api&#45;&gt;uht:member</title>
<path fill="none" stroke="#000000" d="M507.1205,-714.545C498.9174,-710.2929 490.9531,-705.3764 483.9727,-699.7502 276.7392,-532.7224 398.3913,-213.9726 142.0633,-205.9063"/>
<polygon fill="#000000" stroke="#000000" points="142.0394,-202.4056 131.9863,-205.7502 141.9309,-209.4048 142.0394,-202.4056"/>
</g>
<!-- tenancy_api&#45;&gt;uht -->
<g id="edge19" class="edge">
<title>tenancy_api&#45;&gt;uht:raction</title>
<path fill="none" stroke="#000000" d="M507.0135,-714.6764C498.8265,-710.4045 490.8953,-705.4474 483.9727,-699.7502 272.3423,-525.5809 406.0984,-192.3464 142.359,-183.9134"/>
<polygon fill="#000000" stroke="#000000" points="142.0402,-180.408 131.9863,-183.7502 141.93,-187.4072 142.0402,-180.408"/>
</g>
<!-- ncc_api&#45;&gt;uht -->
<g id="edge20" class="edge">
<title>ncc_api&#45;&gt;uht:araction</title>
<path fill="none" stroke="#000000" d="M1014.9572,-576.6554C854.8783,-536.4018 472.022,-449.5547 142.2193,-447.7779"/>
<polygon fill="#000000" stroke="#000000" points="141.9958,-444.2774 131.9863,-447.7502 141.9768,-451.2774 141.9958,-444.2774"/>
</g>
<!-- ncc_api&#45;&gt;uht -->
<g id="edge21" class="edge">
<title>ncc_api&#45;&gt;uht:raaction</title>
<path fill="none" stroke="#000000" d="M1027.7796,-574.7252C942.5321,-546.1721 786.0666,-497.0489 648.5645,-471.7502 425.1914,-430.6524 364.2608,-425.884 142.0066,-425.7531"/>
<polygon fill="#000000" stroke="#000000" points="141.9874,-422.2532 131.9863,-425.7502 141.9853,-429.2532 141.9874,-422.2532"/>
</g>
<!-- ncc_api&#45;&gt;uht -->
<g id="edge22" class="edge">
<title>ncc_api&#45;&gt;uht:debitem</title>
<path fill="none" stroke="#000000" d="M1031.605,-574.6722C919.837,-533.5785 687.1226,-448.7708 648.5645,-440.7502 426.511,-394.5602 363.9885,-403.4731 141.9938,-403.7441"/>
<polygon fill="#000000" stroke="#000000" points="141.9841,-400.244 131.9863,-403.7502 141.9885,-407.244 141.9841,-400.244"/>
</g>
<!-- ncc_api&#45;&gt;uht -->
<g id="edge23" class="edge">
<title>ncc_api&#45;&gt;uht:debtype</title>
<path fill="none" stroke="#000000" d="M1031.0913,-574.6055C1023.484,-571.6881 1015.8264,-568.6895 1008.5645,-565.7502 846.7622,-500.26 818.4522,-448.8388 648.5645,-408.7502 428.1931,-356.749 363.8315,-380.9872 142.3126,-381.7329"/>
<polygon fill="#000000" stroke="#000000" points="141.9804,-378.2333 131.9863,-381.7502 141.9922,-385.2333 141.9804,-378.2333"/>
</g>
<!-- ncc_api&#45;&gt;uht -->
<g id="edge24" class="edge">
<title>ncc_api&#45;&gt;uht:tenagree</title>
<path fill="none" stroke="#000000" d="M1014.9513,-582.644C854.4677,-554.3015 470.2848,-493.0235 142.166,-491.7698"/>
<polygon fill="#000000" stroke="#000000" points="141.9931,-488.2695 131.9863,-491.7502 141.9796,-495.2695 141.9931,-488.2695"/>
</g>
<!-- ncc_api&#45;&gt;uht -->
<g id="edge25" class="edge">
<title>ncc_api&#45;&gt;uht:rtrans</title>
<path fill="none" stroke="#000000" d="M1029.5353,-574.5893C1022.4096,-571.7453 1015.2916,-568.7688 1008.5645,-565.7502 843.5035,-491.6843 823.4797,-421.9618 648.5645,-375.7502 429.8454,-317.9659 363.6844,-358.4816 142.3048,-359.7214"/>
<polygon fill="#000000" stroke="#000000" points="141.9765,-356.2222 131.9863,-359.7502 141.9961,-363.2222 141.9765,-356.2222"/>
</g>
<!-- ncc_api&#45;&gt;uht -->
<g id="edge26" class="edge">
<title>ncc_api&#45;&gt;uht:rectype</title>
<path fill="none" stroke="#000000" d="M1028.4356,-574.6784C1021.6472,-571.8591 1014.9078,-568.8636 1008.5645,-565.7502 839.6082,-482.8237 829.3332,-395.1495 648.5645,-342.7502 431.3792,-279.795 363.6344,-335.9946 142.3015,-337.7104"/>
<polygon fill="#000000" stroke="#000000" points="141.9727,-334.2115 131.9863,-337.7502 141.9998,-341.2115 141.9727,-334.2115"/>
</g>
<!-- transactions_api -->
<g id="node11" class="node">
<title>transactions_api</title>
<polygon fill="#ffffff" stroke="#000000" points="1035.2676,-519.7502 1035.2676,-555.7502 1147.6064,-555.7502 1147.6064,-519.7502 1035.2676,-519.7502"/>
<text text-anchor="middle" x="1091.437" y="-533.5502" font-family="Times,serif" font-size="14.00" fill="#000000">Transactions API</text>
</g>
<!-- transactions_api&#45;&gt;uht -->
<g id="edge27" class="edge">
<title>transactions_api&#45;&gt;uht:rtrans</title>
<path fill="none" stroke="#000000" d="M1035.2218,-522.0179C1026.119,-518.7416 1016.9397,-514.978 1008.5645,-510.7502 833.0686,-422.1618 835.7819,-313.7198 648.5645,-253.7502 428.6314,-183.3012 368.1241,-354.6036 142.1741,-359.6373"/>
<polygon fill="#000000" stroke="#000000" points="141.9469,-356.1395 131.9863,-359.7502 142.0245,-363.1391 141.9469,-356.1395"/>
</g>
<!-- transactions_api&#45;&gt;uht -->
<g id="edge28" class="edge">
<title>transactions_api&#45;&gt;uht:debtype</title>
<path fill="none" stroke="#000000" d="M1035.0375,-521.3274C1026.0474,-518.1548 1016.9518,-514.6044 1008.5645,-510.7502 838.3913,-432.5527 828.8955,-342.2922 648.5645,-291.7502 427.45,-229.7777 366.8028,-377.3172 142.1168,-381.653"/>
<polygon fill="#000000" stroke="#000000" points="141.9522,-378.1543 131.9863,-381.7502 142.0195,-385.154 141.9522,-378.1543"/>
</g>
<!-- transactions_api&#45;&gt;uht -->
<g id="edge29" class="edge">
<title>transactions_api&#45;&gt;uht:rectype</title>
<path fill="none" stroke="#000000" d="M1035.0823,-522.2877C1025.9964,-518.979 1016.8588,-515.1346 1008.5645,-510.7502 829.8438,-416.2786 839.8895,-298.0244 648.5645,-232.7502 430.077,-158.209 368.0801,-332.5128 142.1713,-337.6353"/>
<polygon fill="#000000" stroke="#000000" points="141.9462,-334.1375 131.9863,-337.7502 142.0252,-341.1371 141.9462,-334.1375"/>
</g>
<!-- rent_account_api&#45;&gt;uht -->
<g id="edge30" class="edge">
<title>rent_account_api&#45;&gt;uht:rtrans</title>
<path fill="none" stroke="#000000" d="M1029.597,-464.6845C1022.39,-461.971 1015.2362,-458.9852 1008.5645,-455.7502 835.536,-371.852 832.6095,-271.4746 648.5645,-215.7502 423.6778,-147.66 371.785,-353.7726 141.9991,-359.6235"/>
<polygon fill="#000000" stroke="#000000" points="141.9412,-356.1238 131.9863,-359.7502 142.0299,-363.1233 141.9412,-356.1238"/>
</g>
<!-- rent_account_api&#45;&gt;uht -->
<g id="edge31" class="edge">
<title>rent_account_api&#45;&gt;uht:rectype</title>
<path fill="none" stroke="#000000" d="M1026.9706,-464.6476C1020.5951,-462.0049 1014.3501,-459.0451 1008.5645,-455.7502 823.5643,-350.3956 847.798,-214.7879 648.5645,-139.7502 580.107,-113.967 554.7368,-121.2129 483.9727,-139.7502 313.647,-184.3687 311.4973,-331.9804 142.0464,-337.5861"/>
<polygon fill="#000000" stroke="#000000" points="141.9279,-334.0875 131.9863,-337.7502 142.0421,-341.0865 141.9279,-334.0875"/>
</g>
<!-- repairs_api&#45;&gt;uht -->
<g id="edge32" class="edge">
<title>repairs_api&#45;&gt;uht:rmworder</title>
<path fill="none" stroke="#000000" d="M1075.2613,-409.4521C1021.7335,-350.4711 842.6778,-165.4906 648.5645,-101.7502 579.0636,-78.9285 554.4129,-82.0176 483.9727,-101.7502 311.0344,-150.196 314.8536,-309.5226 142.241,-315.5731"/>
<polygon fill="#000000" stroke="#000000" points="141.9243,-312.0779 131.9863,-315.7502 142.0453,-319.0769 141.9243,-312.0779"/>
</g>
<!-- repairs_api&#45;&gt;uht -->
<g id="edge33" class="edge">
<title>repairs_api&#45;&gt;uht:rmtask</title>
<path fill="none" stroke="#000000" d="M1076.6188,-409.6508C1025.2983,-348.5928 847.3743,-150.2044 648.5645,-81.7502 579.3978,-57.9348 554.4538,-62.1641 483.9727,-81.7502 311.369,-129.7154 314.4235,-287.5797 142.216,-293.5747"/>
<polygon fill="#000000" stroke="#000000" points="141.9248,-290.0791 131.9863,-293.7502 142.0449,-297.0781 141.9248,-290.0791"/>
</g>
<!-- repairs_api&#45;&gt;uht -->
<g id="edge34" class="edge">
<title>repairs_api&#45;&gt;uht:rmreqst</title>
<path fill="none" stroke="#000000" d="M1077.5854,-409.4709C1028.0742,-345.8587 851.9424,-134.0668 648.5645,-60.7502 579.7476,-35.9421 554.4742,-41.2377 483.9727,-60.7502 311.5354,-108.4754 314.2096,-265.6083 142.2036,-271.5755"/>
<polygon fill="#000000" stroke="#000000" points="141.925,-268.0797 131.9863,-271.7502 142.0447,-275.0787 141.925,-268.0797"/>
</g>
<!-- repairs_api&#45;&gt;uht -->
<g id="edge35" class="edge">
<title>repairs_api&#45;&gt;uht:visit</title>
<path fill="none" stroke="#000000" d="M1078.5201,-409.3736C1030.8387,-343.3632 856.6654,-118.0149 648.5645,-39.7502 580.0948,-13.9995 554.4945,-20.3114 483.9727,-39.7502 311.7013,-87.2355 313.9964,-243.6369 142.1913,-249.5763"/>
<polygon fill="#000000" stroke="#000000" points="141.9252,-246.0803 131.9863,-249.7502 142.0445,-253.0792 141.9252,-246.0803"/>
</g>
<!-- repairs_api&#45;&gt;uht -->
<g id="edge36" class="edge">
<title>repairs_api&#45;&gt;uht:supplier</title>
<path fill="none" stroke="#000000" d="M1079.4338,-409.3112C1033.6416,-340.8998 861.7251,-101.2714 648.5645,-17.7502 580.4542,8.9369 554.4945,1.6886 483.9727,-17.7502 311.7013,-65.2355 313.9964,-221.6369 142.1913,-227.5763"/>
<polygon fill="#000000" stroke="#000000" points="141.9252,-224.0803 131.9863,-227.7502 142.0445,-231.0792 141.9252,-224.0803"/>
</g>
</g>
</svg>
