<?xml version="1.0" encoding="UTF-8" standalone="no"?>
<!DOCTYPE svg PUBLIC "-//W3C//DTD SVG 1.1//EN"
 "http://www.w3.org/Graphics/SVG/1.1/DTD/svg11.dtd">
<!-- Generated by graphviz version 2.40.1 (20161225.0304)
 -->
<!-- Title: G Pages: 1 -->
<svg width="1299pt" height="197pt"
 viewBox="0.00 0.00 1298.62 197.00" xmlns="http://www.w3.org/2000/svg" xmlns:xlink="http://www.w3.org/1999/xlink">
<g id="graph0" class="graph" transform="scale(1 1) rotate(0) translate(36 161)">
<title>G</title>
<polygon fill="#ffffff" stroke="transparent" points="-36,36 -36,-161 1262.6182,-161 1262.6182,36 -36,36"/>
<g id="clust1" class="cluster">
<title>cluster_dependency</title>
<polygon fill="none" stroke="#000000" points="8,-11 8,-73 215.8037,-73 215.8037,-11 8,-11"/>
</g>
<g id="clust2" class="cluster">
<title>cluster_services</title>
<polygon fill="none" stroke="#000000" points="1052.5039,-8 1052.5039,-117 1218.6182,-117 1218.6182,-8 1052.5039,-8"/>
</g>
<g id="clust3" class="cluster">
<title>cluster_apis</title>
<polygon fill="none" stroke="#000000" points="559.8037,-17 559.8037,-71 708.5039,-71 708.5039,-17 559.8037,-17"/>
</g>
<!-- mobile_reports -->
<g id="node1" class="node">
<title>mobile_reports</title>
<polygon fill="none" stroke="#000000" points="16,-20 16,-64 207.8037,-64 207.8037,-20 16,-20"/>
<text text-anchor="middle" x="67.7466" y="-37.8" font-family="Times,serif" font-size="14.00" fill="#000000">Mobile Reports</text>
<polyline fill="none" stroke="#000000" points="119.4932,-20 119.4932,-64 "/>
<text text-anchor="middle" x="163.6484" y="-48.8" font-family="Times,serif" font-size="14.00" fill="#000000">Processed</text>
<polyline fill="none" stroke="#000000" points="119.4932,-42 207.8037,-42 "/>
<text text-anchor="middle" x="163.6484" y="-26.8" font-family="Times,serif" font-size="14.00" fill="#000000">Unprocessed</text>
</g>
<!-- report_a_repair_service -->
<g id="node2" class="node">
<title>report_a_repair_service</title>
<polygon fill="none" stroke="#000000" points="1060.5039,-72 1060.5039,-108 1210.6182,-108 1210.6182,-72 1060.5039,-72"/>
<text text-anchor="middle" x="1135.561" y="-85.8" font-family="Times,serif" font-size="14.00" fill="#000000">Report a Repair Service</text>
</g>
<!-- repairs_api -->
<g id="node4" class="node">
<title>repairs_api</title>
<polygon fill="none" stroke="#000000" points="567.8037,-26 567.8037,-62 700.5039,-62 700.5039,-26 567.8037,-26"/>
<text text-anchor="middle" x="609.833" y="-39.8" font-family="Times,serif" font-size="14.00" fill="#000000">Repairs API</text>
<polyline fill="none" stroke="#000000" points="651.8623,-26 651.8623,-62 "/>
<text text-anchor="middle" x="676.1831" y="-39.8" font-family="Times,serif" font-size="14.00" fill="#000000">repair</text>
</g>
<!-- report_a_repair_service&#45;&gt;repairs_api -->
<g id="edge1" class="edge">
<title>report_a_repair_service&#45;&gt;repairs_api:repair</title>
<path fill="none" stroke="#000000" d="M1060.3038,-77.1864C975.989,-63.9343 834.784,-45.0282 710.2346,-44.0404"/>
<polygon fill="#000000" stroke="#000000" points="710.1678,-40.5402 700.1538,-44 710.1397,-47.5401 710.1678,-40.5402"/>
</g>
<!-- repairs_hub -->
<g id="node3" class="node">
<title>repairs_hub</title>
<polygon fill="none" stroke="#000000" points="1092.373,-17 1092.373,-53 1178.749,-53 1178.749,-17 1092.373,-17"/>
<text text-anchor="middle" x="1135.561" y="-30.8" font-family="Times,serif" font-size="14.00" fill="#000000">Repairs Hub</text>
</g>
<!-- repairs_hub&#45;&gt;repairs_api -->
<g id="edge2" class="edge">
<title>repairs_hub&#45;&gt;repairs_api:repair</title>
<path fill="none" stroke="#000000" d="M1092.3074,-36.4862C1015.9002,-38.9825 851.7387,-43.7689 710.2968,-43.9919"/>
<polygon fill="#000000" stroke="#000000" points="710.151,-40.4919 700.1538,-44 710.1566,-47.4919 710.151,-40.4919"/>
</g>
<!-- repairs_api&#45;&gt;mobile_reports -->
<g id="edge3" class="edge">
<title>repairs_api&#45;&gt;mobile_reports:processed</title>
<path fill="none" stroke="#000000" d="M567.714,-46.2711C486.0781,-48.867 343.0079,-52.7867 218.0154,-52.9916"/>
<polygon fill="#000000" stroke="#000000" points="217.8989,-49.4916 207.9019,-53 217.9048,-56.4916 217.8989,-49.4916"/>
</g>
<!-- repairs_api&#45;&gt;mobile_reports -->
<g id="edge4" class="edge">
<title>repairs_api&#45;&gt;mobile_reports:unprocessed</title>
<path fill="none" stroke="#000000" d="M567.7239,-40.7196C486.098,-36.97 343.0381,-31.3081 218.0177,-31.0121"/>
<polygon fill="#000000" stroke="#000000" points="217.9061,-27.5121 207.9019,-31 217.8976,-34.5121 217.9061,-27.5121"/>
</g>
</g>
</svg>
