<?xml version="1.0" encoding="UTF-8" standalone="no"?>
<!DOCTYPE svg PUBLIC "-//W3C//DTD SVG 1.1//EN"
 "http://www.w3.org/Graphics/SVG/1.1/DTD/svg11.dtd">
<!-- Generated by graphviz version 2.40.1 (20161225.0304)
 -->
<!-- Title: G Pages: 1 -->
<svg width="1925pt" height="2114pt"
 viewBox="0.00 0.00 1925.10 2114.07" xmlns="http://www.w3.org/2000/svg" xmlns:xlink="http://www.w3.org/1999/xlink">
<g id="graph0" class="graph" transform="scale(1 1) rotate(0) translate(36 2078.066)">
<title>G</title>
<polygon fill="#ffffff" stroke="transparent" points="-36,36 -36,-2078.066 1889.0977,-2078.066 1889.0977,36 -36,36"/>
<g id="clust3" class="cluster">
<title>cluster_services</title>
<polygon fill="none" stroke="#000000" points="1662.3447,-1533.2476 1662.3447,-1862.2476 1845.0977,-1862.2476 1845.0977,-1533.2476 1662.3447,-1533.2476"/>
</g>
<g id="clust1" class="cluster">
<title>cluster_apis</title>
<polygon fill="none" stroke="#000000" points="595.959,-1180.2476 595.959,-1987.2476 1318.3447,-1987.2476 1318.3447,-1180.2476 595.959,-1180.2476"/>
</g>
<g id="clust2" class="cluster">
<title>cluster_dependency</title>
<polygon fill="none" stroke="#000000" points="8,-397.2476 8,-1648.2476 251.959,-1648.2476 251.959,-397.2476 8,-397.2476"/>
</g>
<!-- income_api -->
<g id="node1" class="node">
<title>income_api</title>
<polygon fill="none" stroke="#000000" points="1132.5752,-1747.2476 1132.5752,-1813.2476 1298.3203,-1813.2476 1298.3203,-1747.2476 1132.5752,-1747.2476"/>
<text text-anchor="middle" x="1174.2114" y="-1776.0476" font-family="Times,serif" font-size="14.00" fill="#000000">Income API</text>
<polyline fill="none" stroke="#000000" points="1215.8477,-1747.2476 1215.8477,-1813.2476 "/>
<text text-anchor="middle" x="1257.084" y="-1798.0476" font-family="Times,serif" font-size="14.00" fill="#000000">users</text>
<polyline fill="none" stroke="#000000" points="1215.8477,-1791.2476 1298.3203,-1791.2476 "/>
<text text-anchor="middle" x="1257.084" y="-1776.0476" font-family="Times,serif" font-size="14.00" fill="#000000">worktray</text>
<polyline fill="none" stroke="#000000" points="1215.8477,-1769.2476 1298.3203,-1769.2476 "/>
<text text-anchor="middle" x="1257.084" y="-1754.0476" font-family="Times,serif" font-size="14.00" fill="#000000">action diary</text>
</g>
<!-- tenancy_api -->
<g id="node2" class="node">
<title>tenancy_api</title>
<polygon fill="none" stroke="#000000" points="603.959,-1934.2476 603.959,-1978.2476 760.5508,-1978.2476 760.5508,-1934.2476 603.959,-1934.2476"/>
<text text-anchor="middle" x="648.2134" y="-1952.0476" font-family="Times,serif" font-size="14.00" fill="#000000">Tenancy API</text>
<polyline fill="none" stroke="#000000" points="692.4678,-1934.2476 692.4678,-1978.2476 "/>
<text text-anchor="middle" x="726.5093" y="-1963.0476" font-family="Times,serif" font-size="14.00" fill="#000000">tenancies</text>
<polyline fill="none" stroke="#000000" points="692.4678,-1956.2476 760.5508,-1956.2476 "/>
<text text-anchor="middle" x="726.5093" y="-1941.0476" font-family="Times,serif" font-size="14.00" fill="#000000">contacts</text>
</g>
<!-- income_api&#45;&gt;tenancy_api -->
<g id="edge1" class="edge">
<title>income_api&#45;&gt;tenancy_api:tenancies</title>
<path fill="none" stroke="#000000" d="M1139.4172,-1813.249C1026.0767,-1862.2147 820.7112,-1949.9744 770.2927,-1965.0227"/>
<polygon fill="#000000" stroke="#000000" points="769.2605,-1961.6664 760.2549,-1967.2476 770.7754,-1968.5006 769.2605,-1961.6664"/>
</g>
<!-- uht -->
<g id="node16" class="node">
<title>uht</title>
<polygon fill="none" stroke="#000000" points="71.9932,-1051.2476 71.9932,-1403.2476 187.9658,-1403.2476 187.9658,-1051.2476 71.9932,-1051.2476"/>
<text text-anchor="middle" x="94.3794" y="-1223.0476" font-family="Times,serif" font-size="14.00" fill="#000000">UHT</text>
<polyline fill="none" stroke="#000000" points="116.7656,-1051.2476 116.7656,-1403.2476 "/>
<text text-anchor="middle" x="152.3657" y="-1388.0476" font-family="Times,serif" font-size="14.00" fill="#000000">property</text>
<polyline fill="none" stroke="#000000" points="116.7656,-1381.2476 187.9658,-1381.2476 "/>
<text text-anchor="middle" x="152.3657" y="-1366.0476" font-family="Times,serif" font-size="14.00" fill="#000000">tenagree</text>
<polyline fill="none" stroke="#000000" points="116.7656,-1359.2476 187.9658,-1359.2476 "/>
<text text-anchor="middle" x="152.3657" y="-1344.0476" font-family="Times,serif" font-size="14.00" fill="#000000">househ</text>
<polyline fill="none" stroke="#000000" points="116.7656,-1337.2476 187.9658,-1337.2476 "/>
<text text-anchor="middle" x="152.3657" y="-1322.0476" font-family="Times,serif" font-size="14.00" fill="#000000">araction</text>
<polyline fill="none" stroke="#000000" points="116.7656,-1315.2476 187.9658,-1315.2476 "/>
<text text-anchor="middle" x="152.3657" y="-1300.0476" font-family="Times,serif" font-size="14.00" fill="#000000">raaction</text>
<polyline fill="none" stroke="#000000" points="116.7656,-1293.2476 187.9658,-1293.2476 "/>
<text text-anchor="middle" x="152.3657" y="-1278.0476" font-family="Times,serif" font-size="14.00" fill="#000000">debitem</text>
<polyline fill="none" stroke="#000000" points="116.7656,-1271.2476 187.9658,-1271.2476 "/>
<text text-anchor="middle" x="152.3657" y="-1256.0476" font-family="Times,serif" font-size="14.00" fill="#000000">debtype</text>
<polyline fill="none" stroke="#000000" points="116.7656,-1249.2476 187.9658,-1249.2476 "/>
<text text-anchor="middle" x="152.3657" y="-1234.0476" font-family="Times,serif" font-size="14.00" fill="#000000">rtrans</text>
<polyline fill="none" stroke="#000000" points="116.7656,-1227.2476 187.9658,-1227.2476 "/>
<text text-anchor="middle" x="152.3657" y="-1212.0476" font-family="Times,serif" font-size="14.00" fill="#000000">rectype</text>
<polyline fill="none" stroke="#000000" points="116.7656,-1205.2476 187.9658,-1205.2476 "/>
<text text-anchor="middle" x="152.3657" y="-1190.0476" font-family="Times,serif" font-size="14.00" fill="#000000">rmworder</text>
<polyline fill="none" stroke="#000000" points="116.7656,-1183.2476 187.9658,-1183.2476 "/>
<text text-anchor="middle" x="152.3657" y="-1168.0476" font-family="Times,serif" font-size="14.00" fill="#000000">rmtask</text>
<polyline fill="none" stroke="#000000" points="116.7656,-1161.2476 187.9658,-1161.2476 "/>
<text text-anchor="middle" x="152.3657" y="-1146.0476" font-family="Times,serif" font-size="14.00" fill="#000000">rmreqst</text>
<polyline fill="none" stroke="#000000" points="116.7656,-1139.2476 187.9658,-1139.2476 "/>
<text text-anchor="middle" x="152.3657" y="-1124.0476" font-family="Times,serif" font-size="14.00" fill="#000000">visit</text>
<polyline fill="none" stroke="#000000" points="116.7656,-1117.2476 187.9658,-1117.2476 "/>
<text text-anchor="middle" x="152.3657" y="-1102.0476" font-family="Times,serif" font-size="14.00" fill="#000000">supplier</text>
<polyline fill="none" stroke="#000000" points="116.7656,-1095.2476 187.9658,-1095.2476 "/>
<text text-anchor="middle" x="152.3657" y="-1080.0476" font-family="Times,serif" font-size="14.00" fill="#000000">member</text>
<polyline fill="none" stroke="#000000" points="116.7656,-1073.2476 187.9658,-1073.2476 "/>
<text text-anchor="middle" x="152.3657" y="-1058.0476" font-family="Times,serif" font-size="14.00" fill="#000000">raction</text>
</g>
<!-- income_api&#45;&gt;uht -->
<g id="edge2" class="edge">
<title>income_api&#45;&gt;uht:property</title>
<path fill="none" stroke="#000000" d="M1133.4409,-1747.0939C1043.1168,-1711.3827 893.0776,-1654.4247 760.5508,-1615.2476 688.5545,-1593.9644 666.8399,-1601.9931 595.959,-1577.2476 411.2016,-1512.7464 387.8385,-1396.3122 198.0326,-1392.3514"/>
<polygon fill="#000000" stroke="#000000" points="198.0151,-1388.8511 187.9795,-1392.2476 197.9428,-1395.8507 198.0151,-1388.8511"/>
</g>
<!-- income_api&#45;&gt;uht -->
<g id="edge3" class="edge">
<title>income_api&#45;&gt;uht:tenagree</title>
<path fill="none" stroke="#000000" d="M1140.5826,-1747.1457C1133.8077,-1744.1404 1127.0529,-1741.1404 1120.5508,-1738.2476 960.4126,-1667.0019 926.7187,-1633.0008 760.5508,-1577.2476 689.3741,-1553.3662 667.461,-1562.1366 595.959,-1539.2476 412.323,-1480.4627 385.1667,-1374.0702 198.1723,-1370.348"/>
<polygon fill="#000000" stroke="#000000" points="198.0135,-1366.8463 187.9795,-1370.2476 197.9445,-1373.846 198.0135,-1366.8463"/>
</g>
<!-- income_api&#45;&gt;uht -->
<g id="edge4" class="edge">
<title>income_api&#45;&gt;uht:househ</title>
<path fill="none" stroke="#000000" d="M1139.0335,-1747.1342C1132.7488,-1744.1968 1126.5216,-1741.212 1120.5508,-1738.2476 956.803,-1656.9513 927.9628,-1612.7027 760.5508,-1539.2476 518.0143,-1432.8304 457.7604,-1350.3645 198.0959,-1348.2877"/>
<polygon fill="#000000" stroke="#000000" points="197.9933,-1344.7874 187.9795,-1348.2476 197.9655,-1351.7874 197.9933,-1344.7874"/>
</g>
<!-- tenancy_api&#45;&gt;uht -->
<g id="edge7" class="edge">
<title>tenancy_api&#45;&gt;uht:tenagree</title>
<path fill="none" stroke="#000000" d="M675.8745,-1933.9913C644.0563,-1828.1535 492.2351,-1380.4615 198.0584,-1370.4193"/>
<polygon fill="#000000" stroke="#000000" points="198.0377,-1366.9185 187.9795,-1370.2476 197.9184,-1373.9175 198.0377,-1366.9185"/>
</g>
<!-- tenancy_api&#45;&gt;uht -->
<g id="edge8" class="edge">
<title>tenancy_api&#45;&gt;uht:property</title>
<path fill="none" stroke="#000000" d="M675.381,-1934.1382C641.85,-1831.0847 485.3041,-1402.4585 198.2461,-1392.4267"/>
<polygon fill="#000000" stroke="#000000" points="198.039,-1388.9226 187.9795,-1392.2476 197.9169,-1395.9216 198.039,-1388.9226"/>
</g>
<!-- tenancy_api&#45;&gt;uht -->
<g id="edge9" class="edge">
<title>tenancy_api&#45;&gt;uht:member</title>
<path fill="none" stroke="#000000" d="M675.0747,-1933.8162C631.465,-1799.594 397.3637,-1107.7652 198.0433,-1084.8313"/>
<polygon fill="#000000" stroke="#000000" points="198.1654,-1081.3326 187.9795,-1084.2476 197.76,-1088.3209 198.1654,-1081.3326"/>
</g>
<!-- tenancy_api&#45;&gt;uht -->
<g id="edge10" class="edge">
<title>tenancy_api&#45;&gt;uht:raction</title>
<path fill="none" stroke="#000000" d="M675.4612,-1934.1486C633.2095,-1798.7656 401.5809,-1086.462 198.2519,-1062.8486"/>
<polygon fill="#000000" stroke="#000000" points="198.1669,-1059.3378 187.9795,-1062.2476 197.758,-1066.3258 198.1669,-1059.3378"/>
</g>
<!-- uh_web_services -->
<g id="node18" class="node">
<title>uh_web_services</title>
<polygon fill="none" stroke="#000000" points="27.3818,-1595.2476 27.3818,-1639.2476 232.5771,-1639.2476 232.5771,-1595.2476 27.3818,-1595.2476"/>
<text text-anchor="middle" x="85.2397" y="-1613.0476" font-family="Times,serif" font-size="14.00" fill="#000000">UH Web Services</text>
<polyline fill="none" stroke="#000000" points="143.0977,-1595.2476 143.0977,-1639.2476 "/>
<text text-anchor="middle" x="187.8374" y="-1624.0476" font-family="Times,serif" font-size="14.00" fill="#000000">TBC</text>
<polyline fill="none" stroke="#000000" points="143.0977,-1617.2476 232.5771,-1617.2476 "/>
<text text-anchor="middle" x="187.8374" y="-1602.0476" font-family="Times,serif" font-size="14.00" fill="#000000">Action Diary</text>
</g>
<!-- tenancy_api&#45;&gt;uh_web_services -->
<g id="edge5" class="edge">
<title>tenancy_api&#45;&gt;uh_web_services:action_diary</title>
<path fill="none" stroke="#000000" d="M623.9173,-1934.1438C614.3185,-1929.6916 604.6691,-1924.6881 595.959,-1919.2476 418.1986,-1808.2158 445.0644,-1612.6751 243.0889,-1606.4023"/>
<polygon fill="#000000" stroke="#000000" points="243.0319,-1602.9011 232.9795,-1606.2476 242.9247,-1609.9003 243.0319,-1602.9011"/>
</g>
<!-- crm -->
<g id="node19" class="node">
<title>crm</title>
<polygon fill="none" stroke="#000000" points="57.4019,-900.2476 57.4019,-1032.2476 202.5571,-1032.2476 202.5571,-900.2476 57.4019,-900.2476"/>
<text text-anchor="middle" x="80.9639" y="-962.0476" font-family="Times,serif" font-size="14.00" fill="#000000">CRM</text>
<polyline fill="none" stroke="#000000" points="104.5259,-900.2476 104.5259,-1032.2476 "/>
<text text-anchor="middle" x="153.5415" y="-1017.0476" font-family="Times,serif" font-size="14.00" fill="#000000">Contact</text>
<polyline fill="none" stroke="#000000" points="104.5259,-1010.2476 202.5571,-1010.2476 "/>
<text text-anchor="middle" x="153.5415" y="-995.0476" font-family="Times,serif" font-size="14.00" fill="#000000">Action Diaries</text>
<polyline fill="none" stroke="#000000" points="104.5259,-988.2476 202.5571,-988.2476 "/>
<text text-anchor="middle" x="153.5415" y="-973.0476" font-family="Times,serif" font-size="14.00" fill="#000000">Transactions</text>
<polyline fill="none" stroke="#000000" points="104.5259,-966.2476 202.5571,-966.2476 "/>
<text text-anchor="middle" x="153.5415" y="-951.0476" font-family="Times,serif" font-size="14.00" fill="#000000">Contacts</text>
<polyline fill="none" stroke="#000000" points="104.5259,-944.2476 202.5571,-944.2476 "/>
<text text-anchor="middle" x="153.5415" y="-929.0476" font-family="Times,serif" font-size="14.00" fill="#000000">Notifications</text>
<polyline fill="none" stroke="#000000" points="104.5259,-922.2476 202.5571,-922.2476 "/>
<text text-anchor="middle" x="153.5415" y="-907.0476" font-family="Times,serif" font-size="14.00" fill="#000000">Accounts</text>
</g>
<!-- tenancy_api&#45;&gt;crm -->
<g id="edge6" class="edge">
<title>tenancy_api&#45;&gt;crm:contacts</title>
<path fill="none" stroke="#000000" d="M676.8964,-1933.9368C641.3414,-1788.4764 434.1005,-980.2481 213.1751,-955.8136"/>
<polygon fill="#000000" stroke="#000000" points="213.1581,-952.3073 202.9795,-955.2476 212.7701,-959.2966 213.1581,-952.3073"/>
</g>
<!-- addresses_api -->
<g id="node3" class="node">
<title>addresses_api</title>
<polygon fill="none" stroke="#000000" points="1166.0288,-1887.2476 1166.0288,-1923.2476 1264.8667,-1923.2476 1264.8667,-1887.2476 1166.0288,-1887.2476"/>
<text text-anchor="middle" x="1215.4478" y="-1901.0476" font-family="Times,serif" font-size="14.00" fill="#000000">Addresses API</text>
</g>
<!-- asbestos_api -->
<g id="node4" class="node">
<title>asbestos_api</title>
<polygon fill="none" stroke="#000000" points="1169.522,-1832.2476 1169.522,-1868.2476 1261.3735,-1868.2476 1261.3735,-1832.2476 1169.522,-1832.2476"/>
<text text-anchor="middle" x="1215.4478" y="-1846.0476" font-family="Times,serif" font-size="14.00" fill="#000000">Asbestos API</text>
</g>
<!-- psi_2000 -->
<g id="node17" class="node">
<title>psi_2000</title>
<polygon fill="none" stroke="#000000" points="56.2295,-1422.2476 56.2295,-1576.2476 203.7295,-1576.2476 203.7295,-1422.2476 56.2295,-1422.2476"/>
<text text-anchor="middle" x="90.0967" y="-1495.0476" font-family="Times,serif" font-size="14.00" fill="#000000">PSI 2000</text>
<polyline fill="none" stroke="#000000" points="123.9639,-1422.2476 123.9639,-1576.2476 "/>
<text text-anchor="middle" x="163.8467" y="-1561.0476" font-family="Times,serif" font-size="14.00" fill="#000000">Inspections</text>
<polyline fill="none" stroke="#000000" points="123.9639,-1554.2476 203.7295,-1554.2476 "/>
<text text-anchor="middle" x="163.8467" y="-1539.0476" font-family="Times,serif" font-size="14.00" fill="#000000">Rooms</text>
<polyline fill="none" stroke="#000000" points="123.9639,-1532.2476 203.7295,-1532.2476 "/>
<text text-anchor="middle" x="163.8467" y="-1517.0476" font-family="Times,serif" font-size="14.00" fill="#000000">Floors</text>
<polyline fill="none" stroke="#000000" points="123.9639,-1510.2476 203.7295,-1510.2476 "/>
<text text-anchor="middle" x="163.8467" y="-1495.0476" font-family="Times,serif" font-size="14.00" fill="#000000">Elements</text>
<polyline fill="none" stroke="#000000" points="123.9639,-1488.2476 203.7295,-1488.2476 "/>
<text text-anchor="middle" x="163.8467" y="-1473.0476" font-family="Times,serif" font-size="14.00" fill="#000000">Documents</text>
<polyline fill="none" stroke="#000000" points="123.9639,-1466.2476 203.7295,-1466.2476 "/>
<text text-anchor="middle" x="163.8467" y="-1451.0476" font-family="Times,serif" font-size="14.00" fill="#000000">Todos</text>
<polyline fill="none" stroke="#000000" points="123.9639,-1444.2476 203.7295,-1444.2476 "/>
<text text-anchor="middle" x="163.8467" y="-1429.0476" font-family="Times,serif" font-size="14.00" fill="#000000">Samples</text>
</g>
<!-- asbestos_api&#45;&gt;psi_2000 -->
<g id="edge11" class="edge">
<title>asbestos_api&#45;&gt;psi_2000:inspections</title>
<path fill="none" stroke="#000000" d="M1169.2742,-1864.5527C1063.7552,-1894.7223 798.4467,-1956.1803 595.959,-1881.2476 389.373,-1804.7984 426.5131,-1572.6564 214.2765,-1565.4207"/>
<polygon fill="#000000" stroke="#000000" points="214.0369,-1561.9162 203.9795,-1565.2476 213.9192,-1568.9153 214.0369,-1561.9162"/>
</g>
<!-- asbestos_api&#45;&gt;psi_2000 -->
<g id="edge12" class="edge">
<title>asbestos_api&#45;&gt;psi_2000:rooms</title>
<path fill="none" stroke="#000000" d="M1169.4672,-1859.322C1064.3486,-1878.0424 799.8152,-1913.592 595.959,-1843.2476 391.8179,-1772.805 422.3326,-1550.3481 214.0787,-1543.4135"/>
<polygon fill="#000000" stroke="#000000" points="214.0356,-1539.9124 203.9795,-1543.2476 213.9206,-1546.9114 214.0356,-1539.9124"/>
</g>
<!-- asbestos_api&#45;&gt;psi_2000 -->
<g id="edge13" class="edge">
<title>asbestos_api&#45;&gt;psi_2000:floors</title>
<path fill="none" stroke="#000000" d="M1169.39,-1850.1479C1044.4273,-1849.3656 701.3161,-1843.6768 595.959,-1805.2476 397.1074,-1732.7162 418.3575,-1527.9888 214.1937,-1521.41"/>
<polygon fill="#000000" stroke="#000000" points="214.0339,-1517.9071 203.9795,-1521.2476 213.9226,-1524.9062 214.0339,-1517.9071"/>
</g>
<!-- asbestos_api&#45;&gt;psi_2000 -->
<g id="edge14" class="edge">
<title>asbestos_api&#45;&gt;psi_2000:elements</title>
<path fill="none" stroke="#000000" d="M1169.3902,-1846.8526C1044.428,-1837.2037 701.3179,-1807.6826 595.959,-1767.2476 402.1061,-1692.8502 414.5559,-1505.4172 214.006,-1499.3962"/>
<polygon fill="#000000" stroke="#000000" points="214.0303,-1495.8963 203.9795,-1499.2476 213.9265,-1502.8955 214.0303,-1495.8963"/>
</g>
<!-- asbestos_api&#45;&gt;psi_2000 -->
<g id="edge15" class="edge">
<title>asbestos_api&#45;&gt;psi_2000:documents</title>
<path fill="none" stroke="#000000" d="M1169.2254,-1841.7126C1030.0611,-1815.9507 622.9038,-1740.0763 595.959,-1729.2476 406.9782,-1653.2997 410.9012,-1483.0237 214.1191,-1477.3909"/>
<polygon fill="#000000" stroke="#000000" points="214.028,-1473.8893 203.9795,-1477.2476 213.929,-1480.8886 214.028,-1473.8893"/>
</g>
<!-- asbestos_api&#45;&gt;psi_2000 -->
<g id="edge16" class="edge">
<title>asbestos_api&#45;&gt;psi_2000:todos</title>
<path fill="none" stroke="#000000" d="M1169.4089,-1837.4618C1087.4264,-1814.8146 910.6483,-1766.5262 760.5508,-1729.2476 687.6882,-1711.1513 665.5558,-1719.4028 595.959,-1691.2476 410.6704,-1616.2896 407.3902,-1460.6831 214.2291,-1455.3864"/>
<polygon fill="#000000" stroke="#000000" points="214.026,-1451.8834 203.9795,-1455.2476 213.9312,-1458.8828 214.026,-1451.8834"/>
</g>
<!-- asbestos_api&#45;&gt;psi_2000 -->
<g id="edge17" class="edge">
<title>asbestos_api&#45;&gt;psi_2000:samples</title>
<path fill="none" stroke="#000000" d="M1169.3064,-1838.1216C1153.7184,-1833.76 1136.2837,-1828.5898 1120.5508,-1823.2476 883.0583,-1742.6059 826.3717,-1714.3222 595.959,-1615.2476 422.6917,-1540.7449 396.9528,-1437.0724 214.2266,-1433.3507"/>
<polygon fill="#000000" stroke="#000000" points="214.0142,-1429.8485 203.9795,-1433.2476 213.9437,-1436.8482 214.0142,-1429.8485"/>
</g>
<!-- manage_a_tenancy_api -->
<g id="node5" class="node">
<title>manage_a_tenancy_api</title>
<polygon fill="none" stroke="#000000" points="1120.5508,-1942.2476 1120.5508,-1978.2476 1310.3447,-1978.2476 1310.3447,-1942.2476 1120.5508,-1942.2476"/>
<text text-anchor="middle" x="1193.834" y="-1956.0476" font-family="Times,serif" font-size="14.00" fill="#000000">Manage a Tenancy API</text>
<polyline fill="none" stroke="#000000" points="1267.1172,-1942.2476 1267.1172,-1978.2476 "/>
<text text-anchor="middle" x="1288.731" y="-1956.0476" font-family="Times,serif" font-size="14.00" fill="#000000">TBC</text>
</g>
<!-- ncc_api -->
<g id="node6" class="node">
<title>ncc_api</title>
<polygon fill="none" stroke="#000000" points="1138.9736,-1684.2476 1138.9736,-1728.2476 1291.9219,-1728.2476 1291.9219,-1684.2476 1138.9736,-1684.2476"/>
<text text-anchor="middle" x="1174.0132" y="-1702.0476" font-family="Times,serif" font-size="14.00" fill="#000000">NCC API</text>
<polyline fill="none" stroke="#000000" points="1209.0527,-1684.2476 1209.0527,-1728.2476 "/>
<text text-anchor="middle" x="1250.4873" y="-1713.0476" font-family="Times,serif" font-size="14.00" fill="#000000">transactions</text>
<polyline fill="none" stroke="#000000" points="1209.0527,-1706.2476 1291.9219,-1706.2476 "/>
<text text-anchor="middle" x="1250.4873" y="-1691.0476" font-family="Times,serif" font-size="14.00" fill="#000000">TBC</text>
</g>
<!-- ncc_api&#45;&gt;uht -->
<g id="edge21" class="edge">
<title>ncc_api&#45;&gt;uht:araction</title>
<path fill="none" stroke="#000000" d="M1141.3561,-1684.2384C1134.2195,-1681.4669 1127.1775,-1678.464 1120.5508,-1675.2476 947.5552,-1591.2814 938.5486,-1508.0113 760.5508,-1435.2476 703.1219,-1411.7713 289.6706,-1333.2381 198.1075,-1326.6839"/>
<polygon fill="#000000" stroke="#000000" points="198.1209,-1323.1813 187.9795,-1326.2476 197.8196,-1330.1748 198.1209,-1323.1813"/>
</g>
<!-- ncc_api&#45;&gt;uht -->
<g id="edge22" class="edge">
<title>ncc_api&#45;&gt;uht:raaction</title>
<path fill="none" stroke="#000000" d="M1139.3422,-1684.0456C1132.8636,-1681.3614 1126.5145,-1678.4295 1120.5508,-1675.2476 941.2326,-1579.5741 947.0034,-1474.1418 760.5508,-1393.2476 703.9673,-1368.6984 289.3941,-1309.5035 198.0682,-1304.5754"/>
<polygon fill="#000000" stroke="#000000" points="198.0879,-1301.0743 187.9795,-1304.2476 197.8605,-1308.0706 198.0879,-1301.0743"/>
</g>
<!-- ncc_api&#45;&gt;uht -->
<g id="edge23" class="edge">
<title>ncc_api&#45;&gt;uht:debitem</title>
<path fill="none" stroke="#000000" d="M1138.634,-1684.2184C1132.3737,-1681.5082 1126.265,-1678.5225 1120.5508,-1675.2476 935.0744,-1568.9487 955.1509,-1444.7448 760.5508,-1356.2476 646.729,-1304.4856 332.7702,-1283.3292 198.1306,-1282.2882"/>
<polygon fill="#000000" stroke="#000000" points="197.9934,-1278.7877 187.9795,-1282.2476 197.9654,-1285.7877 197.9934,-1278.7877"/>
</g>
<!-- ncc_api&#45;&gt;uht -->
<g id="edge24" class="edge">
<title>ncc_api&#45;&gt;uht:debtype</title>
<path fill="none" stroke="#000000" d="M1138.8832,-1684.844C1132.5026,-1681.9893 1126.3016,-1678.7999 1120.5508,-1675.2476 926.9692,-1555.6724 966.4248,-1408.139 760.5508,-1311.2476 647.9043,-1258.2324 332.3032,-1260.1124 198.0928,-1260.2421"/>
<polygon fill="#000000" stroke="#000000" points="197.9775,-1256.742 187.9795,-1260.2476 197.9815,-1263.742 197.9775,-1256.742"/>
</g>
<!-- ncc_api&#45;&gt;uht -->
<g id="edge25" class="edge">
<title>ncc_api&#45;&gt;uht:tenagree</title>
<path fill="none" stroke="#000000" d="M1144.9155,-1684.18C1136.6537,-1681.3084 1128.383,-1678.2999 1120.5508,-1675.2476 717.4091,-1518.1399 625.4878,-1372.5398 198.1371,-1370.2744"/>
<polygon fill="#000000" stroke="#000000" points="197.9887,-1366.7741 187.9795,-1370.2476 197.9702,-1373.7741 197.9887,-1366.7741"/>
</g>
<!-- ncc_api&#45;&gt;uht -->
<g id="edge26" class="edge">
<title>ncc_api&#45;&gt;uht:rtrans</title>
<path fill="none" stroke="#000000" d="M1138.6898,-1685.1486C1132.3505,-1682.2289 1126.2118,-1678.9412 1120.5508,-1675.2476 919.6869,-1544.1924 976.4323,-1377.7317 760.5508,-1273.2476 648.7211,-1219.1234 332.0918,-1237.2539 198.0751,-1238.2095"/>
<polygon fill="#000000" stroke="#000000" points="197.9662,-1234.7098 187.9795,-1238.2476 197.9927,-1241.7097 197.9662,-1234.7098"/>
</g>
<!-- ncc_api&#45;&gt;uht -->
<g id="edge27" class="edge">
<title>ncc_api&#45;&gt;uht:rectype</title>
<path fill="none" stroke="#000000" d="M1138.5092,-1685.4188C1132.2084,-1682.4414 1126.1281,-1679.0666 1120.5508,-1675.2476 912.0712,-1532.4953 987.0548,-1347.2204 760.5508,-1235.2476 649.324,-1180.2624 331.9633,-1214.408 198.0641,-1216.1774"/>
<polygon fill="#000000" stroke="#000000" points="197.9548,-1212.678 187.9795,-1216.2476 198.0037,-1219.6778 197.9548,-1212.678"/>
</g>
<!-- ncc_api&#45;&gt;uh_web_services -->
<g id="edge18" class="edge">
<title>ncc_api&#45;&gt;uh_web_services:tbc</title>
<path fill="none" stroke="#000000" d="M1138.8647,-1696.0104C975.3954,-1675.0658 579.7741,-1629.2006 243.4143,-1628.2622"/>
<polygon fill="#000000" stroke="#000000" points="242.9844,-1624.7617 232.9795,-1628.2476 242.9745,-1631.7617 242.9844,-1624.7617"/>
</g>
<!-- ncc_api&#45;&gt;crm -->
<g id="edge19" class="edge">
<title>ncc_api&#45;&gt;crm:contact</title>
<path fill="none" stroke="#000000" d="M1138.841,-1685.8666C1132.3994,-1682.7877 1126.1993,-1679.2673 1120.5508,-1675.2476 905.0177,-1521.866 981.0197,-1347.4458 760.5508,-1201.2476 697.6316,-1159.5244 668.2205,-1181.109 595.959,-1159.2476 422.0638,-1106.6388 389.2821,-1024.3689 213.1261,-1021.3341"/>
<polygon fill="#000000" stroke="#000000" points="213.009,-1017.833 202.9795,-1021.2476 212.9493,-1024.8328 213.009,-1017.833"/>
</g>
<!-- ncc_api&#45;&gt;crm -->
<g id="edge20" class="edge">
<title>ncc_api&#45;&gt;crm:action_diaries</title>
<path fill="none" stroke="#000000" d="M1138.6652,-1686.1085C1132.2605,-1682.9788 1126.117,-1679.3805 1120.5508,-1675.2476 896.0405,-1508.5475 992.2422,-1315.8134 760.5508,-1159.2476 698.3457,-1117.2124 668.4349,-1140.8352 595.959,-1121.2476 422.6882,-1074.419 387.1544,-1001.9952 213.007,-999.3237"/>
<polygon fill="#000000" stroke="#000000" points="213.0058,-995.8237 202.9795,-999.2476 212.9526,-1002.8235 213.0058,-995.8237"/>
</g>
<!-- uhw -->
<g id="node20" class="node">
<title>uhw</title>
<polygon fill="none" stroke="#000000" points="16,-705.2476 16,-771.2476 243.959,-771.2476 243.959,-705.2476 16,-705.2476"/>
<text text-anchor="middle" x="40.7173" y="-734.0476" font-family="Times,serif" font-size="14.00" fill="#000000">UHW</text>
<polyline fill="none" stroke="#000000" points="65.4346,-705.2476 65.4346,-771.2476 "/>
<text text-anchor="middle" x="154.6968" y="-756.0476" font-family="Times,serif" font-size="14.00" fill="#000000">W2ObjectNote</text>
<polyline fill="none" stroke="#000000" points="65.4346,-749.2476 243.959,-749.2476 "/>
<text text-anchor="middle" x="154.6968" y="-734.0476" font-family="Times,serif" font-size="14.00" fill="#000000">usp_StartHackneyProcessV2</text>
<polyline fill="none" stroke="#000000" points="65.4346,-727.2476 243.959,-727.2476 "/>
<text text-anchor="middle" x="154.6968" y="-712.0476" font-family="Times,serif" font-size="14.00" fill="#000000">ws_addNoteToOrder</text>
</g>
<!-- ncc_api&#45;&gt;uhw -->
<g id="edge28" class="edge">
<title>ncc_api&#45;&gt;uhw:w2objectnote</title>
<path fill="none" stroke="#000000" d="M1138.5183,-1686.3029C1132.1445,-1683.1324 1126.0482,-1679.4716 1120.5508,-1675.2476 887.7048,-1496.3394 964.659,-1332.3524 760.5508,-1121.2476 568.2359,-922.3405 525.1166,-764.1512 254.131,-760.3188"/>
<polygon fill="#000000" stroke="#000000" points="254.0038,-756.8179 243.9795,-760.2476 253.9547,-763.8177 254.0038,-756.8179"/>
</g>
<!-- rent_account_api -->
<g id="node7" class="node">
<title>rent_account_api</title>
<polygon fill="none" stroke="#000000" points="1134.8857,-1629.2476 1134.8857,-1665.2476 1296.0098,-1665.2476 1296.0098,-1629.2476 1134.8857,-1629.2476"/>
<text text-anchor="middle" x="1193.834" y="-1643.0476" font-family="Times,serif" font-size="14.00" fill="#000000">Rent Account API</text>
<polyline fill="none" stroke="#000000" points="1252.7822,-1629.2476 1252.7822,-1665.2476 "/>
<text text-anchor="middle" x="1274.396" y="-1643.0476" font-family="Times,serif" font-size="14.00" fill="#000000">TBC</text>
</g>
<!-- rent_account_api&#45;&gt;uht -->
<g id="edge34" class="edge">
<title>rent_account_api&#45;&gt;uht:rtrans</title>
<path fill="none" stroke="#000000" d="M1137.6728,-1629.2328C1131.6883,-1626.6222 1125.9018,-1623.6438 1120.5508,-1620.2476 914.9612,-1489.7656 982.1955,-1308.0755 760.5508,-1207.2476 693.9648,-1176.9572 669.0583,-1204.4744 595.959,-1207.2476 417.7032,-1214.0102 371.5678,-1237.3358 198.2206,-1238.2217"/>
<polygon fill="#000000" stroke="#000000" points="197.9706,-1234.7222 187.9795,-1238.2476 197.9884,-1241.7222 197.9706,-1234.7222"/>
</g>
<!-- rent_account_api&#45;&gt;uht -->
<g id="edge35" class="edge">
<title>rent_account_api&#45;&gt;uht:rectype</title>
<path fill="none" stroke="#000000" d="M1137.106,-1629.1479C1131.3123,-1626.5599 1125.7202,-1623.6096 1120.5508,-1620.2476 911.0344,-1483.9872 986.8829,-1294.2559 760.5508,-1188.2476 694.3052,-1157.2199 669.068,-1185.7418 595.959,-1188.2476 417.7739,-1194.3549 371.478,-1215.424 198.2154,-1216.2242"/>
<polygon fill="#000000" stroke="#000000" points="197.9714,-1212.7246 187.9795,-1216.2476 197.9875,-1219.7246 197.9714,-1212.7246"/>
</g>
<!-- rent_account_api&#45;&gt;crm -->
<g id="edge30" class="edge">
<title>rent_account_api&#45;&gt;crm:transactions</title>
<path fill="none" stroke="#000000" d="M1136.546,-1629.0494C1130.942,-1626.4868 1125.5418,-1623.569 1120.5508,-1620.2476 907.0341,-1478.161 970.1213,-1317.0927 760.5508,-1169.2476 549.2129,-1020.1558 467.237,-978.3456 213.2518,-977.2691"/>
<polygon fill="#000000" stroke="#000000" points="212.9868,-973.7687 202.9795,-977.2476 212.9721,-980.7686 212.9868,-973.7687"/>
</g>
<!-- rent_account_api&#45;&gt;crm -->
<g id="edge31" class="edge">
<title>rent_account_api&#45;&gt;crm:contacts</title>
<path fill="none" stroke="#000000" d="M1135.215,-1629.1367C1130.0412,-1626.5577 1125.0931,-1623.612 1120.5508,-1620.2476 883.3874,-1444.5845 1005.1779,-1227.3584 760.5508,-1062.2476 554.2608,-923.0125 457.9594,-954.3462 213.2421,-955.229"/>
<polygon fill="#000000" stroke="#000000" points="212.9731,-951.7294 202.9795,-955.2476 212.9859,-958.7294 212.9731,-951.7294"/>
</g>
<!-- rent_account_api&#45;&gt;crm -->
<g id="edge32" class="edge">
<title>rent_account_api&#45;&gt;crm:notifications</title>
<path fill="none" stroke="#000000" d="M1134.5034,-1629.2173C1129.5573,-1626.6196 1124.8501,-1623.6477 1120.5508,-1620.2476 863.3528,-1416.8456 1036.7901,-1152.9252 760.5508,-976.2476 554.0311,-844.1614 454.2699,-930.8036 213.0909,-933.1975"/>
<polygon fill="#000000" stroke="#000000" points="212.962,-929.698 202.9795,-933.2476 212.9968,-936.6979 212.962,-929.698"/>
</g>
<!-- rent_account_api&#45;&gt;crm -->
<g id="edge33" class="edge">
<title>rent_account_api&#45;&gt;crm:accounts</title>
<path fill="none" stroke="#000000" d="M1134.7926,-1629.6763C1129.7179,-1626.9707 1124.9075,-1623.8491 1120.5508,-1620.2476 846.3289,-1393.5649 1063.4602,-1091.8718 760.5508,-905.2476 698.2704,-866.8763 669.1088,-904.6892 595.959,-905.2476 424.6977,-906.555 379.4116,-911.0666 213.0665,-911.2423"/>
<polygon fill="#000000" stroke="#000000" points="212.9776,-907.7423 202.9795,-911.2476 212.9814,-914.7423 212.9776,-907.7423"/>
</g>
<!-- hackney_housing_api -->
<g id="node21" class="node">
<title>hackney_housing_api</title>
<polygon fill="none" stroke="#000000" points="37.3691,-845.2476 37.3691,-881.2476 222.5898,-881.2476 222.5898,-845.2476 37.3691,-845.2476"/>
<text text-anchor="middle" x="108.3657" y="-859.0476" font-family="Times,serif" font-size="14.00" fill="#000000">Hackney Housing API</text>
<polyline fill="none" stroke="#000000" points="179.3623,-845.2476 179.3623,-881.2476 "/>
<text text-anchor="middle" x="200.9761" y="-859.0476" font-family="Times,serif" font-size="14.00" fill="#000000">TBC</text>
</g>
<!-- rent_account_api&#45;&gt;hackney_housing_api -->
<g id="edge29" class="edge">
<title>rent_account_api&#45;&gt;hackney_housing_api:tbc</title>
<path fill="none" stroke="#000000" d="M1134.743,-1629.736C1129.6799,-1627.0164 1124.8857,-1623.8753 1120.5508,-1620.2476 840.9832,-1386.2934 1066.1158,-1082.0507 760.5508,-883.2476 663.0885,-819.8379 359.7408,-860.8587 233.222,-863.1494"/>
<polygon fill="#000000" stroke="#000000" points="232.9454,-859.6518 222.9795,-863.2476 233.0126,-866.6515 232.9454,-859.6518"/>
</g>
<!-- service_charge_api -->
<g id="node8" class="node">
<title>service_charge_api</title>
<polygon fill="none" stroke="#000000" points="1151.9707,-1574.2476 1151.9707,-1610.2476 1278.9248,-1610.2476 1278.9248,-1574.2476 1151.9707,-1574.2476"/>
<text text-anchor="middle" x="1215.4478" y="-1588.0476" font-family="Times,serif" font-size="14.00" fill="#000000">Service Charge API</text>
</g>
<!-- hackney_api -->
<g id="node9" class="node">
<title>hackney_api</title>
<polygon fill="none" stroke="#000000" points="1121.8633,-1519.2476 1121.8633,-1555.2476 1309.0322,-1555.2476 1309.0322,-1519.2476 1121.8633,-1519.2476"/>
<text text-anchor="middle" x="1167.3857" y="-1533.0476" font-family="Times,serif" font-size="14.00" fill="#000000">Hackney API</text>
<polyline fill="none" stroke="#000000" points="1212.9082,-1519.2476 1212.9082,-1555.2476 "/>
<text text-anchor="middle" x="1260.9702" y="-1533.0476" font-family="Times,serif" font-size="14.00" fill="#000000">CRMLookups</text>
</g>
<!-- property_api -->
<g id="node10" class="node">
<title>property_api</title>
<polygon fill="none" stroke="#000000" points="1170.6943,-1464.2476 1170.6943,-1500.2476 1260.2012,-1500.2476 1260.2012,-1464.2476 1170.6943,-1464.2476"/>
<text text-anchor="middle" x="1215.4478" y="-1478.0476" font-family="Times,serif" font-size="14.00" fill="#000000">Property API</text>
</g>
<!-- property_api&#45;&gt;uht -->
<g id="edge36" class="edge">
<title>property_api&#45;&gt;uht:property</title>
<path fill="none" stroke="#000000" d="M1170.5029,-1475.483C1028.6568,-1454.7364 577.4103,-1393.3396 198.0535,-1392.262"/>
<polygon fill="#000000" stroke="#000000" points="197.9845,-1388.762 187.9795,-1392.2476 197.9745,-1395.762 197.9845,-1388.762"/>
</g>
<!-- repairs_api -->
<g id="node11" class="node">
<title>repairs_api</title>
<polygon fill="none" stroke="#000000" points="1149.0977,-1409.2476 1149.0977,-1445.2476 1281.7979,-1445.2476 1281.7979,-1409.2476 1149.0977,-1409.2476"/>
<text text-anchor="middle" x="1191.127" y="-1423.0476" font-family="Times,serif" font-size="14.00" fill="#000000">Repairs API</text>
<polyline fill="none" stroke="#000000" points="1233.1563,-1409.2476 1233.1563,-1445.2476 "/>
<text text-anchor="middle" x="1257.4771" y="-1423.0476" font-family="Times,serif" font-size="14.00" fill="#000000">repair</text>
</g>
<!-- repairs_api&#45;&gt;uht -->
<g id="edge48" class="edge">
<title>repairs_api&#45;&gt;uht:rmworder</title>
<path fill="none" stroke="#000000" d="M1148.6854,-1413.2237C1138.8776,-1409.7687 1129.1835,-1405.5021 1120.5508,-1400.2476 920.9955,-1278.7846 974.9731,-1109.9766 760.5508,-1017.2476 519.1784,-912.8638 455.9344,-1187.1316 198.0258,-1194.1123"/>
<polygon fill="#000000" stroke="#000000" points="197.9314,-1190.6132 187.9795,-1194.2476 198.0258,-1197.6125 197.9314,-1190.6132"/>
</g>
<!-- repairs_api&#45;&gt;uht -->
<g id="edge49" class="edge">
<title>repairs_api&#45;&gt;uht:rmtask</title>
<path fill="none" stroke="#000000" d="M1149.0169,-1413.6682C1139.0609,-1410.1478 1129.2347,-1405.7444 1120.5508,-1400.2476 915.37,-1270.3709 981.707,-1089.5324 760.5508,-989.2476 520.3286,-880.3173 456.7432,-1164.8648 198.0561,-1172.1072"/>
<polygon fill="#000000" stroke="#000000" points="197.9297,-1168.6085 187.9795,-1172.2476 198.0273,-1175.6079 197.9297,-1168.6085"/>
</g>
<!-- repairs_api&#45;&gt;uht -->
<g id="edge50" class="edge">
<title>repairs_api&#45;&gt;uht:rmreqst</title>
<path fill="none" stroke="#000000" d="M1148.8522,-1413.9236C1138.9175,-1410.3701 1129.1411,-1405.8896 1120.5508,-1400.2476 909.3587,-1261.5397 988.8807,-1068.4484 760.5508,-960.2476 521.3338,-846.8877 457.7079,-1142.5758 198.0923,-1150.1017"/>
<polygon fill="#000000" stroke="#000000" points="197.9279,-1146.6036 187.9795,-1150.2476 198.029,-1153.6029 197.9279,-1146.6036"/>
</g>
<!-- repairs_api&#45;&gt;uht -->
<g id="edge51" class="edge">
<title>repairs_api&#45;&gt;uht:visit</title>
<path fill="none" stroke="#000000" d="M1148.6911,-1414.1647C1138.7772,-1410.58 1129.0494,-1406.0267 1120.5508,-1400.2476 902.9662,-1252.2899 996.4899,-1046.7264 760.5508,-930.2476 522.1735,-812.5651 458.8414,-1120.2642 198.1351,-1128.0958"/>
<polygon fill="#000000" stroke="#000000" points="197.926,-1124.5984 187.9795,-1128.2476 198.0307,-1131.5977 197.926,-1124.5984"/>
</g>
<!-- repairs_api&#45;&gt;uht -->
<g id="edge52" class="edge">
<title>repairs_api&#45;&gt;uht:supplier</title>
<path fill="none" stroke="#000000" d="M1149.0289,-1414.5717C1138.9635,-1410.9315 1129.1003,-1406.2544 1120.5508,-1400.2476 896.1977,-1242.621 1004.5292,-1024.3675 760.5508,-899.2476 522.8278,-777.3357 460.1581,-1097.9297 198.1849,-1106.0894"/>
<polygon fill="#000000" stroke="#000000" points="197.924,-1102.593 187.9795,-1106.2476 198.0326,-1109.5921 197.924,-1102.593"/>
</g>
<!-- repairs_api&#45;&gt;crm -->
<g id="edge57" class="edge">
<title>repairs_api&#45;&gt;crm:contacts</title>
<path fill="none" stroke="#000000" d="M1148.8756,-1414.7867C1138.8293,-1411.1197 1129.0122,-1406.3779 1120.5508,-1400.2476 889.0592,-1232.5337 1012.9929,-1001.3719 760.5508,-867.2476 660.5994,-814.1428 348.0021,-948.1389 213.1502,-954.9776"/>
<polygon fill="#000000" stroke="#000000" points="212.883,-951.4834 202.9795,-955.2476 213.0689,-958.4809 212.883,-951.4834"/>
</g>
<!-- repairs_api&#45;&gt;uhw -->
<g id="edge53" class="edge">
<title>repairs_api&#45;&gt;uhw:usp_starthackneyprocessv2</title>
<path fill="none" stroke="#000000" d="M1149.0823,-1416.8934C1138.663,-1412.9814 1128.6716,-1407.6118 1120.5508,-1400.2476 796.8252,-1106.6841 1121.729,-731.2722 760.5508,-485.2476 552.0524,-343.2243 500.9609,-727.8759 253.9839,-738.0428"/>
<polygon fill="#000000" stroke="#000000" points="253.9057,-734.5436 243.9795,-738.2476 254.0491,-741.5421 253.9057,-734.5436"/>
</g>
<!-- repairs_api&#45;&gt;uhw -->
<g id="edge54" class="edge">
<title>repairs_api&#45;&gt;uhw:w2objectnote</title>
<path fill="none" stroke="#000000" d="M1149.0083,-1415.4482C1138.8335,-1411.6988 1128.9411,-1406.7582 1120.5508,-1400.2476 869.7208,-1205.6143 1032.2794,-947.4468 760.5508,-783.2476 566.7396,-666.1321 476.4557,-757.4854 253.9896,-760.1869"/>
<polygon fill="#000000" stroke="#000000" points="253.958,-756.6869 243.9795,-760.2476 254.0006,-763.6868 253.958,-756.6869"/>
</g>
<!-- repairs_api&#45;&gt;uhw -->
<g id="edge55" class="edge">
<title>repairs_api&#45;&gt;uhw:ws_addnotetoorder</title>
<path fill="none" stroke="#000000" d="M1149.0014,-1416.982C1138.5912,-1413.0601 1128.6237,-1407.6643 1120.5508,-1400.2476 787.7423,-1094.4934 1132.409,-706.0911 760.5508,-449.2476 561.5472,-311.7953 298.1629,-654.6816 251.1102,-709.0965"/>
<polygon fill="#000000" stroke="#000000" points="248.5621,-706.6951 243.9795,-716.2476 253.5189,-711.6378 248.5621,-706.6951"/>
</g>
<!-- drs -->
<g id="node22" class="node">
<title>drs</title>
<polygon fill="none" stroke="#000000" points="84.4175,-579.2476 84.4175,-623.2476 175.5415,-623.2476 175.5415,-579.2476 84.4175,-579.2476"/>
<text text-anchor="middle" x="106.0347" y="-597.0476" font-family="Times,serif" font-size="14.00" fill="#000000">DRS</text>
<polyline fill="none" stroke="#000000" points="127.6519,-579.2476 127.6519,-623.2476 "/>
<text text-anchor="middle" x="151.5967" y="-608.0476" font-family="Times,serif" font-size="14.00" fill="#000000">s_job</text>
<polyline fill="none" stroke="#000000" points="127.6519,-601.2476 175.5415,-601.2476 "/>
<text text-anchor="middle" x="151.5967" y="-586.0476" font-family="Times,serif" font-size="14.00" fill="#000000">p_job</text>
</g>
<!-- repairs_api&#45;&gt;drs -->
<g id="edge37" class="edge">
<title>repairs_api&#45;&gt;drs:s_job</title>
<path fill="none" stroke="#000000" d="M1148.7873,-1417.2111C1138.4009,-1413.2638 1128.4968,-1407.8 1120.5508,-1400.2476 760.5287,-1058.059 1164.3952,-631.4165 760.5508,-342.2476 530.7074,-177.6705 463.7919,-601.6781 186.362,-612.0543"/>
<polygon fill="#000000" stroke="#000000" points="185.9126,-608.562 175.9795,-612.2476 186.0429,-615.5608 185.9126,-608.562"/>
</g>
<!-- repairs_api&#45;&gt;drs -->
<g id="edge38" class="edge">
<title>repairs_api&#45;&gt;drs:p_job</title>
<path fill="none" stroke="#000000" d="M1148.7126,-1417.2892C1138.3345,-1413.3332 1128.4525,-1407.8464 1120.5508,-1400.2476 749.7719,-1043.6871 1177.0343,-602.1645 760.5508,-300.2476 528.4879,-132.0208 467.4265,-579.5478 186.0814,-590.0598"/>
<polygon fill="#000000" stroke="#000000" points="185.9127,-586.5622 175.9795,-590.2476 186.0429,-593.561 185.9127,-586.5622"/>
</g>
<!-- mobile_reports -->
<g id="node23" class="node">
<title>mobile_reports</title>
<polygon fill="none" stroke="#000000" points="34.0776,-642.2476 34.0776,-686.2476 225.8813,-686.2476 225.8813,-642.2476 34.0776,-642.2476"/>
<text text-anchor="middle" x="85.8242" y="-660.0476" font-family="Times,serif" font-size="14.00" fill="#000000">Mobile Reports</text>
<polyline fill="none" stroke="#000000" points="137.5708,-642.2476 137.5708,-686.2476 "/>
<text text-anchor="middle" x="181.7261" y="-671.0476" font-family="Times,serif" font-size="14.00" fill="#000000">Processed</text>
<polyline fill="none" stroke="#000000" points="137.5708,-664.2476 225.8813,-664.2476 "/>
<text text-anchor="middle" x="181.7261" y="-649.0476" font-family="Times,serif" font-size="14.00" fill="#000000">Unprocessed</text>
</g>
<!-- repairs_api&#45;&gt;mobile_reports -->
<g id="edge39" class="edge">
<title>repairs_api&#45;&gt;mobile_reports:processed</title>
<path fill="none" stroke="#000000" d="M1148.9232,-1417.0666C1138.5217,-1413.1353 1128.5773,-1407.7144 1120.5508,-1400.2476 778.3663,-1081.9265 1143.4313,-680.2422 760.5508,-412.2476 568.0742,-277.525 303.9506,-632.5333 235.7897,-671.7652"/>
<polygon fill="#000000" stroke="#000000" points="234.2325,-668.604 225.9795,-675.2476 236.5742,-675.2007 234.2325,-668.604"/>
</g>
<!-- repairs_api&#45;&gt;mobile_reports -->
<g id="edge40" class="edge">
<title>repairs_api&#45;&gt;mobile_reports:unprocessed</title>
<path fill="none" stroke="#000000" d="M1148.8534,-1417.1412C1138.4596,-1413.2016 1128.536,-1407.7586 1120.5508,-1400.2476 769.4626,-1070.007 1153.8963,-655.8173 760.5508,-377.2476 563.3633,-237.5983 309.6257,-613.3149 235.8814,-650.3389"/>
<polygon fill="#000000" stroke="#000000" points="234.5876,-647.071 225.9795,-653.2476 236.5606,-653.7873 234.5876,-647.071"/>
</g>
<!-- uh_warehouse -->
<g id="node24" class="node">
<title>uh_warehouse</title>
<polygon fill="none" stroke="#000000" points="28.9438,-406.2476 28.9438,-560.2476 231.0151,-560.2476 231.0151,-406.2476 28.9438,-406.2476"/>
<text text-anchor="middle" x="79.6069" y="-479.0476" font-family="Times,serif" font-size="14.00" fill="#000000">UH Warehouse</text>
<polyline fill="none" stroke="#000000" points="130.27,-406.2476 130.27,-560.2476 "/>
<text text-anchor="middle" x="180.6426" y="-545.0476" font-family="Times,serif" font-size="14.00" fill="#000000">property</text>
<polyline fill="none" stroke="#000000" points="130.27,-538.2476 231.0151,-538.2476 "/>
<text text-anchor="middle" x="180.6426" y="-523.0476" font-family="Times,serif" font-size="14.00" fill="#000000">lulevel</text>
<polyline fill="none" stroke="#000000" points="130.27,-516.2476 231.0151,-516.2476 "/>
<text text-anchor="middle" x="180.6426" y="-501.0476" font-family="Times,serif" font-size="14.00" fill="#000000">rmreqst</text>
<polyline fill="none" stroke="#000000" points="130.27,-494.2476 231.0151,-494.2476 "/>
<text text-anchor="middle" x="180.6426" y="-479.0476" font-family="Times,serif" font-size="14.00" fill="#000000">rmworder</text>
<polyline fill="none" stroke="#000000" points="130.27,-472.2476 231.0151,-472.2476 "/>
<text text-anchor="middle" x="180.6426" y="-457.0476" font-family="Times,serif" font-size="14.00" fill="#000000">rmtask</text>
<polyline fill="none" stroke="#000000" points="130.27,-450.2476 231.0151,-450.2476 "/>
<text text-anchor="middle" x="180.6426" y="-435.0476" font-family="Times,serif" font-size="14.00" fill="#000000">rmtrade</text>
<polyline fill="none" stroke="#000000" points="130.27,-428.2476 231.0151,-428.2476 "/>
<text text-anchor="middle" x="180.6426" y="-413.0476" font-family="Times,serif" font-size="14.00" fill="#000000">W2ObjectNote</text>
</g>
<!-- repairs_api&#45;&gt;uh_warehouse -->
<g id="edge41" class="edge">
<title>repairs_api&#45;&gt;uh_warehouse:property</title>
<path fill="none" stroke="#000000" d="M1148.6425,-1417.3618C1138.2721,-1413.3977 1128.411,-1407.8894 1120.5508,-1400.2476 738.9797,-1029.2811 1189.7133,-572.9414 760.5508,-258.2476 560.3948,-111.4784 326.1671,-514.6584 240.8629,-547.1796"/>
<polygon fill="#000000" stroke="#000000" points="240.0507,-543.7737 230.9795,-549.2476 241.4844,-550.6253 240.0507,-543.7737"/>
</g>
<!-- repairs_api&#45;&gt;uh_warehouse -->
<g id="edge42" class="edge">
<title>repairs_api&#45;&gt;uh_warehouse:lulevel</title>
<path fill="none" stroke="#000000" d="M1149.0719,-1417.6049C1138.5298,-1413.6216 1128.4996,-1408.0438 1120.5508,-1400.2476 729.7037,-1016.9083 1200.6097,-547.914 760.5508,-222.2476 555.9196,-70.81 336.4155,-495.5313 240.9179,-525.5817"/>
<polygon fill="#000000" stroke="#000000" points="240.2633,-522.1425 230.9795,-527.2476 241.4205,-529.0462 240.2633,-522.1425"/>
</g>
<!-- repairs_api&#45;&gt;uh_warehouse -->
<g id="edge43" class="edge">
<title>repairs_api&#45;&gt;uh_warehouse:rmreqst</title>
<path fill="none" stroke="#000000" d="M1149.0162,-1417.6614C1138.48,-1413.6721 1128.4663,-1408.0776 1120.5508,-1400.2476 720.1478,-1004.17 1211.8339,-522.2099 760.5508,-185.2476 551.6279,-29.2499 349.7536,-475.8103 241.1913,-503.8726"/>
<polygon fill="#000000" stroke="#000000" points="240.423,-500.4444 230.9795,-505.2476 241.3571,-507.3818 240.423,-500.4444"/>
</g>
<!-- repairs_api&#45;&gt;uh_warehouse -->
<g id="edge44" class="edge">
<title>repairs_api&#45;&gt;uh_warehouse:rmworder</title>
<path fill="none" stroke="#000000" d="M1148.9633,-1417.7147C1138.4328,-1413.7196 1128.4346,-1408.1095 1120.5508,-1400.2476 710.5712,-991.4113 1223.0813,-496.5233 760.5508,-148.2476 547.632,12.0757 365.0908,-456.4101 241.2814,-482.1503"/>
<polygon fill="#000000" stroke="#000000" points="240.5525,-478.708 230.9795,-483.2476 241.294,-485.6687 240.5525,-478.708"/>
</g>
<!-- repairs_api&#45;&gt;uh_warehouse -->
<g id="edge45" class="edge">
<title>repairs_api&#45;&gt;uh_warehouse:rmtask</title>
<path fill="none" stroke="#000000" d="M1148.9118,-1417.7662C1138.3867,-1413.7656 1128.4037,-1408.1403 1120.5508,-1400.2476 700.716,-978.288 1234.655,-470.1592 760.5508,-110.2476 543.6607,54.4023 383.529,-437.2693 241.1972,-460.4069"/>
<polygon fill="#000000" stroke="#000000" points="240.6588,-456.9393 230.9795,-461.2476 241.2329,-463.9157 240.6588,-456.9393"/>
</g>
<!-- repairs_api&#45;&gt;uh_warehouse -->
<g id="edge46" class="edge">
<title>repairs_api&#45;&gt;uh_warehouse:rmtrade</title>
<path fill="none" stroke="#000000" d="M1148.8628,-1417.8148C1138.3429,-1413.8091 1128.3744,-1408.1694 1120.5508,-1400.2476 690.8426,-965.1464 1246.2493,-443.8108 760.5508,-72.2476 540.1986,96.3235 404.4791,-417.4352 241.2682,-438.5782"/>
<polygon fill="#000000" stroke="#000000" points="240.7311,-435.1057 230.9795,-439.2476 241.1857,-442.0909 240.7311,-435.1057"/>
</g>
<!-- repairs_api&#45;&gt;uh_warehouse -->
<g id="edge47" class="edge">
<title>repairs_api&#45;&gt;uh_warehouse:w2objectnote</title>
<path fill="none" stroke="#000000" d="M1148.8161,-1417.8607C1138.3012,-1413.8501 1128.3464,-1408.1969 1120.5508,-1400.2476 680.9522,-951.9876 1257.8628,-417.4769 760.5508,-34.2476 537.0058,138.0165 427.5603,-397.845 241.0653,-416.7371"/>
<polygon fill="#000000" stroke="#000000" points="240.7897,-413.2464 230.9795,-417.2476 241.1437,-420.2375 240.7897,-413.2464"/>
</g>
<!-- base_data_service -->
<g id="node25" class="node">
<title>base_data_service</title>
<polygon fill="none" stroke="#000000" points="49.0552,-790.2476 49.0552,-826.2476 210.9038,-826.2476 210.9038,-790.2476 49.0552,-790.2476"/>
<text text-anchor="middle" x="108.3657" y="-804.0476" font-family="Times,serif" font-size="14.00" fill="#000000">Base Data Service</text>
<polyline fill="none" stroke="#000000" points="167.6763,-790.2476 167.6763,-826.2476 "/>
<text text-anchor="middle" x="189.29" y="-804.0476" font-family="Times,serif" font-size="14.00" fill="#000000">TBC</text>
</g>
<!-- repairs_api&#45;&gt;base_data_service -->
<g id="edge56" class="edge">
<title>repairs_api&#45;&gt;base_data_service:tbc</title>
<path fill="none" stroke="#000000" d="M1148.7979,-1414.893C1138.7614,-1411.2127 1128.9676,-1406.4389 1120.5508,-1400.2476 885.2108,-1227.1344 1012.0659,-998.8856 760.5508,-850.2476 552.6449,-727.3814 458.6231,-805.949 221.2955,-808.1987"/>
<polygon fill="#000000" stroke="#000000" points="220.9628,-804.7002 210.9795,-808.2476 220.996,-811.7001 220.9628,-804.7002"/>
</g>
<!-- leasehold_api -->
<g id="node12" class="node">
<title>leasehold_api</title>
<polygon fill="none" stroke="#000000" points="1166.0356,-1354.2476 1166.0356,-1390.2476 1264.8599,-1390.2476 1264.8599,-1354.2476 1166.0356,-1354.2476"/>
<text text-anchor="middle" x="1215.4478" y="-1368.0476" font-family="Times,serif" font-size="14.00" fill="#000000">Leasehold API</text>
</g>
<!-- asset_storage_api -->
<g id="node13" class="node">
<title>asset_storage_api</title>
<polygon fill="none" stroke="#000000" points="1156.1133,-1299.2476 1156.1133,-1335.2476 1274.7822,-1335.2476 1274.7822,-1299.2476 1156.1133,-1299.2476"/>
<text text-anchor="middle" x="1215.4478" y="-1313.0476" font-family="Times,serif" font-size="14.00" fill="#000000">Asset Storage API</text>
</g>
<!-- directory_of_services_api -->
<g id="node14" class="node">
<title>directory_of_services_api</title>
<polygon fill="none" stroke="#000000" points="1134.9355,-1244.2476 1134.9355,-1280.2476 1295.96,-1280.2476 1295.96,-1244.2476 1134.9355,-1244.2476"/>
<text text-anchor="middle" x="1215.4478" y="-1258.0476" font-family="Times,serif" font-size="14.00" fill="#000000">Directory of Services API</text>
</g>
<!-- transactions_api -->
<g id="node15" class="node">
<title>transactions_api</title>
<polygon fill="none" stroke="#000000" points="1159.2783,-1189.2476 1159.2783,-1225.2476 1271.6172,-1225.2476 1271.6172,-1189.2476 1159.2783,-1189.2476"/>
<text text-anchor="middle" x="1215.4478" y="-1203.0476" font-family="Times,serif" font-size="14.00" fill="#000000">Transactions API</text>
</g>
<!-- transactions_api&#45;&gt;uht -->
<g id="edge58" class="edge">
<title>transactions_api&#45;&gt;uht:rtrans</title>
<path fill="none" stroke="#000000" d="M1208.6579,-1188.9428C1163.9039,-1071.2094 903.5482,-430.6968 595.959,-599.2476 303.4966,-759.5093 520.3797,-1228.4969 198.1687,-1238.098"/>
<polygon fill="#000000" stroke="#000000" points="197.927,-1234.6011 187.9795,-1238.2476 198.0298,-1241.6003 197.927,-1234.6011"/>
</g>
<!-- transactions_api&#45;&gt;uht -->
<g id="edge59" class="edge">
<title>transactions_api&#45;&gt;uht:debtype</title>
<path fill="none" stroke="#000000" d="M1190.5209,-1189.0444C1106.9545,-1130.2896 828.8798,-953.1369 595.959,-1017.2476 395.7542,-1072.3534 398.8737,-1254.2555 198.014,-1260.1033"/>
<polygon fill="#000000" stroke="#000000" points="197.9281,-1256.6041 187.9795,-1260.2476 198.0288,-1263.6034 197.9281,-1256.6041"/>
</g>
<!-- transactions_api&#45;&gt;uht -->
<g id="edge60" class="edge">
<title>transactions_api&#45;&gt;uht:rectype</title>
<path fill="none" stroke="#000000" d="M1209.2613,-1189.2106C1166.9271,-1068.7831 912.1954,-391.3691 595.959,-566.2476 300.5391,-729.6146 524.3656,-1206.3362 198.2922,-1216.0955"/>
<polygon fill="#000000" stroke="#000000" points="197.9268,-1212.6004 187.9795,-1216.2476 198.0301,-1219.5997 197.9268,-1212.6004"/>
</g>
<!-- manage_a_tenancy_service -->
<g id="node26" class="node">
<title>manage_a_tenancy_service</title>
<polygon fill="none" stroke="#000000" points="1670.3447,-1817.2476 1670.3447,-1853.2476 1837.0977,-1853.2476 1837.0977,-1817.2476 1670.3447,-1817.2476"/>
<text text-anchor="middle" x="1753.7212" y="-1831.0476" font-family="Times,serif" font-size="14.00" fill="#000000">Manage a Tenancy Service</text>
</g>
<!-- manage_a_tenancy_service&#45;&gt;manage_a_tenancy_api -->
<g id="edge61" class="edge">
<title>manage_a_tenancy_service&#45;&gt;manage_a_tenancy_api:tbc</title>
<path fill="none" stroke="#000000" d="M1716.4809,-1853.2902C1643.1078,-1887.1628 1473.6543,-1957.1566 1320.5103,-1960.1485"/>
<polygon fill="#000000" stroke="#000000" points="1320.4128,-1956.6492 1310.4478,-1960.2476 1320.4818,-1963.6489 1320.4128,-1956.6492"/>
</g>
<!-- report_a_repair_service -->
<g id="node27" class="node">
<title>report_a_repair_service</title>
<polygon fill="none" stroke="#000000" points="1678.6641,-1597.2476 1678.6641,-1633.2476 1828.7783,-1633.2476 1828.7783,-1597.2476 1678.6641,-1597.2476"/>
<text text-anchor="middle" x="1753.7212" y="-1611.0476" font-family="Times,serif" font-size="14.00" fill="#000000">Report a Repair Service</text>
</g>
<!-- report_a_repair_service&#45;&gt;repairs_api -->
<g id="edge62" class="edge">
<title>report_a_repair_service&#45;&gt;repairs_api:repair</title>
<path fill="none" stroke="#000000" d="M1689.0282,-1597.1194C1680.0142,-1594.3069 1670.911,-1591.3127 1662.3447,-1588.2476 1492.5097,-1527.4805 1466.1812,-1430.9118 1291.5152,-1427.3491"/>
<polygon fill="#000000" stroke="#000000" points="1291.4826,-1423.8487 1281.4478,-1427.2476 1291.4119,-1430.8483 1291.4826,-1423.8487"/>
</g>
<!-- my_rent_account -->
<g id="node28" class="node">
<title>my_rent_account</title>
<polygon fill="none" stroke="#000000" points="1695.9453,-1707.2476 1695.9453,-1743.2476 1811.4971,-1743.2476 1811.4971,-1707.2476 1695.9453,-1707.2476"/>
<text text-anchor="middle" x="1753.7212" y="-1721.0476" font-family="Times,serif" font-size="14.00" fill="#000000">My Rent Account</text>
</g>
<!-- my_rent_account&#45;&gt;ncc_api -->
<g id="edge64" class="edge">
<title>my_rent_account&#45;&gt;ncc_api:transactions</title>
<path fill="none" stroke="#000000" d="M1695.7104,-1723.5997C1610.1877,-1721.3127 1444.9123,-1717.4347 1301.7182,-1717.2542"/>
<polygon fill="#000000" stroke="#000000" points="1301.45,-1713.7541 1291.4478,-1717.2476 1301.4455,-1720.7541 1301.45,-1713.7541"/>
</g>
<!-- my_rent_account&#45;&gt;rent_account_api -->
<g id="edge63" class="edge">
<title>my_rent_account&#45;&gt;rent_account_api:tbc</title>
<path fill="none" stroke="#000000" d="M1695.7927,-1708.8963C1611.539,-1686.5602 1449.6288,-1649.0565 1306.7042,-1647.3108"/>
<polygon fill="#000000" stroke="#000000" points="1306.4692,-1643.8094 1296.4478,-1647.2476 1306.426,-1650.8093 1306.4692,-1643.8094"/>
</g>
<!-- ncc_crm -->
<g id="node29" class="node">
<title>ncc_crm</title>
<polygon fill="none" stroke="#000000" points="1714.0161,-1652.2476 1714.0161,-1688.2476 1793.4263,-1688.2476 1793.4263,-1652.2476 1714.0161,-1652.2476"/>
<text text-anchor="middle" x="1753.7212" y="-1666.0476" font-family="Times,serif" font-size="14.00" fill="#000000">NCC CRM</text>
</g>
<!-- ncc_crm&#45;&gt;manage_a_tenancy_api -->
<g id="edge67" class="edge">
<title>ncc_crm&#45;&gt;manage_a_tenancy_api:tbc</title>
<path fill="none" stroke="#000000" d="M1713.8955,-1679.2612C1697.4406,-1683.7898 1678.4799,-1690.0785 1662.3447,-1698.2476 1491.4411,-1784.7746 1504.8941,-1954.1596 1320.5359,-1960.0878"/>
<polygon fill="#000000" stroke="#000000" points="1320.391,-1956.5896 1310.4478,-1960.2476 1320.502,-1963.5887 1320.391,-1956.5896"/>
</g>
<!-- ncc_crm&#45;&gt;ncc_api -->
<g id="edge66" class="edge">
<title>ncc_crm&#45;&gt;ncc_api:tbc</title>
<path fill="none" stroke="#000000" d="M1713.8771,-1673.8561C1635.5978,-1680.6307 1455.9135,-1694.6294 1301.5757,-1695.2278"/>
<polygon fill="#000000" stroke="#000000" points="1301.4409,-1691.728 1291.4478,-1695.2476 1301.4546,-1698.728 1301.4409,-1691.728"/>
</g>
<!-- ncc_crm&#45;&gt;hackney_api -->
<g id="edge65" class="edge">
<title>ncc_crm&#45;&gt;hackney_api:crmlookups</title>
<path fill="none" stroke="#000000" d="M1713.6782,-1658.458C1697.7039,-1653.7437 1679.1493,-1648.2541 1662.3447,-1643.2476 1508.7682,-1597.4934 1474.6539,-1539.7874 1319.8233,-1537.329"/>
<polygon fill="#000000" stroke="#000000" points="1319.4749,-1533.8262 1309.4478,-1537.2476 1319.42,-1540.826 1319.4749,-1533.8262"/>
</g>
<!-- income_collection_service -->
<g id="node30" class="node">
<title>income_collection_service</title>
<polygon fill="none" stroke="#000000" points="1671.0796,-1762.2476 1671.0796,-1798.2476 1836.3628,-1798.2476 1836.3628,-1762.2476 1671.0796,-1762.2476"/>
<text text-anchor="middle" x="1753.7212" y="-1776.0476" font-family="Times,serif" font-size="14.00" fill="#000000">Income Collection Service</text>
</g>
<!-- income_collection_service&#45;&gt;income_api -->
<g id="edge68" class="edge">
<title>income_collection_service&#45;&gt;income_api:users</title>
<path fill="none" stroke="#000000" d="M1670.7025,-1786.6701C1581.8919,-1792.9925 1436.5355,-1801.7704 1308.7864,-1802.2289"/>
<polygon fill="#000000" stroke="#000000" points="1308.4414,-1798.7294 1298.4478,-1802.2476 1308.4541,-1805.7294 1308.4414,-1798.7294"/>
</g>
<!-- income_collection_service&#45;&gt;income_api -->
<g id="edge69" class="edge">
<title>income_collection_service&#45;&gt;income_api:worktray</title>
<path fill="none" stroke="#000000" d="M1671.06,-1780.2476C1582.2424,-1780.2476 1436.5972,-1780.2476 1308.7905,-1780.2476"/>
<polygon fill="#000000" stroke="#000000" points="1308.4478,-1776.7477 1298.4478,-1780.2476 1308.4477,-1783.7477 1308.4478,-1776.7477"/>
</g>
<!-- income_collection_service&#45;&gt;income_api -->
<g id="edge70" class="edge">
<title>income_collection_service&#45;&gt;income_api:action_diary</title>
<path fill="none" stroke="#000000" d="M1670.7025,-1773.8252C1581.8919,-1767.5028 1436.5355,-1758.7249 1308.7864,-1758.2664"/>
<polygon fill="#000000" stroke="#000000" points="1308.4541,-1754.7658 1298.4478,-1758.2476 1308.4414,-1761.7658 1308.4541,-1754.7658"/>
</g>
<!-- income_collection_service&#45;&gt;tenancy_api -->
<g id="edge71" class="edge">
<title>income_collection_service&#45;&gt;tenancy_api:tenancies</title>
<path fill="none" stroke="#000000" d="M1687.5796,-1798.2911C1678.962,-1801.286 1670.353,-1804.6148 1662.3447,-1808.2476 1498.5827,-1882.5361 1491.3042,-1972.0356 1318.3447,-2021.2476 1081.9366,-2088.5127 1011.3774,-1970.5534 770.3759,-1967.3154"/>
<polygon fill="#000000" stroke="#000000" points="770.2781,-1963.8147 760.2549,-1967.2476 770.2312,-1970.8146 770.2781,-1963.8147"/>
</g>
<!-- income_collection_service&#45;&gt;tenancy_api -->
<g id="edge72" class="edge">
<title>income_collection_service&#45;&gt;tenancy_api:contacts</title>
<path fill="none" stroke="#000000" d="M1689.2869,-1798.3506C1680.1467,-1801.3921 1670.9396,-1804.7176 1662.3447,-1808.2476 1502.7286,-1873.8045 1485.9106,-1947.0568 1318.3447,-1988.2476 1080.0645,-2046.8213 1010.9145,-1948.017 770.3579,-1945.3044"/>
<polygon fill="#000000" stroke="#000000" points="770.2744,-1941.8039 760.2549,-1945.2476 770.235,-1948.8038 770.2744,-1941.8039"/>
</g>
<!-- repairs_hub -->
<g id="node31" class="node">
<title>repairs_hub</title>
<polygon fill="none" stroke="#000000" points="1710.5332,-1542.2476 1710.5332,-1578.2476 1796.9092,-1578.2476 1796.9092,-1542.2476 1710.5332,-1542.2476"/>
<text text-anchor="middle" x="1753.7212" y="-1556.0476" font-family="Times,serif" font-size="14.00" fill="#000000">Repairs Hub</text>
</g>
<!-- repairs_hub&#45;&gt;repairs_api -->
<g id="edge73" class="edge">
<title>repairs_hub&#45;&gt;repairs_api:repair</title>
<path fill="none" stroke="#000000" d="M1716.4693,-1542.1722C1639.5957,-1506.5533 1456.745,-1430.4521 1291.7845,-1427.3457"/>
<polygon fill="#000000" stroke="#000000" points="1291.4805,-1423.8428 1281.4478,-1427.2476 1291.4141,-1430.8424 1291.4805,-1423.8428"/>
</g>
</g>
</svg>
