<?xml version="1.0" encoding="UTF-8" standalone="no"?>
<!DOCTYPE svg PUBLIC "-//W3C//DTD SVG 1.1//EN"
 "http://www.w3.org/Graphics/SVG/1.1/DTD/svg11.dtd">
<!-- Generated by graphviz version 2.40.1 (20161225.0304)
 -->
<!-- Title: G Pages: 1 -->
<svg width="2017pt" height="2275pt"
 viewBox="0.00 0.00 2017.15 2274.51" xmlns="http://www.w3.org/2000/svg" xmlns:xlink="http://www.w3.org/1999/xlink">
<g id="graph0" class="graph" transform="scale(1 1) rotate(0) translate(36 2238.5081)">
<title>G</title>
<polygon fill="#ffffff" stroke="transparent" points="-36,36 -36,-2238.5081 1981.1504,-2238.5081 1981.1504,36 -36,36"/>
<g id="clust1" class="cluster">
<title>cluster_apis</title>
<polygon fill="#d3d3d3" stroke="#d3d3d3" points="615.5234,-1344.7497 615.5234,-2151.7497 1365.0342,-2151.7497 1365.0342,-1344.7497 615.5234,-1344.7497"/>
</g>
<g id="clust2" class="cluster">
<title>cluster_dependency</title>
<polygon fill="#d3d3d3" stroke="#d3d3d3" points="8,-322.7497 8,-1636.7497 271.5234,-1636.7497 271.5234,-322.7497 8,-322.7497"/>
</g>
<g id="clust3" class="cluster">
<title>cluster_services</title>
<polygon fill="#d3d3d3" stroke="#d3d3d3" points="1709.0342,-1689.7497 1709.0342,-2073.7497 1937.1504,-2073.7497 1937.1504,-1689.7497 1709.0342,-1689.7497"/>
</g>
<!-- income_api -->
<g id="node1" class="node">
<title>income_api</title>
<g id="a_node1"><a xlink:href="/hackney-data-flows/systems/income_api" xlink:title="{Income API | {&lt;users&gt; users|&lt;worktray&gt; worktray|&lt;action_diary&gt; action diary}}">
<polygon fill="#ffffff" stroke="#000000" points="1167.5649,-1966.7497 1167.5649,-2032.7497 1342.7573,-2032.7497 1342.7573,-1966.7497 1167.5649,-1966.7497"/>
<text text-anchor="middle" x="1211.3647" y="-1995.5497" font-family="Helvetica,sans-Serif" font-size="14.00" fill="#000000">Income API</text>
<polyline fill="none" stroke="#000000" points="1255.1646,-1966.7497 1255.1646,-2032.7497 "/>
<text text-anchor="middle" x="1298.9609" y="-2017.5497" font-family="Helvetica,sans-Serif" font-size="14.00" fill="#000000">users</text>
<polyline fill="none" stroke="#000000" points="1255.1646,-2010.7497 1342.7573,-2010.7497 "/>
<text text-anchor="middle" x="1298.9609" y="-1995.5497" font-family="Helvetica,sans-Serif" font-size="14.00" fill="#000000">worktray</text>
<polyline fill="none" stroke="#000000" points="1255.1646,-1988.7497 1342.7573,-1988.7497 "/>
<text text-anchor="middle" x="1298.9609" y="-1973.5497" font-family="Helvetica,sans-Serif" font-size="14.00" fill="#000000">action diary</text>
</a>
</g>
</g>
<!-- tenancy_api -->
<g id="node2" class="node">
<title>tenancy_api</title>
<g id="a_node2"><a xlink:href="/hackney-data-flows/systems/tenancy_api" xlink:title="{Tenancy API | {&lt;tenancies&gt; tenancies|&lt;contacts&gt; contacts}}">
<polygon fill="#ffffff" stroke="#000000" points="623.5234,-2098.7497 623.5234,-2142.7497 793.2881,-2142.7497 793.2881,-2098.7497 623.5234,-2098.7497"/>
<text text-anchor="middle" x="670.4404" y="-2116.5497" font-family="Helvetica,sans-Serif" font-size="14.00" fill="#000000">Tenancy API</text>
<polyline fill="none" stroke="#000000" points="717.3574,-2098.7497 717.3574,-2142.7497 "/>
<text text-anchor="middle" x="755.3228" y="-2127.5497" font-family="Helvetica,sans-Serif" font-size="14.00" fill="#000000">tenancies</text>
<polyline fill="none" stroke="#000000" points="717.3574,-2120.7497 793.2881,-2120.7497 "/>
<text text-anchor="middle" x="755.3228" y="-2105.5497" font-family="Helvetica,sans-Serif" font-size="14.00" fill="#000000">contacts</text>
</a>
</g>
</g>
<!-- income_api&#45;&gt;tenancy_api -->
<g id="edge1" class="edge">
<title>income_api&#45;&gt;tenancy_api:tenancies</title>
<path fill="none" stroke="#000000" d="M1167.1382,-2031.1993C1059.5881,-2068.5645 882.2234,-2126.5053 803.307,-2131.4157"/>
<polygon fill="#000000" stroke="#000000" points="803.1659,-2127.9183 793.2881,-2131.7497 803.3992,-2134.9144 803.1659,-2127.9183"/>
</g>
<!-- uht -->
<g id="node16" class="node">
<title>uht</title>
<g id="a_node16"><a xlink:href="/hackney-data-flows/systems/uht" xlink:title="{UHT | {&lt;property&gt; property|&lt;tenagree&gt; tenagree|&lt;househ&gt; househ|&lt;araction&gt; araction|&lt;raaction&gt; raaction|&lt;debitem&gt; debitem|&lt;debtype&gt; debtype|&lt;rtrans&gt; rtrans|&lt;rectype&gt; rectype|&lt;rmworder&gt; rmworder|&lt;rmtask&gt; rmtask|&lt;rmreqst&gt; rmreqst|&lt;visit&gt; visit|&lt;supplier&gt; supplier|&lt;member&gt; member|&lt;raction&gt; raction}}">
<polygon fill="#ffffff" stroke="#000000" points="79.8169,-976.7497 79.8169,-1328.7497 199.7065,-1328.7497 199.7065,-976.7497 79.8169,-976.7497"/>
<text text-anchor="middle" x="102.2031" y="-1148.5497" font-family="Helvetica,sans-Serif" font-size="14.00" fill="#000000">UHT</text>
<polyline fill="none" stroke="#000000" points="124.5894,-976.7497 124.5894,-1328.7497 "/>
<text text-anchor="middle" x="162.1479" y="-1313.5497" font-family="Helvetica,sans-Serif" font-size="14.00" fill="#000000">property</text>
<polyline fill="none" stroke="#000000" points="124.5894,-1306.7497 199.7065,-1306.7497 "/>
<text text-anchor="middle" x="162.1479" y="-1291.5497" font-family="Helvetica,sans-Serif" font-size="14.00" fill="#000000">tenagree</text>
<polyline fill="none" stroke="#000000" points="124.5894,-1284.7497 199.7065,-1284.7497 "/>
<text text-anchor="middle" x="162.1479" y="-1269.5497" font-family="Helvetica,sans-Serif" font-size="14.00" fill="#000000">househ</text>
<polyline fill="none" stroke="#000000" points="124.5894,-1262.7497 199.7065,-1262.7497 "/>
<text text-anchor="middle" x="162.1479" y="-1247.5497" font-family="Helvetica,sans-Serif" font-size="14.00" fill="#000000">araction</text>
<polyline fill="none" stroke="#000000" points="124.5894,-1240.7497 199.7065,-1240.7497 "/>
<text text-anchor="middle" x="162.1479" y="-1225.5497" font-family="Helvetica,sans-Serif" font-size="14.00" fill="#000000">raaction</text>
<polyline fill="none" stroke="#000000" points="124.5894,-1218.7497 199.7065,-1218.7497 "/>
<text text-anchor="middle" x="162.1479" y="-1203.5497" font-family="Helvetica,sans-Serif" font-size="14.00" fill="#000000">debitem</text>
<polyline fill="none" stroke="#000000" points="124.5894,-1196.7497 199.7065,-1196.7497 "/>
<text text-anchor="middle" x="162.1479" y="-1181.5497" font-family="Helvetica,sans-Serif" font-size="14.00" fill="#000000">debtype</text>
<polyline fill="none" stroke="#000000" points="124.5894,-1174.7497 199.7065,-1174.7497 "/>
<text text-anchor="middle" x="162.1479" y="-1159.5497" font-family="Helvetica,sans-Serif" font-size="14.00" fill="#000000">rtrans</text>
<polyline fill="none" stroke="#000000" points="124.5894,-1152.7497 199.7065,-1152.7497 "/>
<text text-anchor="middle" x="162.1479" y="-1137.5497" font-family="Helvetica,sans-Serif" font-size="14.00" fill="#000000">rectype</text>
<polyline fill="none" stroke="#000000" points="124.5894,-1130.7497 199.7065,-1130.7497 "/>
<text text-anchor="middle" x="162.1479" y="-1115.5497" font-family="Helvetica,sans-Serif" font-size="14.00" fill="#000000">rmworder</text>
<polyline fill="none" stroke="#000000" points="124.5894,-1108.7497 199.7065,-1108.7497 "/>
<text text-anchor="middle" x="162.1479" y="-1093.5497" font-family="Helvetica,sans-Serif" font-size="14.00" fill="#000000">rmtask</text>
<polyline fill="none" stroke="#000000" points="124.5894,-1086.7497 199.7065,-1086.7497 "/>
<text text-anchor="middle" x="162.1479" y="-1071.5497" font-family="Helvetica,sans-Serif" font-size="14.00" fill="#000000">rmreqst</text>
<polyline fill="none" stroke="#000000" points="124.5894,-1064.7497 199.7065,-1064.7497 "/>
<text text-anchor="middle" x="162.1479" y="-1049.5497" font-family="Helvetica,sans-Serif" font-size="14.00" fill="#000000">visit</text>
<polyline fill="none" stroke="#000000" points="124.5894,-1042.7497 199.7065,-1042.7497 "/>
<text text-anchor="middle" x="162.1479" y="-1027.5497" font-family="Helvetica,sans-Serif" font-size="14.00" fill="#000000">supplier</text>
<polyline fill="none" stroke="#000000" points="124.5894,-1020.7497 199.7065,-1020.7497 "/>
<text text-anchor="middle" x="162.1479" y="-1005.5497" font-family="Helvetica,sans-Serif" font-size="14.00" fill="#000000">member</text>
<polyline fill="none" stroke="#000000" points="124.5894,-998.7497 199.7065,-998.7497 "/>
<text text-anchor="middle" x="162.1479" y="-983.5497" font-family="Helvetica,sans-Serif" font-size="14.00" fill="#000000">raction</text>
</a>
</g>
</g>
<!-- income_api&#45;&gt;uht -->
<g id="edge2" class="edge">
<title>income_api&#45;&gt;uht:property</title>
<path fill="none" stroke="#000000" d="M1170.7914,-1966.717C1164.7942,-1963.8366 1158.9038,-1960.8376 1153.2881,-1957.7497 981.7018,-1863.3991 972.6777,-1782.2562 793.2881,-1703.7497 719.2739,-1671.3588 686.9851,-1703.4391 615.5234,-1665.7497 405.3988,-1554.9284 439.696,-1324.3969 209.8317,-1317.8904"/>
<polygon fill="#000000" stroke="#000000" points="209.8097,-1314.3898 199.7617,-1317.7497 209.7118,-1321.3891 209.8097,-1314.3898"/>
</g>
<!-- income_api&#45;&gt;uht -->
<g id="edge3" class="edge">
<title>income_api&#45;&gt;uht:tenagree</title>
<path fill="none" stroke="#000000" d="M1169.7525,-1966.7384C1164.089,-1963.8795 1158.5505,-1960.8774 1153.2881,-1957.7497 976.1924,-1852.491 979.1475,-1754.6235 793.2881,-1665.7497 720.401,-1630.8967 688.1073,-1663.23 615.5234,-1627.7497 406.1898,-1525.4236 435.3117,-1302.4072 209.9815,-1295.8954"/>
<polygon fill="#000000" stroke="#000000" points="209.8106,-1292.3927 199.7617,-1295.7497 209.7108,-1299.392 209.8106,-1292.3927"/>
</g>
<!-- income_api&#45;&gt;uht -->
<g id="edge4" class="edge">
<title>income_api&#45;&gt;uht:househ</title>
<path fill="none" stroke="#000000" d="M1168.7418,-1966.6852C1163.4076,-1963.8625 1158.2114,-1960.8811 1153.2881,-1957.7497 970.1435,-1841.263 986.1835,-1727.2608 793.2881,-1627.7497 721.4879,-1590.7093 688.9517,-1623.4476 615.5234,-1589.7497 407.6686,-1494.3603 431.1114,-1280.1451 209.7959,-1273.8897"/>
<polygon fill="#000000" stroke="#000000" points="209.8096,-1270.3897 199.7617,-1273.7497 209.7119,-1277.389 209.8096,-1270.3897"/>
</g>
<!-- tenancy_api&#45;&gt;uht -->
<g id="edge7" class="edge">
<title>tenancy_api&#45;&gt;uht:tenagree</title>
<path fill="none" stroke="#000000" d="M705.9212,-2098.6829C689.9692,-1968.6378 590.2257,-1307.5158 209.9439,-1295.9045"/>
<polygon fill="#000000" stroke="#000000" points="209.8138,-1292.4022 199.7617,-1295.7497 209.7073,-1299.4014 209.8138,-1292.4022"/>
</g>
<!-- tenancy_api&#45;&gt;uht -->
<g id="edge8" class="edge">
<title>tenancy_api&#45;&gt;uht:property</title>
<path fill="none" stroke="#000000" d="M705.5933,-2098.4348C688.06,-1969.9159 582.0825,-1329.4683 210.0033,-1317.9082"/>
<polygon fill="#000000" stroke="#000000" points="209.8147,-1314.4049 199.7617,-1317.7497 209.7063,-1321.4041 209.8147,-1314.4049"/>
</g>
<!-- tenancy_api&#45;&gt;uht -->
<g id="edge9" class="edge">
<title>tenancy_api&#45;&gt;uht:member</title>
<path fill="none" stroke="#000000" d="M703.5085,-2098.557C668.8167,-1944.1135 454.4674,-1035.0952 209.9469,-1010.2681"/>
<polygon fill="#000000" stroke="#000000" points="209.9267,-1006.7626 199.7617,-1009.7497 209.5709,-1013.7536 209.9267,-1006.7626"/>
</g>
<!-- tenancy_api&#45;&gt;uht -->
<g id="edge10" class="edge">
<title>tenancy_api&#45;&gt;uht:raction</title>
<path fill="none" stroke="#000000" d="M703.7048,-2098.6256C669.9335,-1942.5459 458.5193,-1012.7319 209.7518,-988.2424"/>
<polygon fill="#000000" stroke="#000000" points="209.922,-984.7467 199.7617,-987.7497 209.5771,-991.7382 209.922,-984.7467"/>
</g>
<!-- uh_web_services -->
<g id="node19" class="node">
<title>uh_web_services</title>
<g id="a_node19"><a xlink:href="/hackney-data-flows/systems/uh_web_services" xlink:title="{UH Web Services | {&lt;tbc&gt; TBC|&lt;action_diary&gt; Action Diary}}">
<polygon fill="#ffffff" stroke="#000000" points="30.916,-1347.7497 30.916,-1391.7497 248.6074,-1391.7497 248.6074,-1347.7497 30.916,-1347.7497"/>
<text text-anchor="middle" x="94.0273" y="-1365.5497" font-family="Helvetica,sans-Serif" font-size="14.00" fill="#000000">UH Web Services</text>
<polyline fill="none" stroke="#000000" points="157.1387,-1347.7497 157.1387,-1391.7497 "/>
<text text-anchor="middle" x="202.873" y="-1376.5497" font-family="Helvetica,sans-Serif" font-size="14.00" fill="#000000">TBC</text>
<polyline fill="none" stroke="#000000" points="157.1387,-1369.7497 248.6074,-1369.7497 "/>
<text text-anchor="middle" x="202.873" y="-1354.5497" font-family="Helvetica,sans-Serif" font-size="14.00" fill="#000000">Action Diary</text>
</a>
</g>
</g>
<!-- tenancy_api&#45;&gt;uh_web_services -->
<g id="edge5" class="edge">
<title>tenancy_api&#45;&gt;uh_web_services:action_diary</title>
<path fill="none" stroke="#000000" d="M700.4965,-2098.3571C656.2316,-1974.8889 434.899,-1381.9477 258.9554,-1359.4098"/>
<polygon fill="#000000" stroke="#000000" points="258.967,-1355.9033 248.7617,-1358.7497 258.5146,-1362.8886 258.967,-1355.9033"/>
</g>
<!-- crm -->
<g id="node20" class="node">
<title>crm</title>
<g id="a_node20"><a xlink:href="/hackney-data-flows/systems/crm" xlink:title="{CRM | {&lt;contact&gt; Contact|&lt;action_diaries&gt; Action Diaries|&lt;transactions&gt; Transactions|&lt;contacts&gt; Contacts|&lt;notifications&gt; Notifications|&lt;accounts&gt; Accounts}}">
<polygon fill="#ffffff" stroke="#000000" points="64.6377,-825.7497 64.6377,-957.7497 214.8857,-957.7497 214.8857,-825.7497 64.6377,-825.7497"/>
<text text-anchor="middle" x="88.5791" y="-887.5497" font-family="Helvetica,sans-Serif" font-size="14.00" fill="#000000">CRM</text>
<polyline fill="none" stroke="#000000" points="112.5205,-825.7497 112.5205,-957.7497 "/>
<text text-anchor="middle" x="163.7031" y="-942.5497" font-family="Helvetica,sans-Serif" font-size="14.00" fill="#000000">Contact</text>
<polyline fill="none" stroke="#000000" points="112.5205,-935.7497 214.8857,-935.7497 "/>
<text text-anchor="middle" x="163.7031" y="-920.5497" font-family="Helvetica,sans-Serif" font-size="14.00" fill="#000000">Action Diaries</text>
<polyline fill="none" stroke="#000000" points="112.5205,-913.7497 214.8857,-913.7497 "/>
<text text-anchor="middle" x="163.7031" y="-898.5497" font-family="Helvetica,sans-Serif" font-size="14.00" fill="#000000">Transactions</text>
<polyline fill="none" stroke="#000000" points="112.5205,-891.7497 214.8857,-891.7497 "/>
<text text-anchor="middle" x="163.7031" y="-876.5497" font-family="Helvetica,sans-Serif" font-size="14.00" fill="#000000">Contacts</text>
<polyline fill="none" stroke="#000000" points="112.5205,-869.7497 214.8857,-869.7497 "/>
<text text-anchor="middle" x="163.7031" y="-854.5497" font-family="Helvetica,sans-Serif" font-size="14.00" fill="#000000">Notifications</text>
<polyline fill="none" stroke="#000000" points="112.5205,-847.7497 214.8857,-847.7497 "/>
<text text-anchor="middle" x="163.7031" y="-832.5497" font-family="Helvetica,sans-Serif" font-size="14.00" fill="#000000">Accounts</text>
</a>
</g>
</g>
<!-- tenancy_api&#45;&gt;crm -->
<g id="edge6" class="edge">
<title>tenancy_api&#45;&gt;crm:contacts</title>
<path fill="none" stroke="#000000" d="M704.7551,-2098.7009C676.9655,-1934.4486 492.6553,-907.3075 225.1231,-881.2542"/>
<polygon fill="#000000" stroke="#000000" points="224.9201,-877.7402 214.7617,-880.7497 224.5796,-884.7319 224.9201,-877.7402"/>
</g>
<!-- addresses_api -->
<g id="node3" class="node">
<title>addresses_api</title>
<g id="a_node3"><a xlink:href="/hackney-data-flows/systems/addresses_api" xlink:title="{Addresses API | {&lt;addresses&gt; addresses}}">
<polygon fill="#ffffff" stroke="#000000" points="1160.9478,-2106.7497 1160.9478,-2142.7497 1349.3745,-2142.7497 1349.3745,-2106.7497 1160.9478,-2106.7497"/>
<text text-anchor="middle" x="1214.8647" y="-2120.5497" font-family="Helvetica,sans-Serif" font-size="14.00" fill="#000000">Addresses API</text>
<polyline fill="none" stroke="#000000" points="1268.7817,-2106.7497 1268.7817,-2142.7497 "/>
<text text-anchor="middle" x="1309.0781" y="-2120.5497" font-family="Helvetica,sans-Serif" font-size="14.00" fill="#000000">addresses</text>
</a>
</g>
</g>
<!-- imanage -->
<g id="node17" class="node">
<title>imanage</title>
<g id="a_node17"><a xlink:href="/hackney-data-flows/systems/imanage" xlink:title="{iManage | {&lt;address&gt; Address|&lt;xref&gt; Xref}}">
<polygon fill="#ffffff" stroke="#000000" points="71.231,-1583.7497 71.231,-1627.7497 208.2925,-1627.7497 208.2925,-1583.7497 71.231,-1583.7497"/>
<text text-anchor="middle" x="106.0825" y="-1601.5497" font-family="Helvetica,sans-Serif" font-size="14.00" fill="#000000">iManage</text>
<polyline fill="none" stroke="#000000" points="140.9341,-1583.7497 140.9341,-1627.7497 "/>
<text text-anchor="middle" x="174.6133" y="-1612.5497" font-family="Helvetica,sans-Serif" font-size="14.00" fill="#000000">Address</text>
<polyline fill="none" stroke="#000000" points="140.9341,-1605.7497 208.2925,-1605.7497 "/>
<text text-anchor="middle" x="174.6133" y="-1590.5497" font-family="Helvetica,sans-Serif" font-size="14.00" fill="#000000">Xref</text>
</a>
</g>
</g>
<!-- addresses_api&#45;&gt;imanage -->
<g id="edge11" class="edge">
<title>addresses_api&#45;&gt;imanage:address</title>
<path fill="none" stroke="#000000" d="M1160.8525,-2120.885C1006.7718,-2113.2879 708.8568,-2092.86 615.5234,-2045.7497 384.0549,-1928.9153 469.1783,-1624.906 218.9709,-1616.9105"/>
<polygon fill="#000000" stroke="#000000" points="218.8156,-1613.4077 208.7617,-1616.7497 218.7053,-1620.4068 218.8156,-1613.4077"/>
</g>
<!-- addresses_api&#45;&gt;imanage -->
<g id="edge12" class="edge">
<title>addresses_api&#45;&gt;imanage:xref</title>
<path fill="none" stroke="#000000" d="M1160.7155,-2109.0149C988.6517,-2080.1338 639.5145,-2020.4528 615.5234,-2007.7497 390.8392,-1888.7811 464.3773,-1602.4307 218.7775,-1594.9011"/>
<polygon fill="#000000" stroke="#000000" points="218.8135,-1591.4013 208.7617,-1594.7497 218.7076,-1598.4005 218.8135,-1591.4013"/>
</g>
<!-- asbestos_api -->
<g id="node4" class="node">
<title>asbestos_api</title>
<g id="a_node4"><a xlink:href="/hackney-data-flows/systems/asbestos_api" xlink:title="Asbestos API">
<polygon fill="#ffffff" stroke="#000000" points="1205.5234,-2051.7497 1205.5234,-2087.7497 1304.7988,-2087.7497 1304.7988,-2051.7497 1205.5234,-2051.7497"/>
<text text-anchor="middle" x="1255.1611" y="-2065.5497" font-family="Helvetica,sans-Serif" font-size="14.00" fill="#000000">Asbestos API</text>
</a>
</g>
</g>
<!-- psi_2000 -->
<g id="node18" class="node">
<title>psi_2000</title>
<g id="a_node18"><a xlink:href="/hackney-data-flows/systems/psi_2000" xlink:title="{PSI 2000 | {&lt;inspections&gt; Inspections|&lt;rooms&gt; Rooms|&lt;floors&gt; Floors|&lt;elements&gt; Elements|&lt;documents&gt; Documents|&lt;todos&gt; Todos|&lt;samples&gt; Samples}}">
<polygon fill="#ffffff" stroke="#000000" points="59.5518,-1410.7497 59.5518,-1564.7497 219.9717,-1564.7497 219.9717,-1410.7497 59.5518,-1410.7497"/>
<text text-anchor="middle" x="96.3516" y="-1483.5497" font-family="Helvetica,sans-Serif" font-size="14.00" fill="#000000">PSI 2000</text>
<polyline fill="none" stroke="#000000" points="133.1514,-1410.7497 133.1514,-1564.7497 "/>
<text text-anchor="middle" x="176.5615" y="-1549.5497" font-family="Helvetica,sans-Serif" font-size="14.00" fill="#000000">Inspections</text>
<polyline fill="none" stroke="#000000" points="133.1514,-1542.7497 219.9717,-1542.7497 "/>
<text text-anchor="middle" x="176.5615" y="-1527.5497" font-family="Helvetica,sans-Serif" font-size="14.00" fill="#000000">Rooms</text>
<polyline fill="none" stroke="#000000" points="133.1514,-1520.7497 219.9717,-1520.7497 "/>
<text text-anchor="middle" x="176.5615" y="-1505.5497" font-family="Helvetica,sans-Serif" font-size="14.00" fill="#000000">Floors</text>
<polyline fill="none" stroke="#000000" points="133.1514,-1498.7497 219.9717,-1498.7497 "/>
<text text-anchor="middle" x="176.5615" y="-1483.5497" font-family="Helvetica,sans-Serif" font-size="14.00" fill="#000000">Elements</text>
<polyline fill="none" stroke="#000000" points="133.1514,-1476.7497 219.9717,-1476.7497 "/>
<text text-anchor="middle" x="176.5615" y="-1461.5497" font-family="Helvetica,sans-Serif" font-size="14.00" fill="#000000">Documents</text>
<polyline fill="none" stroke="#000000" points="133.1514,-1454.7497 219.9717,-1454.7497 "/>
<text text-anchor="middle" x="176.5615" y="-1439.5497" font-family="Helvetica,sans-Serif" font-size="14.00" fill="#000000">Todos</text>
<polyline fill="none" stroke="#000000" points="133.1514,-1432.7497 219.9717,-1432.7497 "/>
<text text-anchor="middle" x="176.5615" y="-1417.5497" font-family="Helvetica,sans-Serif" font-size="14.00" fill="#000000">Samples</text>
</a>
</g>
</g>
<!-- asbestos_api&#45;&gt;psi_2000 -->
<g id="edge13" class="edge">
<title>asbestos_api&#45;&gt;psi_2000:inspections</title>
<path fill="none" stroke="#000000" d="M1205.4815,-2062.9308C1059.6704,-2042.7922 641.4875,-1984.0925 615.5234,-1969.7497 395.2024,-1848.042 472.7461,-1561.719 230.0407,-1553.9126"/>
<polygon fill="#000000" stroke="#000000" points="229.816,-1550.4087 219.7617,-1553.7497 229.705,-1557.4078 229.816,-1550.4087"/>
</g>
<!-- asbestos_api&#45;&gt;psi_2000 -->
<g id="edge14" class="edge">
<title>asbestos_api&#45;&gt;psi_2000:rooms</title>
<path fill="none" stroke="#000000" d="M1205.2767,-2058.9043C1120.5908,-2040.5029 943.2789,-2002.0183 793.2881,-1969.7497 714.3038,-1952.7572 686.1412,-1970.9975 615.5234,-1931.7497 399.917,-1811.9204 467.9096,-1539.3358 229.8396,-1531.9047"/>
<polygon fill="#000000" stroke="#000000" points="229.8144,-1528.404 219.7617,-1531.7497 229.7067,-1535.4032 229.8144,-1528.404"/>
</g>
<!-- asbestos_api&#45;&gt;psi_2000 -->
<g id="edge15" class="edge">
<title>asbestos_api&#45;&gt;psi_2000:floors</title>
<path fill="none" stroke="#000000" d="M1205.309,-2056.963C1188.7208,-2052.5949 1170.1735,-2047.5884 1153.2881,-2042.7497 992.3334,-1996.6264 955.3135,-1973.958 793.2881,-1931.7497 715.1059,-1911.3829 686.7911,-1931.8047 615.5234,-1893.7497 402.3923,-1779.9432 463.0462,-1517.3246 229.9878,-1509.91"/>
<polygon fill="#000000" stroke="#000000" points="229.8154,-1506.407 219.7617,-1509.7497 229.7056,-1513.4061 229.8154,-1506.407"/>
</g>
<!-- asbestos_api&#45;&gt;psi_2000 -->
<g id="edge16" class="edge">
<title>asbestos_api&#45;&gt;psi_2000:elements</title>
<path fill="none" stroke="#000000" d="M1205.2822,-2057.9472C1188.6082,-2053.6272 1170.0161,-2048.4001 1153.2881,-2042.7497 989.2317,-1987.3341 958.6395,-1945.1724 793.2881,-1893.7497 716.1412,-1869.7577 687.1914,-1893.0454 615.5234,-1855.7497 405.4782,-1746.443 458.3736,-1495.0022 229.7875,-1487.9032"/>
<polygon fill="#000000" stroke="#000000" points="229.8142,-1484.4033 219.7617,-1487.7497 229.7069,-1491.4025 229.8142,-1484.4033"/>
</g>
<!-- asbestos_api&#45;&gt;psi_2000 -->
<g id="edge17" class="edge">
<title>asbestos_api&#45;&gt;psi_2000:documents</title>
<path fill="none" stroke="#000000" d="M1205.4973,-2058.9169C1188.6679,-2054.6354 1169.9263,-2049.1854 1153.2881,-2042.7497 985.1312,-1977.7056 962.9722,-1916.6986 793.2881,-1855.7497 717.2528,-1828.4385 687.5996,-1854.2503 615.5234,-1817.7497 408.5926,-1712.9562 453.7639,-1472.9165 229.9247,-1465.9066"/>
<polygon fill="#000000" stroke="#000000" points="229.8146,-1462.4046 219.7617,-1465.7497 229.7065,-1469.4037 229.8146,-1462.4046"/>
</g>
<!-- asbestos_api&#45;&gt;psi_2000 -->
<g id="edge18" class="edge">
<title>asbestos_api&#45;&gt;psi_2000:todos</title>
<path fill="none" stroke="#000000" d="M1205.4472,-2059.7365C1188.5265,-2055.5055 1169.7413,-2049.878 1153.2881,-2042.7497 980.1589,-1967.7411 968.1846,-1888.5397 793.2881,-1817.7497 718.3985,-1787.4378 688.0151,-1815.4179 615.5234,-1779.7497 411.6249,-1679.425 449.2833,-1450.8074 230.0538,-1443.9093"/>
<polygon fill="#000000" stroke="#000000" points="229.8148,-1440.4053 219.7617,-1443.7497 229.7062,-1447.4045 229.8148,-1440.4053"/>
</g>
<!-- asbestos_api&#45;&gt;psi_2000 -->
<g id="edge19" class="edge">
<title>asbestos_api&#45;&gt;psi_2000:samples</title>
<path fill="none" stroke="#000000" d="M1205.3995,-2060.4749C1188.3861,-2056.2929 1169.5553,-2050.5077 1153.2881,-2042.7497 974.4375,-1957.4532 957.442,-1890.7294 793.2881,-1779.7497 733.4253,-1739.2782 327.5644,-1445.4171 229.8754,-1423.0919"/>
<polygon fill="#000000" stroke="#000000" points="230.1353,-1419.5958 219.7617,-1421.7497 229.2143,-1426.5349 230.1353,-1419.5958"/>
</g>
<!-- manage_a_tenancy_api -->
<g id="node5" class="node">
<title>manage_a_tenancy_api</title>
<g id="a_node5"><a xlink:href="/hackney-data-flows/systems/manage_a_tenancy_api" xlink:title="{Manage a Tenancy API | {&lt;tbc&gt; TBC}}">
<polygon fill="#ffffff" stroke="#000000" points="1153.2881,-1911.7497 1153.2881,-1947.7497 1357.0342,-1947.7497 1357.0342,-1911.7497 1153.2881,-1911.7497"/>
<text text-anchor="middle" x="1233.1611" y="-1925.5497" font-family="Helvetica,sans-Serif" font-size="14.00" fill="#000000">Manage a Tenancy API</text>
<polyline fill="none" stroke="#000000" points="1313.0342,-1911.7497 1313.0342,-1947.7497 "/>
<text text-anchor="middle" x="1335.0342" y="-1925.5497" font-family="Helvetica,sans-Serif" font-size="14.00" fill="#000000">TBC</text>
</a>
</g>
</g>
<!-- ncc_api -->
<g id="node6" class="node">
<title>ncc_api</title>
<g id="a_node6"><a xlink:href="/hackney-data-flows/systems/ncc_api" xlink:title="{NCC API | {&lt;transactions&gt; transactions|&lt;tbc&gt; TBC}}">
<polygon fill="#ffffff" stroke="#000000" points="1173.4097,-1848.7497 1173.4097,-1892.7497 1336.9126,-1892.7497 1336.9126,-1848.7497 1173.4097,-1848.7497"/>
<text text-anchor="middle" x="1209.4199" y="-1866.5497" font-family="Helvetica,sans-Serif" font-size="14.00" fill="#000000">NCC API</text>
<polyline fill="none" stroke="#000000" points="1245.4302,-1848.7497 1245.4302,-1892.7497 "/>
<text text-anchor="middle" x="1291.1714" y="-1877.5497" font-family="Helvetica,sans-Serif" font-size="14.00" fill="#000000">transactions</text>
<polyline fill="none" stroke="#000000" points="1245.4302,-1870.7497 1336.9126,-1870.7497 "/>
<text text-anchor="middle" x="1291.1714" y="-1855.5497" font-family="Helvetica,sans-Serif" font-size="14.00" fill="#000000">TBC</text>
</a>
</g>
</g>
<!-- ncc_api&#45;&gt;uht -->
<g id="edge23" class="edge">
<title>ncc_api&#45;&gt;uht:araction</title>
<path fill="none" stroke="#000000" d="M1173.2036,-1848.7115C1166.3392,-1845.9979 1159.6128,-1843.0142 1153.2881,-1839.7497 973.6521,-1747.0303 974.3696,-1651.6132 793.2881,-1561.7497 719.9824,-1525.371 690.4782,-1546.5967 615.5234,-1513.7497 418.6022,-1427.4538 418.1395,-1257.1765 209.8395,-1251.8764"/>
<polygon fill="#000000" stroke="#000000" points="209.805,-1248.3758 199.7617,-1251.7497 209.7169,-1255.3752 209.805,-1248.3758"/>
</g>
<!-- ncc_api&#45;&gt;uht -->
<g id="edge24" class="edge">
<title>ncc_api&#45;&gt;uht:raaction</title>
<path fill="none" stroke="#000000" d="M1173.1815,-1849.3522C1166.2863,-1846.4962 1159.5606,-1843.3048 1153.2881,-1839.7497 965.5,-1733.3147 985.419,-1612.1291 793.2881,-1513.7497 721.3757,-1476.9274 690.776,-1505.1488 615.5234,-1475.7497 418.7599,-1398.8796 414.5535,-1235.1363 209.9759,-1229.8794"/>
<polygon fill="#000000" stroke="#000000" points="209.8054,-1226.377 199.7617,-1229.7497 209.7164,-1233.3764 209.8054,-1226.377"/>
</g>
<!-- ncc_api&#45;&gt;uht -->
<g id="edge25" class="edge">
<title>ncc_api&#45;&gt;uht:debitem</title>
<path fill="none" stroke="#000000" d="M1173.229,-1849.8341C1166.2871,-1846.8714 1159.5395,-1843.5239 1153.2881,-1839.7497 958.5002,-1722.1497 992.8857,-1584.9873 793.2881,-1475.7497 722.4163,-1436.9623 691.1942,-1466.0551 615.5234,-1437.7497 420.9218,-1364.9568 411.2037,-1212.7562 209.8123,-1207.8702"/>
<polygon fill="#000000" stroke="#000000" points="209.803,-1204.3699 199.7617,-1207.7497 209.719,-1211.3694 209.803,-1204.3699"/>
</g>
<!-- ncc_api&#45;&gt;uht -->
<g id="edge26" class="edge">
<title>ncc_api&#45;&gt;uht:debtype</title>
<path fill="none" stroke="#000000" d="M1173.2864,-1850.2787C1166.295,-1847.2187 1159.522,-1843.7273 1153.2881,-1839.7497 951.1015,-1710.7444 1000.7612,-1558.0687 793.2881,-1437.7497 723.3987,-1397.219 691.6095,-1426.919 615.5234,-1399.7497 423.0525,-1331.0208 408.0421,-1190.5142 209.9523,-1185.8678"/>
<polygon fill="#000000" stroke="#000000" points="209.8017,-1182.3659 199.7617,-1185.7497 209.7204,-1189.3655 209.8017,-1182.3659"/>
</g>
<!-- ncc_api&#45;&gt;uht -->
<g id="edge27" class="edge">
<title>ncc_api&#45;&gt;uht:tenagree</title>
<path fill="none" stroke="#000000" d="M1174.7896,-1848.7366C1167.4107,-1845.9872 1160.1403,-1842.9898 1153.2881,-1839.7497 979.4474,-1757.5475 968.4085,-1679.1891 793.2881,-1599.7497 718.7615,-1565.9424 690.6073,-1584.3004 615.5234,-1551.7497 450.5361,-1480.2236 425.098,-1432.2998 271.5234,-1338.7497 242.9945,-1321.3712 237.8157,-1300.5105 210.0936,-1296.4524"/>
<polygon fill="#000000" stroke="#000000" points="209.9762,-1292.9364 199.7617,-1295.7497 209.5011,-1299.9203 209.9762,-1292.9364"/>
</g>
<!-- ncc_api&#45;&gt;uht -->
<g id="edge28" class="edge">
<title>ncc_api&#45;&gt;uht:rtrans</title>
<path fill="none" stroke="#000000" d="M1173.3544,-1850.6904C1166.3106,-1847.5412 1159.5086,-1843.9167 1153.2881,-1839.7497 943.3672,-1699.1254 1009.3347,-1530.7682 793.2881,-1399.7497 724.2853,-1357.9039 691.9777,-1388.5799 615.5234,-1362.7497 424.664,-1298.2674 405.228,-1168.1612 209.8108,-1163.8591"/>
<polygon fill="#000000" stroke="#000000" points="209.7993,-1160.3588 199.7617,-1163.7497 209.723,-1167.3584 209.7993,-1160.3588"/>
</g>
<!-- ncc_api&#45;&gt;uht -->
<g id="edge29" class="edge">
<title>ncc_api&#45;&gt;uht:rectype</title>
<path fill="none" stroke="#000000" d="M1173.1598,-1850.9741C1166.1565,-1847.7659 1159.4171,-1844.0502 1153.2881,-1839.7497 934.7064,-1686.3776 1007.5606,-1518.0865 793.2881,-1358.7497 570.657,-1193.1972 482.7804,-1142.9734 209.9614,-1141.7719"/>
<polygon fill="#000000" stroke="#000000" points="209.7694,-1138.2716 199.7617,-1141.7497 209.754,-1145.2715 209.7694,-1138.2716"/>
</g>
<!-- ncc_api&#45;&gt;uh_web_services -->
<g id="edge20" class="edge">
<title>ncc_api&#45;&gt;uh_web_services:tbc</title>
<path fill="none" stroke="#000000" d="M1178.5563,-1848.7069C1169.9732,-1845.8625 1161.4037,-1842.8535 1153.2881,-1839.7497 907.1064,-1745.5989 849.727,-1710.6567 615.5234,-1589.7497 451.907,-1505.2831 436.8905,-1385.2991 259.0263,-1380.8756"/>
<polygon fill="#000000" stroke="#000000" points="258.8039,-1377.3727 248.7617,-1380.7497 258.718,-1384.3722 258.8039,-1377.3727"/>
</g>
<!-- ncc_api&#45;&gt;crm -->
<g id="edge21" class="edge">
<title>ncc_api&#45;&gt;crm:contact</title>
<path fill="none" stroke="#000000" d="M1173.1665,-1851.9015C1166.0819,-1848.4985 1159.325,-1844.4843 1153.2881,-1839.7497 906.7826,-1646.4223 1021.8418,-1448.001 793.2881,-1233.7497 586.3395,-1039.7514 503.7271,-948.89 224.7685,-946.7871"/>
<polygon fill="#000000" stroke="#000000" points="224.7748,-943.2872 214.7617,-946.7497 224.7485,-950.2871 224.7748,-943.2872"/>
</g>
<!-- ncc_api&#45;&gt;crm -->
<g id="edge22" class="edge">
<title>ncc_api&#45;&gt;crm:action_diaries</title>
<path fill="none" stroke="#000000" d="M1173.1725,-1852.7612C1166.0028,-1849.183 1159.2276,-1844.893 1153.2881,-1839.7497 868.6162,-1593.2397 1083.4274,-1312.8005 793.2881,-1072.7497 591.3967,-905.712 482.9387,-924.2424 224.7946,-924.7399"/>
<polygon fill="#000000" stroke="#000000" points="224.7583,-921.2398 214.7617,-924.7497 224.7652,-928.2398 224.7583,-921.2398"/>
</g>
<!-- uhw -->
<g id="node21" class="node">
<title>uhw</title>
<g id="a_node21"><a xlink:href="/hackney-data-flows/systems/uhw" xlink:title="{UHW | {&lt;w2objectnote&gt; W2ObjectNote|&lt;usp_starthackneyprocessv2&gt; usp_StartHackneyProcessV2|&lt;ws_addnotetoorder&gt; ws_addNoteToOrder}}">
<polygon fill="#ffffff" stroke="#000000" points="16,-685.7497 16,-751.7497 263.5234,-751.7497 263.5234,-685.7497 16,-685.7497"/>
<text text-anchor="middle" x="40.7173" y="-714.5497" font-family="Helvetica,sans-Serif" font-size="14.00" fill="#000000">UHW</text>
<polyline fill="none" stroke="#000000" points="65.4346,-685.7497 65.4346,-751.7497 "/>
<text text-anchor="middle" x="164.479" y="-736.5497" font-family="Helvetica,sans-Serif" font-size="14.00" fill="#000000">W2ObjectNote</text>
<polyline fill="none" stroke="#000000" points="65.4346,-729.7497 263.5234,-729.7497 "/>
<text text-anchor="middle" x="164.479" y="-714.5497" font-family="Helvetica,sans-Serif" font-size="14.00" fill="#000000">usp_StartHackneyProcessV2</text>
<polyline fill="none" stroke="#000000" points="65.4346,-707.7497 263.5234,-707.7497 "/>
<text text-anchor="middle" x="164.479" y="-692.5497" font-family="Helvetica,sans-Serif" font-size="14.00" fill="#000000">ws_addNoteToOrder</text>
</a>
</g>
</g>
<!-- ncc_api&#45;&gt;uhw -->
<g id="edge30" class="edge">
<title>ncc_api&#45;&gt;uhw:w2objectnote</title>
<path fill="none" stroke="#000000" d="M1173.3959,-1853.3314C1166.0946,-1849.6404 1159.2304,-1845.1683 1153.2881,-1839.7497 840.4338,-1554.467 1092.4641,-1257.3456 793.2881,-957.7497 616.0258,-780.2386 520.7279,-741.7889 274.1052,-740.7707"/>
<polygon fill="#000000" stroke="#000000" points="273.7688,-737.2701 263.7617,-740.7497 273.7545,-744.2701 273.7688,-737.2701"/>
</g>
<!-- rent_account_api -->
<g id="node7" class="node">
<title>rent_account_api</title>
<g id="a_node7"><a xlink:href="/hackney-data-flows/systems/rent_account_api" xlink:title="{Rent Account API | {&lt;tbc&gt; TBC}}">
<polygon fill="#ffffff" stroke="#000000" points="1170.6753,-1793.7497 1170.6753,-1829.7497 1339.647,-1829.7497 1339.647,-1793.7497 1170.6753,-1793.7497"/>
<text text-anchor="middle" x="1233.1611" y="-1807.5497" font-family="Helvetica,sans-Serif" font-size="14.00" fill="#000000">Rent Account API</text>
<polyline fill="none" stroke="#000000" points="1295.647,-1793.7497 1295.647,-1829.7497 "/>
<text text-anchor="middle" x="1317.647" y="-1807.5497" font-family="Helvetica,sans-Serif" font-size="14.00" fill="#000000">TBC</text>
</a>
</g>
</g>
<!-- rent_account_api&#45;&gt;uht -->
<g id="edge36" class="edge">
<title>rent_account_api&#45;&gt;uht:rtrans</title>
<path fill="none" stroke="#000000" d="M1170.6375,-1793.6882C1164.5809,-1791.0944 1158.7258,-1788.1322 1153.2881,-1784.7497 946.5251,-1656.1351 1000.4273,-1499.7575 793.2881,-1371.7497 723.8658,-1328.8481 693.1828,-1350.8302 615.5234,-1325.7497 430.0314,-1265.8439 399.1052,-1167.1919 209.7823,-1163.8375"/>
<polygon fill="#000000" stroke="#000000" points="209.792,-1160.3376 199.7617,-1163.7497 209.7306,-1167.3373 209.792,-1160.3376"/>
</g>
<!-- rent_account_api&#45;&gt;uht -->
<g id="edge37" class="edge">
<title>rent_account_api&#45;&gt;uht:rectype</title>
<path fill="none" stroke="#000000" d="M1170.6732,-1795.1047C1164.5049,-1792.1913 1158.6215,-1788.7691 1153.2881,-1784.7497 904.0218,-1596.8925 1059.3959,-1344.8774 793.2881,-1181.7497 739.2478,-1148.6222 303.8041,-1142.2462 209.8821,-1141.7788"/>
<polygon fill="#000000" stroke="#000000" points="209.7718,-1138.2786 199.7617,-1141.7497 209.7516,-1145.2786 209.7718,-1138.2786"/>
</g>
<!-- rent_account_api&#45;&gt;crm -->
<g id="edge32" class="edge">
<title>rent_account_api&#45;&gt;crm:transactions</title>
<path fill="none" stroke="#000000" d="M1170.5971,-1796.4779C1164.3334,-1793.2673 1158.4555,-1789.4016 1153.2881,-1784.7497 819.259,-1484.0429 1163.3631,-1094.7879 793.2881,-839.7497 728.2336,-794.9172 694.29,-833.5964 615.5234,-839.7497 439.1905,-853.5249 396.666,-900.8978 224.9123,-902.697"/>
<polygon fill="#000000" stroke="#000000" points="224.7434,-899.1977 214.7617,-902.7497 224.7798,-906.1976 224.7434,-899.1977"/>
</g>
<!-- rent_account_api&#45;&gt;crm -->
<g id="edge33" class="edge">
<title>rent_account_api&#45;&gt;crm:contacts</title>
<path fill="none" stroke="#000000" d="M1170.5518,-1796.528C1164.2979,-1793.3066 1158.4346,-1789.4246 1153.2881,-1784.7497 812.5994,-1475.2801 1171.0989,-1076.617 793.2881,-813.7497 728.4346,-768.627 694.2591,-807.2135 615.5234,-813.7497 438.9813,-828.4053 396.9319,-878.7804 224.9277,-880.6937"/>
<polygon fill="#000000" stroke="#000000" points="224.7422,-877.1945 214.7617,-880.7497 224.7809,-884.1944 224.7422,-877.1945"/>
</g>
<!-- rent_account_api&#45;&gt;crm -->
<g id="edge34" class="edge">
<title>rent_account_api&#45;&gt;crm:notifications</title>
<path fill="none" stroke="#000000" d="M1170.5083,-1796.5756C1164.2639,-1793.3439 1158.4146,-1789.4465 1153.2881,-1784.7497 805.9203,-1466.4996 1178.8562,-1058.4611 793.2881,-787.7497 728.6276,-742.3509 694.2265,-780.8319 615.5234,-787.7497 438.7597,-803.2867 397.2138,-856.6631 224.9441,-858.6903"/>
<polygon fill="#000000" stroke="#000000" points="224.7411,-855.1913 214.7617,-858.7497 224.782,-862.1912 224.7411,-855.1913"/>
</g>
<!-- rent_account_api&#45;&gt;crm -->
<g id="edge35" class="edge">
<title>rent_account_api&#45;&gt;crm:accounts</title>
<path fill="none" stroke="#000000" d="M1170.4666,-1796.621C1164.2313,-1793.3794 1158.3955,-1789.4673 1153.2881,-1784.7497 799.2232,-1457.7026 1186.6336,-1040.3194 793.2881,-761.7497 728.813,-716.088 694.1922,-754.4518 615.5234,-761.7497 438.5256,-778.1692 397.5114,-834.5458 224.9613,-836.687"/>
<polygon fill="#000000" stroke="#000000" points="224.74,-833.1882 214.7617,-836.7497 224.7831,-840.188 224.74,-833.1882"/>
</g>
<!-- hackney_housing_api -->
<g id="node22" class="node">
<title>hackney_housing_api</title>
<g id="a_node22"><a xlink:href="/hackney-data-flows/systems/hackney_housing_api" xlink:title="{Hackney Housing API | {&lt;tbc&gt; TBC}}">
<polygon fill="#ffffff" stroke="#000000" points="42.0552,-770.7497 42.0552,-806.7497 237.4683,-806.7497 237.4683,-770.7497 42.0552,-770.7497"/>
<text text-anchor="middle" x="117.7617" y="-784.5497" font-family="Helvetica,sans-Serif" font-size="14.00" fill="#000000">Hackney Housing API</text>
<polyline fill="none" stroke="#000000" points="193.4683,-770.7497 193.4683,-806.7497 "/>
<text text-anchor="middle" x="215.4683" y="-784.5497" font-family="Helvetica,sans-Serif" font-size="14.00" fill="#000000">TBC</text>
</a>
</g>
</g>
<!-- rent_account_api&#45;&gt;hackney_housing_api -->
<g id="edge31" class="edge">
<title>rent_account_api&#45;&gt;hackney_housing_api:tbc</title>
<path fill="none" stroke="#000000" d="M1170.4251,-1796.6657C1164.1988,-1793.4144 1158.3764,-1789.4879 1153.2881,-1784.7497 792.2507,-1448.5507 1194.7299,-1021.4939 793.2881,-734.7497 728.9978,-688.8281 694.3309,-729.1455 615.5234,-734.7497 449.8192,-746.5333 409.0164,-787.0409 248.0336,-788.6973"/>
<polygon fill="#000000" stroke="#000000" points="247.7437,-785.1987 237.7617,-788.7497 247.7795,-792.1986 247.7437,-785.1987"/>
</g>
<!-- service_charge_api -->
<g id="node8" class="node">
<title>service_charge_api</title>
<g id="a_node8"><a xlink:href="/hackney-data-flows/systems/service_charge_api" xlink:title="Service Charge API">
<polygon fill="#ffffff" stroke="#000000" points="1186.0718,-1738.7497 1186.0718,-1774.7497 1324.2505,-1774.7497 1324.2505,-1738.7497 1186.0718,-1738.7497"/>
<text text-anchor="middle" x="1255.1611" y="-1752.5497" font-family="Helvetica,sans-Serif" font-size="14.00" fill="#000000">Service Charge API</text>
</a>
</g>
</g>
<!-- hackney_api -->
<g id="node9" class="node">
<title>hackney_api</title>
<g id="a_node9"><a xlink:href="/hackney-data-flows/systems/hackney_api" xlink:title="{Hackney API | {&lt;crmlookups&gt; CRMLookups}}">
<polygon fill="#ffffff" stroke="#000000" points="1156.6753,-1683.7497 1156.6753,-1719.7497 1353.647,-1719.7497 1353.647,-1683.7497 1156.6753,-1683.7497"/>
<text text-anchor="middle" x="1204.7544" y="-1697.5497" font-family="Helvetica,sans-Serif" font-size="14.00" fill="#000000">Hackney API</text>
<polyline fill="none" stroke="#000000" points="1252.8335,-1683.7497 1252.8335,-1719.7497 "/>
<text text-anchor="middle" x="1303.2402" y="-1697.5497" font-family="Helvetica,sans-Serif" font-size="14.00" fill="#000000">CRMLookups</text>
</a>
</g>
</g>
<!-- property_api -->
<g id="node10" class="node">
<title>property_api</title>
<g id="a_node10"><a xlink:href="/hackney-data-flows/systems/property_api" xlink:title="Property API">
<polygon fill="#ffffff" stroke="#000000" points="1207.8613,-1628.7497 1207.8613,-1664.7497 1302.4609,-1664.7497 1302.4609,-1628.7497 1207.8613,-1628.7497"/>
<text text-anchor="middle" x="1255.1611" y="-1642.5497" font-family="Helvetica,sans-Serif" font-size="14.00" fill="#000000">Property API</text>
</a>
</g>
</g>
<!-- property_api&#45;&gt;uht -->
<g id="edge38" class="edge">
<title>property_api&#45;&gt;uht:property</title>
<path fill="none" stroke="#000000" d="M1207.7968,-1638.4652C1190.1041,-1634.2846 1170.2129,-1628.2452 1153.2881,-1619.7497 970.6587,-1528.0777 985.3047,-1403.6558 793.2881,-1333.7497 548.5934,-1244.6654 465.8295,-1315.8199 210.1044,-1317.7115"/>
<polygon fill="#000000" stroke="#000000" points="209.7487,-1314.2127 199.7617,-1317.7497 209.7746,-1321.2126 209.7487,-1314.2127"/>
</g>
<!-- repairs_api -->
<g id="node11" class="node">
<title>repairs_api</title>
<g id="a_node11"><a xlink:href="/hackney-data-flows/systems/repairs_api" xlink:title="{Repairs API | {&lt;repair&gt; repair}}">
<polygon fill="#ffffff" stroke="#000000" points="1184.2993,-1573.7497 1184.2993,-1609.7497 1326.0229,-1609.7497 1326.0229,-1573.7497 1184.2993,-1573.7497"/>
<text text-anchor="middle" x="1229.2646" y="-1587.5497" font-family="Helvetica,sans-Serif" font-size="14.00" fill="#000000">Repairs API</text>
<polyline fill="none" stroke="#000000" points="1274.23,-1573.7497 1274.23,-1609.7497 "/>
<text text-anchor="middle" x="1300.1265" y="-1587.5497" font-family="Helvetica,sans-Serif" font-size="14.00" fill="#000000">repair</text>
</a>
</g>
</g>
<!-- repairs_api&#45;&gt;uht -->
<g id="edge50" class="edge">
<title>repairs_api&#45;&gt;uht:rmworder</title>
<path fill="none" stroke="#000000" d="M1184.0645,-1578.8684C1173.2916,-1575.2559 1162.6598,-1570.6411 1153.2881,-1564.7497 944.8592,-1433.7231 1014.7694,-1251.2513 793.2881,-1143.7497 677.4342,-1087.517 348.3676,-1118.1615 209.8004,-1119.6913"/>
<polygon fill="#000000" stroke="#000000" points="209.7412,-1116.1915 199.7617,-1119.7497 209.7819,-1123.1914 209.7412,-1116.1915"/>
</g>
<!-- repairs_api&#45;&gt;uht -->
<g id="edge51" class="edge">
<title>repairs_api&#45;&gt;uht:rmtask</title>
<path fill="none" stroke="#000000" d="M1184.1203,-1579.2864C1173.2825,-1575.6197 1162.6158,-1570.8786 1153.2881,-1564.7497 937.199,-1422.7651 1024.9488,-1222.5862 793.2881,-1107.7497 677.9844,-1050.5925 348.3097,-1095.4411 209.7952,-1097.6651"/>
<polygon fill="#000000" stroke="#000000" points="209.7318,-1094.1654 199.7617,-1097.7497 209.7909,-1101.1651 209.7318,-1094.1654"/>
</g>
<!-- repairs_api&#45;&gt;uht -->
<g id="edge52" class="edge">
<title>repairs_api&#45;&gt;uht:rmreqst</title>
<path fill="none" stroke="#000000" d="M1184.2048,-1579.6484C1173.2977,-1575.936 1162.5872,-1571.0859 1153.2881,-1564.7497 929.9669,-1412.5826 1034.3947,-1196.7937 793.2881,-1074.7497 722.7977,-1039.0687 694.5299,-1074.6547 615.5234,-1074.7497 434.1686,-1074.9678 386.3072,-1075.721 209.9062,-1075.7489"/>
<polygon fill="#000000" stroke="#000000" points="209.7614,-1072.2488 199.7617,-1075.7497 209.762,-1079.2488 209.7614,-1072.2488"/>
</g>
<!-- repairs_api&#45;&gt;uht -->
<g id="edge53" class="edge">
<title>repairs_api&#45;&gt;uht:visit</title>
<path fill="none" stroke="#000000" d="M1184.1,-1579.8006C1173.2058,-1576.0696 1162.5267,-1571.1738 1153.2881,-1564.7497 925.498,-1406.3532 1039.5233,-1182.6012 793.2881,-1054.7497 562.2615,-934.7949 466.097,-1050.613 210.1078,-1053.6876"/>
<polygon fill="#000000" stroke="#000000" points="209.7405,-1050.1897 199.7617,-1053.7497 209.7826,-1057.1896 209.7405,-1050.1897"/>
</g>
<!-- repairs_api&#45;&gt;uht -->
<g id="edge54" class="edge">
<title>repairs_api&#45;&gt;uht:supplier</title>
<path fill="none" stroke="#000000" d="M1184.0833,-1580.2871C1173.1309,-1576.4973 1162.4378,-1571.4558 1153.2881,-1564.7497 912.2247,-1388.0674 1055.1551,-1140.8116 793.2881,-996.7497 724.0652,-958.6678 694.4603,-993.433 615.5234,-996.7497 433.688,-1004.3899 386.9184,-1030.7464 209.9407,-1031.7219"/>
<polygon fill="#000000" stroke="#000000" points="209.7521,-1028.2223 199.7617,-1031.7497 209.7713,-1035.2222 209.7521,-1028.2223"/>
</g>
<!-- repairs_api&#45;&gt;crm -->
<g id="edge59" class="edge">
<title>repairs_api&#45;&gt;crm:contacts</title>
<path fill="none" stroke="#000000" d="M1184.0596,-1582.001C1172.8586,-1578.0217 1162.0904,-1572.4727 1153.2881,-1564.7497 836.5727,-1286.8683 1143.2459,-922.3903 793.2881,-687.7497 628.639,-577.3553 299.2528,-849.2878 224.7604,-878.2751"/>
<polygon fill="#000000" stroke="#000000" points="223.628,-874.9497 214.7617,-880.7497 225.3097,-881.7447 223.628,-874.9497"/>
</g>
<!-- repairs_api&#45;&gt;uhw -->
<g id="edge55" class="edge">
<title>repairs_api&#45;&gt;uhw:usp_starthackneyprocessv2</title>
<path fill="none" stroke="#000000" d="M1184.2328,-1582.5771C1172.8809,-1578.5437 1162.017,-1572.8273 1153.2881,-1564.7497 797.6752,-1235.6702 1188.4311,-816.1347 793.2881,-535.7497 592.9914,-393.6234 514.9058,-709.8937 273.8793,-718.5683"/>
<polygon fill="#000000" stroke="#000000" points="273.6973,-715.0709 263.7617,-718.7497 273.8229,-722.0698 273.6973,-715.0709"/>
</g>
<!-- repairs_api&#45;&gt;uhw -->
<g id="edge56" class="edge">
<title>repairs_api&#45;&gt;uhw:w2objectnote</title>
<path fill="none" stroke="#000000" d="M1184.0508,-1582.397C1172.7851,-1578.3783 1161.9975,-1572.7135 1153.2881,-1564.7497 807.4633,-1248.5274 1177.0642,-842.6497 793.2881,-573.7497 593.9515,-434.0807 512.7615,-732.3954 273.7908,-740.5786"/>
<polygon fill="#000000" stroke="#000000" points="273.7005,-737.0795 263.7617,-740.7497 273.82,-744.0785 273.7005,-737.0795"/>
</g>
<!-- repairs_api&#45;&gt;uhw -->
<g id="edge57" class="edge">
<title>repairs_api&#45;&gt;uhw:ws_addnotetoorder</title>
<path fill="none" stroke="#000000" d="M1184.1517,-1582.6643C1172.8084,-1578.6216 1161.9685,-1572.8795 1153.2881,-1564.7497 787.0749,-1221.7614 1200.7394,-787.5577 793.2881,-494.7497 591.5367,-349.7645 517.6724,-687.2996 273.9936,-696.5561"/>
<polygon fill="#000000" stroke="#000000" points="273.6937,-693.0611 263.7617,-696.7497 273.8262,-700.0598 273.6937,-693.0611"/>
</g>
<!-- drs -->
<g id="node23" class="node">
<title>drs</title>
<g id="a_node23"><a xlink:href="/hackney-data-flows/systems/drs" xlink:title="{DRS | {&lt;s_job&gt; s_job|&lt;p_job&gt; p_job}}">
<polygon fill="#ffffff" stroke="#000000" points="91.855,-622.7497 91.855,-666.7497 187.6685,-666.7497 187.6685,-622.7497 91.855,-622.7497"/>
<text text-anchor="middle" x="114.6343" y="-640.5497" font-family="Helvetica,sans-Serif" font-size="14.00" fill="#000000">DRS</text>
<polyline fill="none" stroke="#000000" points="137.4136,-622.7497 137.4136,-666.7497 "/>
<text text-anchor="middle" x="162.541" y="-651.5497" font-family="Helvetica,sans-Serif" font-size="14.00" fill="#000000">s_job</text>
<polyline fill="none" stroke="#000000" points="137.4136,-644.7497 187.6685,-644.7497 "/>
<text text-anchor="middle" x="162.541" y="-629.5497" font-family="Helvetica,sans-Serif" font-size="14.00" fill="#000000">p_job</text>
</a>
</g>
</g>
<!-- repairs_api&#45;&gt;drs -->
<g id="edge39" class="edge">
<title>repairs_api&#45;&gt;drs:s_job</title>
<path fill="none" stroke="#000000" d="M1184.0755,-1582.7452C1172.7403,-1578.6939 1161.9228,-1572.928 1153.2881,-1564.7497 776.4376,-1207.818 1213.0887,-759.0102 793.2881,-453.7497 640.6452,-342.7545 335.4355,-639.9856 198.1443,-655.1509"/>
<polygon fill="#000000" stroke="#000000" points="197.5436,-651.6797 187.7617,-655.7497 197.9467,-658.6681 197.5436,-651.6797"/>
</g>
<!-- repairs_api&#45;&gt;drs -->
<g id="edge40" class="edge">
<title>repairs_api&#45;&gt;drs:p_job</title>
<path fill="none" stroke="#000000" d="M1184.2858,-1582.8924C1172.8609,-1578.8308 1161.9584,-1573.0234 1153.2881,-1564.7497 768.8935,-1197.9365 1221.846,-738.8344 793.2881,-424.7497 566.457,-258.508 474.711,-624.6196 198.1019,-633.5827"/>
<polygon fill="#000000" stroke="#000000" points="197.7039,-630.0886 187.7617,-633.7497 197.817,-637.0877 197.7039,-630.0886"/>
</g>
<!-- mobile_reports -->
<g id="node24" class="node">
<title>mobile_reports</title>
<g id="a_node24"><a xlink:href="/hackney-data-flows/systems/mobile_reports" xlink:title="{Mobile Reports | {&lt;processed&gt; Processed|&lt;unprocessed&gt; Unprocessed}}">
<polygon fill="#ffffff" stroke="#000000" points="35.4414,-559.7497 35.4414,-603.7497 244.082,-603.7497 244.082,-559.7497 35.4414,-559.7497"/>
<text text-anchor="middle" x="90.5171" y="-577.5497" font-family="Helvetica,sans-Serif" font-size="14.00" fill="#000000">Mobile Reports</text>
<polyline fill="none" stroke="#000000" points="145.5928,-559.7497 145.5928,-603.7497 "/>
<text text-anchor="middle" x="194.8374" y="-588.5497" font-family="Helvetica,sans-Serif" font-size="14.00" fill="#000000">Processed</text>
<polyline fill="none" stroke="#000000" points="145.5928,-581.7497 244.082,-581.7497 "/>
<text text-anchor="middle" x="194.8374" y="-566.5497" font-family="Helvetica,sans-Serif" font-size="14.00" fill="#000000">Unprocessed</text>
</a>
</g>
</g>
<!-- repairs_api&#45;&gt;mobile_reports -->
<g id="edge41" class="edge">
<title>repairs_api&#45;&gt;mobile_reports:processed</title>
<path fill="none" stroke="#000000" d="M1184.2056,-1582.976C1172.789,-1578.9057 1161.91,-1573.0737 1153.2881,-1564.7497 756.3734,-1181.549 1236.3782,-705.4672 793.2881,-376.7497 622.4362,-249.9989 316.3442,-549.4643 253.2241,-588.5938"/>
<polygon fill="#000000" stroke="#000000" points="251.5101,-585.5238 243.7617,-592.7497 254.325,-591.9329 251.5101,-585.5238"/>
</g>
<!-- repairs_api&#45;&gt;mobile_reports -->
<g id="edge42" class="edge">
<title>repairs_api&#45;&gt;mobile_reports:unprocessed</title>
<path fill="none" stroke="#000000" d="M1184.1489,-1583.0345C1172.7382,-1578.9581 1161.8759,-1573.1089 1153.2881,-1564.7497 746.9585,-1169.2345 1247.305,-680.4623 793.2881,-340.7497 615.865,-207.995 316.6078,-526.3038 253.1939,-566.611"/>
<polygon fill="#000000" stroke="#000000" points="251.5126,-563.5265 243.7617,-570.7497 254.3253,-569.9366 251.5126,-563.5265"/>
</g>
<!-- uh_warehouse -->
<g id="node25" class="node">
<title>uh_warehouse</title>
<g id="a_node25"><a xlink:href="/hackney-data-flows/systems/uh_warehouse" xlink:title="{UH Warehouse | {&lt;property&gt; property|&lt;lulevel&gt; lulevel|&lt;rmreqst&gt; rmreqst|&lt;rmworder&gt; rmworder|&lt;rmtask&gt; rmtask|&lt;rmtrade&gt; rmtrade|&lt;w2objectnote&gt; W2ObjectNote}}">
<polygon fill="#ffffff" stroke="#000000" points="30.6494,-386.7497 30.6494,-540.7497 248.874,-540.7497 248.874,-386.7497 30.6494,-386.7497"/>
<text text-anchor="middle" x="86.2446" y="-459.5497" font-family="Helvetica,sans-Serif" font-size="14.00" fill="#000000">UH Warehouse</text>
<polyline fill="none" stroke="#000000" points="141.8398,-386.7497 141.8398,-540.7497 "/>
<text text-anchor="middle" x="195.3569" y="-525.5497" font-family="Helvetica,sans-Serif" font-size="14.00" fill="#000000">property</text>
<polyline fill="none" stroke="#000000" points="141.8398,-518.7497 248.874,-518.7497 "/>
<text text-anchor="middle" x="195.3569" y="-503.5497" font-family="Helvetica,sans-Serif" font-size="14.00" fill="#000000">lulevel</text>
<polyline fill="none" stroke="#000000" points="141.8398,-496.7497 248.874,-496.7497 "/>
<text text-anchor="middle" x="195.3569" y="-481.5497" font-family="Helvetica,sans-Serif" font-size="14.00" fill="#000000">rmreqst</text>
<polyline fill="none" stroke="#000000" points="141.8398,-474.7497 248.874,-474.7497 "/>
<text text-anchor="middle" x="195.3569" y="-459.5497" font-family="Helvetica,sans-Serif" font-size="14.00" fill="#000000">rmworder</text>
<polyline fill="none" stroke="#000000" points="141.8398,-452.7497 248.874,-452.7497 "/>
<text text-anchor="middle" x="195.3569" y="-437.5497" font-family="Helvetica,sans-Serif" font-size="14.00" fill="#000000">rmtask</text>
<polyline fill="none" stroke="#000000" points="141.8398,-430.7497 248.874,-430.7497 "/>
<text text-anchor="middle" x="195.3569" y="-415.5497" font-family="Helvetica,sans-Serif" font-size="14.00" fill="#000000">rmtrade</text>
<polyline fill="none" stroke="#000000" points="141.8398,-408.7497 248.874,-408.7497 "/>
<text text-anchor="middle" x="195.3569" y="-393.5497" font-family="Helvetica,sans-Serif" font-size="14.00" fill="#000000">W2ObjectNote</text>
</a>
</g>
</g>
<!-- repairs_api&#45;&gt;uh_warehouse -->
<g id="edge43" class="edge">
<title>repairs_api&#45;&gt;uh_warehouse:property</title>
<path fill="none" stroke="#000000" d="M1184.0935,-1583.0912C1172.6886,-1579.0089 1161.8426,-1573.1431 1153.2881,-1564.7497 737.2619,-1156.5583 1258.5578,-654.7797 793.2881,-303.7497 617.896,-171.4224 318.4145,-484.4979 257.7752,-525.405"/>
<polygon fill="#000000" stroke="#000000" points="256.2501,-522.2547 248.7617,-529.7497 259.2896,-528.5604 256.2501,-522.2547"/>
</g>
<!-- repairs_api&#45;&gt;uh_warehouse -->
<g id="edge44" class="edge">
<title>repairs_api&#45;&gt;uh_warehouse:lulevel</title>
<path fill="none" stroke="#000000" d="M1184.0408,-1583.1446C1172.6414,-1579.0568 1161.8109,-1573.1752 1153.2881,-1564.7497 727.5466,-1143.8638 1269.8315,-629.1129 793.2881,-266.7497 611.1453,-128.2484 320.0398,-461.2534 258.0126,-503.4201"/>
<polygon fill="#000000" stroke="#000000" points="256.3352,-500.3407 248.7617,-507.7497 259.3025,-506.6807 256.3352,-500.3407"/>
</g>
<!-- repairs_api&#45;&gt;uh_warehouse -->
<g id="edge45" class="edge">
<title>repairs_api&#45;&gt;uh_warehouse:rmreqst</title>
<path fill="none" stroke="#000000" d="M1184.2504,-1583.2899C1172.7605,-1579.1932 1161.8447,-1573.271 1153.2881,-1564.7497 717.5508,-1130.8084 1281.4301,-602.7677 793.2881,-228.7497 604.0588,-83.7608 322.6074,-439.5239 258.1925,-481.7127"/>
<polygon fill="#000000" stroke="#000000" points="256.5775,-478.5968 248.7617,-485.7497 259.3322,-485.032 256.5775,-478.5968"/>
</g>
<!-- repairs_api&#45;&gt;uh_warehouse -->
<g id="edge46" class="edge">
<title>repairs_api&#45;&gt;uh_warehouse:rmworder</title>
<path fill="none" stroke="#000000" d="M1184.2,-1583.3403C1172.7153,-1579.2384 1161.8142,-1573.3015 1153.2881,-1564.7497 707.2746,-1117.3922 1293.3532,-575.744 793.2881,-189.7497 596.6687,-37.9815 326.6173,-419.6064 258.2561,-460.278"/>
<polygon fill="#000000" stroke="#000000" points="256.9515,-457.0283 248.7617,-463.7497 259.3555,-463.6025 256.9515,-457.0283"/>
</g>
<!-- repairs_api&#45;&gt;uh_warehouse -->
<g id="edge47" class="edge">
<title>repairs_api&#45;&gt;uh_warehouse:rmtask</title>
<path fill="none" stroke="#000000" d="M1184.1509,-1583.3891C1172.6712,-1579.2823 1161.7845,-1573.331 1153.2881,-1564.7497 696.7181,-1103.6151 1305.6009,-548.042 793.2881,-149.7497 589.4202,8.7453 333.6887,-400.1574 258.5151,-438.8403"/>
<polygon fill="#000000" stroke="#000000" points="257.344,-435.5371 248.7617,-441.7497 259.345,-442.2451 257.344,-435.5371"/>
</g>
<!-- repairs_api&#45;&gt;uh_warehouse -->
<g id="edge48" class="edge">
<title>repairs_api&#45;&gt;uh_warehouse:rmtrade</title>
<path fill="none" stroke="#000000" d="M1184.103,-1583.4364C1172.6282,-1579.3247 1161.7555,-1573.3596 1153.2881,-1564.7497 685.8815,-1089.4773 1318.1731,-519.6615 793.2881,-108.7497 582.1565,56.537 343.7599,-382.1081 258.6042,-417.499"/>
<polygon fill="#000000" stroke="#000000" points="257.7298,-414.1085 248.7617,-419.7497 259.2903,-420.9323 257.7298,-414.1085"/>
</g>
<!-- repairs_api&#45;&gt;uh_warehouse -->
<g id="edge49" class="edge">
<title>repairs_api&#45;&gt;uh_warehouse:w2objectnote</title>
<path fill="none" stroke="#000000" d="M1184.0597,-1583.4789C1172.5892,-1579.3629 1161.7293,-1573.3854 1153.2881,-1564.7497 675.5595,-1076.0148 1330.1476,-492.6778 793.2881,-69.7497 731.2262,-20.8585 689.3219,-41.5395 615.5234,-69.7497 414.4483,-146.6125 465.7516,-389.9817 258.8132,-397.5682"/>
<polygon fill="#000000" stroke="#000000" points="258.6969,-394.0697 248.7617,-397.7497 258.8233,-401.0685 258.6969,-394.0697"/>
</g>
<!-- base_data_service -->
<g id="node26" class="node">
<title>base_data_service</title>
<g id="a_node26"><a xlink:href="/hackney-data-flows/systems/base_data_service" xlink:title="{Base Data Service | {&lt;tbc&gt; TBC}}">
<polygon fill="#ffffff" stroke="#000000" points="51.7896,-331.7497 51.7896,-367.7497 227.7339,-367.7497 227.7339,-331.7497 51.7896,-331.7497"/>
<text text-anchor="middle" x="117.7617" y="-345.5497" font-family="Helvetica,sans-Serif" font-size="14.00" fill="#000000">Base Data Service</text>
<polyline fill="none" stroke="#000000" points="183.7339,-331.7497 183.7339,-367.7497 "/>
<text text-anchor="middle" x="205.7339" y="-345.5497" font-family="Helvetica,sans-Serif" font-size="14.00" fill="#000000">TBC</text>
</a>
</g>
</g>
<!-- repairs_api&#45;&gt;base_data_service -->
<g id="edge58" class="edge">
<title>repairs_api&#45;&gt;base_data_service:tbc</title>
<path fill="none" stroke="#000000" d="M1184.2842,-1583.6075C1172.7212,-1579.4852 1161.7712,-1573.4723 1153.2881,-1564.7497 666.5504,-1064.2677 1340.5987,-469.1627 793.2881,-35.7497 588.5284,126.3987 358.9789,-323.0322 238.0549,-348.6183"/>
<polygon fill="#000000" stroke="#000000" points="237.3194,-345.1779 227.7617,-349.7497 238.0843,-352.136 237.3194,-345.1779"/>
</g>
<!-- leasehold_api -->
<g id="node12" class="node">
<title>leasehold_api</title>
<g id="a_node12"><a xlink:href="/hackney-data-flows/systems/leasehold_api" xlink:title="Leasehold API">
<polygon fill="#ffffff" stroke="#000000" points="1202.0098,-1518.7497 1202.0098,-1554.7497 1308.3125,-1554.7497 1308.3125,-1518.7497 1202.0098,-1518.7497"/>
<text text-anchor="middle" x="1255.1611" y="-1532.5497" font-family="Helvetica,sans-Serif" font-size="14.00" fill="#000000">Leasehold API</text>
</a>
</g>
</g>
<!-- asset_storage_api -->
<g id="node13" class="node">
<title>asset_storage_api</title>
<g id="a_node13"><a xlink:href="/hackney-data-flows/systems/asset_storage_api" xlink:title="Asset Storage API">
<polygon fill="#ffffff" stroke="#000000" points="1190.3477,-1463.7497 1190.3477,-1499.7497 1319.9746,-1499.7497 1319.9746,-1463.7497 1190.3477,-1463.7497"/>
<text text-anchor="middle" x="1255.1611" y="-1477.5497" font-family="Helvetica,sans-Serif" font-size="14.00" fill="#000000">Asset Storage API</text>
</a>
</g>
</g>
<!-- directory_of_services_api -->
<g id="node14" class="node">
<title>directory_of_services_api</title>
<g id="a_node14"><a xlink:href="/hackney-data-flows/systems/directory_of_services_api" xlink:title="Directory of Services API">
<polygon fill="#ffffff" stroke="#000000" points="1169.7441,-1408.7497 1169.7441,-1444.7497 1340.5781,-1444.7497 1340.5781,-1408.7497 1169.7441,-1408.7497"/>
<text text-anchor="middle" x="1255.1611" y="-1422.5497" font-family="Helvetica,sans-Serif" font-size="14.00" fill="#000000">Directory of Services API</text>
</a>
</g>
</g>
<!-- transactions_api -->
<g id="node15" class="node">
<title>transactions_api</title>
<g id="a_node15"><a xlink:href="/hackney-data-flows/systems/transactions_api" xlink:title="Transactions API">
<polygon fill="#ffffff" stroke="#000000" points="1194.5005,-1353.7497 1194.5005,-1389.7497 1315.8218,-1389.7497 1315.8218,-1353.7497 1194.5005,-1353.7497"/>
<text text-anchor="middle" x="1255.1611" y="-1367.5497" font-family="Helvetica,sans-Serif" font-size="14.00" fill="#000000">Transactions API</text>
</a>
</g>
</g>
<!-- transactions_api&#45;&gt;uht -->
<g id="edge60" class="edge">
<title>transactions_api&#45;&gt;uht:rtrans</title>
<path fill="none" stroke="#000000" d="M1202.3476,-1353.7454C1050.5631,-1303.6478 599.049,-1166.1266 209.8116,-1163.7801"/>
<polygon fill="#000000" stroke="#000000" points="209.7723,-1160.28 199.7617,-1163.7497 209.751,-1167.28 209.7723,-1160.28"/>
</g>
<!-- transactions_api&#45;&gt;uht -->
<g id="edge61" class="edge">
<title>transactions_api&#45;&gt;uht:debtype</title>
<path fill="none" stroke="#000000" d="M1194.3177,-1358.148C1003.6913,-1315.9816 418.3646,-1190.0263 209.989,-1185.8558"/>
<polygon fill="#000000" stroke="#000000" points="209.7975,-1182.3537 199.7617,-1185.7497 209.7248,-1189.3533 209.7975,-1182.3537"/>
</g>
<!-- transactions_api&#45;&gt;uht -->
<g id="edge62" class="edge">
<title>transactions_api&#45;&gt;uht:rectype</title>
<path fill="none" stroke="#000000" d="M1242.8555,-1353.4152C1195.1839,-1284.2694 1014.2949,-1038.9082 793.2881,-953.7497 538.2383,-855.4737 477.929,-1134.7885 209.7983,-1141.6224"/>
<polygon fill="#000000" stroke="#000000" points="209.7165,-1138.123 199.7617,-1141.7497 209.8053,-1145.1225 209.7165,-1138.123"/>
</g>
<!-- submit_my_planning_application -->
<g id="node27" class="node">
<title>submit_my_planning_application</title>
<g id="a_node27"><a xlink:href="/hackney-data-flows/systems/submit_my_planning_application" xlink:title="Submit My Planning Application">
<polygon fill="#ffffff" stroke="#000000" points="1717.0342,-2028.7497 1717.0342,-2064.7497 1929.1504,-2064.7497 1929.1504,-2028.7497 1717.0342,-2028.7497"/>
<text text-anchor="middle" x="1823.0923" y="-2042.5497" font-family="Helvetica,sans-Serif" font-size="14.00" fill="#000000">Submit My Planning Application</text>
</a>
</g>
</g>
<!-- submit_my_planning_application&#45;&gt;addresses_api -->
<g id="edge63" class="edge">
<title>submit_my_planning_application&#45;&gt;addresses_api:addresses</title>
<path fill="none" stroke="#000000" d="M1756.168,-2064.8405C1667.0322,-2087.3424 1503.7994,-2123.0291 1359.5155,-2124.6896"/>
<polygon fill="#000000" stroke="#000000" points="1359.1406,-2121.1916 1349.1611,-2124.7497 1359.1813,-2128.1915 1359.1406,-2121.1916"/>
</g>
<!-- manage_a_tenancy_service -->
<g id="node28" class="node">
<title>manage_a_tenancy_service</title>
<g id="a_node28"><a xlink:href="/hackney-data-flows/systems/manage_a_tenancy_service" xlink:title="Manage a Tenancy Service">
<polygon fill="#ffffff" stroke="#000000" points="1730.7778,-1918.7497 1730.7778,-1954.7497 1915.4067,-1954.7497 1915.4067,-1918.7497 1730.7778,-1918.7497"/>
<text text-anchor="middle" x="1823.0923" y="-1932.5497" font-family="Helvetica,sans-Serif" font-size="14.00" fill="#000000">Manage a Tenancy Service</text>
</a>
</g>
</g>
<!-- manage_a_tenancy_service&#45;&gt;manage_a_tenancy_api -->
<g id="edge64" class="edge">
<title>manage_a_tenancy_service&#45;&gt;manage_a_tenancy_api:tbc</title>
<path fill="none" stroke="#000000" d="M1730.7166,-1934.5444C1639.1917,-1932.5467 1494.6698,-1929.8938 1367.4569,-1929.7553"/>
<polygon fill="#000000" stroke="#000000" points="1367.1631,-1926.2553 1357.1611,-1929.7497 1367.1592,-1933.2553 1367.1631,-1926.2553"/>
</g>
<!-- report_a_repair_service -->
<g id="node29" class="node">
<title>report_a_repair_service</title>
<g id="a_node29"><a xlink:href="/hackney-data-flows/systems/report_a_repair_service" xlink:title="Report a Repair Service">
<polygon fill="#ffffff" stroke="#000000" points="1740.3926,-1698.7497 1740.3926,-1734.7497 1905.792,-1734.7497 1905.792,-1698.7497 1740.3926,-1698.7497"/>
<text text-anchor="middle" x="1823.0923" y="-1712.5497" font-family="Helvetica,sans-Serif" font-size="14.00" fill="#000000">Report a Repair Service</text>
</a>
</g>
</g>
<!-- report_a_repair_service&#45;&gt;repairs_api -->
<g id="edge65" class="edge">
<title>report_a_repair_service&#45;&gt;repairs_api:repair</title>
<path fill="none" stroke="#000000" d="M1781.1177,-1698.7071C1698.3021,-1664.7669 1507.0731,-1594.5611 1336.339,-1591.8316"/>
<polygon fill="#000000" stroke="#000000" points="1336.189,-1588.3304 1326.1611,-1591.7497 1336.1326,-1595.3302 1336.189,-1588.3304"/>
</g>
<!-- my_rent_account -->
<g id="node30" class="node">
<title>my_rent_account</title>
<g id="a_node30"><a xlink:href="/hackney-data-flows/systems/my_rent_account" xlink:title="My Rent Account">
<polygon fill="#ffffff" stroke="#000000" points="1762.1753,-1808.7497 1762.1753,-1844.7497 1884.0093,-1844.7497 1884.0093,-1808.7497 1762.1753,-1808.7497"/>
<text text-anchor="middle" x="1823.0923" y="-1822.5497" font-family="Helvetica,sans-Serif" font-size="14.00" fill="#000000">My Rent Account</text>
</a>
</g>
</g>
<!-- my_rent_account&#45;&gt;ncc_api -->
<g id="edge67" class="edge">
<title>my_rent_account&#45;&gt;ncc_api:transactions</title>
<path fill="none" stroke="#000000" d="M1761.9764,-1838.1457C1672.1803,-1853.8937 1498.8429,-1880.5203 1347.5535,-1881.7085"/>
<polygon fill="#000000" stroke="#000000" points="1347.1472,-1878.21 1337.1611,-1881.7497 1347.175,-1885.2099 1347.1472,-1878.21"/>
</g>
<!-- my_rent_account&#45;&gt;rent_account_api -->
<g id="edge66" class="edge">
<title>my_rent_account&#45;&gt;rent_account_api:tbc</title>
<path fill="none" stroke="#000000" d="M1761.9967,-1823.6417C1672.2819,-1819.3468 1499.2962,-1812.085 1349.4521,-1811.7609"/>
<polygon fill="#000000" stroke="#000000" points="1349.165,-1808.2607 1339.1611,-1811.7497 1349.1573,-1815.2607 1349.165,-1808.2607"/>
</g>
<!-- ncc_crm -->
<g id="node31" class="node">
<title>ncc_crm</title>
<g id="a_node31"><a xlink:href="/hackney-data-flows/systems/ncc_crm" xlink:title="NCC CRM">
<polygon fill="#ffffff" stroke="#000000" points="1782.0405,-1863.7497 1782.0405,-1899.7497 1864.144,-1899.7497 1864.144,-1863.7497 1782.0405,-1863.7497"/>
<text text-anchor="middle" x="1823.0923" y="-1877.5497" font-family="Helvetica,sans-Serif" font-size="14.00" fill="#000000">NCC CRM</text>
</a>
</g>
</g>
<!-- ncc_crm&#45;&gt;manage_a_tenancy_api -->
<g id="edge70" class="edge">
<title>ncc_crm&#45;&gt;manage_a_tenancy_api:tbc</title>
<path fill="none" stroke="#000000" d="M1781.789,-1888.8839C1702.4132,-1901.968 1522.6584,-1928.5748 1367.3541,-1929.712"/>
<polygon fill="#000000" stroke="#000000" points="1367.1481,-1926.2127 1357.1611,-1929.7497 1367.174,-1933.2126 1367.1481,-1926.2127"/>
</g>
<!-- ncc_crm&#45;&gt;ncc_api -->
<g id="edge69" class="edge">
<title>ncc_crm&#45;&gt;ncc_api:tbc</title>
<path fill="none" stroke="#000000" d="M1781.8425,-1878.621C1699.8041,-1872.6717 1510.0421,-1860.2717 1347.3436,-1859.7657"/>
<polygon fill="#000000" stroke="#000000" points="1347.1666,-1856.2655 1337.1611,-1859.7497 1347.1556,-1863.2655 1347.1666,-1856.2655"/>
</g>
<!-- ncc_crm&#45;&gt;hackney_api -->
<g id="edge68" class="edge">
<title>ncc_crm&#45;&gt;hackney_api:crmlookups</title>
<path fill="none" stroke="#000000" d="M1781.9665,-1873.8198C1760.0575,-1869.1448 1732.7988,-1862.605 1709.0342,-1854.7497 1548.9213,-1801.8249 1526.2156,-1705.79 1363.5641,-1701.8733"/>
<polygon fill="#000000" stroke="#000000" points="1363.2021,-1698.3688 1353.1611,-1701.7497 1363.1188,-1705.3684 1363.2021,-1698.3688"/>
</g>
<!-- income_collection_service -->
<g id="node32" class="node">
<title>income_collection_service</title>
<g id="a_node32"><a xlink:href="/hackney-data-flows/systems/income_collection_service" xlink:title="Income Collection Service">
<polygon fill="#ffffff" stroke="#000000" points="1734.1685,-1973.7497 1734.1685,-2009.7497 1912.0161,-2009.7497 1912.0161,-1973.7497 1734.1685,-1973.7497"/>
<text text-anchor="middle" x="1823.0923" y="-1987.5497" font-family="Helvetica,sans-Serif" font-size="14.00" fill="#000000">Income Collection Service</text>
</a>
</g>
</g>
<!-- income_collection_service&#45;&gt;income_api -->
<g id="edge71" class="edge">
<title>income_collection_service&#45;&gt;income_api:users</title>
<path fill="none" stroke="#000000" d="M1733.8586,-2000.6694C1639.9167,-2009.2967 1487.3311,-2021.1542 1353.1955,-2021.728"/>
<polygon fill="#000000" stroke="#000000" points="1353.1535,-2018.228 1343.1611,-2021.7497 1353.1687,-2025.228 1353.1535,-2018.228"/>
</g>
<!-- income_collection_service&#45;&gt;income_api -->
<g id="edge72" class="edge">
<title>income_collection_service&#45;&gt;income_api:worktray</title>
<path fill="none" stroke="#000000" d="M1733.7619,-1994.1283C1639.7403,-1996.4289 1487.0875,-1999.5909 1353.178,-1999.7439"/>
<polygon fill="#000000" stroke="#000000" points="1353.1591,-1996.2438 1343.1611,-1999.7497 1353.1632,-2003.2438 1353.1591,-1996.2438"/>
</g>
<!-- income_collection_service&#45;&gt;income_api -->
<g id="edge73" class="edge">
<title>income_collection_service&#45;&gt;income_api:action_diary</title>
<path fill="none" stroke="#000000" d="M1733.7772,-1987.5871C1639.7681,-1983.5611 1487.126,-1978.0276 1353.1807,-1977.7598"/>
<polygon fill="#000000" stroke="#000000" points="1353.1647,-1974.2599 1343.1611,-1977.7497 1353.1576,-1981.2599 1353.1647,-1974.2599"/>
</g>
<!-- income_collection_service&#45;&gt;tenancy_api -->
<g id="edge74" class="edge">
<title>income_collection_service&#45;&gt;tenancy_api:tenancies</title>
<path fill="none" stroke="#000000" d="M1740.5534,-2009.8338C1729.846,-2012.8138 1719.1074,-2016.1278 1709.0342,-2019.7497 1549.2873,-2077.1877 1530.522,-2147.9087 1365.0342,-2185.7497 1119.6178,-2241.8674 1050.413,-2134.7506 803.6527,-2131.8112"/>
<polygon fill="#000000" stroke="#000000" points="803.3087,-2128.3091 793.2881,-2131.7497 803.2671,-2135.309 803.3087,-2128.3091"/>
</g>
<!-- income_collection_service&#45;&gt;tenancy_api -->
<g id="edge75" class="edge">
<title>income_collection_service&#45;&gt;tenancy_api:contacts</title>
<path fill="none" stroke="#000000" d="M1743.8835,-2009.7998C1732.1316,-2012.8803 1720.2178,-2016.2309 1709.0342,-2019.7497 1552.6729,-2068.9461 1526.1714,-2122.6841 1365.0342,-2152.7497 1117.9552,-2198.8507 1049.9656,-2112.178 803.6353,-2109.7994"/>
<polygon fill="#000000" stroke="#000000" points="803.3048,-2106.2979 793.2881,-2109.7497 803.2711,-2113.2978 803.3048,-2106.2979"/>
</g>
<!-- repairs_hub -->
<g id="node33" class="node">
<title>repairs_hub</title>
<g id="a_node33"><a xlink:href="/hackney-data-flows/systems/repairs_hub" xlink:title="Repairs Hub">
<polygon fill="#ffffff" stroke="#000000" points="1776.1855,-1753.7497 1776.1855,-1789.7497 1869.999,-1789.7497 1869.999,-1753.7497 1776.1855,-1753.7497"/>
<text text-anchor="middle" x="1823.0923" y="-1767.5497" font-family="Helvetica,sans-Serif" font-size="14.00" fill="#000000">Repairs Hub</text>
</a>
</g>
</g>
<!-- repairs_hub&#45;&gt;repairs_api -->
<g id="edge76" class="edge">
<title>repairs_hub&#45;&gt;repairs_api:repair</title>
<path fill="none" stroke="#000000" d="M1776.0526,-1762.255C1755.3119,-1757.649 1730.7642,-1751.622 1709.0342,-1744.7497 1537.5561,-1690.518 1510.3864,-1595.3622 1336.2,-1591.8497"/>
<polygon fill="#000000" stroke="#000000" points="1336.1956,-1588.3496 1326.1611,-1591.7497 1336.1257,-1595.3493 1336.1956,-1588.3496"/>
</g>
</g>
</svg>
