<?xml version="1.0" encoding="UTF-8" standalone="no"?>
<!DOCTYPE svg PUBLIC "-//W3C//DTD SVG 1.1//EN"
 "http://www.w3.org/Graphics/SVG/1.1/DTD/svg11.dtd">
<!-- Generated by graphviz version 2.40.1 (20161225.0304)
 -->
<!-- Title: G Pages: 1 -->
<svg width="1960pt" height="2193pt"
 viewBox="0.00 0.00 1959.86 2193.44" xmlns="http://www.w3.org/2000/svg" xmlns:xlink="http://www.w3.org/1999/xlink">
<g id="graph0" class="graph" transform="scale(1 1) rotate(0) translate(36 2157.4373)">
<title>G</title>
<polygon fill="#ffffff" stroke="transparent" points="-36,36 -36,-2157.4373 1923.8584,-2157.4373 1923.8584,36 -36,36"/>
<g id="clust1" class="cluster">
<title>cluster_apis</title>
<polygon fill="#d3d3d3" stroke="#d3d3d3" points="595.959,-1264.2118 595.959,-2071.2118 1318.3447,-2071.2118 1318.3447,-1264.2118 595.959,-1264.2118"/>
</g>
<g id="clust2" class="cluster">
<title>cluster_dependency</title>
<polygon fill="#d3d3d3" stroke="#d3d3d3" points="8,-242.2118 8,-1556.2118 251.959,-1556.2118 251.959,-242.2118 8,-242.2118"/>
</g>
<g id="clust3" class="cluster">
<title>cluster_services</title>
<polygon fill="#d3d3d3" stroke="#d3d3d3" points="1662.3447,-1609.2118 1662.3447,-1993.2118 1879.8584,-1993.2118 1879.8584,-1609.2118 1662.3447,-1609.2118"/>
</g>
<!-- income_api -->
<g id="node1" class="node">
<title>income_api</title>
<g id="a_node1"><a xlink:href="/hackney-data-flows/systems/income_api" xlink:title="{Income API | {&lt;users&gt; users|&lt;worktray&gt; worktray|&lt;action_diary&gt; action diary}}">
<polygon fill="#ffffff" stroke="#000000" points="1132.5752,-1886.2118 1132.5752,-1952.2118 1298.3203,-1952.2118 1298.3203,-1886.2118 1132.5752,-1886.2118"/>
<text text-anchor="middle" x="1174.2114" y="-1915.0118" font-family="Times,serif" font-size="14.00" fill="#000000">Income API</text>
<polyline fill="none" stroke="#000000" points="1215.8477,-1886.2118 1215.8477,-1952.2118 "/>
<text text-anchor="middle" x="1257.084" y="-1937.0118" font-family="Times,serif" font-size="14.00" fill="#000000">users</text>
<polyline fill="none" stroke="#000000" points="1215.8477,-1930.2118 1298.3203,-1930.2118 "/>
<text text-anchor="middle" x="1257.084" y="-1915.0118" font-family="Times,serif" font-size="14.00" fill="#000000">worktray</text>
<polyline fill="none" stroke="#000000" points="1215.8477,-1908.2118 1298.3203,-1908.2118 "/>
<text text-anchor="middle" x="1257.084" y="-1893.0118" font-family="Times,serif" font-size="14.00" fill="#000000">action diary</text>
</a>
</g>
</g>
<!-- tenancy_api -->
<g id="node2" class="node">
<title>tenancy_api</title>
<g id="a_node2"><a xlink:href="/hackney-data-flows/systems/tenancy_api" xlink:title="{Tenancy API | {&lt;tenancies&gt; tenancies|&lt;contacts&gt; contacts}}">
<polygon fill="#ffffff" stroke="#000000" points="603.959,-2018.2118 603.959,-2062.2118 760.5508,-2062.2118 760.5508,-2018.2118 603.959,-2018.2118"/>
<text text-anchor="middle" x="648.2134" y="-2036.0118" font-family="Times,serif" font-size="14.00" fill="#000000">Tenancy API</text>
<polyline fill="none" stroke="#000000" points="692.4678,-2018.2118 692.4678,-2062.2118 "/>
<text text-anchor="middle" x="726.5093" y="-2047.0118" font-family="Times,serif" font-size="14.00" fill="#000000">tenancies</text>
<polyline fill="none" stroke="#000000" points="692.4678,-2040.2118 760.5508,-2040.2118 "/>
<text text-anchor="middle" x="726.5093" y="-2025.0118" font-family="Times,serif" font-size="14.00" fill="#000000">contacts</text>
</a>
</g>
</g>
<!-- income_api&#45;&gt;tenancy_api -->
<g id="edge1" class="edge">
<title>income_api&#45;&gt;tenancy_api:tenancies</title>
<path fill="none" stroke="#000000" d="M1132.4941,-1949.3298C1027.0007,-1986.6143 849.0932,-2045.8486 770.2587,-2050.8702"/>
<polygon fill="#000000" stroke="#000000" points="770.1296,-2047.3725 760.2549,-2051.2118 770.3685,-2054.3684 770.1296,-2047.3725"/>
</g>
<!-- uht -->
<g id="node16" class="node">
<title>uht</title>
<g id="a_node16"><a xlink:href="/hackney-data-flows/systems/uht" xlink:title="{UHT | {&lt;property&gt; property|&lt;tenagree&gt; tenagree|&lt;househ&gt; househ|&lt;araction&gt; araction|&lt;raaction&gt; raaction|&lt;debitem&gt; debitem|&lt;debtype&gt; debtype|&lt;rtrans&gt; rtrans|&lt;rectype&gt; rectype|&lt;rmworder&gt; rmworder|&lt;rmtask&gt; rmtask|&lt;rmreqst&gt; rmreqst|&lt;visit&gt; visit|&lt;supplier&gt; supplier|&lt;member&gt; member|&lt;raction&gt; raction}}">
<polygon fill="#ffffff" stroke="#000000" points="71.9932,-896.2118 71.9932,-1248.2118 187.9658,-1248.2118 187.9658,-896.2118 71.9932,-896.2118"/>
<text text-anchor="middle" x="94.3794" y="-1068.0118" font-family="Times,serif" font-size="14.00" fill="#000000">UHT</text>
<polyline fill="none" stroke="#000000" points="116.7656,-896.2118 116.7656,-1248.2118 "/>
<text text-anchor="middle" x="152.3657" y="-1233.0118" font-family="Times,serif" font-size="14.00" fill="#000000">property</text>
<polyline fill="none" stroke="#000000" points="116.7656,-1226.2118 187.9658,-1226.2118 "/>
<text text-anchor="middle" x="152.3657" y="-1211.0118" font-family="Times,serif" font-size="14.00" fill="#000000">tenagree</text>
<polyline fill="none" stroke="#000000" points="116.7656,-1204.2118 187.9658,-1204.2118 "/>
<text text-anchor="middle" x="152.3657" y="-1189.0118" font-family="Times,serif" font-size="14.00" fill="#000000">househ</text>
<polyline fill="none" stroke="#000000" points="116.7656,-1182.2118 187.9658,-1182.2118 "/>
<text text-anchor="middle" x="152.3657" y="-1167.0118" font-family="Times,serif" font-size="14.00" fill="#000000">araction</text>
<polyline fill="none" stroke="#000000" points="116.7656,-1160.2118 187.9658,-1160.2118 "/>
<text text-anchor="middle" x="152.3657" y="-1145.0118" font-family="Times,serif" font-size="14.00" fill="#000000">raaction</text>
<polyline fill="none" stroke="#000000" points="116.7656,-1138.2118 187.9658,-1138.2118 "/>
<text text-anchor="middle" x="152.3657" y="-1123.0118" font-family="Times,serif" font-size="14.00" fill="#000000">debitem</text>
<polyline fill="none" stroke="#000000" points="116.7656,-1116.2118 187.9658,-1116.2118 "/>
<text text-anchor="middle" x="152.3657" y="-1101.0118" font-family="Times,serif" font-size="14.00" fill="#000000">debtype</text>
<polyline fill="none" stroke="#000000" points="116.7656,-1094.2118 187.9658,-1094.2118 "/>
<text text-anchor="middle" x="152.3657" y="-1079.0118" font-family="Times,serif" font-size="14.00" fill="#000000">rtrans</text>
<polyline fill="none" stroke="#000000" points="116.7656,-1072.2118 187.9658,-1072.2118 "/>
<text text-anchor="middle" x="152.3657" y="-1057.0118" font-family="Times,serif" font-size="14.00" fill="#000000">rectype</text>
<polyline fill="none" stroke="#000000" points="116.7656,-1050.2118 187.9658,-1050.2118 "/>
<text text-anchor="middle" x="152.3657" y="-1035.0118" font-family="Times,serif" font-size="14.00" fill="#000000">rmworder</text>
<polyline fill="none" stroke="#000000" points="116.7656,-1028.2118 187.9658,-1028.2118 "/>
<text text-anchor="middle" x="152.3657" y="-1013.0118" font-family="Times,serif" font-size="14.00" fill="#000000">rmtask</text>
<polyline fill="none" stroke="#000000" points="116.7656,-1006.2118 187.9658,-1006.2118 "/>
<text text-anchor="middle" x="152.3657" y="-991.0118" font-family="Times,serif" font-size="14.00" fill="#000000">rmreqst</text>
<polyline fill="none" stroke="#000000" points="116.7656,-984.2118 187.9658,-984.2118 "/>
<text text-anchor="middle" x="152.3657" y="-969.0118" font-family="Times,serif" font-size="14.00" fill="#000000">visit</text>
<polyline fill="none" stroke="#000000" points="116.7656,-962.2118 187.9658,-962.2118 "/>
<text text-anchor="middle" x="152.3657" y="-947.0118" font-family="Times,serif" font-size="14.00" fill="#000000">supplier</text>
<polyline fill="none" stroke="#000000" points="116.7656,-940.2118 187.9658,-940.2118 "/>
<text text-anchor="middle" x="152.3657" y="-925.0118" font-family="Times,serif" font-size="14.00" fill="#000000">member</text>
<polyline fill="none" stroke="#000000" points="116.7656,-918.2118 187.9658,-918.2118 "/>
<text text-anchor="middle" x="152.3657" y="-903.0118" font-family="Times,serif" font-size="14.00" fill="#000000">raction</text>
</a>
</g>
</g>
<!-- income_api&#45;&gt;uht -->
<g id="edge2" class="edge">
<title>income_api&#45;&gt;uht:property</title>
<path fill="none" stroke="#000000" d="M1137.4021,-1886.1771C1131.6323,-1883.2776 1125.9586,-1880.2763 1120.5508,-1877.2118 950.1874,-1780.6706 939.2945,-1703.1779 760.5508,-1623.2118 692.0201,-1592.5527 662.0777,-1620.7752 595.959,-1585.2118 389.1409,-1473.9704 425.1823,-1244.0734 198.2752,-1237.3621"/>
<polygon fill="#000000" stroke="#000000" points="198.0295,-1233.8582 187.9795,-1237.2118 197.9273,-1240.8574 198.0295,-1233.8582"/>
</g>
<!-- income_api&#45;&gt;uht -->
<g id="edge3" class="edge">
<title>income_api&#45;&gt;uht:tenagree</title>
<path fill="none" stroke="#000000" d="M1136.4198,-1886.1892C1130.9633,-1883.3156 1125.6223,-1880.3148 1120.5508,-1877.2118 944.8182,-1769.6928 945.6796,-1675.5976 760.5508,-1585.2118 693.086,-1552.2734 663.1372,-1580.7309 595.959,-1547.2118 389.8406,-1444.3675 420.7829,-1221.8541 198.0814,-1215.3573"/>
<polygon fill="#000000" stroke="#000000" points="198.0289,-1211.8562 187.9795,-1215.2118 197.928,-1218.8555 198.0289,-1211.8562"/>
</g>
<!-- income_api&#45;&gt;uht -->
<g id="edge4" class="edge">
<title>income_api&#45;&gt;uht:househ</title>
<path fill="none" stroke="#000000" d="M1135.2198,-1885.996C1130.1581,-1883.2023 1125.2247,-1880.2694 1120.5508,-1877.2118 938.9136,-1758.3882 952.6287,-1648.292 760.5508,-1547.2118 694.1126,-1512.249 663.7892,-1541.3909 595.959,-1509.2118 391.8778,-1412.3946 416.5216,-1199.7748 198.2189,-1193.3603"/>
<polygon fill="#000000" stroke="#000000" points="198.0292,-1189.8573 187.9795,-1193.2118 197.9277,-1196.8565 198.0292,-1189.8573"/>
</g>
<!-- tenancy_api&#45;&gt;uht -->
<g id="edge7" class="edge">
<title>tenancy_api&#45;&gt;uht:tenagree</title>
<path fill="none" stroke="#000000" d="M680.069,-2018.1451C665.8874,-1888.0999 575.2878,-1226.9779 198.0813,-1215.3667"/>
<polygon fill="#000000" stroke="#000000" points="198.032,-1211.8656 187.9795,-1215.2118 197.9246,-1218.8648 198.032,-1211.8656"/>
</g>
<!-- tenancy_api&#45;&gt;uht -->
<g id="edge8" class="edge">
<title>tenancy_api&#45;&gt;uht:property</title>
<path fill="none" stroke="#000000" d="M679.7511,-2017.8969C664.0061,-1889.3781 567.0889,-1248.9304 198.137,-1237.3703"/>
<polygon fill="#000000" stroke="#000000" points="198.0329,-1233.8684 187.9795,-1237.2118 197.9236,-1240.8675 198.0329,-1233.8684"/>
</g>
<!-- tenancy_api&#45;&gt;uht -->
<g id="edge9" class="edge">
<title>tenancy_api&#45;&gt;uht:member</title>
<path fill="none" stroke="#000000" d="M677.6192,-2018.0192C644.7505,-1863.5757 441.1813,-954.5573 198.1098,-929.7302"/>
<polygon fill="#000000" stroke="#000000" points="198.1453,-926.2276 187.9795,-929.2118 197.7875,-933.2184 198.1453,-926.2276"/>
</g>
<!-- tenancy_api&#45;&gt;uht -->
<g id="edge10" class="edge">
<title>tenancy_api&#45;&gt;uht:raction</title>
<path fill="none" stroke="#000000" d="M677.81,-2018.0877C645.864,-1862.0852 445.4596,-933.114 198.2847,-907.7416"/>
<polygon fill="#000000" stroke="#000000" points="198.146,-904.23 187.9795,-907.2118 197.7866,-911.2207 198.146,-904.23"/>
</g>
<!-- uh_web_services -->
<g id="node19" class="node">
<title>uh_web_services</title>
<g id="a_node19"><a xlink:href="/hackney-data-flows/systems/uh_web_services" xlink:title="{UH Web Services | {&lt;tbc&gt; TBC|&lt;action_diary&gt; Action Diary}}">
<polygon fill="#ffffff" stroke="#000000" points="27.3818,-1267.2118 27.3818,-1311.2118 232.5771,-1311.2118 232.5771,-1267.2118 27.3818,-1267.2118"/>
<text text-anchor="middle" x="85.2397" y="-1285.0118" font-family="Times,serif" font-size="14.00" fill="#000000">UH Web Services</text>
<polyline fill="none" stroke="#000000" points="143.0977,-1267.2118 143.0977,-1311.2118 "/>
<text text-anchor="middle" x="187.8374" y="-1296.0118" font-family="Times,serif" font-size="14.00" fill="#000000">TBC</text>
<polyline fill="none" stroke="#000000" points="143.0977,-1289.2118 232.5771,-1289.2118 "/>
<text text-anchor="middle" x="187.8374" y="-1274.0118" font-family="Times,serif" font-size="14.00" fill="#000000">Action Diary</text>
</a>
</g>
</g>
<!-- tenancy_api&#45;&gt;uh_web_services -->
<g id="edge5" class="edge">
<title>tenancy_api&#45;&gt;uh_web_services:action_diary</title>
<path fill="none" stroke="#000000" d="M674.617,-2017.8193C631.8518,-1894.351 417.7738,-1301.4099 243.1057,-1278.8719"/>
<polygon fill="#000000" stroke="#000000" points="243.186,-1275.3698 232.9795,-1278.2118 242.7306,-1282.355 243.186,-1275.3698"/>
</g>
<!-- crm -->
<g id="node20" class="node">
<title>crm</title>
<g id="a_node20"><a xlink:href="/hackney-data-flows/systems/crm" xlink:title="{CRM | {&lt;contact&gt; Contact|&lt;action_diaries&gt; Action Diaries|&lt;transactions&gt; Transactions|&lt;contacts&gt; Contacts|&lt;notifications&gt; Notifications|&lt;accounts&gt; Accounts}}">
<polygon fill="#ffffff" stroke="#000000" points="57.4019,-745.2118 57.4019,-877.2118 202.5571,-877.2118 202.5571,-745.2118 57.4019,-745.2118"/>
<text text-anchor="middle" x="80.9639" y="-807.0118" font-family="Times,serif" font-size="14.00" fill="#000000">CRM</text>
<polyline fill="none" stroke="#000000" points="104.5259,-745.2118 104.5259,-877.2118 "/>
<text text-anchor="middle" x="153.5415" y="-862.0118" font-family="Times,serif" font-size="14.00" fill="#000000">Contact</text>
<polyline fill="none" stroke="#000000" points="104.5259,-855.2118 202.5571,-855.2118 "/>
<text text-anchor="middle" x="153.5415" y="-840.0118" font-family="Times,serif" font-size="14.00" fill="#000000">Action Diaries</text>
<polyline fill="none" stroke="#000000" points="104.5259,-833.2118 202.5571,-833.2118 "/>
<text text-anchor="middle" x="153.5415" y="-818.0118" font-family="Times,serif" font-size="14.00" fill="#000000">Transactions</text>
<polyline fill="none" stroke="#000000" points="104.5259,-811.2118 202.5571,-811.2118 "/>
<text text-anchor="middle" x="153.5415" y="-796.0118" font-family="Times,serif" font-size="14.00" fill="#000000">Contacts</text>
<polyline fill="none" stroke="#000000" points="104.5259,-789.2118 202.5571,-789.2118 "/>
<text text-anchor="middle" x="153.5415" y="-774.0118" font-family="Times,serif" font-size="14.00" fill="#000000">Notifications</text>
<polyline fill="none" stroke="#000000" points="104.5259,-767.2118 202.5571,-767.2118 "/>
<text text-anchor="middle" x="153.5415" y="-752.0118" font-family="Times,serif" font-size="14.00" fill="#000000">Accounts</text>
</a>
</g>
</g>
<!-- tenancy_api&#45;&gt;crm -->
<g id="edge6" class="edge">
<title>tenancy_api&#45;&gt;crm:contacts</title>
<path fill="none" stroke="#000000" d="M678.8395,-2018.163C652.8054,-1853.9108 479.5143,-826.7696 213.2951,-800.7163"/>
<polygon fill="#000000" stroke="#000000" points="213.1386,-797.2046 202.9795,-800.2118 212.7966,-804.1962 213.1386,-797.2046"/>
</g>
<!-- addresses_api -->
<g id="node3" class="node">
<title>addresses_api</title>
<g id="a_node3"><a xlink:href="/hackney-data-flows/systems/addresses_api" xlink:title="{Addresses API | {&lt;addresses&gt; addresses}}">
<polygon fill="#ffffff" stroke="#000000" points="1131.2046,-2026.2118 1131.2046,-2062.2118 1299.6909,-2062.2118 1299.6909,-2026.2118 1131.2046,-2026.2118"/>
<text text-anchor="middle" x="1180.6235" y="-2040.0118" font-family="Times,serif" font-size="14.00" fill="#000000">Addresses API</text>
<polyline fill="none" stroke="#000000" points="1230.0425,-2026.2118 1230.0425,-2062.2118 "/>
<text text-anchor="middle" x="1264.8667" y="-2040.0118" font-family="Times,serif" font-size="14.00" fill="#000000">addresses</text>
</a>
</g>
</g>
<!-- imanage -->
<g id="node17" class="node">
<title>imanage</title>
<g id="a_node17"><a xlink:href="/hackney-data-flows/systems/imanage" xlink:title="{iManage | {&lt;address&gt; Address|&lt;xref&gt; Xref}}">
<polygon fill="#ffffff" stroke="#000000" points="66.5483,-1503.2118 66.5483,-1547.2118 193.4106,-1547.2118 193.4106,-1503.2118 66.5483,-1503.2118"/>
<text text-anchor="middle" x="99.0381" y="-1521.0118" font-family="Times,serif" font-size="14.00" fill="#000000">iManage</text>
<polyline fill="none" stroke="#000000" points="131.5278,-1503.2118 131.5278,-1547.2118 "/>
<text text-anchor="middle" x="162.4692" y="-1532.0118" font-family="Times,serif" font-size="14.00" fill="#000000">Address</text>
<polyline fill="none" stroke="#000000" points="131.5278,-1525.2118 193.4106,-1525.2118 "/>
<text text-anchor="middle" x="162.4692" y="-1510.0118" font-family="Times,serif" font-size="14.00" fill="#000000">Xref</text>
</a>
</g>
</g>
<!-- addresses_api&#45;&gt;imanage -->
<g id="edge11" class="edge">
<title>addresses_api&#45;&gt;imanage:address</title>
<path fill="none" stroke="#000000" d="M1131.1566,-2040.4851C984.1176,-2032.8364 687.6484,-2011.9891 595.959,-1965.2118 366.0102,-1847.8985 452.2135,-1544.3556 203.1431,-1536.3724"/>
<polygon fill="#000000" stroke="#000000" points="203.0336,-1532.8703 192.9795,-1536.2118 202.9229,-1539.8694 203.0336,-1532.8703"/>
</g>
<!-- addresses_api&#45;&gt;imanage -->
<g id="edge12" class="edge">
<title>addresses_api&#45;&gt;imanage:xref</title>
<path fill="none" stroke="#000000" d="M1131.0104,-2029.6507C967.0462,-2001.1836 619.4863,-1939.8268 595.959,-1927.2118 373.0314,-1807.6821 447.3199,-1522.1592 203.3115,-1514.3743"/>
<polygon fill="#000000" stroke="#000000" points="203.0333,-1510.8696 192.9795,-1514.2118 202.9232,-1517.8687 203.0333,-1510.8696"/>
</g>
<!-- asbestos_api -->
<g id="node4" class="node">
<title>asbestos_api</title>
<g id="a_node4"><a xlink:href="/hackney-data-flows/systems/asbestos_api" xlink:title="Asbestos API">
<polygon fill="#ffffff" stroke="#000000" points="1169.522,-1971.2118 1169.522,-2007.2118 1261.3735,-2007.2118 1261.3735,-1971.2118 1169.522,-1971.2118"/>
<text text-anchor="middle" x="1215.4478" y="-1985.0118" font-family="Times,serif" font-size="14.00" fill="#000000">Asbestos API</text>
</a>
</g>
</g>
<!-- psi_2000 -->
<g id="node18" class="node">
<title>psi_2000</title>
<g id="a_node18"><a xlink:href="/hackney-data-flows/systems/psi_2000" xlink:title="{PSI 2000 | {&lt;inspections&gt; Inspections|&lt;rooms&gt; Rooms|&lt;floors&gt; Floors|&lt;elements&gt; Elements|&lt;documents&gt; Documents|&lt;todos&gt; Todos|&lt;samples&gt; Samples}}">
<polygon fill="#ffffff" stroke="#000000" points="56.2295,-1330.2118 56.2295,-1484.2118 203.7295,-1484.2118 203.7295,-1330.2118 56.2295,-1330.2118"/>
<text text-anchor="middle" x="90.0967" y="-1403.0118" font-family="Times,serif" font-size="14.00" fill="#000000">PSI 2000</text>
<polyline fill="none" stroke="#000000" points="123.9639,-1330.2118 123.9639,-1484.2118 "/>
<text text-anchor="middle" x="163.8467" y="-1469.0118" font-family="Times,serif" font-size="14.00" fill="#000000">Inspections</text>
<polyline fill="none" stroke="#000000" points="123.9639,-1462.2118 203.7295,-1462.2118 "/>
<text text-anchor="middle" x="163.8467" y="-1447.0118" font-family="Times,serif" font-size="14.00" fill="#000000">Rooms</text>
<polyline fill="none" stroke="#000000" points="123.9639,-1440.2118 203.7295,-1440.2118 "/>
<text text-anchor="middle" x="163.8467" y="-1425.0118" font-family="Times,serif" font-size="14.00" fill="#000000">Floors</text>
<polyline fill="none" stroke="#000000" points="123.9639,-1418.2118 203.7295,-1418.2118 "/>
<text text-anchor="middle" x="163.8467" y="-1403.0118" font-family="Times,serif" font-size="14.00" fill="#000000">Elements</text>
<polyline fill="none" stroke="#000000" points="123.9639,-1396.2118 203.7295,-1396.2118 "/>
<text text-anchor="middle" x="163.8467" y="-1381.0118" font-family="Times,serif" font-size="14.00" fill="#000000">Documents</text>
<polyline fill="none" stroke="#000000" points="123.9639,-1374.2118 203.7295,-1374.2118 "/>
<text text-anchor="middle" x="163.8467" y="-1359.0118" font-family="Times,serif" font-size="14.00" fill="#000000">Todos</text>
<polyline fill="none" stroke="#000000" points="123.9639,-1352.2118 203.7295,-1352.2118 "/>
<text text-anchor="middle" x="163.8467" y="-1337.0118" font-family="Times,serif" font-size="14.00" fill="#000000">Samples</text>
</a>
</g>
</g>
<!-- asbestos_api&#45;&gt;psi_2000 -->
<g id="edge13" class="edge">
<title>asbestos_api&#45;&gt;psi_2000:inspections</title>
<path fill="none" stroke="#000000" d="M1169.4089,-1983.6158C1034.4605,-1966.9584 646.1922,-1917.124 595.959,-1889.2118 376.9369,-1767.5118 455.7724,-1481.1813 214.2109,-1473.3747"/>
<polygon fill="#000000" stroke="#000000" points="214.034,-1469.8716 203.9795,-1473.2118 213.9225,-1476.8707 214.034,-1469.8716"/>
</g>
<!-- asbestos_api&#45;&gt;psi_2000 -->
<g id="edge14" class="edge">
<title>asbestos_api&#45;&gt;psi_2000:rooms</title>
<path fill="none" stroke="#000000" d="M1169.4267,-1979.1433C1026.9646,-1947.9521 602.3543,-1854.8023 595.959,-1851.2118 381.8836,-1731.0271 450.9191,-1458.7883 214.0091,-1451.3667"/>
<polygon fill="#000000" stroke="#000000" points="214.0324,-1447.8667 203.9795,-1451.2118 213.9242,-1454.8659 214.0324,-1447.8667"/>
</g>
<!-- asbestos_api&#45;&gt;psi_2000 -->
<g id="edge15" class="edge">
<title>asbestos_api&#45;&gt;psi_2000:floors</title>
<path fill="none" stroke="#000000" d="M1169.0525,-1976.2308C1153.6031,-1971.8498 1136.3167,-1966.8847 1120.5508,-1962.2118 960.0204,-1914.6326 922.2268,-1894.7394 760.5508,-1851.2118 688.056,-1831.6942 661.8083,-1849.2716 595.959,-1813.2118 385.0812,-1697.7329 446.0516,-1436.7394 214.155,-1429.3712"/>
<polygon fill="#000000" stroke="#000000" points="214.0331,-1425.8689 203.9795,-1429.2118 213.9234,-1432.8681 214.0331,-1425.8689"/>
</g>
<!-- asbestos_api&#45;&gt;psi_2000 -->
<g id="edge16" class="edge">
<title>asbestos_api&#45;&gt;psi_2000:elements</title>
<path fill="none" stroke="#000000" d="M1169.2597,-1977.2216C1153.6683,-1972.87 1136.2434,-1967.6714 1120.5508,-1962.2118 957.0031,-1905.3126 925.4775,-1865.9806 760.5508,-1813.2118 689.0454,-1790.3335 662.1879,-1810.5696 595.959,-1775.2118 388.2493,-1664.3213 441.3019,-1414.6654 214.2913,-1407.375"/>
<polygon fill="#000000" stroke="#000000" points="214.0337,-1403.8706 203.9795,-1407.2118 213.9228,-1410.8697 214.0337,-1403.8706"/>
</g>
<!-- asbestos_api&#45;&gt;psi_2000 -->
<g id="edge17" class="edge">
<title>asbestos_api&#45;&gt;psi_2000:documents</title>
<path fill="none" stroke="#000000" d="M1169.4513,-1978.1348C1153.7144,-1973.8185 1136.1513,-1968.4092 1120.5508,-1962.2118 952.99,-1895.6474 929.7324,-1837.5419 760.5508,-1775.2118 690.1035,-1749.2576 662.5753,-1771.8342 595.959,-1737.2118 391.2397,-1630.8134 436.7195,-1392.3317 214.088,-1385.3677"/>
<polygon fill="#000000" stroke="#000000" points="214.0323,-1381.8665 203.9795,-1385.2118 213.9243,-1388.8657 214.0323,-1381.8665"/>
</g>
<!-- asbestos_api&#45;&gt;psi_2000 -->
<g id="edge18" class="edge">
<title>asbestos_api&#45;&gt;psi_2000:todos</title>
<path fill="none" stroke="#000000" d="M1169.1557,-1978.8378C1153.3951,-1974.5779 1135.8927,-1969.0244 1120.5508,-1962.2118 948.1081,-1885.6383 934.8644,-1809.4251 760.5508,-1737.2118 691.1908,-1708.478 662.97,-1733.0638 595.959,-1699.2118 394.2516,-1597.3152 432.2133,-1370.222 214.2142,-1363.3704"/>
<polygon fill="#000000" stroke="#000000" points="214.0326,-1359.8673 203.9795,-1363.2118 213.924,-1366.8664 214.0326,-1359.8673"/>
</g>
<!-- asbestos_api&#45;&gt;psi_2000 -->
<g id="edge19" class="edge">
<title>asbestos_api&#45;&gt;psi_2000:samples</title>
<path fill="none" stroke="#000000" d="M1169.3454,-1979.5951C1153.4349,-1975.373 1135.7902,-1969.6499 1120.5508,-1962.2118 942.4801,-1875.2989 923.9481,-1811.3025 760.5508,-1699.2118 642.0067,-1617.8905 363.9031,-1353.4601 214.099,-1341.6225"/>
<polygon fill="#000000" stroke="#000000" points="214.1132,-1338.1203 203.9795,-1341.2118 213.8293,-1345.1145 214.1132,-1338.1203"/>
</g>
<!-- manage_a_tenancy_api -->
<g id="node5" class="node">
<title>manage_a_tenancy_api</title>
<g id="a_node5"><a xlink:href="/hackney-data-flows/systems/manage_a_tenancy_api" xlink:title="{Manage a Tenancy API | {&lt;tbc&gt; TBC}}">
<polygon fill="#ffffff" stroke="#000000" points="1120.5508,-1831.2118 1120.5508,-1867.2118 1310.3447,-1867.2118 1310.3447,-1831.2118 1120.5508,-1831.2118"/>
<text text-anchor="middle" x="1193.834" y="-1845.0118" font-family="Times,serif" font-size="14.00" fill="#000000">Manage a Tenancy API</text>
<polyline fill="none" stroke="#000000" points="1267.1172,-1831.2118 1267.1172,-1867.2118 "/>
<text text-anchor="middle" x="1288.731" y="-1845.0118" font-family="Times,serif" font-size="14.00" fill="#000000">TBC</text>
</a>
</g>
</g>
<!-- ncc_api -->
<g id="node6" class="node">
<title>ncc_api</title>
<g id="a_node6"><a xlink:href="/hackney-data-flows/systems/ncc_api" xlink:title="{NCC API | {&lt;transactions&gt; transactions|&lt;tbc&gt; TBC}}">
<polygon fill="#ffffff" stroke="#000000" points="1138.9736,-1768.2118 1138.9736,-1812.2118 1291.9219,-1812.2118 1291.9219,-1768.2118 1138.9736,-1768.2118"/>
<text text-anchor="middle" x="1174.0132" y="-1786.0118" font-family="Times,serif" font-size="14.00" fill="#000000">NCC API</text>
<polyline fill="none" stroke="#000000" points="1209.0527,-1768.2118 1209.0527,-1812.2118 "/>
<text text-anchor="middle" x="1250.4873" y="-1797.0118" font-family="Times,serif" font-size="14.00" fill="#000000">transactions</text>
<polyline fill="none" stroke="#000000" points="1209.0527,-1790.2118 1291.9219,-1790.2118 "/>
<text text-anchor="middle" x="1250.4873" y="-1775.0118" font-family="Times,serif" font-size="14.00" fill="#000000">TBC</text>
</a>
</g>
</g>
<!-- ncc_api&#45;&gt;uht -->
<g id="edge23" class="edge">
<title>ncc_api&#45;&gt;uht:araction</title>
<path fill="none" stroke="#000000" d="M1139.8648,-1768.1705C1133.2084,-1765.44 1126.6787,-1762.4541 1120.5508,-1759.2118 941.8672,-1664.67 940.7232,-1572.8844 760.5508,-1481.2118 692.637,-1446.657 665.3065,-1464.7908 595.959,-1433.2118 403.0015,-1345.3443 403.4086,-1176.7555 198.2275,-1171.3453"/>
<polygon fill="#000000" stroke="#000000" points="198.0242,-1167.8424 187.9795,-1171.2118 197.933,-1174.8418 198.0242,-1167.8424"/>
</g>
<!-- ncc_api&#45;&gt;uht -->
<g id="edge24" class="edge">
<title>ncc_api&#45;&gt;uht:raaction</title>
<path fill="none" stroke="#000000" d="M1138.5954,-1768.2496C1132.3435,-1765.5248 1126.2473,-1762.5175 1120.5508,-1759.2118 933.855,-1650.8721 951.8734,-1533.1541 760.5508,-1433.2118 694.0067,-1398.4509 665.5465,-1423.39 595.959,-1395.2118 402.8646,-1317.0219 399.7663,-1154.5559 198.0516,-1149.3405"/>
<polygon fill="#000000" stroke="#000000" points="198.0234,-1145.8399 187.9795,-1149.2118 197.9339,-1152.8394 198.0234,-1145.8399"/>
</g>
<!-- ncc_api&#45;&gt;uht -->
<g id="edge25" class="edge">
<title>ncc_api&#45;&gt;uht:debitem</title>
<path fill="none" stroke="#000000" d="M1138.8832,-1768.8082C1132.5026,-1765.9535 1126.3016,-1762.7641 1120.5508,-1759.2118 926.9692,-1639.6366 959.2513,-1506.0727 760.5508,-1395.2118 694.9886,-1358.6327 665.9513,-1384.3689 595.959,-1357.2118 405.1225,-1283.1671 396.3763,-1132.3266 198.181,-1127.3387"/>
<polygon fill="#000000" stroke="#000000" points="198.0223,-1123.8365 187.9795,-1127.2118 197.9352,-1130.836 198.0223,-1123.8365"/>
</g>
<!-- ncc_api&#45;&gt;uht -->
<g id="edge26" class="edge">
<title>ncc_api&#45;&gt;uht:debtype</title>
<path fill="none" stroke="#000000" d="M1138.6898,-1769.1128C1132.3505,-1766.1931 1126.2118,-1762.9054 1120.5508,-1759.2118 919.6869,-1628.1566 967.0363,-1479.218 760.5508,-1357.2118 695.9146,-1319.0202 666.3542,-1345.307 595.959,-1319.2118 407.1579,-1249.2242 393.1573,-1109.9345 198.019,-1105.3289"/>
<polygon fill="#000000" stroke="#000000" points="198.0197,-1101.8288 187.9795,-1105.2118 197.938,-1108.8283 198.0197,-1101.8288"/>
</g>
<!-- ncc_api&#45;&gt;uht -->
<g id="edge27" class="edge">
<title>ncc_api&#45;&gt;uht:tenagree</title>
<path fill="none" stroke="#000000" d="M1141.3561,-1768.2026C1134.2195,-1765.4311 1127.1775,-1762.4282 1120.5508,-1759.2118 947.5552,-1675.2457 934.8668,-1600.4011 760.5508,-1519.2118 691.4764,-1487.0398 665.4711,-1502.4269 595.959,-1471.2118 403.8264,-1384.9328 402.0516,-1220.6149 198.1613,-1215.3419"/>
<polygon fill="#000000" stroke="#000000" points="198.0234,-1211.8399 187.9795,-1215.2118 197.9339,-1218.8394 198.0234,-1211.8399"/>
</g>
<!-- ncc_api&#45;&gt;uht -->
<g id="edge28" class="edge">
<title>ncc_api&#45;&gt;uht:rtrans</title>
<path fill="none" stroke="#000000" d="M1138.5092,-1769.383C1132.2084,-1766.4056 1126.1281,-1763.0308 1120.5508,-1759.2118 912.0712,-1616.4595 975.9316,-1451.322 760.5508,-1319.2118 696.7205,-1280.0596 666.6637,-1307.8703 595.959,-1283.2118 408.5409,-1217.8494 390.4957,-1087.7553 198.1712,-1083.3278"/>
<polygon fill="#000000" stroke="#000000" points="198.0187,-1079.8259 187.9795,-1083.2118 197.939,-1086.8255 198.0187,-1079.8259"/>
</g>
<!-- ncc_api&#45;&gt;uht -->
<g id="edge29" class="edge">
<title>ncc_api&#45;&gt;uht:rectype</title>
<path fill="none" stroke="#000000" d="M1138.815,-1769.8673C1132.3789,-1766.7807 1126.1871,-1763.2486 1120.5508,-1759.2118 903.752,-1603.9397 973.5568,-1439.6473 760.5508,-1279.2118 545.8088,-1117.4689 462.3996,-1062.6051 198.2592,-1061.2381"/>
<polygon fill="#000000" stroke="#000000" points="197.9885,-1057.7375 187.9795,-1061.2118 197.9705,-1064.7375 197.9885,-1057.7375"/>
</g>
<!-- ncc_api&#45;&gt;uh_web_services -->
<g id="edge20" class="edge">
<title>ncc_api&#45;&gt;uh_web_services:tbc</title>
<path fill="none" stroke="#000000" d="M1144.6078,-1768.1876C1136.4404,-1765.319 1128.2759,-1762.2994 1120.5508,-1759.2118 880.723,-1663.3572 824.619,-1629.2955 595.959,-1509.2118 434.2064,-1424.2654 419.6334,-1304.7434 243.1639,-1300.3373"/>
<polygon fill="#000000" stroke="#000000" points="243.0219,-1296.8354 232.9795,-1300.2118 242.9356,-1303.8348 243.0219,-1296.8354"/>
</g>
<!-- ncc_api&#45;&gt;crm -->
<g id="edge21" class="edge">
<title>ncc_api&#45;&gt;crm:contact</title>
<path fill="none" stroke="#000000" d="M1138.8377,-1770.7074C1132.3234,-1767.4408 1126.1104,-1763.6375 1120.5508,-1759.2118 877.8399,-1566.004 985.0836,-1375.2746 760.5508,-1161.2118 560.1114,-970.119 485.1689,-868.7047 213.1549,-866.2572"/>
<polygon fill="#000000" stroke="#000000" points="212.995,-862.7566 202.9795,-866.2118 212.9638,-869.7565 212.995,-862.7566"/>
</g>
<!-- ncc_api&#45;&gt;crm -->
<g id="edge22" class="edge">
<title>ncc_api&#45;&gt;crm:action_diaries</title>
<path fill="none" stroke="#000000" d="M1138.8481,-1771.5041C1132.2545,-1768.0714 1126.0234,-1764.0119 1120.5508,-1759.2118 841.9789,-1514.8715 1042.9157,-1247.1588 760.5508,-1007.2118 566.4041,-842.2306 463.884,-844.1313 213.1102,-844.2101"/>
<polygon fill="#000000" stroke="#000000" points="212.9788,-840.71 202.9795,-844.2118 212.9801,-847.71 212.9788,-840.71"/>
</g>
<!-- uhw -->
<g id="node21" class="node">
<title>uhw</title>
<g id="a_node21"><a xlink:href="/hackney-data-flows/systems/uhw" xlink:title="{UHW | {&lt;w2objectnote&gt; W2ObjectNote|&lt;usp_starthackneyprocessv2&gt; usp_StartHackneyProcessV2|&lt;ws_addnotetoorder&gt; ws_addNoteToOrder}}">
<polygon fill="#ffffff" stroke="#000000" points="16,-605.2118 16,-671.2118 243.959,-671.2118 243.959,-605.2118 16,-605.2118"/>
<text text-anchor="middle" x="40.7173" y="-634.0118" font-family="Times,serif" font-size="14.00" fill="#000000">UHW</text>
<polyline fill="none" stroke="#000000" points="65.4346,-605.2118 65.4346,-671.2118 "/>
<text text-anchor="middle" x="154.6968" y="-656.0118" font-family="Times,serif" font-size="14.00" fill="#000000">W2ObjectNote</text>
<polyline fill="none" stroke="#000000" points="65.4346,-649.2118 243.959,-649.2118 "/>
<text text-anchor="middle" x="154.6968" y="-634.0118" font-family="Times,serif" font-size="14.00" fill="#000000">usp_StartHackneyProcessV2</text>
<polyline fill="none" stroke="#000000" points="65.4346,-627.2118 243.959,-627.2118 "/>
<text text-anchor="middle" x="154.6968" y="-612.0118" font-family="Times,serif" font-size="14.00" fill="#000000">ws_addNoteToOrder</text>
</a>
</g>
</g>
<!-- ncc_api&#45;&gt;uhw -->
<g id="edge30" class="edge">
<title>ncc_api&#45;&gt;uhw:w2objectnote</title>
<path fill="none" stroke="#000000" d="M1138.5821,-1771.7995C1132.0424,-1768.307 1125.8965,-1764.1528 1120.5508,-1759.2118 814.7573,-1476.5674 1050.405,-1193.1801 760.5508,-894.2118 587.5068,-715.7268 498.4758,-661.6861 254.2265,-660.2418"/>
<polygon fill="#000000" stroke="#000000" points="253.9897,-656.7412 243.9795,-660.2118 253.9692,-663.7411 253.9897,-656.7412"/>
</g>
<!-- rent_account_api -->
<g id="node7" class="node">
<title>rent_account_api</title>
<g id="a_node7"><a xlink:href="/hackney-data-flows/systems/rent_account_api" xlink:title="{Rent Account API | {&lt;tbc&gt; TBC}}">
<polygon fill="#ffffff" stroke="#000000" points="1134.8857,-1713.2118 1134.8857,-1749.2118 1296.0098,-1749.2118 1296.0098,-1713.2118 1134.8857,-1713.2118"/>
<text text-anchor="middle" x="1193.834" y="-1727.0118" font-family="Times,serif" font-size="14.00" fill="#000000">Rent Account API</text>
<polyline fill="none" stroke="#000000" points="1252.7822,-1713.2118 1252.7822,-1749.2118 "/>
<text text-anchor="middle" x="1274.396" y="-1727.0118" font-family="Times,serif" font-size="14.00" fill="#000000">TBC</text>
</a>
</g>
</g>
<!-- rent_account_api&#45;&gt;uht -->
<g id="edge36" class="edge">
<title>rent_account_api&#45;&gt;uht:rtrans</title>
<path fill="none" stroke="#000000" d="M1137.6728,-1713.197C1131.6883,-1710.5864 1125.9018,-1707.608 1120.5508,-1704.2118 914.9612,-1573.7298 967.176,-1420.0477 760.5508,-1291.2118 696.2972,-1251.1482 667.7947,-1271.1544 595.959,-1247.2118 413.8186,-1186.5053 384.4089,-1086.7926 198.1309,-1083.3058"/>
<polygon fill="#000000" stroke="#000000" points="198.0115,-1079.8046 187.9795,-1083.2118 197.9466,-1086.8043 198.0115,-1079.8046"/>
</g>
<!-- rent_account_api&#45;&gt;uht -->
<g id="edge37" class="edge">
<title>rent_account_api&#45;&gt;uht:rectype</title>
<path fill="none" stroke="#000000" d="M1134.6136,-1713.0401C1129.6413,-1710.476 1124.8981,-1707.5503 1120.5508,-1704.2118 872.9962,-1514.1047 1026.4581,-1264.666 760.5508,-1101.2118 654.6493,-1036.1138 332.4618,-1059.9115 198.0918,-1061.162"/>
<polygon fill="#000000" stroke="#000000" points="197.9621,-1057.6625 187.9795,-1061.2118 197.9967,-1064.6624 197.9621,-1057.6625"/>
</g>
<!-- rent_account_api&#45;&gt;crm -->
<g id="edge32" class="edge">
<title>rent_account_api&#45;&gt;crm:transactions</title>
<path fill="none" stroke="#000000" d="M1134.8127,-1714.3929C1129.6701,-1711.5139 1124.8436,-1708.1474 1120.5508,-1704.2118 789.259,-1400.492 1130.6258,-1014.25 760.5508,-759.2118 700.317,-717.7016 668.88,-753.4038 595.959,-759.2118 423.0736,-772.9819 381.4725,-820.3128 213.1891,-822.1564"/>
<polygon fill="#000000" stroke="#000000" points="212.9603,-818.6575 202.9795,-822.2118 212.9984,-825.6574 212.9603,-818.6575"/>
</g>
<!-- rent_account_api&#45;&gt;crm -->
<g id="edge33" class="edge">
<title>rent_account_api&#45;&gt;crm:contacts</title>
<path fill="none" stroke="#000000" d="M1134.776,-1714.4329C1129.6418,-1711.5446 1124.8273,-1708.1651 1120.5508,-1704.2118 783.1859,-1392.3485 1137.7657,-997.4763 760.5508,-735.2118 700.4891,-693.453 668.8653,-729.2231 595.959,-735.2118 422.9687,-749.4219 381.6058,-798.2526 213.197,-800.1547"/>
<polygon fill="#000000" stroke="#000000" points="212.9597,-796.6559 202.9795,-800.2118 212.9989,-803.6557 212.9597,-796.6559"/>
</g>
<!-- rent_account_api&#45;&gt;crm -->
<g id="edge34" class="edge">
<title>rent_account_api&#45;&gt;crm:notifications</title>
<path fill="none" stroke="#000000" d="M1134.7406,-1714.471C1129.6147,-1711.5739 1124.8117,-1708.182 1120.5508,-1704.2118 777.0963,-1384.1898 1144.9241,-980.7155 760.5508,-711.2118 700.6548,-669.2157 668.8503,-705.0426 595.959,-711.2118 422.8605,-725.8621 381.7431,-776.1925 213.2052,-778.1529"/>
<polygon fill="#000000" stroke="#000000" points="212.9591,-774.6542 202.9795,-778.2118 212.9995,-781.6541 212.9591,-774.6542"/>
</g>
<!-- rent_account_api&#45;&gt;crm -->
<g id="edge35" class="edge">
<title>rent_account_api&#45;&gt;crm:accounts</title>
<path fill="none" stroke="#000000" d="M1134.7052,-1714.5089C1129.5874,-1711.603 1124.796,-1708.1988 1120.5508,-1704.2118 770.7365,-1375.6758 1152.3992,-963.2693 760.5508,-686.2118 700.821,-643.9797 668.8269,-679.7727 595.959,-686.2118 422.6924,-701.523 381.9566,-754.1023 213.2179,-756.1503"/>
<polygon fill="#000000" stroke="#000000" points="212.9582,-752.6517 202.9795,-756.2118 213.0004,-759.6516 212.9582,-752.6517"/>
</g>
<!-- hackney_housing_api -->
<g id="node22" class="node">
<title>hackney_housing_api</title>
<g id="a_node22"><a xlink:href="/hackney-data-flows/systems/hackney_housing_api" xlink:title="{Hackney Housing API | {&lt;tbc&gt; TBC}}">
<polygon fill="#ffffff" stroke="#000000" points="37.3691,-690.2118 37.3691,-726.2118 222.5898,-726.2118 222.5898,-690.2118 37.3691,-690.2118"/>
<text text-anchor="middle" x="108.3657" y="-704.0118" font-family="Times,serif" font-size="14.00" fill="#000000">Hackney Housing API</text>
<polyline fill="none" stroke="#000000" points="179.3623,-690.2118 179.3623,-726.2118 "/>
<text text-anchor="middle" x="200.9761" y="-704.0118" font-family="Times,serif" font-size="14.00" fill="#000000">TBC</text>
</a>
</g>
</g>
<!-- rent_account_api&#45;&gt;hackney_housing_api -->
<g id="edge31" class="edge">
<title>rent_account_api&#45;&gt;hackney_housing_api:tbc</title>
<path fill="none" stroke="#000000" d="M1134.6711,-1714.545C1129.5613,-1711.6307 1124.7809,-1708.2148 1120.5508,-1704.2118 764.361,-1367.1471 1159.8917,-945.8354 760.5508,-661.2118 700.9809,-618.7544 668.9673,-656.63 595.959,-661.2118 432.6271,-671.4622 391.7185,-706.7243 233.0996,-708.1663"/>
<polygon fill="#000000" stroke="#000000" points="232.9636,-704.6668 222.9795,-708.2118 232.9952,-711.6667 232.9636,-704.6668"/>
</g>
<!-- service_charge_api -->
<g id="node8" class="node">
<title>service_charge_api</title>
<g id="a_node8"><a xlink:href="/hackney-data-flows/systems/service_charge_api" xlink:title="Service Charge API">
<polygon fill="#ffffff" stroke="#000000" points="1151.9707,-1658.2118 1151.9707,-1694.2118 1278.9248,-1694.2118 1278.9248,-1658.2118 1151.9707,-1658.2118"/>
<text text-anchor="middle" x="1215.4478" y="-1672.0118" font-family="Times,serif" font-size="14.00" fill="#000000">Service Charge API</text>
</a>
</g>
</g>
<!-- hackney_api -->
<g id="node9" class="node">
<title>hackney_api</title>
<g id="a_node9"><a xlink:href="/hackney-data-flows/systems/hackney_api" xlink:title="{Hackney API | {&lt;crmlookups&gt; CRMLookups}}">
<polygon fill="#ffffff" stroke="#000000" points="1121.8633,-1603.2118 1121.8633,-1639.2118 1309.0322,-1639.2118 1309.0322,-1603.2118 1121.8633,-1603.2118"/>
<text text-anchor="middle" x="1167.3857" y="-1617.0118" font-family="Times,serif" font-size="14.00" fill="#000000">Hackney API</text>
<polyline fill="none" stroke="#000000" points="1212.9082,-1603.2118 1212.9082,-1639.2118 "/>
<text text-anchor="middle" x="1260.9702" y="-1617.0118" font-family="Times,serif" font-size="14.00" fill="#000000">CRMLookups</text>
</a>
</g>
</g>
<!-- property_api -->
<g id="node10" class="node">
<title>property_api</title>
<g id="a_node10"><a xlink:href="/hackney-data-flows/systems/property_api" xlink:title="Property API">
<polygon fill="#ffffff" stroke="#000000" points="1170.6943,-1548.2118 1170.6943,-1584.2118 1260.2012,-1584.2118 1260.2012,-1548.2118 1170.6943,-1548.2118"/>
<text text-anchor="middle" x="1215.4478" y="-1562.0118" font-family="Times,serif" font-size="14.00" fill="#000000">Property API</text>
</a>
</g>
</g>
<!-- property_api&#45;&gt;uht -->
<g id="edge38" class="edge">
<title>property_api&#45;&gt;uht:property</title>
<path fill="none" stroke="#000000" d="M1170.6154,-1557.3175C1154.3163,-1553.098 1136.094,-1547.1909 1120.5508,-1539.2118 938.7592,-1445.8894 952.5329,-1323.2126 760.5508,-1253.2118 524.6481,-1167.1967 444.7403,-1235.2944 198.3234,-1237.1725"/>
<polygon fill="#000000" stroke="#000000" points="197.9661,-1233.6737 187.9795,-1237.2118 197.9928,-1240.6737 197.9661,-1233.6737"/>
</g>
<!-- repairs_api -->
<g id="node11" class="node">
<title>repairs_api</title>
<g id="a_node11"><a xlink:href="/hackney-data-flows/systems/repairs_api" xlink:title="{Repairs API | {&lt;repair&gt; repair}}">
<polygon fill="#ffffff" stroke="#000000" points="1149.0977,-1493.2118 1149.0977,-1529.2118 1281.7979,-1529.2118 1281.7979,-1493.2118 1149.0977,-1493.2118"/>
<text text-anchor="middle" x="1191.127" y="-1507.0118" font-family="Times,serif" font-size="14.00" fill="#000000">Repairs API</text>
<polyline fill="none" stroke="#000000" points="1233.1563,-1493.2118 1233.1563,-1529.2118 "/>
<text text-anchor="middle" x="1257.4771" y="-1507.0118" font-family="Times,serif" font-size="14.00" fill="#000000">repair</text>
</a>
</g>
</g>
<!-- repairs_api&#45;&gt;uht -->
<g id="edge50" class="edge">
<title>repairs_api&#45;&gt;uht:rmworder</title>
<path fill="none" stroke="#000000" d="M1148.9591,-1497.7231C1139.0106,-1494.1909 1129.2019,-1489.7602 1120.5508,-1484.2118 913.3172,-1351.3028 981.9526,-1170.877 760.5508,-1063.2118 648.9324,-1008.9331 331.983,-1037.6588 198.0664,-1039.1525"/>
<polygon fill="#000000" stroke="#000000" points="197.9587,-1035.653 187.9795,-1039.2118 197.9999,-1042.6528 197.9587,-1035.653"/>
</g>
<!-- repairs_api&#45;&gt;uht -->
<g id="edge51" class="edge">
<title>repairs_api&#45;&gt;uht:rmtask</title>
<path fill="none" stroke="#000000" d="M1148.7651,-1498.0191C1138.8417,-1494.4487 1129.0916,-1489.9285 1120.5508,-1484.2118 905.9699,-1340.5844 991.8244,-1143.0433 760.5508,-1028.2118 649.4604,-973.0535 331.926,-1014.9623 198.061,-1017.1261"/>
<polygon fill="#000000" stroke="#000000" points="197.9493,-1013.6268 187.9795,-1017.2118 198.0089,-1020.6265 197.9493,-1013.6268"/>
</g>
<!-- repairs_api&#45;&gt;uht -->
<g id="edge52" class="edge">
<title>repairs_api&#45;&gt;uht:rmreqst</title>
<path fill="none" stroke="#000000" d="M1149.094,-1498.4426C1139.0205,-1494.8141 1129.1377,-1490.165 1120.5508,-1484.2118 899.0549,-1330.6529 1001.0313,-1117.9078 760.5508,-996.2118 536.5968,-882.8792 444.9707,-992.14 198.3261,-995.1488"/>
<polygon fill="#000000" stroke="#000000" points="197.958,-991.6509 187.9795,-995.2118 198.0007,-998.6508 197.958,-991.6509"/>
</g>
<!-- repairs_api&#45;&gt;uht -->
<g id="edge53" class="edge">
<title>repairs_api&#45;&gt;uht:visit</title>
<path fill="none" stroke="#000000" d="M1148.8341,-1498.8078C1138.793,-1495.1337 1128.9884,-1490.3748 1120.5508,-1484.2118 887.0264,-1313.6428 1015.4007,-1078.883 760.5508,-942.2118 696.0841,-907.6396 669.0583,-939.4386 595.959,-942.2118 417.7032,-948.9744 371.5678,-972.3 198.2206,-973.1859"/>
<polygon fill="#000000" stroke="#000000" points="197.9706,-969.6864 187.9795,-973.2118 197.9884,-976.6864 197.9706,-969.6864"/>
</g>
<!-- repairs_api&#45;&gt;uht -->
<g id="edge54" class="edge">
<title>repairs_api&#45;&gt;uht:supplier</title>
<path fill="none" stroke="#000000" d="M1148.7447,-1498.9292C1138.7148,-1495.2399 1128.937,-1490.4445 1120.5508,-1484.2118 882.4729,-1307.2716 1020.7907,-1064.564 760.5508,-922.2118 696.3729,-887.1063 669.0649,-919.6169 595.959,-922.2118 417.7512,-928.5375 371.5069,-950.3588 198.2171,-951.1876"/>
<polygon fill="#000000" stroke="#000000" points="197.9711,-947.688 187.9795,-951.2118 197.9878,-954.688 197.9711,-947.688"/>
</g>
<!-- repairs_api&#45;&gt;crm -->
<g id="edge59" class="edge">
<title>repairs_api&#45;&gt;crm:contacts</title>
<path fill="none" stroke="#000000" d="M1148.6845,-1500.5728C1138.4311,-1496.6886 1128.5977,-1491.4021 1120.5508,-1484.2118 806.3653,-1203.4732 1110.5086,-841.8525 760.5508,-607.2118 604.367,-502.4934 306.5977,-777.814 213.1028,-798.9376"/>
<polygon fill="#000000" stroke="#000000" points="212.4641,-795.4903 202.9795,-800.2118 213.3383,-802.4355 212.4641,-795.4903"/>
</g>
<!-- repairs_api&#45;&gt;uhw -->
<g id="edge55" class="edge">
<title>repairs_api&#45;&gt;uhw:usp_starthackneyprocessv2</title>
<path fill="none" stroke="#000000" d="M1148.8418,-1501.1177C1138.4493,-1497.1768 1128.5291,-1491.7301 1120.5508,-1484.2118 767.9332,-1151.9249 1155.6938,-735.5969 760.5508,-455.2118 608.9371,-347.63 314.8223,-600.4259 253.4158,-634.4748"/>
<polygon fill="#000000" stroke="#000000" points="251.9882,-631.2756 243.9795,-638.2118 254.5657,-637.7838 251.9882,-631.2756"/>
</g>
<!-- repairs_api&#45;&gt;uhw -->
<g id="edge56" class="edge">
<title>repairs_api&#45;&gt;uhw:w2objectnote</title>
<path fill="none" stroke="#000000" d="M1148.9171,-1501.0374C1138.5162,-1497.1054 1128.5737,-1491.6825 1120.5508,-1484.2118 777.6043,-1164.8702 1144.3269,-762.1118 760.5508,-493.2118 617.2561,-392.8097 317.394,-626.4358 253.6612,-656.9687"/>
<polygon fill="#000000" stroke="#000000" points="252.3499,-653.7167 243.9795,-660.2118 254.5734,-660.3543 252.3499,-653.7167"/>
</g>
<!-- repairs_api&#45;&gt;uhw -->
<g id="edge57" class="edge">
<title>repairs_api&#45;&gt;uhw:ws_addnotetoorder</title>
<path fill="none" stroke="#000000" d="M1148.7837,-1501.1791C1138.3976,-1497.2314 1128.4946,-1491.7665 1120.5508,-1484.2118 760.0173,-1141.3397 1164.9961,-713.987 760.5508,-424.2118 604.8743,-312.6734 314.8618,-576.7448 253.4774,-612.3087"/>
<polygon fill="#000000" stroke="#000000" points="251.8985,-609.1734 243.9795,-616.2118 254.5593,-615.648 251.8985,-609.1734"/>
</g>
<!-- drs -->
<g id="node23" class="node">
<title>drs</title>
<g id="a_node23"><a xlink:href="/hackney-data-flows/systems/drs" xlink:title="{DRS | {&lt;s_job&gt; s_job|&lt;p_job&gt; p_job}}">
<polygon fill="#ffffff" stroke="#000000" points="84.4175,-542.2118 84.4175,-586.2118 175.5415,-586.2118 175.5415,-542.2118 84.4175,-542.2118"/>
<text text-anchor="middle" x="106.0347" y="-560.0118" font-family="Times,serif" font-size="14.00" fill="#000000">DRS</text>
<polyline fill="none" stroke="#000000" points="127.6519,-542.2118 127.6519,-586.2118 "/>
<text text-anchor="middle" x="151.5967" y="-571.0118" font-family="Times,serif" font-size="14.00" fill="#000000">s_job</text>
<polyline fill="none" stroke="#000000" points="127.6519,-564.2118 175.5415,-564.2118 "/>
<text text-anchor="middle" x="151.5967" y="-549.0118" font-family="Times,serif" font-size="14.00" fill="#000000">p_job</text>
</a>
</g>
</g>
<!-- repairs_api&#45;&gt;drs -->
<g id="edge39" class="edge">
<title>repairs_api&#45;&gt;drs:s_job</title>
<path fill="none" stroke="#000000" d="M1148.7265,-1501.239C1138.3468,-1497.2846 1128.4607,-1491.802 1120.5508,-1484.2118 751.8237,-1130.3916 1174.6237,-691.6982 760.5508,-392.2118 701.2775,-349.3413 667.5722,-377.2873 595.959,-392.2118 400.0402,-433.0423 380.2232,-570.406 186.2567,-575.0891"/>
<polygon fill="#000000" stroke="#000000" points="185.9369,-571.5926 175.9795,-575.2118 186.0206,-578.5921 185.9369,-571.5926"/>
</g>
<!-- repairs_api&#45;&gt;drs -->
<g id="edge40" class="edge">
<title>repairs_api&#45;&gt;drs:p_job</title>
<path fill="none" stroke="#000000" d="M1148.6803,-1501.2869C1138.3058,-1497.3272 1128.4334,-1491.8304 1120.5508,-1484.2118 744.8939,-1121.1383 1182.7654,-672.9053 760.5508,-365.2118 542.791,-206.5171 451.2282,-544.4393 186.2864,-553.045"/>
<polygon fill="#000000" stroke="#000000" points="185.9215,-549.5503 175.9795,-553.2118 186.0349,-556.5494 185.9215,-549.5503"/>
</g>
<!-- mobile_reports -->
<g id="node24" class="node">
<title>mobile_reports</title>
<g id="a_node24"><a xlink:href="/hackney-data-flows/systems/mobile_reports" xlink:title="{Mobile Reports | {&lt;processed&gt; Processed|&lt;unprocessed&gt; Unprocessed}}">
<polygon fill="#ffffff" stroke="#000000" points="34.0776,-479.2118 34.0776,-523.2118 225.8813,-523.2118 225.8813,-479.2118 34.0776,-479.2118"/>
<text text-anchor="middle" x="85.8242" y="-497.0118" font-family="Times,serif" font-size="14.00" fill="#000000">Mobile Reports</text>
<polyline fill="none" stroke="#000000" points="137.5708,-479.2118 137.5708,-523.2118 "/>
<text text-anchor="middle" x="181.7261" y="-508.0118" font-family="Times,serif" font-size="14.00" fill="#000000">Processed</text>
<polyline fill="none" stroke="#000000" points="137.5708,-501.2118 225.8813,-501.2118 "/>
<text text-anchor="middle" x="181.7261" y="-486.0118" font-family="Times,serif" font-size="14.00" fill="#000000">Unprocessed</text>
</a>
</g>
</g>
<!-- repairs_api&#45;&gt;mobile_reports -->
<g id="edge41" class="edge">
<title>repairs_api&#45;&gt;mobile_reports:processed</title>
<path fill="none" stroke="#000000" d="M1149.0906,-1501.55C1138.5465,-1497.5687 1128.5108,-1491.9965 1120.5508,-1484.2118 732.7982,-1104.9992 1196.9748,-640.2186 760.5508,-318.2118 610.5438,-207.5322 323.6997,-488.1247 235.9022,-510.7714"/>
<polygon fill="#000000" stroke="#000000" points="235.3729,-507.3115 225.9795,-512.2118 236.3786,-514.2389 235.3729,-507.3115"/>
</g>
<!-- repairs_api&#45;&gt;mobile_reports -->
<g id="edge42" class="edge">
<title>repairs_api&#45;&gt;mobile_reports:unprocessed</title>
<path fill="none" stroke="#000000" d="M1149.0444,-1501.597C1138.5052,-1497.6107 1128.4832,-1492.0247 1120.5508,-1484.2118 725.0576,-1094.6782 1206.0671,-619.3712 760.5508,-288.2118 607.0587,-174.1187 324.6058,-465.2235 236.0278,-488.7176"/>
<polygon fill="#000000" stroke="#000000" points="235.3559,-485.2789 225.9795,-490.2118 236.3856,-492.2028 235.3559,-485.2789"/>
</g>
<!-- uh_warehouse -->
<g id="node25" class="node">
<title>uh_warehouse</title>
<g id="a_node25"><a xlink:href="/hackney-data-flows/systems/uh_warehouse" xlink:title="{UH Warehouse | {&lt;property&gt; property|&lt;lulevel&gt; lulevel|&lt;rmreqst&gt; rmreqst|&lt;rmworder&gt; rmworder|&lt;rmtask&gt; rmtask|&lt;rmtrade&gt; rmtrade|&lt;w2objectnote&gt; W2ObjectNote}}">
<polygon fill="#ffffff" stroke="#000000" points="28.9438,-306.2118 28.9438,-460.2118 231.0151,-460.2118 231.0151,-306.2118 28.9438,-306.2118"/>
<text text-anchor="middle" x="79.6069" y="-379.0118" font-family="Times,serif" font-size="14.00" fill="#000000">UH Warehouse</text>
<polyline fill="none" stroke="#000000" points="130.27,-306.2118 130.27,-460.2118 "/>
<text text-anchor="middle" x="180.6426" y="-445.0118" font-family="Times,serif" font-size="14.00" fill="#000000">property</text>
<polyline fill="none" stroke="#000000" points="130.27,-438.2118 231.0151,-438.2118 "/>
<text text-anchor="middle" x="180.6426" y="-423.0118" font-family="Times,serif" font-size="14.00" fill="#000000">lulevel</text>
<polyline fill="none" stroke="#000000" points="130.27,-416.2118 231.0151,-416.2118 "/>
<text text-anchor="middle" x="180.6426" y="-401.0118" font-family="Times,serif" font-size="14.00" fill="#000000">rmreqst</text>
<polyline fill="none" stroke="#000000" points="130.27,-394.2118 231.0151,-394.2118 "/>
<text text-anchor="middle" x="180.6426" y="-379.0118" font-family="Times,serif" font-size="14.00" fill="#000000">rmworder</text>
<polyline fill="none" stroke="#000000" points="130.27,-372.2118 231.0151,-372.2118 "/>
<text text-anchor="middle" x="180.6426" y="-357.0118" font-family="Times,serif" font-size="14.00" fill="#000000">rmtask</text>
<polyline fill="none" stroke="#000000" points="130.27,-350.2118 231.0151,-350.2118 "/>
<text text-anchor="middle" x="180.6426" y="-335.0118" font-family="Times,serif" font-size="14.00" fill="#000000">rmtrade</text>
<polyline fill="none" stroke="#000000" points="130.27,-328.2118 231.0151,-328.2118 "/>
<text text-anchor="middle" x="180.6426" y="-313.0118" font-family="Times,serif" font-size="14.00" fill="#000000">W2ObjectNote</text>
</a>
</g>
</g>
<!-- repairs_api&#45;&gt;uh_warehouse -->
<g id="edge43" class="edge">
<title>repairs_api&#45;&gt;uh_warehouse:property</title>
<path fill="none" stroke="#000000" d="M1148.9988,-1501.6433C1138.4644,-1497.652 1128.4558,-1492.0523 1120.5508,-1484.2118 717.0441,-1083.9984 1215.4792,-597.8415 760.5508,-257.2118 612.4346,-146.3092 326.647,-424.1113 241.0527,-447.6379"/>
<polygon fill="#000000" stroke="#000000" points="240.3193,-444.2099 230.9795,-449.2118 241.4,-451.126 240.3193,-444.2099"/>
</g>
<!-- repairs_api&#45;&gt;uh_warehouse -->
<g id="edge44" class="edge">
<title>repairs_api&#45;&gt;uh_warehouse:lulevel</title>
<path fill="none" stroke="#000000" d="M1148.955,-1501.6872C1138.4253,-1497.6913 1128.4296,-1492.0787 1120.5508,-1484.2118 709.0164,-1073.3047 1224.9073,-576.3237 760.5508,-226.2118 608.1695,-111.3206 326.6777,-401.637 240.8878,-425.6453"/>
<polygon fill="#000000" stroke="#000000" points="240.3102,-422.1931 230.9795,-427.2118 241.4034,-429.1072 240.3102,-422.1931"/>
</g>
<!-- repairs_api&#45;&gt;uh_warehouse -->
<g id="edge45" class="edge">
<title>repairs_api&#45;&gt;uh_warehouse:rmreqst</title>
<path fill="none" stroke="#000000" d="M1148.9131,-1501.7291C1138.3879,-1497.7287 1128.4045,-1492.1037 1120.5508,-1484.2118 700.9756,-1062.5978 1234.3501,-554.817 760.5508,-195.2118 604.2466,-76.5798 328.0292,-378.607 241.0739,-403.5823"/>
<polygon fill="#000000" stroke="#000000" points="240.2939,-400.1628 230.9795,-405.2118 241.4095,-407.0733 240.2939,-400.1628"/>
</g>
<!-- repairs_api&#45;&gt;uh_warehouse -->
<g id="edge46" class="edge">
<title>repairs_api&#45;&gt;uh_warehouse:rmworder</title>
<path fill="none" stroke="#000000" d="M1148.8716,-1501.7702C1138.3508,-1497.7654 1128.3797,-1492.1284 1120.5508,-1484.2118 692.6627,-1051.5327 1244.1121,-532.6275 760.5508,-163.2118 599.8627,-40.4545 329.6279,-356.1172 241.0888,-381.5916"/>
<polygon fill="#000000" stroke="#000000" points="240.2996,-378.1734 230.9795,-383.2118 241.4074,-385.0851 240.2996,-378.1734"/>
</g>
<!-- repairs_api&#45;&gt;uh_warehouse -->
<g id="edge47" class="edge">
<title>repairs_api&#45;&gt;uh_warehouse:rmtask</title>
<path fill="none" stroke="#000000" d="M1148.8306,-1501.8106C1138.3142,-1497.8016 1128.3551,-1492.1526 1120.5508,-1484.2118 684.0772,-1040.109 1254.1934,-509.7556 760.5508,-130.2118 595.0673,-2.9776 331.7708,-334.2595 240.9406,-359.6785"/>
<polygon fill="#000000" stroke="#000000" points="240.3305,-356.231 230.9795,-361.2118 241.3956,-363.1496 240.3305,-356.231"/>
</g>
<!-- repairs_api&#45;&gt;uh_warehouse -->
<g id="edge48" class="edge">
<title>repairs_api&#45;&gt;uh_warehouse:rmtrade</title>
<path fill="none" stroke="#000000" d="M1148.7913,-1501.8491C1138.2791,-1497.836 1128.3316,-1492.1756 1120.5508,-1484.2118 675.4798,-1028.673 1264.2883,-486.8941 760.5508,-97.2118 590.6874,34.1914 335.5397,-311.8316 241.161,-337.6939"/>
<polygon fill="#000000" stroke="#000000" points="240.3541,-334.2755 230.9795,-339.2118 241.3863,-341.1989 240.3541,-334.2755"/>
</g>
<!-- repairs_api&#45;&gt;uh_warehouse -->
<g id="edge49" class="edge">
<title>repairs_api&#45;&gt;uh_warehouse:w2objectnote</title>
<path fill="none" stroke="#000000" d="M1148.7525,-1501.8869C1138.2444,-1497.8697 1128.3084,-1492.1983 1120.5508,-1484.2118 666.6102,-1016.8786 1274.7023,-463.35 760.5508,-63.2118 585.786,72.7988 339.7458,-290.8477 240.9099,-315.8652"/>
<polygon fill="#000000" stroke="#000000" points="240.4185,-312.3997 230.9795,-317.2118 241.3591,-319.3363 240.4185,-312.3997"/>
</g>
<!-- base_data_service -->
<g id="node26" class="node">
<title>base_data_service</title>
<g id="a_node26"><a xlink:href="/hackney-data-flows/systems/base_data_service" xlink:title="{Base Data Service | {&lt;tbc&gt; TBC}}">
<polygon fill="#ffffff" stroke="#000000" points="49.0552,-251.2118 49.0552,-287.2118 210.9038,-287.2118 210.9038,-251.2118 49.0552,-251.2118"/>
<text text-anchor="middle" x="108.3657" y="-265.0118" font-family="Times,serif" font-size="14.00" fill="#000000">Base Data Service</text>
<polyline fill="none" stroke="#000000" points="167.6763,-251.2118 167.6763,-287.2118 "/>
<text text-anchor="middle" x="189.29" y="-265.0118" font-family="Times,serif" font-size="14.00" fill="#000000">TBC</text>
</a>
</g>
</g>
<!-- repairs_api&#45;&gt;base_data_service -->
<g id="edge58" class="edge">
<title>repairs_api&#45;&gt;base_data_service:tbc</title>
<path fill="none" stroke="#000000" d="M1148.7142,-1501.924C1138.2102,-1497.9029 1128.2854,-1492.2205 1120.5508,-1484.2118 657.4681,-1004.7254 1285.4357,-439.1237 760.5508,-28.2118 598.2348,98.859 351.6743,-249.9694 221.3111,-268.453"/>
<polygon fill="#000000" stroke="#000000" points="220.6962,-264.9886 210.9795,-269.2118 221.209,-271.9698 220.6962,-264.9886"/>
</g>
<!-- leasehold_api -->
<g id="node12" class="node">
<title>leasehold_api</title>
<g id="a_node12"><a xlink:href="/hackney-data-flows/systems/leasehold_api" xlink:title="Leasehold API">
<polygon fill="#ffffff" stroke="#000000" points="1166.0356,-1438.2118 1166.0356,-1474.2118 1264.8599,-1474.2118 1264.8599,-1438.2118 1166.0356,-1438.2118"/>
<text text-anchor="middle" x="1215.4478" y="-1452.0118" font-family="Times,serif" font-size="14.00" fill="#000000">Leasehold API</text>
</a>
</g>
</g>
<!-- asset_storage_api -->
<g id="node13" class="node">
<title>asset_storage_api</title>
<g id="a_node13"><a xlink:href="/hackney-data-flows/systems/asset_storage_api" xlink:title="Asset Storage API">
<polygon fill="#ffffff" stroke="#000000" points="1156.1133,-1383.2118 1156.1133,-1419.2118 1274.7822,-1419.2118 1274.7822,-1383.2118 1156.1133,-1383.2118"/>
<text text-anchor="middle" x="1215.4478" y="-1397.0118" font-family="Times,serif" font-size="14.00" fill="#000000">Asset Storage API</text>
</a>
</g>
</g>
<!-- directory_of_services_api -->
<g id="node14" class="node">
<title>directory_of_services_api</title>
<g id="a_node14"><a xlink:href="/hackney-data-flows/systems/directory_of_services_api" xlink:title="Directory of Services API">
<polygon fill="#ffffff" stroke="#000000" points="1134.9355,-1328.2118 1134.9355,-1364.2118 1295.96,-1364.2118 1295.96,-1328.2118 1134.9355,-1328.2118"/>
<text text-anchor="middle" x="1215.4478" y="-1342.0118" font-family="Times,serif" font-size="14.00" fill="#000000">Directory of Services API</text>
</a>
</g>
</g>
<!-- transactions_api -->
<g id="node15" class="node">
<title>transactions_api</title>
<g id="a_node15"><a xlink:href="/hackney-data-flows/systems/transactions_api" xlink:title="Transactions API">
<polygon fill="#ffffff" stroke="#000000" points="1159.2783,-1273.2118 1159.2783,-1309.2118 1271.6172,-1309.2118 1271.6172,-1273.2118 1159.2783,-1273.2118"/>
<text text-anchor="middle" x="1215.4478" y="-1287.0118" font-family="Times,serif" font-size="14.00" fill="#000000">Transactions API</text>
</a>
</g>
</g>
<!-- transactions_api&#45;&gt;uht -->
<g id="edge60" class="edge">
<title>transactions_api&#45;&gt;uht:rtrans</title>
<path fill="none" stroke="#000000" d="M1164.0706,-1273.2075C1016.4421,-1223.1223 577.3041,-1085.6565 198.0536,-1083.244"/>
<polygon fill="#000000" stroke="#000000" points="197.9907,-1079.7439 187.9795,-1083.2118 197.9682,-1086.7438 197.9907,-1079.7439"/>
</g>
<!-- transactions_api&#45;&gt;uht -->
<g id="edge61" class="edge">
<title>transactions_api&#45;&gt;uht:debtype</title>
<path fill="none" stroke="#000000" d="M1159.1754,-1278.2803C976.8141,-1236.8 402.1428,-1109.5333 197.998,-1105.3191"/>
<polygon fill="#000000" stroke="#000000" points="198.0164,-1101.8191 187.9795,-1105.2118 197.9414,-1108.8187 198.0164,-1101.8191"/>
</g>
<!-- transactions_api&#45;&gt;uht -->
<g id="edge62" class="edge">
<title>transactions_api&#45;&gt;uht:rectype</title>
<path fill="none" stroke="#000000" d="M1203.4024,-1272.8852C1156.7198,-1203.7677 979.4073,-958.4955 760.5508,-873.2118 514.1552,-777.1968 457.254,-1054.0308 198.0785,-1061.0753"/>
<polygon fill="#000000" stroke="#000000" points="197.9312,-1057.5769 187.9795,-1061.2118 198.0259,-1064.5762 197.9312,-1057.5769"/>
</g>
<!-- submit_my_planning_application -->
<g id="node27" class="node">
<title>submit_my_planning_application</title>
<g id="a_node27"><a xlink:href="/hackney-data-flows/systems/submit_my_planning_application" xlink:title="Submit My Planning Application">
<polygon fill="#ffffff" stroke="#000000" points="1670.3447,-1948.2118 1670.3447,-1984.2118 1871.8584,-1984.2118 1871.8584,-1948.2118 1670.3447,-1948.2118"/>
<text text-anchor="middle" x="1771.1016" y="-1962.0118" font-family="Times,serif" font-size="14.00" fill="#000000">Submit My Planning Application</text>
</a>
</g>
</g>
<!-- submit_my_planning_application&#45;&gt;addresses_api -->
<g id="edge63" class="edge">
<title>submit_my_planning_application&#45;&gt;addresses_api:addresses</title>
<path fill="none" stroke="#000000" d="M1704.5043,-1984.3027C1615.8029,-2006.8046 1453.3613,-2042.4913 1309.7537,-2044.1517"/>
<polygon fill="#000000" stroke="#000000" points="1309.4271,-2040.6535 1299.4478,-2044.2118 1309.468,-2047.6534 1309.4271,-2040.6535"/>
</g>
<!-- manage_a_tenancy_service -->
<g id="node28" class="node">
<title>manage_a_tenancy_service</title>
<g id="a_node28"><a xlink:href="/hackney-data-flows/systems/manage_a_tenancy_service" xlink:title="Manage a Tenancy Service">
<polygon fill="#ffffff" stroke="#000000" points="1687.7251,-1838.2118 1687.7251,-1874.2118 1854.478,-1874.2118 1854.478,-1838.2118 1687.7251,-1838.2118"/>
<text text-anchor="middle" x="1771.1016" y="-1852.0118" font-family="Times,serif" font-size="14.00" fill="#000000">Manage a Tenancy Service</text>
</a>
</g>
</g>
<!-- manage_a_tenancy_service&#45;&gt;manage_a_tenancy_api -->
<g id="edge64" class="edge">
<title>manage_a_tenancy_service&#45;&gt;manage_a_tenancy_api:tbc</title>
<path fill="none" stroke="#000000" d="M1687.4693,-1854.1777C1597.5168,-1852.1634 1449.9492,-1849.3585 1320.5248,-1849.2174"/>
<polygon fill="#000000" stroke="#000000" points="1320.4497,-1845.7174 1310.4478,-1849.2118 1320.4458,-1852.7174 1320.4497,-1845.7174"/>
</g>
<!-- report_a_repair_service -->
<g id="node29" class="node">
<title>report_a_repair_service</title>
<g id="a_node29"><a xlink:href="/hackney-data-flows/systems/report_a_repair_service" xlink:title="Report a Repair Service">
<polygon fill="#ffffff" stroke="#000000" points="1696.0444,-1618.2118 1696.0444,-1654.2118 1846.1587,-1654.2118 1846.1587,-1618.2118 1696.0444,-1618.2118"/>
<text text-anchor="middle" x="1771.1016" y="-1632.0118" font-family="Times,serif" font-size="14.00" fill="#000000">Report a Repair Service</text>
</a>
</g>
</g>
<!-- report_a_repair_service&#45;&gt;repairs_api -->
<g id="edge65" class="edge">
<title>report_a_repair_service&#45;&gt;repairs_api:repair</title>
<path fill="none" stroke="#000000" d="M1729.7678,-1618.1693C1648.2107,-1584.229 1459.8593,-1514.0233 1291.4852,-1511.2938"/>
<polygon fill="#000000" stroke="#000000" points="1291.476,-1507.7937 1281.4478,-1511.2118 1291.4188,-1514.7935 1291.476,-1507.7937"/>
</g>
<!-- my_rent_account -->
<g id="node30" class="node">
<title>my_rent_account</title>
<g id="a_node30"><a xlink:href="/hackney-data-flows/systems/my_rent_account" xlink:title="My Rent Account">
<polygon fill="#ffffff" stroke="#000000" points="1713.3257,-1728.2118 1713.3257,-1764.2118 1828.8774,-1764.2118 1828.8774,-1728.2118 1713.3257,-1728.2118"/>
<text text-anchor="middle" x="1771.1016" y="-1742.0118" font-family="Times,serif" font-size="14.00" fill="#000000">My Rent Account</text>
</a>
</g>
</g>
<!-- my_rent_account&#45;&gt;ncc_api -->
<g id="edge67" class="edge">
<title>my_rent_account&#45;&gt;ncc_api:transactions</title>
<path fill="none" stroke="#000000" d="M1713.0179,-1757.2097C1625.0727,-1772.8996 1452.3971,-1799.9622 1301.7928,-1801.17"/>
<polygon fill="#000000" stroke="#000000" points="1301.4335,-1797.6713 1291.4478,-1801.2118 1301.4619,-1804.6713 1301.4335,-1797.6713"/>
</g>
<!-- my_rent_account&#45;&gt;rent_account_api -->
<g id="edge66" class="edge">
<title>my_rent_account&#45;&gt;rent_account_api:tbc</title>
<path fill="none" stroke="#000000" d="M1713.0307,-1743.1944C1625.5962,-1738.9125 1454.6079,-1731.5517 1306.6116,-1731.2232"/>
<polygon fill="#000000" stroke="#000000" points="1306.4517,-1727.7231 1296.4478,-1731.2118 1306.4438,-1734.7231 1306.4517,-1727.7231"/>
</g>
<!-- ncc_crm -->
<g id="node31" class="node">
<title>ncc_crm</title>
<g id="a_node31"><a xlink:href="/hackney-data-flows/systems/ncc_crm" xlink:title="NCC CRM">
<polygon fill="#ffffff" stroke="#000000" points="1731.3965,-1783.2118 1731.3965,-1819.2118 1810.8066,-1819.2118 1810.8066,-1783.2118 1731.3965,-1783.2118"/>
<text text-anchor="middle" x="1771.1016" y="-1797.0118" font-family="Times,serif" font-size="14.00" fill="#000000">NCC CRM</text>
</a>
</g>
</g>
<!-- ncc_crm&#45;&gt;manage_a_tenancy_api -->
<g id="edge70" class="edge">
<title>ncc_crm&#45;&gt;manage_a_tenancy_api:tbc</title>
<path fill="none" stroke="#000000" d="M1731.196,-1808.1914C1653.2114,-1821.2181 1474.7267,-1848.0279 1320.5656,-1849.1739"/>
<polygon fill="#000000" stroke="#000000" points="1320.4345,-1845.6743 1310.4478,-1849.2118 1320.4608,-1852.6742 1320.4345,-1845.6743"/>
</g>
<!-- ncc_crm&#45;&gt;ncc_api -->
<g id="edge69" class="edge">
<title>ncc_crm&#45;&gt;ncc_api:tbc</title>
<path fill="none" stroke="#000000" d="M1731.3331,-1798.1528C1650.8841,-1792.2318 1462.7597,-1779.7379 1301.5377,-1779.2279"/>
<polygon fill="#000000" stroke="#000000" points="1301.4534,-1775.7279 1291.4478,-1779.2118 1301.4421,-1782.7279 1301.4534,-1775.7279"/>
</g>
<!-- ncc_crm&#45;&gt;hackney_api -->
<g id="edge68" class="edge">
<title>ncc_crm&#45;&gt;hackney_api:crmlookups</title>
<path fill="none" stroke="#000000" d="M1731.3825,-1793.0152C1710.5814,-1788.3064 1684.8276,-1781.8179 1662.3447,-1774.2118 1503.7317,-1720.5525 1481.2779,-1625.222 1319.7772,-1621.3345"/>
<polygon fill="#000000" stroke="#000000" points="1319.4887,-1617.831 1309.4478,-1621.2118 1319.4054,-1624.8305 1319.4887,-1617.831"/>
</g>
<!-- income_collection_service -->
<g id="node32" class="node">
<title>income_collection_service</title>
<g id="a_node32"><a xlink:href="/hackney-data-flows/systems/income_collection_service" xlink:title="Income Collection Service">
<polygon fill="#ffffff" stroke="#000000" points="1688.46,-1893.2118 1688.46,-1929.2118 1853.7432,-1929.2118 1853.7432,-1893.2118 1688.46,-1893.2118"/>
<text text-anchor="middle" x="1771.1016" y="-1907.0118" font-family="Times,serif" font-size="14.00" fill="#000000">Income Collection Service</text>
</a>
</g>
</g>
<!-- income_collection_service&#45;&gt;income_api -->
<g id="edge71" class="edge">
<title>income_collection_service&#45;&gt;income_api:users</title>
<path fill="none" stroke="#000000" d="M1688.3823,-1919.6483C1596.4097,-1928.305 1443.0626,-1940.5945 1308.5125,-1941.1894"/>
<polygon fill="#000000" stroke="#000000" points="1308.4399,-1937.6894 1298.4478,-1941.2118 1308.4556,-1944.6894 1308.4399,-1937.6894"/>
</g>
<!-- income_collection_service&#45;&gt;income_api -->
<g id="edge72" class="edge">
<title>income_collection_service&#45;&gt;income_api:worktray</title>
<path fill="none" stroke="#000000" d="M1688.2887,-1913.4616C1596.2333,-1915.77 1442.811,-1919.0472 1308.4944,-1919.2058"/>
<polygon fill="#000000" stroke="#000000" points="1308.4456,-1915.7058 1298.4478,-1919.2118 1308.4499,-1922.7058 1308.4456,-1915.7058"/>
</g>
<!-- income_collection_service&#45;&gt;income_api -->
<g id="edge73" class="edge">
<title>income_collection_service&#45;&gt;income_api:action_diary</title>
<path fill="none" stroke="#000000" d="M1688.3035,-1907.2748C1596.2611,-1903.235 1442.8508,-1897.4999 1308.4973,-1897.2223"/>
<polygon fill="#000000" stroke="#000000" points="1308.4514,-1893.7224 1298.4478,-1897.2118 1308.4441,-1900.7224 1308.4514,-1893.7224"/>
</g>
<!-- income_collection_service&#45;&gt;tenancy_api -->
<g id="edge74" class="edge">
<title>income_collection_service&#45;&gt;tenancy_api:tenancies</title>
<path fill="none" stroke="#000000" d="M1693.2886,-1929.242C1682.7872,-1932.2563 1672.232,-1935.5938 1662.3447,-1939.2118 1502.9236,-1997.5478 1483.8326,-2067.3708 1318.3447,-2105.2118 1078.7378,-2160.0012 1011.29,-2054.1764 770.3741,-2051.2726"/>
<polygon fill="#000000" stroke="#000000" points="770.2757,-2047.772 760.2549,-2051.2118 770.2337,-2054.7719 770.2757,-2047.772"/>
</g>
<!-- income_collection_service&#45;&gt;tenancy_api -->
<g id="edge75" class="edge">
<title>income_collection_service&#45;&gt;tenancy_api:contacts</title>
<path fill="none" stroke="#000000" d="M1696.179,-1929.2721C1684.7814,-1932.3734 1673.2053,-1935.7275 1662.3447,-1939.2118 1506.2628,-1989.2874 1479.4819,-2042.1462 1318.3447,-2072.2118 1077.1337,-2117.218 1010.8344,-2031.6102 770.3563,-2029.261"/>
<polygon fill="#000000" stroke="#000000" points="770.2718,-2025.7606 760.2549,-2029.2118 770.2377,-2032.7605 770.2718,-2025.7606"/>
</g>
<!-- repairs_hub -->
<g id="node33" class="node">
<title>repairs_hub</title>
<g id="a_node33"><a xlink:href="/hackney-data-flows/systems/repairs_hub" xlink:title="Repairs Hub">
<polygon fill="#ffffff" stroke="#000000" points="1727.9136,-1673.2118 1727.9136,-1709.2118 1814.2896,-1709.2118 1814.2896,-1673.2118 1727.9136,-1673.2118"/>
<text text-anchor="middle" x="1771.1016" y="-1687.0118" font-family="Times,serif" font-size="14.00" fill="#000000">Repairs Hub</text>
</a>
</g>
</g>
<!-- repairs_hub&#45;&gt;repairs_api -->
<g id="edge76" class="edge">
<title>repairs_hub&#45;&gt;repairs_api:repair</title>
<path fill="none" stroke="#000000" d="M1727.8413,-1681.9249C1707.7418,-1677.2407 1683.6329,-1671.0932 1662.3447,-1664.2118 1492.0601,-1609.1673 1464.8833,-1514.8871 1291.7007,-1511.3163"/>
<polygon fill="#000000" stroke="#000000" points="1291.4829,-1507.814 1281.4478,-1511.2118 1291.4115,-1514.8136 1291.4829,-1507.814"/>
</g>
</g>
</svg>
