<?xml version="1.0" encoding="UTF-8" standalone="no"?>
<!DOCTYPE svg PUBLIC "-//W3C//DTD SVG 1.1//EN"
 "http://www.w3.org/Graphics/SVG/1.1/DTD/svg11.dtd">
<!-- Generated by graphviz version 2.40.1 (20161225.0304)
 -->
<!-- Title: G Pages: 1 -->
<svg width="1269pt" height="197pt"
 viewBox="0.00 0.00 1268.66 197.00" xmlns="http://www.w3.org/2000/svg" xmlns:xlink="http://www.w3.org/1999/xlink">
<g id="graph0" class="graph" transform="scale(1 1) rotate(0) translate(36 161)">
<title>G</title>
<polygon fill="#ffffff" stroke="transparent" points="-36,36 -36,-161 1232.6631,-161 1232.6631,36 -36,36"/>
<g id="clust1" class="cluster">
<title>cluster_dependency</title>
<polygon fill="none" stroke="#000000" points="8,-35 8,-89 185.8486,-89 185.8486,-35 8,-35"/>
</g>
<g id="clust2" class="cluster">
<title>cluster_services</title>
<polygon fill="none" stroke="#000000" points="1022.5488,-8 1022.5488,-117 1188.6631,-117 1188.6631,-8 1022.5488,-8"/>
</g>
<g id="clust3" class="cluster">
<title>cluster_apis</title>
<polygon fill="none" stroke="#000000" points="529.8486,-35 529.8486,-89 678.5488,-89 678.5488,-35 529.8486,-35"/>
</g>
<!-- base_data_service -->
<g id="node1" class="node">
<title>base_data_service</title>
<polygon fill="none" stroke="#000000" points="16,-44 16,-80 177.8486,-80 177.8486,-44 16,-44"/>
<text text-anchor="middle" x="75.3105" y="-57.8" font-family="Times,serif" font-size="14.00" fill="#000000">Base Data Service</text>
<polyline fill="none" stroke="#000000" points="134.6211,-44 134.6211,-80 "/>
<text text-anchor="middle" x="156.2349" y="-57.8" font-family="Times,serif" font-size="14.00" fill="#000000">TBC</text>
</g>
<!-- report_a_repair_service -->
<g id="node2" class="node">
<title>report_a_repair_service</title>
<polygon fill="none" stroke="#000000" points="1030.5488,-72 1030.5488,-108 1180.6631,-108 1180.6631,-72 1030.5488,-72"/>
<text text-anchor="middle" x="1105.606" y="-85.8" font-family="Times,serif" font-size="14.00" fill="#000000">Report a Repair Service</text>
</g>
<!-- repairs_api -->
<g id="node4" class="node">
<title>repairs_api</title>
<polygon fill="none" stroke="#000000" points="537.8486,-44 537.8486,-80 670.5488,-80 670.5488,-44 537.8486,-44"/>
<text text-anchor="middle" x="579.8779" y="-57.8" font-family="Times,serif" font-size="14.00" fill="#000000">Repairs API</text>
<polyline fill="none" stroke="#000000" points="621.9072,-44 621.9072,-80 "/>
<text text-anchor="middle" x="646.228" y="-57.8" font-family="Times,serif" font-size="14.00" fill="#000000">repair</text>
</g>
<!-- report_a_repair_service&#45;&gt;repairs_api -->
<g id="edge1" class="edge">
<title>report_a_repair_service&#45;&gt;repairs_api:repair</title>
<path fill="none" stroke="#000000" d="M1030.1885,-82.2004C945.7306,-74.1339 804.3942,-62.6258 680.2457,-62.0246"/>
<polygon fill="#000000" stroke="#000000" points="680.2073,-58.5246 670.1987,-62 680.1901,-65.5245 680.2073,-58.5246"/>
</g>
<!-- repairs_hub -->
<g id="node3" class="node">
<title>repairs_hub</title>
<polygon fill="none" stroke="#000000" points="1062.418,-17 1062.418,-53 1148.7939,-53 1148.7939,-17 1062.418,-17"/>
<text text-anchor="middle" x="1105.606" y="-30.8" font-family="Times,serif" font-size="14.00" fill="#000000">Repairs Hub</text>
</g>
<!-- repairs_hub&#45;&gt;repairs_api -->
<g id="edge2" class="edge">
<title>repairs_hub&#45;&gt;repairs_api:repair</title>
<path fill="none" stroke="#000000" d="M1062.4012,-39.4585C986.0697,-46.9475 822.0233,-61.3068 680.3584,-61.9758"/>
<polygon fill="#000000" stroke="#000000" points="680.1903,-58.4761 670.1987,-62 680.2071,-65.476 680.1903,-58.4761"/>
</g>
<!-- repairs_api&#45;&gt;base_data_service -->
<g id="edge3" class="edge">
<title>repairs_api&#45;&gt;base_data_service:tbc</title>
<path fill="none" stroke="#000000" d="M537.7462,-62C456.0968,-62 313.0096,-62 188.0362,-62"/>
<polygon fill="#000000" stroke="#000000" points="187.9244,-58.5001 177.9243,-62 187.9243,-65.5001 187.9244,-58.5001"/>
</g>
</g>
</svg>
